<?xml version="1.0" encoding="UTF-8"?>
<!DOCTYPE svg PUBLIC "-//W3C//DTD SVG 1.1//EN" "http://www.w3.org/Graphics/SVG/1.1/DTD/svg11.dtd">
<svg xmlns="http://www.w3.org/2000/svg" version="1.1" width="512px" height="512px" style="shape-rendering:geometricPrecision; text-rendering:geometricPrecision; image-rendering:optimizeQuality; fill-rule:evenodd; clip-rule:evenodd" xmlns:xlink="http://www.w3.org/1999/xlink">
<g><path style="opacity:0.984" fill="#010000" d="M 511.5,25.5 C 511.5,30.1667 511.5,34.8333 511.5,39.5C 509.652,44.6742 506.652,49.1742 502.5,53C 478.833,70.6667 455.167,88.3333 431.5,106C 427.5,108 423.5,108 419.5,106C 417.018,102.193 414.184,98.6935 411,95.5C 404.396,99.7663 398.063,104.433 392,109.5C 391.333,110.833 390.667,112.167 390,113.5C 389.932,124.572 389.265,135.572 388,146.5C 385.646,151.858 382.146,156.358 377.5,160C 371.947,163.936 366.613,168.103 361.5,172.5C 374.089,190.011 386.923,207.345 400,224.5C 402.477,229.034 403.31,233.701 402.5,238.5C 409.241,238.171 415.908,238.671 422.5,240C 424.049,241.214 425.215,242.714 426,244.5C 426.5,271.165 426.667,297.831 426.5,324.5C 448.258,324.022 469.925,324.522 491.5,326C 492.701,326.903 493.535,328.069 494,329.5C 494.667,360.5 494.667,391.5 494,422.5C 493.535,423.931 492.701,425.097 491.5,426C 469.925,427.478 448.258,427.978 426.5,427.5C 426.667,454.169 426.5,480.835 426,507.5C 425.338,508.984 424.504,510.317 423.5,511.5C 283.167,511.5 142.833,511.5 2.5,511.5C 1.83333,510.167 0.833333,509.167 -0.5,508.5C -0.5,477.167 -0.5,445.833 -0.5,414.5C 0.745833,412.099 2.74583,410.599 5.5,410C 26.164,409.5 46.8306,409.333 67.5,409.5C 67.5,387.167 67.5,364.833 67.5,342.5C 46.8306,342.667 26.164,342.5 5.5,342C 2.85408,341.196 0.854084,339.696 -0.5,337.5C -0.5,306.167 -0.5,274.833 -0.5,243.5C 1.55577,240.951 4.22244,239.451 7.5,239C 74.5025,238.833 141.502,238.333 208.5,237.5C 232,193.833 255.5,150.167 279,106.5C 287.883,97.3283 297.717,96.1617 308.5,103C 322.455,121.077 336.288,139.243 350,157.5C 355.167,153.667 360.333,149.833 365.5,146C 367.709,144.127 369.542,141.96 371,139.5C 371.333,129.5 371.667,119.5 372,109.5C 373.685,103.959 376.518,99.1257 380.5,95C 387.167,90 393.833,85 400.5,80C 394.754,75.0172 391.92,68.8505 392,61.5C 392.956,60.4214 393.789,59.2547 394.5,58C 417.45,41.3847 440.116,24.3847 462.5,7C 472.851,-0.446952 483.851,-1.44695 495.5,4C 502.425,10.0333 507.759,17.2 511.5,25.5 Z"/></g>
<g><path style="opacity:1" fill="#fa9500" d="M 477.5,17.5 C 481.516,16.8999 485.016,17.8999 488,20.5C 490.248,23.328 492.248,26.328 494,29.5C 494.755,32.3033 494.422,34.9699 493,37.5C 472.256,53.4547 451.423,69.288 430.5,85C 429.241,85.9819 427.908,86.3152 426.5,86C 422.219,79.3854 417.553,73.0521 412.5,67C 434.351,50.6365 456.018,34.1365 477.5,17.5 Z"/></g>
<g><path style="opacity:1" fill="#535b5f" d="M 317.5,182.5 C 307.597,168.382 297.43,154.382 287,140.5C 285.871,138.859 284.371,137.859 282.5,137.5C 286.242,131.018 289.742,124.351 293,117.5C 294.667,116.167 296.333,116.167 298,117.5C 310.5,134.5 323,151.5 335.5,168.5C 329.792,173.542 323.792,178.209 317.5,182.5 Z"/></g>
<g><path style="opacity:1" fill="#7e8d93" d="M 282.5,137.5 C 284.371,137.859 285.871,138.859 287,140.5C 297.43,154.382 307.597,168.382 317.5,182.5C 311.21,186.95 305.043,191.617 299,196.5C 296.017,205.5 299.184,210 308.5,210C 314.99,205.669 321.324,201.169 327.5,196.5C 329.193,197.475 330.693,198.808 332,200.5C 340.615,212.783 349.615,224.783 359,236.5C 360.122,238.407 360.955,240.407 361.5,242.5C 312.701,252.893 263.868,263.227 215,273.5C 213.893,273.415 212.893,273.081 212,272.5C 211.448,269.581 212.115,266.914 214,264.5C 236.846,222.14 259.679,179.806 282.5,137.5 Z"/></g>
<g><path style="opacity:1" fill="#535b5f" d="M 361.5,242.5 C 360.955,240.407 360.122,238.407 359,236.5C 349.615,224.783 340.615,212.783 332,200.5C 330.693,198.808 329.193,197.475 327.5,196.5C 333.766,192.081 339.933,187.414 346,182.5C 359,199.5 372,216.5 385,233.5C 385.865,235.888 385.032,237.388 382.5,238C 375.384,239.074 368.384,240.574 361.5,242.5 Z"/></g>
<g><path style="opacity:1" fill="#9f512c" d="M 16.5,256.5 C 56.1667,256.5 95.8333,256.5 135.5,256.5C 135.5,279.167 135.5,301.833 135.5,324.5C 95.8333,324.5 56.1667,324.5 16.5,324.5C 16.5,313.167 16.5,301.833 16.5,290.5C 23.175,290.666 29.8417,290.5 36.5,290C 42.1217,287.265 43.6217,283.099 41,277.5C 39.6811,275.513 37.8477,274.346 35.5,274C 29.1754,273.5 22.8421,273.334 16.5,273.5C 16.5,267.833 16.5,262.167 16.5,256.5 Z"/></g>
<g><path style="opacity:1" fill="#90552c" d="M 153.5,256.5 C 168.515,256.167 183.515,256.501 198.5,257.5C 190.482,271.899 193.815,282.732 208.5,290C 213.88,290.596 219.213,290.262 224.5,289C 240.338,285.366 256.172,281.866 272,278.5C 272.5,293.83 272.667,309.163 272.5,324.5C 232.833,324.5 193.167,324.5 153.5,324.5C 153.5,301.833 153.5,279.167 153.5,256.5 Z"/></g>
<g><path style="opacity:1" fill="#9e512c" d="M 392.5,256.5 C 392.5,279.167 392.5,301.833 392.5,324.5C 358.167,324.5 323.833,324.5 289.5,324.5C 289.5,307.833 289.5,291.167 289.5,274.5C 317.553,268.987 345.553,263.154 373.5,257C 379.825,256.5 386.158,256.334 392.5,256.5 Z"/></g>
<g><path style="opacity:1" fill="#753c21" d="M 392.5,256.5 C 398.167,256.5 403.833,256.5 409.5,256.5C 409.5,279.167 409.5,301.833 409.5,324.5C 403.833,324.5 398.167,324.5 392.5,324.5C 392.5,301.833 392.5,279.167 392.5,256.5 Z"/></g>
<g><path style="opacity:1" fill="#020000" d="M 64.5,273.5 C 77.8375,273.333 91.1708,273.5 104.5,274C 112.35,279.288 112.35,284.621 104.5,290C 91.1667,290.667 77.8333,290.667 64.5,290C 59.391,286.634 58.2243,282.134 61,276.5C 62.5185,275.837 63.6851,274.837 64.5,273.5 Z"/></g>
<g><path style="opacity:1" fill="#542b17" d="M 84.5,341.5 C 124.5,341.5 164.5,341.5 204.5,341.5C 204.5,364.5 204.5,387.5 204.5,410.5C 164.5,410.5 124.5,410.5 84.5,410.5C 84.5,387.5 84.5,364.5 84.5,341.5 Z"/></g>
<g><path style="opacity:1" fill="#9f522c" d="M 85.5,342.5 C 124.833,342.5 164.167,342.5 203.5,342.5C 203.5,364.833 203.5,387.167 203.5,409.5C 164.167,409.5 124.833,409.5 85.5,409.5C 85.5,387.167 85.5,364.833 85.5,342.5 Z"/></g>
<g><path style="opacity:1" fill="#815a2b" d="M 221.5,342.5 C 261.167,342.5 300.833,342.5 340.5,342.5C 340.5,364.833 340.5,387.167 340.5,409.5C 300.833,409.5 261.167,409.5 221.5,409.5C 221.5,387.167 221.5,364.833 221.5,342.5 Z"/></g>
<g><path style="opacity:1" fill="#9f512c" d="M 358.5,342.5 C 392.5,342.5 426.5,342.5 460.5,342.5C 460.5,364.833 460.5,387.167 460.5,409.5C 426.5,409.5 392.5,409.5 358.5,409.5C 358.5,387.167 358.5,364.833 358.5,342.5 Z"/></g>
<g><path style="opacity:1" fill="#773e21" d="M 460.5,342.5 C 465.833,342.5 471.167,342.5 476.5,342.5C 476.5,364.833 476.5,387.167 476.5,409.5C 471.167,409.5 465.833,409.5 460.5,409.5C 460.5,387.167 460.5,364.833 460.5,342.5 Z"/></g>
<g><path style="opacity:1" fill="#5c2f1a" d="M 358.5,342.5 C 397.996,341.501 437.663,341.168 477.5,341.5C 477.5,364.5 477.5,387.5 477.5,410.5C 437.663,410.832 397.996,410.499 358.5,409.5C 392.5,409.5 426.5,409.5 460.5,409.5C 465.833,409.5 471.167,409.5 476.5,409.5C 476.5,387.167 476.5,364.833 476.5,342.5C 471.167,342.5 465.833,342.5 460.5,342.5C 426.5,342.5 392.5,342.5 358.5,342.5 Z"/></g>
<g><path style="opacity:1" fill="#9f512c" d="M 16.5,427.5 C 56.1667,427.5 95.8333,427.5 135.5,427.5C 135.5,450.167 135.5,472.833 135.5,495.5C 95.8333,495.5 56.1667,495.5 16.5,495.5C 16.5,472.833 16.5,450.167 16.5,427.5 Z"/></g>
<g><path style="opacity:1" fill="#90552c" d="M 153.5,427.5 C 193.167,427.5 232.833,427.5 272.5,427.5C 272.5,450.167 272.5,472.833 272.5,495.5C 232.833,495.5 193.167,495.5 153.5,495.5C 153.5,472.833 153.5,450.167 153.5,427.5 Z"/></g>
<g><path style="opacity:1" fill="#9f512c" d="M 392.5,427.5 C 392.5,450.167 392.5,472.833 392.5,495.5C 358.167,495.5 323.833,495.5 289.5,495.5C 289.5,472.833 289.5,450.167 289.5,427.5C 323.833,427.5 358.167,427.5 392.5,427.5 Z"/></g>
<g><path style="opacity:1" fill="#753c21" d="M 392.5,427.5 C 398.167,427.5 403.833,427.5 409.5,427.5C 409.5,450.167 409.5,472.833 409.5,495.5C 403.833,495.5 398.167,495.5 392.5,495.5C 392.5,472.833 392.5,450.167 392.5,427.5 Z"/></g>
</svg>
