<?xml version="1.0" encoding="UTF-8"?>
<!DOCTYPE svg PUBLIC "-//W3C//DTD SVG 1.1//EN" "http://www.w3.org/Graphics/SVG/1.1/DTD/svg11.dtd">
<svg xmlns="http://www.w3.org/2000/svg" version="1.1" width="512px" height="512px" style="shape-rendering:geometricPrecision; text-rendering:geometricPrecision; image-rendering:optimizeQuality; fill-rule:evenodd; clip-rule:evenodd" xmlns:xlink="http://www.w3.org/1999/xlink">
<g><path style="opacity:0.974" fill="#656565" d="M 375.5,23.5 C 372.422,29.9913 369.088,36.3246 365.5,42.5C 306.14,54.4721 246.806,66.6388 187.5,79C 240.832,79.5 294.166,79.6667 347.5,79.5C 346.167,82.1667 344.833,84.8333 343.5,87.5C 343.5,92.1667 343.5,96.8333 343.5,101.5C 336.032,109.808 328.698,118.308 321.5,127C 328.826,127.5 336.159,127.666 343.5,127.5C 343.5,132.833 343.5,138.167 343.5,143.5C 314.167,143.5 284.833,143.5 255.5,143.5C 255.5,154.833 255.5,166.167 255.5,177.5C 250.139,174.902 244.805,174.902 239.5,177.5C 239.5,166.167 239.5,154.833 239.5,143.5C 179.499,143.667 119.499,143.5 59.5,143C 57.6667,142.5 56.5,141.333 56,139.5C 55.1834,136.036 55.5167,132.702 57,129.5C 70.5,113.333 84,97.1667 97.5,81C 189.931,60.7471 282.598,41.5804 375.5,23.5 Z M 121.5,96.5 C 135.994,95.3391 150.661,95.1724 165.5,96C 158.324,104.673 150.991,113.173 143.5,121.5C 136.144,113.147 128.811,104.814 121.5,96.5 Z M 201.5,96.5 C 215.994,95.3391 230.661,95.1724 245.5,96C 238.324,104.673 230.991,113.173 223.5,121.5C 216.144,113.147 208.811,104.814 201.5,96.5 Z M 281.5,96.5 C 295.994,95.3391 310.661,95.1724 325.5,96C 318.324,104.673 310.991,113.173 303.5,121.5C 296.144,113.147 288.811,104.814 281.5,96.5 Z M 102.5,101.5 C 103.496,101.414 104.329,101.748 105,102.5C 111.714,110.759 118.548,118.926 125.5,127C 110.833,127.667 96.1667,127.667 81.5,127C 88.712,118.626 95.712,110.126 102.5,101.5 Z M 182.5,101.5 C 183.496,101.414 184.329,101.748 185,102.5C 191.714,110.759 198.548,118.926 205.5,127C 190.833,127.667 176.167,127.667 161.5,127C 168.712,118.626 175.712,110.126 182.5,101.5 Z M 262.5,101.5 C 263.496,101.414 264.329,101.748 265,102.5C 271.714,110.759 278.548,118.926 285.5,127C 270.833,127.667 256.167,127.667 241.5,127C 248.712,118.626 255.712,110.126 262.5,101.5 Z"/></g>
<g><path style="opacity:1" fill="#bcd6da" d="M 375.5,23.5 C 391.5,23.5 407.5,23.5 423.5,23.5C 423.5,29.8333 423.5,36.1667 423.5,42.5C 423.5,57.5 423.5,72.5 423.5,87.5C 396.833,87.5 370.167,87.5 343.5,87.5C 344.833,84.8333 346.167,82.1667 347.5,79.5C 353.23,67.0397 359.23,54.7064 365.5,42.5C 369.088,36.3246 372.422,29.9913 375.5,23.5 Z"/></g>
<g><path style="opacity:0.946" fill="#656565" d="M 423.5,23.5 C 425.655,23.372 427.655,23.872 429.5,25C 453.667,43.8333 477.833,62.6667 502,81.5C 503.128,83.3453 503.628,85.3453 503.5,87.5C 495.833,87.5 488.167,87.5 480.5,87.5C 461.812,72.1496 442.812,57.1496 423.5,42.5C 423.5,36.1667 423.5,29.8333 423.5,23.5 Z"/></g>
<g><path style="opacity:1" fill="#f6a538" d="M 343.5,87.5 C 370.167,87.5 396.833,87.5 423.5,87.5C 423.5,106.167 423.5,124.833 423.5,143.5C 415.833,143.5 408.167,143.5 400.5,143.5C 392.167,143.5 383.833,143.5 375.5,143.5C 370.167,143.5 364.833,143.5 359.5,143.5C 354.167,143.5 348.833,143.5 343.5,143.5C 343.5,138.167 343.5,132.833 343.5,127.5C 343.5,118.833 343.5,110.167 343.5,101.5C 343.5,96.8333 343.5,92.1667 343.5,87.5 Z"/></g>
<g><path style="opacity:1" fill="#989898" d="M 423.5,87.5 C 442.5,87.5 461.5,87.5 480.5,87.5C 488.167,87.5 495.833,87.5 503.5,87.5C 503.5,95.5 503.5,103.5 503.5,111.5C 489.952,115.461 476.618,119.795 463.5,124.5C 452.833,129.5 442.167,134.5 431.5,139.5C 428.833,140.833 426.167,142.167 423.5,143.5C 423.5,124.833 423.5,106.167 423.5,87.5 Z"/></g>
<g><path style="opacity:1" fill="#f6a439" d="M 503.5,111.5 C 503.5,130.167 503.5,148.833 503.5,167.5C 490.167,167.5 476.833,167.5 463.5,167.5C 463.5,153.167 463.5,138.833 463.5,124.5C 476.618,119.795 489.952,115.461 503.5,111.5 Z"/></g>
<g><path style="opacity:0.978" fill="#656565" d="M 431.5,139.5 C 431.5,236.833 431.5,334.167 431.5,431.5C 426.167,431.5 420.833,431.5 415.5,431.5C 415.666,421.828 415.5,412.161 415,402.5C 403.346,411.658 392.179,421.325 381.5,431.5C 374.167,431.5 366.833,431.5 359.5,431.5C 359.5,335.5 359.5,239.5 359.5,143.5C 364.833,143.5 370.167,143.5 375.5,143.5C 375.334,150.508 375.5,157.508 376,164.5C 384.359,157.635 392.525,150.635 400.5,143.5C 408.167,143.5 415.833,143.5 423.5,143.5C 426.167,142.167 428.833,140.833 431.5,139.5 Z M 375.5,143.5 C 383.833,143.5 392.167,143.5 400.5,143.5C 392.525,150.635 384.359,157.635 376,164.5C 375.5,157.508 375.334,150.508 375.5,143.5 Z M 414.5,154.5 C 415.827,171.671 415.827,189.005 414.5,206.5C 403.639,198.473 392.639,190.639 381.5,183C 392.397,173.261 403.397,163.761 414.5,154.5 Z M 375.5,200.5 C 386.712,207.374 397.378,215.04 407.5,223.5C 397.472,231.521 387.139,239.187 376.5,246.5C 375.501,231.181 375.167,215.848 375.5,200.5 Z M 413.5,240.5 C 414.831,247.803 415.498,255.47 415.5,263.5C 415.167,271.167 414.833,278.833 414.5,286.5C 403.861,279.187 393.528,271.521 383.5,263.5C 393.519,255.809 403.519,248.143 413.5,240.5 Z M 375.5,280.5 C 386.712,287.374 397.378,295.04 407.5,303.5C 397.472,311.521 387.139,319.187 376.5,326.5C 375.501,311.181 375.167,295.848 375.5,280.5 Z M 413.5,320.5 C 414.831,327.803 415.498,335.47 415.5,343.5C 415.167,351.167 414.833,358.833 414.5,366.5C 403.861,359.187 393.528,351.521 383.5,343.5C 393.519,335.809 403.519,328.143 413.5,320.5 Z M 375.5,360.5 C 386.935,368.088 398.268,375.921 409.5,384C 398.627,393.875 387.461,403.375 376,412.5C 375.5,395.17 375.333,377.837 375.5,360.5 Z M 415.5,431.5 C 404.167,431.5 392.833,431.5 381.5,431.5C 392.179,421.325 403.346,411.658 415,402.5C 415.5,412.161 415.666,421.828 415.5,431.5 Z"/></g>
<g><path style="opacity:1" fill="#f2a33a" d="M 255.5,177.5 C 261.233,180.287 263.9,184.954 263.5,191.5C 263.906,197.018 261.906,201.351 257.5,204.5C 250.788,208.344 244.121,208.344 237.5,204.5C 233.094,201.351 231.094,197.018 231.5,191.5C 231.1,184.954 233.767,180.287 239.5,177.5C 244.805,174.902 250.139,174.902 255.5,177.5 Z"/></g>
<g><path style="opacity:1" fill="#989998" d="M 87.5,271.5 C 76.8333,271.5 66.1667,271.5 55.5,271.5C 55.5,242.167 55.5,212.833 55.5,183.5C 66.1667,183.5 76.8333,183.5 87.5,183.5C 87.5,212.833 87.5,242.167 87.5,271.5 Z"/></g>
<g><path style="opacity:1" fill="#999999" d="M 159.5,326.5 C 148.596,308.366 137.929,290.033 127.5,271.5C 127.5,242.167 127.5,212.833 127.5,183.5C 138.167,183.5 148.833,183.5 159.5,183.5C 159.5,231.167 159.5,278.833 159.5,326.5 Z"/></g>
<g><path style="opacity:0.944" fill="#656565" d="M 237.5,204.5 C 244.121,208.344 250.788,208.344 257.5,204.5C 275.487,219.987 293.321,235.654 311,251.5C 311.49,252.793 311.657,254.127 311.5,255.5C 304.167,255.5 296.833,255.5 289.5,255.5C 275.839,243.178 261.839,231.178 247.5,219.5C 233.161,231.178 219.161,243.178 205.5,255.5C 198.167,255.5 190.833,255.5 183.5,255.5C 183.253,252.495 184.253,249.995 186.5,248C 203.692,233.635 220.692,219.135 237.5,204.5 Z M 289.5,255.5 C 261.5,255.5 233.5,255.5 205.5,255.5C 219.161,243.178 233.161,231.178 247.5,219.5C 261.839,231.178 275.839,243.178 289.5,255.5 Z"/></g>
<g><path style="opacity:1" fill="#989998" d="M 183.5,255.5 C 190.833,255.5 198.167,255.5 205.5,255.5C 233.5,255.5 261.5,255.5 289.5,255.5C 296.833,255.5 304.167,255.5 311.5,255.5C 311.5,266.167 311.5,276.833 311.5,287.5C 268.833,287.5 226.167,287.5 183.5,287.5C 183.5,276.833 183.5,266.167 183.5,255.5 Z"/></g>
<g><path style="opacity:1" fill="#cbcbcb" d="M 55.5,271.5 C 66.1667,271.5 76.8333,271.5 87.5,271.5C 100.833,271.5 114.167,271.5 127.5,271.5C 137.929,290.033 148.596,308.366 159.5,326.5C 201.997,327.499 244.663,327.832 287.5,327.5C 287.5,372.833 287.5,418.167 287.5,463.5C 260.833,463.5 234.167,463.5 207.5,463.5C 207.5,442.167 207.5,420.833 207.5,399.5C 175.5,399.5 143.5,399.5 111.5,399.5C 111.5,420.833 111.5,442.167 111.5,463.5C 84.8333,463.5 58.1667,463.5 31.5,463.5C 31.5,399.5 31.5,335.5 31.5,271.5C 39.5,271.5 47.5,271.5 55.5,271.5 Z"/></g>
<g><path style="opacity:1" fill="#676767" d="M 68.5,311.5 C 80.8378,311.333 93.1712,311.5 105.5,312C 110.599,313.695 112.432,317.195 111,322.5C 110.065,325.102 108.232,326.602 105.5,327C 93.1667,327.667 80.8333,327.667 68.5,327C 63.4648,323.987 62.2981,319.82 65,314.5C 66.1451,313.364 67.3117,312.364 68.5,311.5 Z"/></g>
<g><path style="opacity:1" fill="#666666" d="M 68.5,351.5 C 91.5024,351.333 114.502,351.5 137.5,352C 143.448,354.433 144.948,358.6 142,364.5C 140.829,365.893 139.329,366.727 137.5,367C 114.5,367.667 91.5,367.667 68.5,367C 63.4648,363.987 62.2981,359.82 65,354.5C 66.1451,353.364 67.3117,352.364 68.5,351.5 Z"/></g>
<g><path style="opacity:1" fill="#666666" d="M 180.5,351.5 C 203.502,351.333 226.502,351.5 249.5,352C 255.448,354.433 256.948,358.6 254,364.5C 252.829,365.893 251.329,366.727 249.5,367C 226.5,367.667 203.5,367.667 180.5,367C 175.465,363.987 174.298,359.82 177,354.5C 178.145,353.364 179.312,352.364 180.5,351.5 Z"/></g>
<g><path style="opacity:1" fill="#989998" d="M 207.5,463.5 C 175.5,463.5 143.5,463.5 111.5,463.5C 111.5,442.167 111.5,420.833 111.5,399.5C 143.5,399.5 175.5,399.5 207.5,399.5C 207.5,420.833 207.5,442.167 207.5,463.5 Z"/></g>
<g><path style="opacity:1" fill="#f6a538" d="M 359.5,431.5 C 366.833,431.5 374.167,431.5 381.5,431.5C 392.833,431.5 404.167,431.5 415.5,431.5C 420.833,431.5 426.167,431.5 431.5,431.5C 436.833,431.5 442.167,431.5 447.5,431.5C 447.5,442.167 447.5,452.833 447.5,463.5C 410.167,463.5 372.833,463.5 335.5,463.5C 335.5,452.833 335.5,442.167 335.5,431.5C 343.5,431.5 351.5,431.5 359.5,431.5 Z"/></g>
<g><path style="opacity:1" fill="#656665" d="M 31.5,463.5 C 58.1667,463.5 84.8333,463.5 111.5,463.5C 143.5,463.5 175.5,463.5 207.5,463.5C 234.167,463.5 260.833,463.5 287.5,463.5C 303.5,463.5 319.5,463.5 335.5,463.5C 372.833,463.5 410.167,463.5 447.5,463.5C 466.167,463.5 484.833,463.5 503.5,463.5C 503.5,476.833 503.5,490.167 503.5,503.5C 338.167,503.5 172.833,503.5 7.5,503.5C 7.5,490.167 7.5,476.833 7.5,463.5C 15.5,463.5 23.5,463.5 31.5,463.5 Z"/></g>
</svg>
