<?xml version="1.0" encoding="UTF-8"?>
<!DOCTYPE svg PUBLIC "-//W3C//DTD SVG 1.1//EN" "http://www.w3.org/Graphics/SVG/1.1/DTD/svg11.dtd">
<svg xmlns="http://www.w3.org/2000/svg" version="1.1" width="512px" height="512px" style="shape-rendering:geometricPrecision; text-rendering:geometricPrecision; image-rendering:optimizeQuality; fill-rule:evenodd; clip-rule:evenodd" xmlns:xlink="http://www.w3.org/1999/xlink">
<g><path style="opacity:0.994" fill="#2e2d31" d="M 211.5,-0.5 C 214.167,-0.5 216.833,-0.5 219.5,-0.5C 221.521,1.03244 223.021,3.03244 224,5.5C 224.5,14.8274 224.666,24.1607 224.5,33.5C 238.573,33.0528 252.573,33.5528 266.5,35C 268.487,36.3189 269.654,38.1523 270,40.5C 270.5,53.4957 270.667,66.4957 270.5,79.5C 275.833,79.5 281.167,79.5 286.5,79.5C 286.333,66.4957 286.5,53.4957 287,40.5C 287.833,37 290,34.8333 293.5,34C 348.833,33.3333 404.167,33.3333 459.5,34C 462.057,34.6853 463.891,36.1853 465,38.5C 465.5,190.166 465.667,341.833 465.5,493.5C 471.925,493.13 478.258,493.63 484.5,495C 489.797,500.499 489.797,505.999 484.5,511.5C 331.833,511.5 179.167,511.5 26.5,511.5C 21.2035,505.999 21.2035,500.499 26.5,495C 32.7416,493.63 39.0749,493.13 45.5,493.5C 45.3333,383.833 45.5,274.166 46,164.5C 47.214,162.951 48.714,161.785 50.5,161C 75.4978,160.5 100.498,160.333 125.5,160.5C 125.028,134.769 125.528,109.102 127,83.5C 128.319,81.5125 130.152,80.3459 132.5,80C 141.827,79.5002 151.161,79.3335 160.5,79.5C 160.333,65.8293 160.5,52.1626 161,38.5C 162.227,36.2739 164.061,34.7739 166.5,34C 179.829,33.5001 193.163,33.3334 206.5,33.5C 206.334,23.8276 206.5,14.1609 207,4.5C 208.025,2.31305 209.525,0.646381 211.5,-0.5 Z"/></g>
<g><path style="opacity:1" fill="#cbcccd" d="M 178.5,51.5 C 203.167,51.5 227.833,51.5 252.5,51.5C 252.5,60.8333 252.5,70.1667 252.5,79.5C 227.833,79.5 203.167,79.5 178.5,79.5C 178.5,70.1667 178.5,60.8333 178.5,51.5 Z"/></g>
<g><path style="opacity:1" fill="#aba9af" d="M 447.5,51.5 C 447.5,198.833 447.5,346.167 447.5,493.5C 426.833,493.5 406.167,493.5 385.5,493.5C 385.833,415.665 385.499,337.998 384.5,260.5C 383.215,254.523 379.548,252.023 373.5,253C 368.74,255.353 366.74,259.186 367.5,264.5C 361.833,264.5 356.167,264.5 350.5,264.5C 350.865,256.031 346.865,252.198 338.5,253C 335.692,254.793 334.026,257.293 333.5,260.5C 332.596,261.209 332.263,262.209 332.5,263.5C 323.167,263.5 313.833,263.5 304.5,263.5C 304.5,192.833 304.5,122.167 304.5,51.5C 352.167,51.5 399.833,51.5 447.5,51.5 Z"/></g>
<g><path style="opacity:1" fill="#838287" d="M 447.5,51.5 C 448.5,198.999 448.833,346.666 448.5,494.5C 427.167,494.5 405.833,494.5 384.5,494.5C 384.5,416.5 384.5,338.5 384.5,260.5C 385.499,337.998 385.833,415.665 385.5,493.5C 406.167,493.5 426.833,493.5 447.5,493.5C 447.5,346.167 447.5,198.833 447.5,51.5 Z"/></g>
<g><path style="opacity:1" fill="#858487" d="M 178.5,51.5 C 178.5,60.8333 178.5,70.1667 178.5,79.5C 203.167,79.5 227.833,79.5 252.5,79.5C 227.672,80.4977 202.672,80.831 177.5,80.5C 177.173,70.6522 177.506,60.9856 178.5,51.5 Z"/></g>
<g><path style="opacity:1" fill="#302e33" d="M 337.5,80.5 C 342.946,79.3394 347.113,81.0061 350,85.5C 350.991,92.3138 350.491,98.9804 348.5,105.5C 345.722,108.307 342.389,109.14 338.5,108C 336.333,107.167 334.833,105.667 334,103.5C 333.333,97.1667 333.333,90.8333 334,84.5C 335.376,83.2949 336.542,81.9616 337.5,80.5 Z"/></g>
<g><path style="opacity:1" fill="#302f33" d="M 372.5,80.5 C 377.223,79.5531 381.056,80.8864 384,84.5C 384.667,90.8333 384.667,97.1667 384,103.5C 381.459,108.069 377.625,109.569 372.5,108C 370.19,106.363 368.69,104.196 368,101.5C 367.333,96.1667 367.333,90.8333 368,85.5C 369.366,83.6383 370.866,81.9717 372.5,80.5 Z"/></g>
<g><path style="opacity:1" fill="#2f2e32" d="M 406.5,80.5 C 411.946,79.3394 416.113,81.0061 419,85.5C 419.991,92.3138 419.491,98.9804 417.5,105.5C 414.722,108.307 411.389,109.14 407.5,108C 405.333,107.167 403.833,105.667 403,103.5C 402.333,97.1667 402.333,90.8333 403,84.5C 404.376,83.2949 405.542,81.9616 406.5,80.5 Z"/></g>
<g><path style="opacity:1" fill="#dadada" d="M 261.5,97.5 C 261.5,152.833 261.5,208.167 261.5,263.5C 249.167,263.5 236.833,263.5 224.5,263.5C 224.5,254.167 224.5,244.833 224.5,235.5C 234.605,235.949 244.605,235.449 254.5,234C 260.82,226.752 259.487,221.585 250.5,218.5C 242.016,217.507 233.349,217.174 224.5,217.5C 224.5,208.167 224.5,198.833 224.5,189.5C 234.605,189.949 244.605,189.449 254.5,188C 260.82,180.752 259.487,175.585 250.5,172.5C 242.016,171.507 233.349,171.174 224.5,171.5C 224.737,170.209 224.404,169.209 223.5,168.5C 223.101,164.266 220.768,161.766 216.5,161C 192.169,160.5 167.836,160.333 143.5,160.5C 143.5,139.5 143.5,118.5 143.5,97.5C 182.833,97.5 222.167,97.5 261.5,97.5 Z"/></g>
<g><path style="opacity:1" fill="#cbcccd" d="M 261.5,97.5 C 269.833,97.5 278.167,97.5 286.5,97.5C 286.5,152.833 286.5,208.167 286.5,263.5C 278.167,263.5 269.833,263.5 261.5,263.5C 261.5,208.167 261.5,152.833 261.5,97.5 Z"/></g>
<g><path style="opacity:1" fill="#959597" d="M 286.5,97.5 C 287.499,152.998 287.832,208.664 287.5,264.5C 266.167,264.5 244.833,264.5 223.5,264.5C 223.173,254.652 223.506,244.986 224.5,235.5C 224.5,244.833 224.5,254.167 224.5,263.5C 236.833,263.5 249.167,263.5 261.5,263.5C 269.833,263.5 278.167,263.5 286.5,263.5C 286.5,208.167 286.5,152.833 286.5,97.5 Z"/></g>
<g><path style="opacity:1" fill="#302f33" d="M 176.5,126.5 C 202.169,126.333 227.835,126.5 253.5,127C 260.176,132.663 259.842,137.996 252.5,143C 227.5,143.667 202.5,143.667 177.5,143C 171.252,137.852 170.919,132.352 176.5,126.5 Z"/></g>
<g><path style="opacity:1" fill="#302f33" d="M 338.5,137.5 C 344.305,136.804 348.139,139.138 350,144.5C 350.667,149.833 350.667,155.167 350,160.5C 345.045,167.829 339.712,168.162 334,161.5C 333.333,155.167 333.333,148.833 334,142.5C 335.366,140.638 336.866,138.972 338.5,137.5 Z"/></g>
<g><path style="opacity:1" fill="#313034" d="M 373.5,137.5 C 378.194,136.7 381.694,138.367 384,142.5C 384.667,148.833 384.667,155.167 384,161.5C 378.29,168.33 372.957,167.997 368,160.5C 367.333,154.833 367.333,149.167 368,143.5C 369.36,140.977 371.193,138.977 373.5,137.5 Z"/></g>
<g><path style="opacity:1" fill="#302f33" d="M 407.5,137.5 C 413.305,136.804 417.139,139.138 419,144.5C 419.667,149.833 419.667,155.167 419,160.5C 414.045,167.829 408.712,168.162 403,161.5C 402.333,155.167 402.333,148.833 403,142.5C 404.366,140.638 405.866,138.972 407.5,137.5 Z"/></g>
<g><path style="opacity:1" fill="#939395" d="M 223.5,168.5 C 224.404,169.209 224.737,170.209 224.5,171.5C 233.349,171.174 242.016,171.507 250.5,172.5C 241.5,172.5 232.5,172.5 223.5,172.5C 223.5,171.167 223.5,169.833 223.5,168.5 Z"/></g>
<g><path style="opacity:1" fill="#bababc" d="M 206.5,178.5 C 158.833,178.5 111.167,178.5 63.5,178.5C 63.5,283.5 63.5,388.5 63.5,493.5C 76.5,493.5 89.5,493.5 102.5,493.5C 102.171,480.656 102.505,467.989 103.5,455.5C 103.5,468.5 103.5,481.5 103.5,494.5C 89.8333,494.5 76.1667,494.5 62.5,494.5C 62.5,388.833 62.5,283.167 62.5,177.5C 110.67,177.168 158.67,177.501 206.5,178.5 Z"/></g>
<g><path style="opacity:1" fill="#f7f7f8" d="M 206.5,178.5 C 206.5,283.833 206.5,389.167 206.5,494.5C 193.167,494.5 179.833,494.5 166.5,494.5C 166.667,481.496 166.5,468.496 166,455.5C 165.654,453.152 164.487,451.319 162.5,450C 144.591,448.361 126.591,448.027 108.5,449C 105.507,450.159 103.84,452.325 103.5,455.5C 102.505,467.989 102.171,480.656 102.5,493.5C 89.5,493.5 76.5,493.5 63.5,493.5C 63.5,388.5 63.5,283.5 63.5,178.5C 111.167,178.5 158.833,178.5 206.5,178.5 Z"/></g>
<g><path style="opacity:1" fill="#2f2e32" d="M 338.5,195.5 C 343.589,194.428 347.422,196.095 350,200.5C 350.991,207.314 350.491,213.98 348.5,220.5C 345.722,223.307 342.389,224.14 338.5,223C 336.333,222.167 334.833,220.667 334,218.5C 333.333,212.5 333.333,206.5 334,200.5C 335.025,198.313 336.525,196.646 338.5,195.5 Z"/></g>
<g><path style="opacity:1" fill="#2f2e32" d="M 372.5,195.5 C 377.126,194.7 380.96,196.034 384,199.5C 384.667,205.833 384.667,212.167 384,218.5C 381.459,223.069 377.625,224.569 372.5,223C 370.19,221.363 368.69,219.196 368,216.5C 367.333,211.167 367.333,205.833 368,200.5C 369.366,198.638 370.866,196.972 372.5,195.5 Z"/></g>
<g><path style="opacity:1" fill="#2f2e32" d="M 407.5,195.5 C 412.589,194.428 416.422,196.095 419,200.5C 419.991,207.314 419.491,213.98 417.5,220.5C 414.722,223.307 411.389,224.14 407.5,223C 405.333,222.167 403.833,220.667 403,218.5C 402.333,212.5 402.333,206.5 403,200.5C 404.025,198.313 405.525,196.646 407.5,195.5 Z"/></g>
<g><path style="opacity:1" fill="#959496" d="M 224.5,189.5 C 224.5,198.833 224.5,208.167 224.5,217.5C 233.349,217.174 242.016,217.507 250.5,218.5C 241.5,218.5 232.5,218.5 223.5,218.5C 223.173,208.652 223.506,198.986 224.5,189.5 Z"/></g>
<g><path style="opacity:1" fill="#302f33" d="M 96.5,218.5 C 101.635,217.426 105.468,219.093 108,223.5C 108.667,229.5 108.667,235.5 108,241.5C 105.459,246.069 101.625,247.569 96.5,246C 93.8917,244.622 92.3917,242.455 92,239.5C 91.3333,234.167 91.3333,228.833 92,223.5C 93.3657,221.638 94.8657,219.972 96.5,218.5 Z"/></g>
<g><path style="opacity:1" fill="#313034" d="M 130.5,218.5 C 135.855,217.345 140.022,219.012 143,223.5C 143.667,228.833 143.667,234.167 143,239.5C 141.154,245.995 136.988,248.162 130.5,246C 128.951,244.786 127.785,243.286 127,241.5C 126.333,235.167 126.333,228.833 127,222.5C 128.376,221.295 129.542,219.962 130.5,218.5 Z"/></g>
<g><path style="opacity:1" fill="#302f33" d="M 165.5,218.5 C 170.635,217.426 174.468,219.093 177,223.5C 177.667,229.5 177.667,235.5 177,241.5C 174.459,246.069 170.625,247.569 165.5,246C 162.892,244.622 161.392,242.455 161,239.5C 160.333,234.167 160.333,228.833 161,223.5C 162.366,221.638 163.866,219.972 165.5,218.5 Z"/></g>
<g><path style="opacity:1" fill="#302f33" d="M 407.5,252.5 C 413.305,251.804 417.139,254.138 419,259.5C 419.667,264.833 419.667,270.167 419,275.5C 413.996,282.842 408.663,283.176 403,276.5C 402.333,270.167 402.333,263.833 403,257.5C 404.707,255.963 406.207,254.296 407.5,252.5 Z"/></g>
<g><path style="opacity:1" fill="#7c7a7f" d="M 333.5,260.5 C 333.5,261.833 333.5,263.167 333.5,264.5C 323.652,264.827 313.986,264.494 304.5,263.5C 313.833,263.5 323.167,263.5 332.5,263.5C 332.263,262.209 332.596,261.209 333.5,260.5 Z"/></g>
<g><path style="opacity:1" fill="#323135" d="M 97.5,275.5 C 99.5273,275.338 101.527,275.505 103.5,276C 105,277.5 106.5,279 108,280.5C 108.667,286.833 108.667,293.167 108,299.5C 102.29,306.33 96.9571,305.997 92,298.5C 91.1304,292.083 91.4638,285.749 93,279.5C 94.3968,277.93 95.8968,276.596 97.5,275.5 Z"/></g>
<g><path style="opacity:1" fill="#323135" d="M 131.5,275.5 C 136.739,274.959 140.572,276.959 143,281.5C 143.667,287.167 143.667,292.833 143,298.5C 137.996,305.842 132.663,306.176 127,299.5C 126.333,293.167 126.333,286.833 127,280.5C 128.366,278.638 129.866,276.972 131.5,275.5 Z"/></g>
<g><path style="opacity:1" fill="#323135" d="M 166.5,275.5 C 171.194,274.7 174.694,276.367 177,280.5C 177.667,286.833 177.667,293.167 177,299.5C 171.29,306.33 165.957,305.997 161,298.5C 160.333,292.833 160.333,287.167 161,281.5C 162.36,278.977 164.193,276.977 166.5,275.5 Z"/></g>
<g><path style="opacity:1" fill="#ececec" d="M 224.5,281.5 C 236.833,281.5 249.167,281.5 261.5,281.5C 261.5,287.167 261.5,292.833 261.5,298.5C 257.438,298.724 254.605,300.724 253,304.5C 252.333,359.5 252.333,414.5 253,469.5C 253.365,473.596 255.532,475.929 259.5,476.5C 261.379,481.87 262.045,487.537 261.5,493.5C 249.167,493.5 236.833,493.5 224.5,493.5C 224.5,422.833 224.5,352.167 224.5,281.5 Z"/></g>
<g><path style="opacity:1" fill="#d8d8d8" d="M 261.5,281.5 C 296.833,281.5 332.167,281.5 367.5,281.5C 367.5,352.167 367.5,422.833 367.5,493.5C 332.167,493.5 296.833,493.5 261.5,493.5C 262.045,487.537 261.379,481.87 259.5,476.5C 264.133,477.542 267.299,475.875 269,471.5C 269.667,415.5 269.667,359.5 269,303.5C 267.207,300.692 264.707,299.026 261.5,298.5C 261.5,292.833 261.5,287.167 261.5,281.5 Z"/></g>
<g><path style="opacity:1" fill="#2f2e32" d="M 261.5,298.5 C 264.707,299.026 267.207,300.692 269,303.5C 269.667,359.5 269.667,415.5 269,471.5C 267.299,475.875 264.133,477.542 259.5,476.5C 255.532,475.929 253.365,473.596 253,469.5C 252.333,414.5 252.333,359.5 253,304.5C 254.605,300.724 257.438,298.724 261.5,298.5 Z"/></g>
<g><path style="opacity:1" fill="#2f2e32" d="M 292.5,298.5 C 297.739,297.959 301.572,299.959 304,304.5C 304.667,359.5 304.667,414.5 304,469.5C 302.244,475.964 298.077,478.13 291.5,476C 289.951,474.786 288.785,473.286 288,471.5C 287.333,415.5 287.333,359.5 288,303.5C 289.366,301.638 290.866,299.972 292.5,298.5 Z"/></g>
<g><path style="opacity:1" fill="#2f2e32" d="M 327.5,298.5 C 332.194,297.7 335.694,299.367 338,303.5C 338.667,359.833 338.667,416.167 338,472.5C 334.084,476.969 329.584,477.636 324.5,474.5C 323.194,473.088 322.36,471.421 322,469.5C 321.333,414.5 321.333,359.5 322,304.5C 323.36,301.977 325.193,299.977 327.5,298.5 Z"/></g>
<g><path style="opacity:1" fill="#2f2e32" d="M 407.5,310.5 C 412.589,309.428 416.422,311.095 419,315.5C 419.991,322.314 419.491,328.98 417.5,335.5C 414.722,338.307 411.389,339.14 407.5,338C 405.333,337.167 403.833,335.667 403,333.5C 402.333,327.5 402.333,321.5 403,315.5C 404.025,313.313 405.525,311.646 407.5,310.5 Z"/></g>
<g><path style="opacity:1" fill="#302f33" d="M 96.5,333.5 C 101.635,332.426 105.468,334.093 108,338.5C 108.667,344.5 108.667,350.5 108,356.5C 104.634,361.609 100.134,362.776 94.5,360C 93.283,358.352 92.4497,356.519 92,354.5C 91.3333,349.167 91.3333,343.833 92,338.5C 93.3657,336.638 94.8657,334.972 96.5,333.5 Z"/></g>
<g><path style="opacity:1" fill="#313034" d="M 130.5,333.5 C 135.855,332.345 140.022,334.012 143,338.5C 143.991,345.314 143.491,351.98 141.5,358.5C 138.376,361.356 134.709,362.189 130.5,361C 128.951,359.786 127.785,358.286 127,356.5C 126.333,350.167 126.333,343.833 127,337.5C 128.376,336.295 129.542,334.962 130.5,333.5 Z"/></g>
<g><path style="opacity:1" fill="#302f33" d="M 165.5,333.5 C 170.635,332.426 174.468,334.093 177,338.5C 177.667,344.5 177.667,350.5 177,356.5C 174.459,361.069 170.625,362.569 165.5,361C 162.892,359.622 161.392,357.455 161,354.5C 160.333,349.167 160.333,343.833 161,338.5C 162.366,336.638 163.866,334.972 165.5,333.5 Z"/></g>
<g><path style="opacity:1" fill="#302f33" d="M 407.5,367.5 C 412.739,366.959 416.572,368.959 419,373.5C 419.667,379.167 419.667,384.833 419,390.5C 413.996,397.842 408.663,398.176 403,391.5C 402.333,385.167 402.333,378.833 403,372.5C 404.707,370.963 406.207,369.296 407.5,367.5 Z"/></g>
<g><path style="opacity:1" fill="#313034" d="M 97.5,390.5 C 101.883,390.348 105.383,392.015 108,395.5C 108.667,401.833 108.667,408.167 108,414.5C 102.204,421.434 96.8709,421.1 92,413.5C 91.3333,407.833 91.3333,402.167 92,396.5C 93.3597,393.977 95.193,391.977 97.5,390.5 Z"/></g>
<g><path style="opacity:1" fill="#323135" d="M 131.5,390.5 C 136.55,390.274 140.383,392.274 143,396.5C 143.667,402.167 143.667,407.833 143,413.5C 137.996,420.842 132.663,421.176 127,414.5C 126.333,408.167 126.333,401.833 127,395.5C 128.366,393.638 129.866,391.972 131.5,390.5 Z"/></g>
<g><path style="opacity:1" fill="#313034" d="M 166.5,390.5 C 170.883,390.348 174.383,392.015 177,395.5C 177.667,401.833 177.667,408.167 177,414.5C 171.219,421.351 165.886,421.018 161,413.5C 160.333,407.833 160.333,402.167 161,396.5C 162.36,393.977 164.193,391.977 166.5,390.5 Z"/></g>
<g><path style="opacity:1" fill="#2f2e32" d="M 407.5,425.5 C 412.589,424.428 416.422,426.095 419,430.5C 420.113,437.715 419.446,444.715 417,451.5C 413.744,453.429 410.244,453.929 406.5,453C 404.951,451.786 403.785,450.286 403,448.5C 402.333,442.5 402.333,436.5 403,430.5C 404.025,428.313 405.525,426.646 407.5,425.5 Z"/></g>
<g><path style="opacity:1" fill="#cee2f2" d="M 148.5,465.5 C 148.5,474.833 148.5,484.167 148.5,493.5C 146.833,493.5 145.167,493.5 143.5,493.5C 143.861,487.407 143.361,481.407 142,475.5C 138.58,471.247 134.413,470.413 129.5,473C 128.299,473.903 127.465,475.069 127,476.5C 126.501,482.491 126.334,488.491 126.5,494.5C 124.5,494.5 122.5,494.5 120.5,494.5C 120.5,484.833 120.5,475.167 120.5,465.5C 129.833,465.5 139.167,465.5 148.5,465.5 Z"/></g>
<g><path style="opacity:1" fill="#888990" d="M 148.5,465.5 C 149.494,474.986 149.827,484.652 149.5,494.5C 141.833,494.5 134.167,494.5 126.5,494.5C 126.334,488.491 126.501,482.491 127,476.5C 127.465,475.069 128.299,473.903 129.5,473C 134.413,470.413 138.58,471.247 142,475.5C 143.361,481.407 143.861,487.407 143.5,493.5C 145.167,493.5 146.833,493.5 148.5,493.5C 148.5,484.167 148.5,474.833 148.5,465.5 Z"/></g>
<g><path style="opacity:1" fill="#adacad" d="M 224.5,281.5 C 224.5,352.167 224.5,422.833 224.5,493.5C 236.833,493.5 249.167,493.5 261.5,493.5C 296.833,493.5 332.167,493.5 367.5,493.5C 319.67,494.499 271.67,494.832 223.5,494.5C 223.167,423.331 223.501,352.331 224.5,281.5 Z"/></g>
</svg>
