<?xml version="1.0" encoding="UTF-8"?>
<!DOCTYPE svg PUBLIC "-//W3C//DTD SVG 1.1//EN" "http://www.w3.org/Graphics/SVG/1.1/DTD/svg11.dtd">
<svg xmlns="http://www.w3.org/2000/svg" version="1.1" width="512px" height="512px" style="shape-rendering:geometricPrecision; text-rendering:geometricPrecision; image-rendering:optimizeQuality; fill-rule:evenodd; clip-rule:evenodd" xmlns:xlink="http://www.w3.org/1999/xlink">
<g><path style="opacity:0.961" fill="#010101" d="M 150.5,-0.5 C 164.5,-0.5 178.5,-0.5 192.5,-0.5C 197.394,1.22399 200.894,4.55732 203,9.5C 204.039,17.7954 204.872,26.1287 205.5,34.5C 216.402,37.4677 226.736,41.8011 236.5,47.5C 241.652,42.8485 246.652,38.0151 251.5,33C 262.23,28.0029 271.063,30.1696 278,39.5C 278.634,42.5547 278.468,45.5547 277.5,48.5C 274.355,50.1908 271.021,50.6908 267.5,50C 265.359,48.6924 263.359,47.1924 261.5,45.5C 255.983,50.8512 250.316,56.0178 244.5,61C 239.924,62.4764 235.257,62.8098 230.5,62C 221.388,56.6301 211.721,52.6301 201.5,50C 194.903,47.7366 190.736,43.2366 189,36.5C 188.815,29.2534 188.315,22.0867 187.5,15C 176.833,14.3333 166.167,14.3333 155.5,15C 154.684,22.4205 154.184,29.9205 154,37.5C 152.694,41.8133 150.194,45.3133 146.5,48C 134.71,51.5616 123.377,56.2283 112.5,62C 107.232,63.068 102.232,62.4013 97.5,60C 92.6228,54.7872 87.4562,49.9539 82,45.5C 74.0423,52.4561 66.3756,59.7895 59,67.5C 58.3333,68.5 58.3333,69.5 59,70.5C 65.076,75.9053 70.4093,81.9053 75,88.5C 75.6667,92.1667 75.6667,95.8333 75,99.5C 69.1613,110.349 64.4946,121.683 61,133.5C 58.3133,137.194 54.8133,139.694 50.5,141C 42.9205,141.184 35.4205,141.684 28,142.5C 27.3333,153.167 27.3333,163.833 28,174.5C 35.0867,175.315 42.2534,175.815 49.5,176C 56.2366,177.736 60.7366,181.903 63,188.5C 65.6301,198.721 69.6301,208.388 75,217.5C 75.8098,222.257 75.4764,226.924 74,231.5C 69.3665,237.135 64.3665,242.468 59,247.5C 58.3333,248.167 58.3333,248.833 59,249.5C 66.3756,257.211 74.0423,264.544 82,271.5C 87.1225,267.38 91.9558,262.88 96.5,258C 102.921,253.801 109.588,253.468 116.5,257C 126.323,262.498 136.656,266.831 147.5,270C 150.273,272.383 152.439,275.217 154,278.5C 154.5,286.493 154.666,294.493 154.5,302.5C 165.833,302.5 177.167,302.5 188.5,302.5C 188.334,295.159 188.5,287.826 189,280.5C 192.153,270.634 198.653,266.801 208.5,269C 209.163,270.518 210.163,271.685 211.5,272.5C 211.907,277.686 209.74,281.353 205,283.5C 204.864,291.562 204.197,299.562 203,307.5C 200.668,313.164 196.501,316.664 190.5,318C 177.833,318.667 165.167,318.667 152.5,318C 146.13,316.564 141.963,312.731 140,306.5C 139.667,298.833 139.333,291.167 139,283.5C 127.717,280.191 117.051,275.524 107,269.5C 102.167,274.333 97.3333,279.167 92.5,284C 84.5833,288.884 76.9166,288.551 69.5,283C 62,275.5 54.5,268 47,260.5C 42.7953,253.367 42.4619,246.034 46,238.5C 51.0151,233.652 55.8485,228.652 60.5,223.5C 55.1912,213.573 50.8579,203.24 47.5,192.5C 39.1287,191.872 30.7954,191.039 22.5,190C 17.5723,188.073 14.4056,184.573 13,179.5C 12.3333,165.5 12.3333,151.5 13,137.5C 15.2563,132.243 19.0896,128.743 24.5,127C 31.8333,126.667 39.1667,126.333 46.5,126C 50.2863,115.154 54.9529,104.654 60.5,94.5C 55.1488,88.9831 49.9822,83.3164 45,77.5C 42.7375,70.9952 43.0708,64.6618 46,58.5C 55.2311,48.5993 65.0644,39.4326 75.5,31C 80.5893,30.1743 85.5893,30.5076 90.5,32C 96.3164,36.9822 101.983,42.1488 107.5,47.5C 117.654,41.9529 128.154,37.2863 139,33.5C 139.093,25.0906 139.76,16.7573 141,8.5C 143.406,4.59151 146.572,1.59151 150.5,-0.5 Z"/></g>
<g><path style="opacity:0.999" fill="#8db8c3" d="M 277.5,48.5 C 281.833,53.1667 286.167,57.8333 290.5,62.5C 256.783,66.5073 231.116,82.8406 213.5,111.5C 209.5,108.833 205.5,106.167 201.5,103.5C 201.893,100.07 201.227,96.9036 199.5,94C 163.64,81.086 134.473,89.9193 112,120.5C 100.3,140.864 98.3003,162.197 106,184.5C 119.825,215.311 143.658,230.144 177.5,229C 181.361,227.331 183.361,224.498 183.5,220.5C 188.308,219.231 192.974,217.564 197.5,215.5C 197.031,227.519 202.365,235.686 213.5,240C 215.134,240.494 216.801,240.66 218.5,240.5C 218.336,243.187 218.503,245.854 219,248.5C 220.948,254.839 222.781,261.173 224.5,267.5C 220.395,269.757 216.061,271.424 211.5,272.5C 210.163,271.685 209.163,270.518 208.5,269C 198.653,266.801 192.153,270.634 189,280.5C 188.5,287.826 188.334,295.159 188.5,302.5C 177.167,302.5 165.833,302.5 154.5,302.5C 154.666,294.493 154.5,286.493 154,278.5C 152.439,275.217 150.273,272.383 147.5,270C 136.656,266.831 126.323,262.498 116.5,257C 109.588,253.468 102.921,253.801 96.5,258C 91.9558,262.88 87.1225,267.38 82,271.5C 74.0423,264.544 66.3756,257.211 59,249.5C 58.3333,248.833 58.3333,248.167 59,247.5C 64.3665,242.468 69.3665,237.135 74,231.5C 75.4764,226.924 75.8098,222.257 75,217.5C 69.6301,208.388 65.6301,198.721 63,188.5C 60.7366,181.903 56.2366,177.736 49.5,176C 42.2534,175.815 35.0867,175.315 28,174.5C 27.3333,163.833 27.3333,153.167 28,142.5C 35.4205,141.684 42.9205,141.184 50.5,141C 54.8133,139.694 58.3133,137.194 61,133.5C 64.4946,121.683 69.1613,110.349 75,99.5C 75.6667,95.8333 75.6667,92.1667 75,88.5C 70.4093,81.9053 65.076,75.9053 59,70.5C 58.3333,69.5 58.3333,68.5 59,67.5C 66.3756,59.7895 74.0423,52.4561 82,45.5C 87.4562,49.9539 92.6228,54.7872 97.5,60C 102.232,62.4013 107.232,63.068 112.5,62C 123.377,56.2283 134.71,51.5616 146.5,48C 150.194,45.3133 152.694,41.8133 154,37.5C 154.184,29.9205 154.684,22.4205 155.5,15C 166.167,14.3333 176.833,14.3333 187.5,15C 188.315,22.0867 188.815,29.2534 189,36.5C 190.736,43.2366 194.903,47.7366 201.5,50C 211.721,52.6301 221.388,56.6301 230.5,62C 235.257,62.8098 239.924,62.4764 244.5,61C 250.316,56.0178 255.983,50.8512 261.5,45.5C 263.359,47.1924 265.359,48.6924 267.5,50C 271.021,50.6908 274.355,50.1908 277.5,48.5 Z"/></g>
<g><path style="opacity:0.983" fill="#020101" d="M 476.5,511.5 C 360.5,511.5 244.5,511.5 128.5,511.5C 116.772,507.601 109.272,499.601 106,487.5C 105.333,456.5 105.333,425.5 106,394.5C 110.916,367.242 126.416,348.742 152.5,339C 159.047,336.595 165.714,334.595 172.5,333C 199.168,327.766 225.834,322.6 252.5,317.5C 252.83,311.132 252.496,304.798 251.5,298.5C 239.982,290.318 230.982,279.985 224.5,267.5C 222.781,261.173 220.948,254.839 219,248.5C 218.503,245.854 218.336,243.187 218.5,240.5C 216.801,240.66 215.134,240.494 213.5,240C 202.365,235.686 197.031,227.519 197.5,215.5C 197.824,211.445 197.491,207.445 196.5,203.5C 187.287,198.068 183.787,190.068 186,179.5C 188.24,172.259 192.907,167.259 200,164.5C 200.138,145.62 204.638,127.954 213.5,111.5C 231.116,82.8406 256.783,66.5073 290.5,62.5C 329.935,58.1457 361.769,71.4791 386,102.5C 398.826,121.128 404.826,141.794 404,164.5C 419.126,171.294 423.126,182.294 416,197.5C 413.933,200.07 411.433,202.07 408.5,203.5C 407.669,209.807 407.169,216.141 407,222.5C 404.667,232.833 398.333,239.167 388,241.5C 384.51,265.461 373.01,284.461 353.5,298.5C 352.504,304.798 352.17,311.132 352.5,317.5C 379.166,322.6 405.832,327.766 432.5,333C 452.492,337.076 469.658,346.243 484,360.5C 492.693,370.9 497.693,382.9 499,396.5C 499.667,426.167 499.667,455.833 499,485.5C 496.643,498.686 489.143,507.353 476.5,511.5 Z"/></g>
<g><path style="opacity:1" fill="#fd9637" d="M 345.5,100.5 C 345.343,101.873 345.51,103.207 346,104.5C 359.907,122.059 366.074,142.059 364.5,164.5C 315.167,164.5 265.833,164.5 216.5,164.5C 215.603,131.121 229.27,105.788 257.5,88.5C 258.125,92.9072 258.958,97.2406 260,101.5C 264.625,105.646 268.959,105.313 273,100.5C 273.5,93.8417 273.666,87.175 273.5,80.5C 280.365,78.5941 287.365,77.5941 294.5,77.5C 294.333,90.5043 294.5,103.504 295,116.5C 298.804,122.377 303.471,123.044 309,118.5C 309.5,104.837 309.667,91.1707 309.5,77.5C 316.653,77.769 323.653,78.9357 330.5,81C 331.184,87.8025 331.851,94.6358 332.5,101.5C 337.209,105.488 341.543,105.155 345.5,100.5 Z"/></g>
<g><path style="opacity:0.962" fill="#010202" d="M 201.5,103.5 C 199.829,106.254 197.329,107.587 194,107.5C 165.551,98.2065 142.551,105.54 125,129.5C 110.869,156.842 115.035,181.008 137.5,202C 149.334,210.832 162.668,214.832 177.5,214C 181.061,214.728 183.061,216.894 183.5,220.5C 183.361,224.498 181.361,227.331 177.5,229C 143.658,230.144 119.825,215.311 106,184.5C 98.3003,162.197 100.3,140.864 112,120.5C 134.473,89.9193 163.64,81.086 199.5,94C 201.227,96.9036 201.893,100.07 201.5,103.5 Z"/></g>
<g><path style="opacity:1" fill="#6d3904" d="M 347.5,88.5 C 346.833,91.8333 346.167,95.1667 345.5,98.5C 345.177,94.774 345.511,91.1073 346.5,87.5C 347.107,87.6236 347.44,87.9569 347.5,88.5 Z"/></g>
<g><path style="opacity:1" fill="#fc8509" d="M 347.5,88.5 C 375.28,106.052 388.947,131.385 388.5,164.5C 380.5,164.5 372.5,164.5 364.5,164.5C 366.074,142.059 359.907,122.059 346,104.5C 345.51,103.207 345.343,101.873 345.5,100.5C 345.5,99.8333 345.5,99.1667 345.5,98.5C 346.167,95.1667 346.833,91.8333 347.5,88.5 Z"/></g>
<g><path style="opacity:1" fill="#fb8508" d="M 203.5,179.5 C 269.501,179.333 335.501,179.5 401.5,180C 405.5,183.333 405.5,186.667 401.5,190C 335.5,190.667 269.5,190.667 203.5,190C 199.565,186.504 199.565,183.004 203.5,179.5 Z"/></g>
<g><path style="opacity:1" fill="#ba5c4b" d="M 348.5,205.5 C 348.904,224.204 348.404,242.87 347,261.5C 343.746,272.67 338.912,283.004 332.5,292.5C 294.078,306.859 263.245,297.192 240,263.5C 234.664,253.157 231.998,242.157 232,230.5C 230.773,228.274 228.939,226.774 226.5,226C 223.167,225.667 219.833,225.333 216.5,225C 215,224.167 213.833,223 213,221.5C 212.501,216.177 212.334,210.844 212.5,205.5C 257.833,205.5 303.167,205.5 348.5,205.5 Z"/></g>
<g><path style="opacity:1" fill="#a34e3d" d="M 348.5,205.5 C 362.833,205.5 377.167,205.5 391.5,205.5C 391.666,211.176 391.499,216.843 391,222.5C 390.097,223.701 388.931,224.535 387.5,225C 384.167,225.333 380.833,225.667 377.5,226C 376.069,226.465 374.903,227.299 374,228.5C 372.762,258.197 358.929,279.53 332.5,292.5C 338.912,283.004 343.746,272.67 347,261.5C 348.404,242.87 348.904,224.204 348.5,205.5 Z"/></g>
<g><path style="opacity:1" fill="#b95c4b" d="M 314.5,313.5 C 314.5,325.5 314.5,337.5 314.5,349.5C 310.91,352.639 306.91,355.306 302.5,357.5C 290.775,351.947 280.608,344.281 272,334.5C 269.082,329.223 267.915,323.556 268.5,317.5C 268.833,314.167 269.167,310.833 269.5,307.5C 283.883,314.169 298.883,316.169 314.5,313.5 Z"/></g>
<g><path style="opacity:1" fill="#a14d3d" d="M 314.5,349.5 C 314.5,337.5 314.5,325.5 314.5,313.5C 321.683,312.286 328.683,310.286 335.5,307.5C 339.717,322.493 335.717,334.659 323.5,344C 320.778,346.358 317.778,348.191 314.5,349.5 Z"/></g>
<g><path style="opacity:1" fill="#8ab4bf" d="M 252.5,332.5 C 260.874,345.706 271.874,356.539 285.5,365C 286.833,365.667 286.833,366.333 285.5,367C 281.154,370.009 276.487,372.175 271.5,373.5C 267.442,373.554 264.276,371.888 262,368.5C 254.623,357.58 247.123,346.746 239.5,336C 244.042,335.133 248.375,333.967 252.5,332.5 Z"/></g>
<g><path style="opacity:1" fill="#8ab5c0" d="M 349.5,333.5 C 354.726,333.39 359.726,334.39 364.5,336.5C 357,347.5 349.5,358.5 342,369.5C 339.487,371.923 336.487,373.256 333,373.5C 327.491,372.329 322.658,369.829 318.5,366C 327.499,360.238 335.666,353.405 343,345.5C 345.954,341.925 348.121,337.925 349.5,333.5 Z"/></g>
<g><path style="opacity:1" fill="#fe9737" d="M 221.5,338.5 C 223.017,338.511 224.184,339.177 225,340.5C 244.42,369.008 264.087,397.341 284,425.5C 288.418,432.337 291.752,439.67 294,447.5C 294.5,463.83 294.667,480.163 294.5,496.5C 257.5,496.5 220.5,496.5 183.5,496.5C 185.192,459.249 183.025,422.249 177,385.5C 174.547,373.64 171.38,361.973 167.5,350.5C 185.526,346.097 203.526,342.097 221.5,338.5 Z"/></g>
<g><path style="opacity:1" fill="#fc8509" d="M 429.5,445.5 C 429.5,450.5 429.5,455.5 429.5,460.5C 425.91,460.544 423.41,462.211 422,465.5C 421.5,475.828 421.334,486.161 421.5,496.5C 384.167,496.5 346.833,496.5 309.5,496.5C 309.333,481.496 309.5,466.496 310,451.5C 310.713,446.648 312.046,441.981 314,437.5C 318.083,430.332 322.416,423.332 327,416.5C 345.203,391.262 363.036,365.762 380.5,340C 382.833,339.333 385.167,339.333 387.5,340C 403.776,343.226 419.942,346.726 436,350.5C 432.847,365.455 429.513,380.455 426,395.5C 423.191,411.058 422.191,426.725 423,442.5C 424.734,444.451 426.901,445.451 429.5,445.5 Z"/></g>
<g><path style="opacity:1" fill="#dae8ed" d="M 151.5,356.5 C 152.496,356.414 153.329,356.748 154,357.5C 161.749,381.579 166.416,406.245 168,431.5C 168.5,453.164 168.667,474.831 168.5,496.5C 156.162,496.667 143.829,496.5 131.5,496C 125.836,493.668 122.336,489.501 121,483.5C 120.039,452.793 120.372,422.127 122,391.5C 126.614,375.389 136.448,363.723 151.5,356.5 Z"/></g>
<g><path style="opacity:1" fill="#dbeaee" d="M 456.5,358.5 C 459.071,363.104 460.571,368.104 461,373.5C 461.5,414.499 461.667,455.499 461.5,496.5C 453.167,496.5 444.833,496.5 436.5,496.5C 436.667,485.828 436.5,475.161 436,464.5C 434.362,462.266 432.195,460.933 429.5,460.5C 429.5,455.5 429.5,450.5 429.5,445.5C 434.061,445.44 436.561,443.107 437,438.5C 437.502,410.489 442.002,383.156 450.5,356.5C 452.703,356.604 454.703,357.27 456.5,358.5 Z"/></g>
<g><path style="opacity:1" fill="#a7d2d7" d="M 456.5,358.5 C 470.351,365.844 479.184,377.177 483,392.5C 483.667,423.5 483.667,454.5 483,485.5C 481.526,490.974 478.026,494.474 472.5,496C 468.848,496.499 465.182,496.665 461.5,496.5C 461.667,455.499 461.5,414.499 461,373.5C 460.571,368.104 459.071,363.104 456.5,358.5 Z"/></g>
<g><path style="opacity:1" fill="#dae8ed" d="M 301.5,374.5 C 310.478,379.323 319.478,384.156 328.5,389C 319.71,401.413 311.043,413.913 302.5,426.5C 293.638,414.138 284.972,401.638 276.5,389C 285.191,384.659 293.525,379.825 301.5,374.5 Z"/></g>
<g><path style="opacity:1" fill="#040200" d="M 338.5,433.5 C 355.837,433.333 373.17,433.5 390.5,434C 395.235,435.068 398.402,437.901 400,442.5C 400.667,449.833 400.667,457.167 400,464.5C 398.5,468.667 395.667,471.5 391.5,473C 373.076,473.973 354.743,473.64 336.5,472C 333.533,469.9 331.7,467.066 331,463.5C 330.333,456.5 330.333,449.5 331,442.5C 332.642,438.7 335.142,435.7 338.5,433.5 Z"/></g>
<g><path style="opacity:1" fill="#fef155" d="M 384.5,448.5 C 384.5,451.833 384.5,455.167 384.5,458.5C 371.5,458.5 358.5,458.5 345.5,458.5C 345.5,455.167 345.5,451.833 345.5,448.5C 358.5,448.5 371.5,448.5 384.5,448.5 Z"/></g>
<g><path style="opacity:1" fill="#7f782b" d="M 384.5,448.5 C 385.482,451.962 385.815,455.629 385.5,459.5C 371.99,459.829 358.656,459.496 345.5,458.5C 358.5,458.5 371.5,458.5 384.5,458.5C 384.5,455.167 384.5,451.833 384.5,448.5 Z"/></g>
</svg>
