<?xml version="1.0" encoding="UTF-8"?>
<!DOCTYPE svg PUBLIC "-//W3C//DTD SVG 1.1//EN" "http://www.w3.org/Graphics/SVG/1.1/DTD/svg11.dtd">
<svg xmlns="http://www.w3.org/2000/svg" version="1.1" width="512px" height="512px" style="shape-rendering:geometricPrecision; text-rendering:geometricPrecision; image-rendering:optimizeQuality; fill-rule:evenodd; clip-rule:evenodd" xmlns:xlink="http://www.w3.org/1999/xlink">
<g><path style="opacity:0.985" fill="#020101" d="M 511.5,18.5 C 511.5,144.5 511.5,270.5 511.5,396.5C 508.293,403.196 502.959,407.03 495.5,408C 463.167,408.333 430.833,408.667 398.5,409C 393.667,413.833 388.833,418.667 384,423.5C 383.667,444.833 383.333,466.167 383,487.5C 382.397,496.213 377.897,501.713 369.5,504C 271.167,504.667 172.833,504.667 74.5,504C 70.9933,502.67 69.3266,500.17 69.5,496.5C 70.1434,493.012 72.1434,490.512 75.5,489C 82.1667,488.667 88.8333,488.333 95.5,488C 87.4778,470.788 79.3112,453.621 71,436.5C 67.4017,430.782 66.735,424.782 69,418.5C 77.0432,410.953 85.2099,403.62 93.5,396.5C 85.8436,389.011 78.0103,381.678 70,374.5C 66.7877,369.8 66.7877,365.133 70,360.5C 78.9551,348.756 87.7884,336.923 96.5,325C 75.9324,330.633 55.5991,337.3 35.5,345C 26.0017,351.17 19.5017,359.67 16,370.5C 14.3574,409.453 14.024,448.453 15,487.5C 24.4226,488.32 33.9226,488.82 43.5,489C 47.3336,490.211 49.667,492.711 50.5,496.5C 49.9428,499.792 48.2761,502.292 45.5,504C 34.5,504.667 23.5,504.667 12.5,504C 6.0828,502.411 1.74947,498.577 -0.5,492.5C -0.5,451.833 -0.5,411.167 -0.5,370.5C 4.57972,350.527 16.5797,336.361 35.5,328C 60.1667,320 84.8333,312 109.5,304C 111.578,296.251 116.245,290.584 123.5,287C 102.635,274.11 92.6348,255.277 93.5,230.5C 62.3829,230.207 48.8829,214.54 53,183.5C 54.3897,172.62 59.8897,164.62 69.5,159.5C 70.3319,150.852 70.8319,142.186 71,133.5C 72.6379,131.266 74.8045,129.933 77.5,129.5C 79.3885,130.322 81.3885,131.155 83.5,132C 84.1258,132.75 84.6258,133.584 85,134.5C 85.4996,141.492 85.6663,148.492 85.5,155.5C 88.5,155.5 91.5,155.5 94.5,155.5C 96.4246,143.078 103.425,135.245 115.5,132C 147.165,131.5 178.832,131.333 210.5,131.5C 210.667,115.83 210.5,100.163 210,84.5C 205.499,68.3312 194.999,58.8312 178.5,56C 157.5,55.3333 136.5,55.3333 115.5,56C 99.6667,59.8333 89.8333,69.6667 86,85.5C 85.6667,92.1667 85.3333,98.8333 85,105.5C 84.6258,106.416 84.1258,107.25 83.5,108C 81.3885,108.845 79.3885,109.678 77.5,110.5C 74.8045,110.067 72.6379,108.734 71,106.5C 66.7377,81.9203 74.571,62.4203 94.5,48C 102.843,43.1079 111.843,40.4412 121.5,40C 139.167,39.3333 156.833,39.3333 174.5,40C 187.882,40.5295 199.549,45.1962 209.5,54C 216.826,54.4765 223.993,55.6432 231,57.5C 231.075,44.1113 231.742,30.778 233,17.5C 235.332,11.8356 239.499,8.3356 245.5,7C 329.833,6.33333 414.167,6.33333 498.5,7C 504.917,8.58934 509.251,12.4227 511.5,18.5 Z M 229.5,281.5 C 230.794,283.048 231.461,285.048 231.5,287.5C 231.333,289.5 231.167,291.5 231,293.5C 228.257,291.212 225.423,289.045 222.5,287C 225.266,285.629 227.599,283.796 229.5,281.5 Z"/></g>
<g><path style="opacity:1" fill="#faecab" d="M 495.5,22.5 C 487.167,22.5 478.833,22.5 470.5,22.5C 470.5,145.833 470.5,269.167 470.5,392.5C 451.83,392.667 433.164,392.5 414.5,392C 422.597,378.662 420.597,366.996 408.5,357C 399.12,351.156 389.787,351.156 380.5,357C 374.5,363 368.5,369 362.5,375C 357.167,375.667 351.833,375.667 346.5,375C 342.796,353.587 331.13,338.253 311.5,329C 290.463,322.266 269.463,315.432 248.5,308.5C 247.334,290.843 247.167,273.176 248,255.5C 250.802,247.09 251.968,238.423 251.5,229.5C 278.481,231.347 292.148,218.847 292.5,192C 293.748,177.662 288.248,166.828 276,159.5C 275.667,141.833 275.333,124.167 275,106.5C 271.542,89.0678 262.542,75.4011 248,65.5C 247.177,50.9253 247.344,36.4253 248.5,22C 331.001,21.1677 413.334,21.3343 495.5,22.5 Z"/></g>
<g><path style="opacity:1" fill="#fde87c" d="M 495.5,22.5 C 496.666,145.333 496.833,268.333 496,391.5C 487.585,392.483 479.085,392.817 470.5,392.5C 470.5,269.167 470.5,145.833 470.5,22.5C 478.833,22.5 487.167,22.5 495.5,22.5 Z"/></g>
<g><path style="opacity:1" fill="#030403" d="M 309.5,134.5 C 312.272,134.22 314.772,134.887 317,136.5C 325.111,162.456 342.611,176.79 369.5,179.5C 399.48,179.098 418.313,164.432 426,135.5C 430.104,107.875 419.938,87.3753 395.5,74C 385.444,69.2789 375.111,67.7789 364.5,69.5C 340.544,73.5634 325.044,87.23 318,110.5C 315.804,113.125 312.97,114.125 309.5,113.5C 307.629,113.141 306.129,112.141 305,110.5C 304.262,106.739 304.595,103.072 306,99.5C 318.539,71.1539 340.372,55.8206 371.5,53.5C 414.385,57.3852 438.052,80.7185 442.5,123.5C 441.311,155.843 425.811,178.176 396,190.5C 364.905,199.953 338.572,192.62 317,168.5C 310.916,160.332 306.416,151.332 303.5,141.5C 304.108,137.897 306.108,135.564 309.5,134.5 Z"/></g>
<g><path style="opacity:0.999" fill="#b95c4b" d="M 77.5,129.5 C 77.5,123.167 77.5,116.833 77.5,110.5C 79.3885,109.678 81.3885,108.845 83.5,108C 84.1258,107.25 84.6258,106.416 85,105.5C 85.3333,98.8333 85.6667,92.1667 86,85.5C 89.8333,69.6667 99.6667,59.8333 115.5,56C 136.5,55.3333 157.5,55.3333 178.5,56C 194.999,58.8312 205.499,68.3312 210,84.5C 210.5,100.163 210.667,115.83 210.5,131.5C 178.832,131.333 147.165,131.5 115.5,132C 103.425,135.245 96.4246,143.078 94.5,155.5C 91.5,155.5 88.5,155.5 85.5,155.5C 85.6663,148.492 85.4996,141.492 85,134.5C 84.6258,133.584 84.1258,132.75 83.5,132C 81.3885,131.155 79.3885,130.322 77.5,129.5 Z"/></g>
<g><path style="opacity:1" fill="#01efa4" d="M 364.5,69.5 C 366.527,69.3379 368.527,69.5045 370.5,70C 382.73,77.9006 391.73,88.5673 397.5,102C 396.944,102.383 396.611,102.883 396.5,103.5C 386.239,112.423 376.239,121.756 366.5,131.5C 360.317,125.483 353.983,119.649 347.5,114C 338.958,113.547 336.125,117.381 339,125.5C 346.5,133 354,140.5 361.5,148C 364.366,149.457 367.366,149.79 370.5,149C 380.035,139.298 389.702,129.798 399.5,120.5C 401.875,141.966 394.541,159.799 377.5,174C 374.593,175.609 371.927,177.442 369.5,179.5C 342.611,176.79 325.111,162.456 317,136.5C 314.772,134.887 312.272,134.22 309.5,134.5C 308.213,127.493 308.213,120.493 309.5,113.5C 312.97,114.125 315.804,113.125 318,110.5C 325.044,87.23 340.544,73.5634 364.5,69.5 Z"/></g>
<g><path style="opacity:1" fill="#0dcf8e" d="M 364.5,69.5 C 375.111,67.7789 385.444,69.2789 395.5,74C 419.938,87.3753 430.104,107.875 426,135.5C 418.313,164.432 399.48,179.098 369.5,179.5C 371.927,177.442 374.593,175.609 377.5,174C 394.541,159.799 401.875,141.966 399.5,120.5C 401.127,118.37 402.96,116.37 405,114.5C 407.51,106.883 404.677,103.216 396.5,103.5C 396.611,102.883 396.944,102.383 397.5,102C 391.73,88.5673 382.73,77.9006 370.5,70C 368.527,69.5045 366.527,69.3379 364.5,69.5 Z"/></g>
<g><path style="opacity:1" fill="#a14d3d" d="M 221.5,71.5 C 242.18,75.0104 255.013,87.0104 260,107.5C 260.5,123.497 260.667,139.497 260.5,155.5C 257.5,155.5 254.5,155.5 251.5,155.5C 248.914,140.914 240.247,132.914 225.5,131.5C 225.667,115.163 225.5,98.8299 225,82.5C 224.126,78.7124 222.959,75.0457 221.5,71.5 Z"/></g>
<g><path style="opacity:1" fill="#000402" d="M 396.5,103.5 C 404.677,103.216 407.51,106.883 405,114.5C 402.96,116.37 401.127,118.37 399.5,120.5C 389.702,129.798 380.035,139.298 370.5,149C 367.366,149.79 364.366,149.457 361.5,148C 354,140.5 346.5,133 339,125.5C 336.125,117.381 338.958,113.547 347.5,114C 353.983,119.649 360.317,125.483 366.5,131.5C 376.239,121.756 386.239,112.423 396.5,103.5 Z"/></g>
<g><path style="opacity:1" fill="#fdccbd" d="M 119.5,146.5 C 151.507,146.167 183.507,146.5 215.5,147.5C 216.333,149.167 217.167,150.833 218,152.5C 218.667,182.5 218.667,212.5 218,242.5C 216.152,257.004 209.318,268.504 197.5,277C 179.836,277.5 162.17,277.667 144.5,277.5C 127.648,274.487 116.482,264.82 111,248.5C 109.387,217.197 109.054,185.864 110,154.5C 111.546,149.822 114.713,147.156 119.5,146.5 Z"/></g>
<g><path style="opacity:1" fill="#f6ab9a" d="M 119.5,146.5 C 154.998,145.336 190.664,145.169 226.5,146C 230.709,147.187 233.876,149.687 236,153.5C 236.667,183.5 236.667,213.5 236,243.5C 231.718,262.782 219.885,274.282 200.5,278C 181.662,278.829 162.995,278.662 144.5,277.5C 162.17,277.667 179.836,277.5 197.5,277C 209.318,268.504 216.152,257.004 218,242.5C 218.667,212.5 218.667,182.5 218,152.5C 217.167,150.833 216.333,149.167 215.5,147.5C 183.507,146.5 151.507,146.167 119.5,146.5 Z"/></g>
<g><path style="opacity:1" fill="#080606" d="M 138.5,163.5 C 143.439,162.352 146.939,164.019 149,168.5C 149.667,174.5 149.667,180.5 149,186.5C 147.305,191.599 143.805,193.432 138.5,192C 136.951,190.786 135.785,189.286 135,187.5C 134.333,180.833 134.333,174.167 135,167.5C 135.69,165.65 136.856,164.316 138.5,163.5 Z"/></g>
<g><path style="opacity:1" fill="#0a0807" d="M 200.5,163.5 C 202.857,163.337 205.19,163.503 207.5,164C 209.333,164.5 210.5,165.667 211,167.5C 211.667,174.5 211.667,181.5 211,188.5C 205.309,194.293 200.643,193.626 197,186.5C 196.333,180.5 196.333,174.5 197,168.5C 197.997,166.677 199.164,165.01 200.5,163.5 Z"/></g>
<g><path style="opacity:1" fill="#f5937e" d="M 81.5,170.5 C 85.8333,170.5 90.1667,170.5 94.5,170.5C 94.5,185.167 94.5,199.833 94.5,214.5C 82.4287,217.544 73.9287,213.544 69,202.5C 68.3333,195.833 68.3333,189.167 69,182.5C 71.769,176.895 75.9356,172.895 81.5,170.5 Z"/></g>
<g><path style="opacity:1" fill="#f3927d" d="M 251.5,170.5 C 259.124,169.449 266.124,170.949 272.5,175C 276.937,179.751 278.604,185.417 277.5,192C 278.105,209.883 269.438,217.383 251.5,214.5C 251.5,199.833 251.5,185.167 251.5,170.5 Z"/></g>
<g><path style="opacity:1" fill="#060504" d="M 167.5,187.5 C 178.229,185.389 182.062,189.389 179,199.5C 177.055,200.863 174.888,201.697 172.5,202C 171.663,203.011 171.33,204.178 171.5,205.5C 178.142,205.64 180.976,208.973 180,215.5C 179.215,217.286 178.049,218.786 176.5,220C 161.708,220.536 155.208,213.369 157,198.5C 159.357,193.645 162.857,189.979 167.5,187.5 Z"/></g>
<g><path style="opacity:1" fill="#000000" d="M 303.5,212.5 C 348.835,212.333 394.168,212.5 439.5,213C 443.696,215.981 444.529,219.814 442,224.5C 441.25,225.126 440.416,225.626 439.5,226C 394.167,226.667 348.833,226.667 303.5,226C 299.541,221.501 299.541,217.001 303.5,212.5 Z"/></g>
<g><path style="opacity:1" fill="#050403" d="M 146.5,228.5 C 151.742,227.271 155.575,228.937 158,233.5C 160.533,244.362 167.367,248.529 178.5,246C 185.127,243.381 188.627,238.547 189,231.5C 193.333,227.5 197.667,227.5 202,231.5C 202.602,247.261 195.102,257.094 179.5,261C 165.285,263.141 154.118,258.308 146,246.5C 142.666,240.207 142.832,234.207 146.5,228.5 Z"/></g>
<g><path style="opacity:1" fill="#050403" d="M 304.5,243.5 C 349.501,243.333 394.501,243.5 439.5,244C 443.212,246.513 444.378,250.013 443,254.5C 441.786,256.049 440.286,257.215 438.5,258C 393.833,258.667 349.167,258.667 304.5,258C 299.235,253.076 299.235,248.242 304.5,243.5 Z"/></g>
<g><path style="opacity:1" fill="#050403" d="M 304.5,274.5 C 349.168,274.333 393.835,274.5 438.5,275C 443.689,277.913 444.856,282.08 442,287.5C 441.25,288.126 440.416,288.626 439.5,289C 394.5,289.667 349.5,289.667 304.5,289C 300.788,286.487 299.622,282.987 301,278.5C 302.376,277.295 303.542,275.962 304.5,274.5 Z"/></g>
<g><path style="opacity:1" fill="#3b231e" d="M 148.5,293.5 C 164.992,292.503 181.658,292.17 198.5,292.5C 198.806,295.385 198.473,298.052 197.5,300.5C 197.5,298.167 197.5,295.833 197.5,293.5C 181.167,293.5 164.833,293.5 148.5,293.5 Z"/></g>
<g><path style="opacity:1" fill="#f5937e" d="M 148.5,293.5 C 164.833,293.5 181.167,293.5 197.5,293.5C 197.5,295.833 197.5,298.167 197.5,300.5C 189.484,307.015 181.317,313.348 173,319.5C 164.723,313.561 156.723,307.228 149,300.5C 148.503,298.19 148.337,295.857 148.5,293.5 Z"/></g>
<g><path style="opacity:1" fill="#fbfbfb" d="M 131.5,300.5 C 133.117,303.475 134.784,306.642 136.5,310C 146.336,317.674 156.003,325.507 165.5,333.5C 152.248,342.042 139.081,350.709 126,359.5C 125.333,341.167 125.333,322.833 126,304.5C 127.812,303.023 129.645,301.69 131.5,300.5 Z"/></g>
<g><path style="opacity:1" fill="#fbfbfb" d="M 212.5,300.5 C 215.343,301.172 217.843,302.505 220,304.5C 220.833,322.509 220.666,340.509 219.5,358.5C 206.33,350.416 193.33,342.083 180.5,333.5C 190.164,325.341 199.997,317.341 210,309.5C 211.908,306.794 212.741,303.794 212.5,300.5 Z"/></g>
<g><path style="opacity:1" fill="#010100" d="M 303.5,306.5 C 336.168,306.333 368.835,306.5 401.5,307C 405.5,311.333 405.5,315.667 401.5,320C 368.833,320.667 336.167,320.667 303.5,320C 299.541,315.501 299.541,311.001 303.5,306.5 Z"/></g>
<g><path style="opacity:1" fill="#030202" d="M 417.5,306.5 C 424.841,306.334 432.174,306.5 439.5,307C 443.124,309.161 444.291,312.328 443,316.5C 442.5,318.333 441.333,319.5 439.5,320C 432.167,320.667 424.833,320.667 417.5,320C 413.541,315.501 413.541,311.001 417.5,306.5 Z"/></g>
<g><path style="opacity:1" fill="#586b75" d="M 69.5,496.5 C 63.1667,496.5 56.8333,496.5 50.5,496.5C 49.667,492.711 47.3336,490.211 43.5,489C 33.9226,488.82 24.4226,488.32 15,487.5C 14.024,448.453 14.3574,409.453 16,370.5C 19.5017,359.67 26.0017,351.17 35.5,345C 55.5991,337.3 75.9324,330.633 96.5,325C 87.7884,336.923 78.9551,348.756 70,360.5C 66.7877,365.133 66.7877,369.8 70,374.5C 78.0103,381.678 85.8436,389.011 93.5,396.5C 85.2099,403.62 77.0432,410.953 69,418.5C 66.735,424.782 67.4017,430.782 71,436.5C 79.3112,453.621 87.4778,470.788 95.5,488C 88.8333,488.333 82.1667,488.667 75.5,489C 72.1434,490.512 70.1434,493.012 69.5,496.5 Z"/></g>
<g><path style="opacity:1" fill="#586b75" d="M 299.5,341.5 C 302.406,346.781 304.239,352.447 305,358.5C 305.5,367.494 305.666,376.494 305.5,385.5C 296.692,392.767 291.192,402.1 289,413.5C 288.5,438.498 288.333,463.498 288.5,488.5C 275.656,488.829 262.989,488.495 250.5,487.5C 259.32,469.193 268.153,450.86 277,432.5C 278.932,427.806 278.932,423.139 277,418.5C 268.957,410.953 260.79,403.62 252.5,396.5C 259.528,389.305 267.028,382.639 275,376.5C 279.201,371.422 279.534,366.089 276,360.5C 267.108,348.656 258.775,336.656 251,324.5C 267.286,330.094 283.452,335.76 299.5,341.5 Z"/></g>
<g><path style="opacity:1" fill="#788a95" d="M 109.5,331.5 C 110.662,348.328 110.828,365.328 110,382.5C 108.667,383.833 107.333,385.167 106,386.5C 98.2595,380.561 91.0928,374.061 84.5,367C 93.0634,355.28 101.397,343.446 109.5,331.5 Z"/></g>
<g><path style="opacity:1" fill="#778894" d="M 235.5,331.5 C 244.844,342.995 253.844,354.829 262.5,367C 255.579,373.762 248.246,379.929 240.5,385.5C 238.617,385.124 237.117,384.124 236,382.5C 235.5,365.503 235.333,348.503 235.5,331.5 Z"/></g>
<g><path style="opacity:1" fill="#45585f" d="M 299.5,341.5 C 317.495,345.829 327.828,357.162 330.5,375.5C 321.014,376.103 312.681,379.436 305.5,385.5C 305.666,376.494 305.5,367.494 305,358.5C 304.239,352.447 302.406,346.781 299.5,341.5 Z"/></g>
<g><path style="opacity:1" fill="#25a2f8" d="M 171.5,347.5 C 178.953,350.601 185.953,354.601 192.5,359.5C 186.186,366.982 179.686,374.315 173,381.5C 166.314,374.315 159.814,366.982 153.5,359.5C 159.565,355.477 165.565,351.477 171.5,347.5 Z"/></g>
<g><path style="opacity:1" fill="#eef7fb" d="M 138.5,368.5 C 145.109,371.277 149.442,376.11 151.5,383C 146.854,418.108 142.687,453.275 139,488.5C 134.599,489.467 130.099,489.8 125.5,489.5C 125.167,451.827 125.5,414.161 126.5,376.5C 130.565,373.81 134.565,371.143 138.5,368.5 Z"/></g>
<g><path style="opacity:1" fill="#eef7fb" d="M 205.5,367.5 C 210.149,370.474 214.816,373.474 219.5,376.5C 220.5,414.161 220.833,451.827 220.5,489.5C 216.167,489.5 211.833,489.5 207.5,489.5C 203.106,453.158 198.772,416.825 194.5,380.5C 197.937,375.95 201.604,371.617 205.5,367.5 Z"/></g>
<g><path style="opacity:1" fill="#fbad9c" d="M 358.5,413.5 C 366.131,405.368 373.964,397.368 382,389.5C 385.97,384.533 387.47,378.866 386.5,372.5C 393.035,365.445 398.869,366.111 404,374.5C 404.755,377.303 404.422,379.97 403,382.5C 392.833,392.667 382.667,402.833 372.5,413C 367.845,413.499 363.179,413.666 358.5,413.5 Z"/></g>
<g><path style="opacity:1" fill="#fdccbd" d="M 386.5,372.5 C 387.47,378.866 385.97,384.533 382,389.5C 373.964,397.368 366.131,405.368 358.5,413.5C 340.488,413.833 322.488,413.5 304.5,412.5C 308.035,401.465 315.368,394.298 326.5,391C 339.833,390.667 353.167,390.333 366.5,390C 367.833,389.333 369.167,388.667 370.5,388C 375.702,382.63 381.035,377.464 386.5,372.5 Z"/></g>
<g><path style="opacity:1" fill="#0491f9" d="M 191.5,483.5 C 191.5,485.167 191.5,486.833 191.5,488.5C 179.167,488.5 166.833,488.5 154.5,488.5C 154.5,487.167 154.5,485.833 154.5,484.5C 158.126,454.868 161.459,425.201 164.5,395.5C 170.122,398.345 175.622,398.011 181,394.5C 184.72,424.15 188.22,453.816 191.5,483.5 Z"/></g>
<g><path style="opacity:1" fill="#788a96" d="M 109.5,402.5 C 110.664,429.664 110.83,456.997 110,484.5C 100.89,465.281 92.0567,445.948 83.5,426.5C 91.8605,418.138 100.527,410.138 109.5,402.5 Z"/></g>
<g><path style="opacity:1" fill="#778994" d="M 235.5,402.5 C 244.96,410.122 254.294,417.956 263.5,426C 254.205,444.757 245.039,463.59 236,482.5C 235.5,455.835 235.333,429.169 235.5,402.5 Z"/></g>
<g><path style="opacity:1" fill="#798b97" d="M 303.5,429.5 C 318.833,429.5 334.167,429.5 349.5,429.5C 349.5,449.167 349.5,468.833 349.5,488.5C 334.167,488.5 318.833,488.5 303.5,488.5C 303.5,468.833 303.5,449.167 303.5,429.5 Z"/></g>
<g><path style="opacity:1" fill="#566871" d="M 303.5,429.5 C 324.66,428.503 345.993,428.169 367.5,428.5C 367.667,448.169 367.5,467.836 367,487.5C 366.5,488 366,488.5 365.5,489C 344.663,489.829 323.996,489.663 303.5,488.5C 318.833,488.5 334.167,488.5 349.5,488.5C 349.5,468.833 349.5,449.167 349.5,429.5C 334.167,429.5 318.833,429.5 303.5,429.5 Z"/></g>
<g><path style="opacity:1" fill="#024372" d="M 191.5,483.5 C 192.461,485.265 192.795,487.265 192.5,489.5C 179.5,489.5 166.5,489.5 153.5,489.5C 153.216,487.585 153.549,485.919 154.5,484.5C 154.5,485.833 154.5,487.167 154.5,488.5C 166.833,488.5 179.167,488.5 191.5,488.5C 191.5,486.833 191.5,485.167 191.5,483.5 Z"/></g>
<g><path style="opacity:1" fill="#293136" d="M 250.5,487.5 C 262.989,488.495 275.656,488.829 288.5,488.5C 275.661,489.825 262.661,489.825 249.5,488.5C 249.624,487.893 249.957,487.56 250.5,487.5 Z"/></g>
</svg>
