<?xml version="1.0" encoding="UTF-8"?>
<!DOCTYPE svg PUBLIC "-//W3C//DTD SVG 1.1//EN" "http://www.w3.org/Graphics/SVG/1.1/DTD/svg11.dtd">
<svg xmlns="http://www.w3.org/2000/svg" version="1.1" width="512px" height="512px" style="shape-rendering:geometricPrecision; text-rendering:geometricPrecision; image-rendering:optimizeQuality; fill-rule:evenodd; clip-rule:evenodd" xmlns:xlink="http://www.w3.org/1999/xlink">
<g><path style="opacity:0.99" fill="#000000" d="M 137.5,7.5 C 187.124,3.71271 221.957,24.3794 242,69.5C 244.131,75.3565 245.631,81.3565 246.5,87.5C 254.415,86.8731 259.915,90.2064 263,97.5C 263.667,106.833 263.667,116.167 263,125.5C 260.186,132.49 255.019,135.823 247.5,135.5C 247.667,151.503 247.5,167.503 247,183.5C 241.578,199.982 230.078,208.315 212.5,208.5C 207.482,219.501 199.148,226.501 187.5,229.5C 187.792,233.207 188.792,236.707 190.5,240C 219.294,248.312 243.461,263.812 263,286.5C 263.5,273.504 263.667,260.504 263.5,247.5C 274.167,247.5 284.833,247.5 295.5,247.5C 295.5,215.5 295.5,183.5 295.5,151.5C 306.167,151.5 316.833,151.5 327.5,151.5C 327.5,140.833 327.5,130.167 327.5,119.5C 332.833,119.5 338.167,119.5 343.5,119.5C 343.5,130.167 343.5,140.833 343.5,151.5C 348.833,151.5 354.167,151.5 359.5,151.5C 359.5,135.5 359.5,119.5 359.5,103.5C 364.833,103.5 370.167,103.5 375.5,103.5C 375.5,119.5 375.5,135.5 375.5,151.5C 380.833,151.5 386.167,151.5 391.5,151.5C 391.5,140.833 391.5,130.167 391.5,119.5C 396.833,119.5 402.167,119.5 407.5,119.5C 407.5,130.167 407.5,140.833 407.5,151.5C 418.167,151.5 428.833,151.5 439.5,151.5C 439.5,194.167 439.5,236.833 439.5,279.5C 444.833,279.5 450.167,279.5 455.5,279.5C 455.167,311.507 455.5,343.507 456.5,375.5C 467.323,351.221 477.49,326.554 487,301.5C 487.561,300.978 488.228,300.645 489,300.5C 493.964,302.21 498.798,304.21 503.5,306.5C 494.203,329.42 485.203,352.42 476.5,375.5C 486.167,375.5 495.833,375.5 505.5,375.5C 502.148,409.735 483.815,430.902 450.5,439C 433.5,439.333 416.5,439.667 399.5,440C 390.846,465.613 373.179,475.613 346.5,470C 332.229,464.73 323.229,454.73 319.5,440C 311.507,439.5 303.507,439.334 295.5,439.5C 295.5,460.833 295.5,482.167 295.5,503.5C 215.5,503.5 135.5,503.5 55.5,503.5C 55.6666,489.829 55.4999,476.163 55,462.5C 17.0472,439.578 1.38049,405.911 8,361.5C 15.5009,310.023 42.3342,272.523 88.5,249C 96.2906,245.438 104.291,242.438 112.5,240C 114.208,236.707 115.208,233.207 115.5,229.5C 103.852,226.501 95.5184,219.501 90.5,208.5C 72.8874,208.363 61.3874,200.029 56,183.5C 55.5001,167.503 55.3334,151.503 55.5,135.5C 47.9807,135.823 42.814,132.49 40,125.5C 39.3333,116.167 39.3333,106.833 40,97.5C 43.0854,90.2064 48.5854,86.8731 56.5,87.5C 62.7977,52.7491 82.131,28.2491 114.5,14C 122.163,11.3384 129.829,9.17171 137.5,7.5 Z"/></g>
<g><path style="opacity:1" fill="#fb6d50" d="M 143.5,23.5 C 148.833,23.5 154.167,23.5 159.5,23.5C 159.5,44.8333 159.5,66.1667 159.5,87.5C 154.167,87.5 148.833,87.5 143.5,87.5C 143.5,66.1667 143.5,44.8333 143.5,23.5 Z"/></g>
<g><path style="opacity:1" fill="#fd816d" d="M 124.5,27.5 C 125.5,27.5 126.5,27.5 127.5,27.5C 127.5,47.5 127.5,67.5 127.5,87.5C 109.5,87.5 91.5,87.5 73.5,87.5C 79.7445,58.3368 96.7445,38.3368 124.5,27.5 Z"/></g>
<g><path style="opacity:1" fill="#fd816d" d="M 175.5,27.5 C 204.995,37.1596 222.995,57.1596 229.5,87.5C 211.5,87.5 193.5,87.5 175.5,87.5C 175.5,67.5 175.5,47.5 175.5,27.5 Z"/></g>
<g><path style="opacity:1" fill="#fb6e50" d="M 55.5,103.5 C 119.5,103.5 183.5,103.5 247.5,103.5C 247.5,108.833 247.5,114.167 247.5,119.5C 183.5,119.5 119.5,119.5 55.5,119.5C 55.5,114.167 55.5,108.833 55.5,103.5 Z"/></g>
<g><path style="opacity:1" fill="#646b76" d="M 71.5,135.5 C 76.8333,135.5 82.1667,135.5 87.5,135.5C 87.5,138.167 87.5,140.833 87.5,143.5C 82.1542,143.569 77.1542,144.902 72.5,147.5C 71.5091,143.555 71.1758,139.555 71.5,135.5 Z"/></g>
<g><path style="opacity:1" fill="#efcfb3" d="M 103.5,135.5 C 135.5,135.5 167.5,135.5 199.5,135.5C 199.667,156.169 199.5,176.836 199,197.5C 195.74,206.427 189.573,212.261 180.5,215C 160.833,215.667 141.167,215.667 121.5,215C 112.129,211.631 106.296,205.131 104,195.5C 103.5,175.503 103.333,155.503 103.5,135.5 Z"/></g>
<g><path style="opacity:1" fill="#636b76" d="M 215.5,135.5 C 220.833,135.5 226.167,135.5 231.5,135.5C 231.824,139.555 231.491,143.555 230.5,147.5C 225.771,145.154 220.771,143.821 215.5,143.5C 215.5,140.833 215.5,138.167 215.5,135.5 Z"/></g>
<g><path style="opacity:1" fill="#ebccb0" d="M 82.5,159.5 C 84.1667,159.5 85.8333,159.5 87.5,159.5C 87.5,170.167 87.5,180.833 87.5,191.5C 73.073,188.651 68.573,180.317 74,166.5C 76.4412,163.546 79.2745,161.213 82.5,159.5 Z"/></g>
<g><path style="opacity:1" fill="#ebcbb0" d="M 215.5,159.5 C 229.927,162.349 234.427,170.683 229,184.5C 225.66,189.087 221.16,191.42 215.5,191.5C 215.5,180.833 215.5,170.167 215.5,159.5 Z"/></g>
<g><path style="opacity:1" fill="#deb28a" d="M 311.5,167.5 C 348.833,167.5 386.167,167.5 423.5,167.5C 423.5,204.833 423.5,242.167 423.5,279.5C 407.5,279.5 391.5,279.5 375.5,279.5C 375.5,268.833 375.5,258.167 375.5,247.5C 354.167,247.5 332.833,247.5 311.5,247.5C 311.5,220.833 311.5,194.167 311.5,167.5 Z"/></g>
<g><path style="opacity:1" fill="#000000" d="M 327.5,183.5 C 332.833,183.5 338.167,183.5 343.5,183.5C 343.5,188.833 343.5,194.167 343.5,199.5C 338.167,199.5 332.833,199.5 327.5,199.5C 327.5,194.167 327.5,188.833 327.5,183.5 Z"/></g>
<g><path style="opacity:1" fill="#000000" d="M 359.5,183.5 C 364.833,183.5 370.167,183.5 375.5,183.5C 375.5,188.833 375.5,194.167 375.5,199.5C 370.167,199.5 364.833,199.5 359.5,199.5C 359.5,194.167 359.5,188.833 359.5,183.5 Z"/></g>
<g><path style="opacity:1" fill="#000000" d="M 391.5,183.5 C 396.833,183.5 402.167,183.5 407.5,183.5C 407.5,188.833 407.5,194.167 407.5,199.5C 402.167,199.5 396.833,199.5 391.5,199.5C 391.5,194.167 391.5,188.833 391.5,183.5 Z"/></g>
<g><path style="opacity:1" fill="#000000" d="M 327.5,215.5 C 332.833,215.5 338.167,215.5 343.5,215.5C 343.5,220.833 343.5,226.167 343.5,231.5C 338.167,231.5 332.833,231.5 327.5,231.5C 327.5,226.167 327.5,220.833 327.5,215.5 Z"/></g>
<g><path style="opacity:1" fill="#000000" d="M 359.5,215.5 C 364.833,215.5 370.167,215.5 375.5,215.5C 375.5,220.833 375.5,226.167 375.5,231.5C 370.167,231.5 364.833,231.5 359.5,231.5C 359.5,226.167 359.5,220.833 359.5,215.5 Z"/></g>
<g><path style="opacity:1" fill="#000000" d="M 391.5,215.5 C 396.833,215.5 402.167,215.5 407.5,215.5C 407.5,220.833 407.5,226.167 407.5,231.5C 402.167,231.5 396.833,231.5 391.5,231.5C 391.5,226.167 391.5,220.833 391.5,215.5 Z"/></g>
<g><path style="opacity:1" fill="#edcdb1" d="M 132.5,231.5 C 145.167,231.5 157.833,231.5 170.5,231.5C 172.208,236.772 173.375,242.105 174,247.5C 166.5,258.5 159,269.5 151.5,280.5C 144,269.5 136.5,258.5 129,247.5C 129.625,242.105 130.792,236.772 132.5,231.5 Z"/></g>
<g><path style="opacity:1" fill="#000000" d="M 391.5,247.5 C 396.833,247.5 402.167,247.5 407.5,247.5C 407.5,252.833 407.5,258.167 407.5,263.5C 402.167,263.5 396.833,263.5 391.5,263.5C 391.5,258.167 391.5,252.833 391.5,247.5 Z"/></g>
<g><path style="opacity:1" fill="#fad56f" d="M 107.5,258.5 C 108.833,258.5 110.167,258.5 111.5,258.5C 111.5,311.5 111.5,364.5 111.5,417.5C 90.7476,415.545 77.581,404.545 72,384.5C 71.5001,370.837 71.3334,357.171 71.5,343.5C 66.1667,343.5 60.8333,343.5 55.5,343.5C 55.1238,358.54 55.6238,373.54 57,388.5C 61.2005,407.706 72.3672,421.206 90.5,429C 102.704,432.477 115.037,435.311 127.5,437.5C 127.5,443.5 127.5,449.5 127.5,455.5C 113.163,455.667 98.8295,455.5 84.5,455C 51.6794,447.513 31.5128,427.346 24,394.5C 19.6391,338.279 41.4725,295.779 89.5,267C 95.5599,264.049 101.56,261.215 107.5,258.5 Z"/></g>
<g><path style="opacity:1" fill="#fad56f" d="M 191.5,258.5 C 222.585,268.42 246.418,287.42 263,315.5C 263.5,335.497 263.667,355.497 263.5,375.5C 261.876,375.64 260.71,374.973 260,373.5C 250.458,349.037 240.624,324.704 230.5,300.5C 225.489,302.339 220.822,304.672 216.5,307.5C 225.696,329.753 234.696,352.087 243.5,374.5C 233.856,375.498 224.19,375.832 214.5,375.5C 215.593,391.289 221.093,405.289 231,417.5C 231.5,440.831 231.667,464.164 231.5,487.5C 218.167,487.5 204.833,487.5 191.5,487.5C 191.5,482.167 191.5,476.833 191.5,471.5C 206.068,469.765 214.068,461.598 215.5,447C 213.647,432.981 205.647,425.147 191.5,423.5C 191.5,368.5 191.5,313.5 191.5,258.5 Z"/></g>
<g><path style="opacity:1" fill="#e5e9ec" d="M 279.5,263.5 C 306.167,263.5 332.833,263.5 359.5,263.5C 359.5,300.833 359.5,338.167 359.5,375.5C 332.833,375.5 306.167,375.5 279.5,375.5C 279.5,338.167 279.5,300.833 279.5,263.5 Z"/></g>
<g><path style="opacity:1" fill="#c7ccd4" d="M 127.5,274.5 C 132.267,281.181 136.934,288.014 141.5,295C 137,300.833 132.5,306.667 128,312.5C 127.5,299.838 127.333,287.171 127.5,274.5 Z"/></g>
<g><path style="opacity:1" fill="#c7ccd4" d="M 174.5,274.5 C 175.66,286.993 175.827,299.66 175,312.5C 170.5,306.667 166,300.833 161.5,295C 166.23,288.364 170.563,281.531 174.5,274.5 Z"/></g>
<g><path style="opacity:1" fill="#000000" d="M 295.5,279.5 C 300.833,279.5 306.167,279.5 311.5,279.5C 311.5,306.167 311.5,332.833 311.5,359.5C 306.167,359.5 300.833,359.5 295.5,359.5C 295.5,332.833 295.5,306.167 295.5,279.5 Z"/></g>
<g><path style="opacity:1" fill="#000000" d="M 327.5,279.5 C 332.833,279.5 338.167,279.5 343.5,279.5C 343.5,306.167 343.5,332.833 343.5,359.5C 338.167,359.5 332.833,359.5 327.5,359.5C 327.5,332.833 327.5,306.167 327.5,279.5 Z"/></g>
<g><path style="opacity:1" fill="#d2a06b" d="M 375.5,295.5 C 396.833,295.5 418.167,295.5 439.5,295.5C 439.5,322.167 439.5,348.833 439.5,375.5C 418.167,375.5 396.833,375.5 375.5,375.5C 375.5,348.833 375.5,322.167 375.5,295.5 Z"/></g>
<g><path style="opacity:1" fill="#e5e8ec" d="M 150.5,308.5 C 159.125,317.638 167.292,327.305 175,337.5C 175.5,361.164 175.667,384.831 175.5,408.5C 158.339,403.499 144.339,407.999 133.5,422C 131.559,422.743 129.726,422.576 128,421.5C 127.333,393.5 127.333,365.5 128,337.5C 135.739,327.939 143.239,318.272 150.5,308.5 Z"/></g>
<g><path style="opacity:1" fill="#000000" d="M 391.5,311.5 C 402.167,311.5 412.833,311.5 423.5,311.5C 423.5,316.833 423.5,322.167 423.5,327.5C 412.833,327.5 402.167,327.5 391.5,327.5C 391.5,322.167 391.5,316.833 391.5,311.5 Z"/></g>
<g><path style="opacity:1" fill="#000000" d="M 391.5,343.5 C 402.167,343.5 412.833,343.5 423.5,343.5C 423.5,348.833 423.5,354.167 423.5,359.5C 412.833,359.5 402.167,359.5 391.5,359.5C 391.5,354.167 391.5,348.833 391.5,343.5 Z"/></g>
<g><path style="opacity:1" fill="#a9b1bc" d="M 234.5,391.5 C 317.833,391.5 401.167,391.5 484.5,391.5C 477.786,409.037 465.119,419.537 446.5,423C 430.156,423.833 413.823,423.666 397.5,422.5C 394.637,416.137 389.97,411.637 383.5,409C 375.406,407.88 367.24,407.38 359,407.5C 351.833,407.667 344.667,407.833 337.5,408C 330.118,410.547 324.785,415.38 321.5,422.5C 304.843,423.666 288.177,423.833 271.5,423C 253.428,419.084 241.094,408.584 234.5,391.5 Z"/></g>
<g><path style="opacity:1" fill="#eeceb2" d="M 154.5,423.5 C 160.621,423.09 166.621,423.59 172.5,425C 173.701,425.903 174.535,427.069 175,428.5C 175.499,432.152 175.665,435.818 175.5,439.5C 182.615,439.075 189.615,439.575 196.5,441C 200.5,445.333 200.5,449.667 196.5,454C 178.927,455.473 161.261,455.973 143.5,455.5C 143.334,448.492 143.5,441.492 144,434.5C 147.704,430.964 151.204,427.298 154.5,423.5 Z"/></g>
<g><path style="opacity:1" fill="#edcdb1" d="M 340.5,423.5 C 353.171,423.333 365.838,423.5 378.5,424C 380.667,424.833 382.167,426.333 383,428.5C 383.841,441.631 378.008,450.465 365.5,455C 351.192,456.761 341.358,450.928 336,437.5C 334.309,431.61 335.809,426.944 340.5,423.5 Z"/></g>
<g><path style="opacity:1" fill="#fbd66f" d="M 247.5,431.5 C 257.529,436.674 268.195,439.34 279.5,439.5C 279.5,455.5 279.5,471.5 279.5,487.5C 268.833,487.5 258.167,487.5 247.5,487.5C 247.5,468.833 247.5,450.167 247.5,431.5 Z"/></g>
<g><path style="opacity:1" fill="#fbd66f" d="M 71.5,468.5 C 84.6897,471.05 98.023,472.05 111.5,471.5C 111.5,476.833 111.5,482.167 111.5,487.5C 98.1667,487.5 84.8333,487.5 71.5,487.5C 71.5,481.167 71.5,474.833 71.5,468.5 Z"/></g>
<g><path style="opacity:1" fill="#e5e9ec" d="M 127.5,471.5 C 143.5,471.5 159.5,471.5 175.5,471.5C 175.5,476.833 175.5,482.167 175.5,487.5C 159.5,487.5 143.5,487.5 127.5,487.5C 127.5,482.167 127.5,476.833 127.5,471.5 Z"/></g>
</svg>
