<?xml version="1.0" encoding="UTF-8"?>
<!DOCTYPE svg PUBLIC "-//W3C//DTD SVG 1.1//EN" "http://www.w3.org/Graphics/SVG/1.1/DTD/svg11.dtd">
<svg xmlns="http://www.w3.org/2000/svg" version="1.1" width="512px" height="512px" style="shape-rendering:geometricPrecision; text-rendering:geometricPrecision; image-rendering:optimizeQuality; fill-rule:evenodd; clip-rule:evenodd" xmlns:xlink="http://www.w3.org/1999/xlink">
<g><path style="opacity:0.98" fill="#020101" d="M 48.5,-0.5 C 65.5,-0.5 82.5,-0.5 99.5,-0.5C 99.5,24.1667 99.5,48.8333 99.5,73.5C 126.5,73.5 153.5,73.5 180.5,73.5C 180.5,48.8333 180.5,24.1667 180.5,-0.5C 197.5,-0.5 214.5,-0.5 231.5,-0.5C 231.333,63.8342 231.5,128.168 232,192.5C 236.843,195.588 241.509,198.921 246,202.5C 246.5,189.838 246.667,177.171 246.5,164.5C 257.5,164.5 268.5,164.5 279.5,164.5C 279.5,147.833 279.5,131.167 279.5,114.5C 356.833,114.5 434.167,114.5 511.5,114.5C 511.5,169.833 511.5,225.167 511.5,280.5C 476.16,280.167 440.827,280.5 405.5,281.5C 411.927,290.854 416.594,301.021 419.5,312C 434.833,312.333 450.167,312.667 465.5,313C 477.333,315.5 484.5,322.667 487,334.5C 487.667,347.833 487.667,361.167 487,374.5C 485.187,384.312 479.687,391.145 470.5,395C 462.236,396.37 453.903,396.87 445.5,396.5C 445.5,401.5 445.5,406.5 445.5,411.5C 457.171,411.333 468.838,411.5 480.5,412C 496.462,413.806 506.795,422.306 511.5,437.5C 511.5,453.833 511.5,470.167 511.5,486.5C 507.5,499.167 499.167,507.5 486.5,511.5C 409.5,511.5 332.5,511.5 255.5,511.5C 247.151,508.828 240.485,503.828 235.5,496.5C 217.512,495.5 199.512,495.167 181.5,495.5C 180.965,503.027 177.299,508.361 170.5,511.5C 141.5,511.5 112.5,511.5 83.5,511.5C 73.8697,509.079 65.203,504.579 57.5,498C 46.3333,484.833 35.1667,471.667 24,458.5C 17.0515,447.486 14.3848,435.486 16,422.5C 17.1856,417.443 18.1856,412.443 19,407.5C 10.9661,398.735 4.4661,389.069 -0.5,378.5C -0.5,372.833 -0.5,367.167 -0.5,361.5C 1.81368,354.054 5.81368,347.554 11.5,342C 24.4558,334.033 37.1224,325.699 49.5,317C 48.5033,211.195 48.1699,105.362 48.5,-0.5 Z M 99.5,123.5 C 126.5,123.5 153.5,123.5 180.5,123.5C 180.832,136.184 180.499,148.851 179.5,161.5C 162.184,152.713 145.851,154.213 130.5,166C 128.548,168.074 126.715,170.241 125,172.5C 116.667,186.5 108.333,200.5 100,214.5C 99.5,184.168 99.3334,153.835 99.5,123.5 Z M 134.5,288.5 C 168.502,288.333 202.502,288.5 236.5,289C 254.758,316.088 261.258,345.922 256,378.5C 258.744,386.245 263.911,391.745 271.5,395C 279.764,396.37 288.097,396.87 296.5,396.5C 296.5,401.5 296.5,406.5 296.5,411.5C 285.162,411.333 273.828,411.5 262.5,412C 258.384,412.325 254.384,413.159 250.5,414.5C 246.321,409.822 241.988,405.322 237.5,401C 228.78,396.281 219.447,394.281 209.5,395C 194.939,377.494 177.939,374.494 158.5,386C 152.882,392.062 148.382,398.896 145,406.5C 139.39,411.119 132.89,412.785 125.5,411.5C 123.117,398.967 119.95,386.634 116,374.5C 112.053,368.447 106.553,364.781 99.5,363.5C 99.6662,357.158 99.4995,350.825 99,344.5C 98.9381,340.611 97.7715,337.111 95.5,334C 99.9668,330.535 104.133,326.702 108,322.5C 116.666,311.005 125.5,299.671 134.5,288.5 Z M 47.5,339.5 C 48.3764,339.369 49.0431,339.702 49.5,340.5C 48.8496,354.467 48.1829,368.467 47.5,382.5C 41.3978,385.298 35.8978,388.965 31,393.5C 24.8445,387.848 20.1778,381.182 17,373.5C 15.8193,366.709 17.6526,360.876 22.5,356C 31.2415,350.973 39.5748,345.473 47.5,339.5 Z"/></g>
<g><path style="opacity:1" fill="#a9b1bb" d="M 65.5,16.5 C 70.8333,16.5 76.1667,16.5 81.5,16.5C 81.5,93.5 81.5,170.5 81.5,247.5C 76.5965,256.304 71.4298,264.971 66,273.5C 65.5,187.834 65.3333,102.167 65.5,16.5 Z"/></g>
<g><path style="opacity:1" fill="#61656c" d="M 65.5,16.5 C 70.9753,15.5111 76.642,15.1778 82.5,15.5C 82.8326,93.0018 82.4993,170.335 81.5,247.5C 81.5,170.5 81.5,93.5 81.5,16.5C 76.1667,16.5 70.8333,16.5 65.5,16.5 Z"/></g>
<g><path style="opacity:1" fill="#a9b1bc" d="M 212.5,182.5 C 207.533,181.012 202.866,179.012 198.5,176.5C 198.5,123.167 198.5,69.8333 198.5,16.5C 203.5,16.5 208.5,16.5 213.5,16.5C 213.832,72.0025 213.499,127.336 212.5,182.5 Z"/></g>
<g><path style="opacity:1" fill="#7b8088" d="M 212.5,182.5 C 213.499,127.336 213.832,72.0025 213.5,16.5C 208.5,16.5 203.5,16.5 198.5,16.5C 198.5,69.8333 198.5,123.167 198.5,176.5C 197.501,123.003 197.168,69.3359 197.5,15.5C 203.167,15.5 208.833,15.5 214.5,15.5C 214.833,71.504 214.5,127.504 213.5,183.5C 212.893,183.376 212.56,183.043 212.5,182.5 Z"/></g>
<g><path style="opacity:1" fill="#cacfd7" d="M 98.5,90.5 C 126.167,90.5 153.833,90.5 181.5,90.5C 181.5,95.8333 181.5,101.167 181.5,106.5C 153.833,106.5 126.167,106.5 98.5,106.5C 98.5,101.167 98.5,95.8333 98.5,90.5 Z"/></g>
<g><path style="opacity:1" fill="#af7745" d="M 296.5,131.5 C 307.5,131.5 318.5,131.5 329.5,131.5C 329.5,142.5 329.5,153.5 329.5,164.5C 318.5,164.5 307.5,164.5 296.5,164.5C 296.5,153.5 296.5,142.5 296.5,131.5 Z"/></g>
<g><path style="opacity:1" fill="#d29f6b" d="M 346.5,131.5 C 362.833,131.5 379.167,131.5 395.5,131.5C 395.5,142.5 395.5,153.5 395.5,164.5C 379.167,164.5 362.833,164.5 346.5,164.5C 346.5,153.5 346.5,142.5 346.5,131.5 Z"/></g>
<g><path style="opacity:1" fill="#b17845" d="M 412.5,131.5 C 428.833,131.5 445.167,131.5 461.5,131.5C 461.5,142.5 461.5,153.5 461.5,164.5C 445.167,164.5 428.833,164.5 412.5,164.5C 412.5,153.5 412.5,142.5 412.5,131.5 Z"/></g>
<g><path style="opacity:1" fill="#cb9a68" d="M 478.5,131.5 C 484.167,131.5 489.833,131.5 495.5,131.5C 495.5,142.5 495.5,153.5 495.5,164.5C 489.833,164.5 484.167,164.5 478.5,164.5C 478.5,153.5 478.5,142.5 478.5,131.5 Z"/></g>
<g><path style="opacity:1" fill="#fb806c" d="M 153.5,172.5 C 158.705,172.134 163.705,172.967 168.5,175C 148.496,186.348 143.329,202.514 153,223.5C 155.691,226.127 157.358,229.127 158,232.5C 134.833,261 111.667,289.5 88.5,318C 81.4021,322.774 74.5687,322.608 68,317.5C 65.2125,313.33 64.8791,308.997 67,304.5C 90.5855,264.998 113.919,225.331 137,185.5C 140.962,179.019 146.462,174.686 153.5,172.5 Z"/></g>
<g><path style="opacity:1" fill="#d2a06b" d="M 264.5,181.5 C 275.167,181.5 285.833,181.5 296.5,181.5C 296.5,192.167 296.5,202.833 296.5,213.5C 296.5,202.833 296.5,192.167 296.5,181.5C 285.833,181.5 275.167,181.5 264.5,181.5 Z"/></g>
<g><path style="opacity:1" fill="#b07845" d="M 313.5,181.5 C 329.833,181.5 346.167,181.5 362.5,181.5C 362.5,192.5 362.5,203.5 362.5,214.5C 346.167,214.5 329.833,214.5 313.5,214.5C 313.5,203.5 313.5,192.5 313.5,181.5 Z"/></g>
<g><path style="opacity:1" fill="#d2a06b" d="M 428.5,181.5 C 428.5,192.167 428.5,202.833 428.5,213.5C 412.167,213.5 395.833,213.5 379.5,213.5C 379.5,202.833 379.5,192.167 379.5,181.5C 395.833,181.5 412.167,181.5 428.5,181.5 Z"/></g>
<g><path style="opacity:1" fill="#b17945" d="M 494.5,181.5 C 494.5,192.167 494.5,202.833 494.5,213.5C 478.167,213.5 461.833,213.5 445.5,213.5C 445.5,202.833 445.5,192.167 445.5,181.5C 461.833,181.5 478.167,181.5 494.5,181.5 Z"/></g>
<g><path style="opacity:1" fill="#fb806c" d="M 176.5,189.5 C 183.515,189.42 190.182,190.92 196.5,194C 233.252,209.361 261.919,234.027 282.5,268C 273.555,276.717 266.721,286.884 262,298.5C 248.81,271.308 229.31,249.808 203.5,234C 192.034,228.297 180.534,222.797 169,217.5C 161.28,205.306 163.78,195.973 176.5,189.5 Z"/></g>
<g><path style="opacity:1" fill="#9a754e" d="M 264.5,181.5 C 264.5,192.167 264.5,202.833 264.5,213.5C 275.167,213.5 285.833,213.5 296.5,213.5C 285.679,214.495 274.679,214.828 263.5,214.5C 263.172,203.321 263.505,192.321 264.5,181.5 Z"/></g>
<g><path style="opacity:1" fill="#876644" d="M 428.5,181.5 C 429.495,192.321 429.828,203.321 429.5,214.5C 412.658,214.83 395.992,214.497 379.5,213.5C 395.833,213.5 412.167,213.5 428.5,213.5C 428.5,202.833 428.5,192.167 428.5,181.5 Z"/></g>
<g><path style="opacity:1" fill="#75502d" d="M 494.5,181.5 C 495.495,192.321 495.828,203.321 495.5,214.5C 478.658,214.83 461.992,214.497 445.5,213.5C 461.833,213.5 478.167,213.5 494.5,213.5C 494.5,202.833 494.5,192.167 494.5,181.5 Z"/></g>
<g><path style="opacity:1" fill="#8c6037" d="M 312.5,251.5 C 312.5,244.833 312.5,238.167 312.5,231.5C 300.833,231.5 289.167,231.5 277.5,231.5C 288.752,230.501 300.752,230.168 313.5,230.5C 313.825,237.687 313.491,244.687 312.5,251.5 Z"/></g>
<g><path style="opacity:1" fill="#a77e55" d="M 376.5,256.5 C 378.468,248.567 379.135,240.234 378.5,231.5C 362.5,231.5 346.5,231.5 330.5,231.5C 330.5,236.833 330.5,242.167 330.5,247.5C 329.511,242.025 329.178,236.358 329.5,230.5C 346.167,230.5 362.833,230.5 379.5,230.5C 379.666,239.839 379.5,249.173 379,258.5C 378.005,257.934 377.172,257.267 376.5,256.5 Z"/></g>
<g><path style="opacity:1" fill="#af7745" d="M 277.5,231.5 C 289.167,231.5 300.833,231.5 312.5,231.5C 312.5,238.167 312.5,244.833 312.5,251.5C 306.954,253.271 301.621,255.605 296.5,258.5C 290.505,249.187 284.172,240.187 277.5,231.5 Z"/></g>
<g><path style="opacity:1" fill="#d19e6b" d="M 376.5,256.5 C 361.948,249.656 346.615,246.656 330.5,247.5C 330.5,242.167 330.5,236.833 330.5,231.5C 346.5,231.5 362.5,231.5 378.5,231.5C 379.135,240.234 378.468,248.567 376.5,256.5 Z"/></g>
<g><path style="opacity:1" fill="#af7745" d="M 395.5,230.5 C 412.167,230.5 428.833,230.5 445.5,230.5C 445.5,241.5 445.5,252.5 445.5,263.5C 428.833,263.5 412.167,263.5 395.5,263.5C 395.5,252.5 395.5,241.5 395.5,230.5 Z"/></g>
<g><path style="opacity:1" fill="#cb9a68" d="M 461.5,230.5 C 472.833,230.5 484.167,230.5 495.5,230.5C 495.5,241.5 495.5,252.5 495.5,263.5C 484.167,263.5 472.833,263.5 461.5,263.5C 461.5,252.5 461.5,241.5 461.5,230.5 Z"/></g>
<g><path style="opacity:1" fill="#a8b0bb" d="M 223.5,271.5 C 198.328,271.831 173.328,271.498 148.5,270.5C 156.795,259.538 165.461,248.871 174.5,238.5C 193.733,245.277 210.067,256.277 223.5,271.5 Z"/></g>
<g><path style="opacity:1" fill="#f76b4f" d="M 329.5,263.5 C 373.674,263.668 399.007,285.668 405.5,329.5C 425.925,329.024 446.259,329.524 466.5,331C 468.049,332.214 469.215,333.714 470,335.5C 470.667,348.167 470.667,360.833 470,373.5C 468.833,376 467,377.833 464.5,379C 401.418,379.992 338.418,379.659 275.5,378C 273.951,376.786 272.785,375.286 272,373.5C 271.333,356.5 271.333,339.5 272,322.5C 278.268,290.067 297.435,270.401 329.5,263.5 Z"/></g>
<g><path style="opacity:1" fill="#5a5e64" d="M 148.5,270.5 C 173.328,271.498 198.328,271.831 223.5,271.5C 211.741,272.176 199.241,272.509 186,272.5C 173.167,272.167 160.333,271.833 147.5,271.5C 147.624,270.893 147.957,270.56 148.5,270.5 Z"/></g>
<g><path style="opacity:1" fill="#020202" d="M 396.5,361.5 C 360.671,362.498 324.671,362.832 288.5,362.5C 288.333,349.163 288.5,335.829 289,322.5C 293.334,302.277 305.167,288.777 324.5,282C 354.911,276.948 375.411,288.782 386,317.5C 389.819,332.109 393.319,346.776 396.5,361.5 Z"/></g>
<g><path style="opacity:1" fill="#67d3f0" d="M 332.5,296.5 C 337.537,296.413 342.537,296.746 347.5,297.5C 342.704,313.888 337.704,330.221 332.5,346.5C 323.5,346.5 314.5,346.5 305.5,346.5C 299.983,321.51 308.983,304.844 332.5,296.5 Z"/></g>
<g><path style="opacity:1" fill="#4cbbe1" d="M 361.5,308.5 C 363.017,308.511 364.184,309.177 365,310.5C 370.362,321.946 373.862,333.946 375.5,346.5C 366.808,346.831 358.141,346.498 349.5,345.5C 353.908,333.278 357.908,320.944 361.5,308.5 Z"/></g>
<g><path style="opacity:1" fill="#f26a4e" d="M 69.5,338.5 C 75.4888,337.065 79.6554,339.065 82,344.5C 82.8313,351.856 82.6646,359.189 81.5,366.5C 76.2549,369.039 71.0883,371.706 66,374.5C 65.3333,364.167 65.3333,353.833 66,343.5C 66.9973,341.677 68.1639,340.01 69.5,338.5 Z"/></g>
<g><path style="opacity:1" fill="#010000" d="M 420.5,346.5 C 431.5,346.5 442.5,346.5 453.5,346.5C 453.5,351.833 453.5,357.167 453.5,362.5C 442.5,362.5 431.5,362.5 420.5,362.5C 420.5,357.167 420.5,351.833 420.5,346.5 Z"/></g>
<g><path style="opacity:1" fill="#a84936" d="M 396.5,361.5 C 397.043,361.56 397.376,361.893 397.5,362.5C 361.002,363.83 324.669,363.83 288.5,362.5C 324.671,362.832 360.671,362.498 396.5,361.5 Z"/></g>
<g><path style="opacity:1" fill="#fd816d" d="M 90.5,379.5 C 97.7703,378.217 101.937,381.217 103,388.5C 110.345,418.215 117.845,447.881 125.5,477.5C 138.483,478.499 151.483,478.832 164.5,478.5C 164.5,483.833 164.5,489.167 164.5,494.5C 137.831,494.667 111.165,494.5 84.5,494C 76.0453,491.558 69.212,486.725 64,479.5C 55.5712,468.982 46.9046,458.648 38,448.5C 27.6691,428.506 31.8357,412.34 50.5,400C 64.0508,393.392 77.3842,386.559 90.5,379.5 Z"/></g>
<g><path style="opacity:1" fill="#62676c" d="M 313.5,396.5 C 351.996,395.501 390.663,395.168 429.5,395.5C 429.822,401.358 429.489,407.025 428.5,412.5C 428.5,407.167 428.5,401.833 428.5,396.5C 390.167,396.5 351.833,396.5 313.5,396.5 Z"/></g>
<g><path style="opacity:1" fill="#cd9c74" d="M 176.5,395.5 C 180.41,395.263 184.077,396.096 187.5,398C 192.801,402.3 197.801,406.966 202.5,412C 210.244,412.103 217.911,412.769 225.5,414C 229.667,416.833 233.167,420.333 236,424.5C 234.681,429.505 233.014,434.505 231,439.5C 230.5,452.496 230.333,465.496 230.5,478.5C 214.167,478.5 197.833,478.5 181.5,478.5C 180.906,471.143 177.239,465.976 170.5,463C 159.564,461.594 148.564,461.094 137.5,461.5C 135.149,450.762 132.482,440.096 129.5,429.5C 141.322,429.51 151.155,425.177 159,416.5C 162,411.167 165,405.833 168,400.5C 170.682,398.415 173.516,396.748 176.5,395.5 Z"/></g>
<g><path style="opacity:1" fill="#a9b1bc" d="M 313.5,396.5 C 351.833,396.5 390.167,396.5 428.5,396.5C 428.5,401.833 428.5,407.167 428.5,412.5C 390.167,412.5 351.833,412.5 313.5,412.5C 313.5,407.167 313.5,401.833 313.5,396.5 Z"/></g>
<g><path style="opacity:1" fill="#070503" d="M 177.5,412.5 C 185.34,411.624 189.173,414.958 189,422.5C 188.015,426.666 185.348,428.666 181,428.5C 178.739,428.561 176.739,427.894 175,426.5C 172.418,421.12 173.251,416.453 177.5,412.5 Z"/></g>
<g><path style="opacity:1" fill="#c8cdd5" d="M 260.5,428.5 C 333.834,428.333 407.167,428.5 480.5,429C 488.22,430.386 493.053,434.886 495,442.5C 495.667,455.167 495.667,467.833 495,480.5C 493.839,487.346 490.006,491.846 483.5,494C 408.167,494.667 332.833,494.667 257.5,494C 252.565,491.632 249.398,487.799 248,482.5C 247.333,468.167 247.333,453.833 248,439.5C 250.708,434.079 254.875,430.413 260.5,428.5 Z"/></g>
<g><path style="opacity:1" fill="#020303" d="M 299.5,437.5 C 320.646,436.479 330.479,446.479 329,467.5C 322.592,484.53 310.758,490.03 293.5,484C 279.979,474.997 276.813,463.163 284,448.5C 288.011,442.957 293.177,439.29 299.5,437.5 Z"/></g>
<g><path style="opacity:1" fill="#030303" d="M 365.5,437.5 C 386.677,436.509 396.51,446.509 395,467.5C 390.33,482.429 380.163,488.596 364.5,486C 348.535,478.903 343.369,467.069 349,450.5C 352.969,444.01 358.469,439.676 365.5,437.5 Z"/></g>
<g><path style="opacity:1" fill="#030303" d="M 430.5,437.5 C 452.187,436.021 462.353,446.021 461,467.5C 456.33,482.429 446.163,488.596 430.5,486C 414.535,478.903 409.369,467.069 415,450.5C 418.869,444.452 424.035,440.118 430.5,437.5 Z"/></g>
<g><path style="opacity:1" fill="#090604" d="M 202.5,445.5 C 213.313,445.777 216.313,450.61 211.5,460C 202.084,463.554 197.584,460.387 198,450.5C 199.707,448.963 201.207,447.296 202.5,445.5 Z"/></g>
<g><path style="opacity:1" fill="#8e97a1" d="M 302.5,453.5 C 311.365,453.847 314.532,458.181 312,466.5C 306.186,472.205 301.186,471.538 297,464.5C 296.176,459.482 298.009,455.815 302.5,453.5 Z"/></g>
<g><path style="opacity:1" fill="#8e97a1" d="M 368.5,453.5 C 377.365,453.847 380.532,458.181 378,466.5C 372.186,472.205 367.186,471.538 363,464.5C 362.176,459.482 364.009,455.815 368.5,453.5 Z"/></g>
<g><path style="opacity:1" fill="#9099a3" d="M 434.5,453.5 C 442.033,453.529 445.533,457.196 445,464.5C 440.33,471.977 435.33,472.311 430,465.5C 428.309,460.131 429.809,456.131 434.5,453.5 Z"/></g>
</svg>
