<?xml version="1.0" encoding="UTF-8"?>
<!DOCTYPE svg PUBLIC "-//W3C//DTD SVG 1.1//EN" "http://www.w3.org/Graphics/SVG/1.1/DTD/svg11.dtd">
<svg xmlns="http://www.w3.org/2000/svg" version="1.1" width="512px" height="512px" style="shape-rendering:geometricPrecision; text-rendering:geometricPrecision; image-rendering:optimizeQuality; fill-rule:evenodd; clip-rule:evenodd" xmlns:xlink="http://www.w3.org/1999/xlink">
<g><path style="opacity:0.981" fill="#020101" d="M 410.5,-0.5 C 411.833,-0.5 413.167,-0.5 414.5,-0.5C 418.568,0.471604 422.568,1.9716 426.5,4C 436,13.5 445.5,23 455,32.5C 461,41.8333 461,51.1667 455,60.5C 440.833,74.6667 426.667,88.8333 412.5,103C 432.167,103.333 451.833,103.667 471.5,104C 472.931,104.465 474.097,105.299 475,106.5C 476.325,158.417 476.991,210.417 477,262.5C 484.167,255.333 491.333,248.167 498.5,241C 503.649,238.467 507.982,239.3 511.5,243.5C 511.5,331.5 511.5,419.5 511.5,507.5C 509.728,509.29 507.728,510.623 505.5,511.5C 419.167,511.5 332.833,511.5 246.5,511.5C 240.499,508.51 238.999,503.843 242,497.5C 255.833,483.667 269.667,469.833 283.5,456C 203.814,455.971 124.147,455.304 44.5,454C 20.1013,447.437 5.10133,431.937 -0.5,407.5C -0.5,295.167 -0.5,182.833 -0.5,70.5C 6.97238,41.2014 25.8057,24.868 56,21.5C 60.4837,21.0928 63.817,22.7594 66,26.5C 66.5,52.1645 66.6666,77.8312 66.5,103.5C 144.167,103.667 221.834,103.5 299.5,103C 332.5,70 365.5,37 398.5,4C 402.432,1.9716 406.432,0.471604 410.5,-0.5 Z M 440.5,387.5 C 441.497,405.326 441.83,423.326 441.5,441.5C 423.497,441.667 405.497,441.5 387.5,441C 405.368,423.299 423.035,405.465 440.5,387.5 Z"/></g>
<g><path style="opacity:1" fill="#536d78" d="M 435.5,35.5 C 434.872,38.09 433.705,40.4234 432,42.5C 427.241,47.7659 422.075,52.4325 416.5,56.5C 408.535,49.0358 400.702,41.3691 393,33.5C 392.333,32.8333 392.333,32.1667 393,31.5C 397.833,26.6667 402.667,21.8333 407.5,17C 410.833,15 414.167,15 417.5,17C 423.703,23.0352 429.703,29.2019 435.5,35.5 Z"/></g>
<g><path style="opacity:1" fill="#465b61" d="M 435.5,35.5 C 438.5,37.6676 441,40.3343 443,43.5C 443.755,46.3033 443.422,48.9699 442,51.5C 436.985,56.6818 431.819,61.6818 426.5,66.5C 422.812,63.479 419.479,60.1456 416.5,56.5C 422.075,52.4325 427.241,47.7659 432,42.5C 433.705,40.4234 434.872,38.09 435.5,35.5 Z"/></g>
<g><path style="opacity:1" fill="#909090" d="M 49.5,38.5 C 50.1667,114.167 50.8333,189.833 51.5,265.5C 52.2776,269.899 54.9443,271.899 59.5,271.5C 58.5546,276.405 58.2213,281.405 58.5,286.5C 59.791,286.263 60.791,286.596 61.5,287.5C 57.713,286.814 54.5463,287.814 52,290.5C 51.6667,307.5 51.3333,324.5 51,341.5C 36.8991,343.883 24.8991,350.217 15,360.5C 14.3333,264.833 14.3333,169.167 15,73.5C 19.3556,54.6452 30.8556,42.9785 49.5,38.5 Z"/></g>
<g><path style="opacity:1" fill="#555555" d="M 49.5,38.5 C 49.56,37.9569 49.8933,37.6236 50.5,37.5C 51.5,113.497 51.8333,189.497 51.5,265.5C 50.8333,189.833 50.1667,114.167 49.5,38.5 Z"/></g>
<g><path style="opacity:1" fill="#f95e35" d="M 405.5,67.5 C 402.437,72.0719 398.77,76.2385 394.5,80C 393.552,80.4828 392.552,80.6495 391.5,80.5C 383.368,72.8691 375.368,65.0358 367.5,57C 371.833,52.6667 376.167,48.3333 380.5,44C 381.167,43.3333 381.833,43.3333 382.5,44C 390.369,51.7017 398.036,59.5351 405.5,67.5 Z"/></g>
<g><path style="opacity:1" fill="#fece38" d="M 381.5,92.5 C 330.167,144.5 278.5,196.167 226.5,247.5C 218.035,239.536 209.702,231.369 201.5,223C 211.667,212.833 221.833,202.667 232,192.5C 234.009,189.05 233.842,185.717 231.5,182.5C 235.5,179.167 239.167,175.5 242.5,171.5C 245.685,173.832 249.019,173.999 252.5,172C 287.333,137.167 322.167,102.333 357,67.5C 365.369,75.7017 373.536,84.035 381.5,92.5 Z"/></g>
<g><path style="opacity:1" fill="#db4d30" d="M 405.5,67.5 C 409.146,70.4789 412.479,73.8123 415.5,77.5C 411.182,82.3185 406.682,86.9852 402,91.5C 398.296,87.9643 394.796,84.2976 391.5,80.5C 392.552,80.6495 393.552,80.4828 394.5,80C 398.77,76.2385 402.437,72.0719 405.5,67.5 Z"/></g>
<g><path style="opacity:1" fill="#fda204" d="M 381.5,92.5 C 384.964,95.4625 388.297,98.6291 391.5,102C 339.667,153.833 287.833,205.667 236,257.5C 232.629,254.297 229.462,250.964 226.5,247.5C 278.5,196.167 330.167,144.5 381.5,92.5 Z"/></g>
<g><path style="opacity:1" fill="#dfdfe1" d="M 66.5,119.5 C 132.834,119.333 199.168,119.5 265.5,120C 231.333,154.167 197.167,188.333 163,222.5C 154.817,245.525 146.65,268.525 138.5,291.5C 129.842,290.327 126.008,293.994 127,302.5C 128.167,303.667 129.333,304.833 130.5,306C 202.557,306.99 274.557,306.657 346.5,305C 350.875,299.879 350.209,295.545 344.5,292C 294.167,291.667 243.833,291.333 193.5,291C 208.833,285.667 224.167,280.333 239.5,275C 291.368,222.965 343.368,171.132 395.5,119.5C 411.5,119.5 427.5,119.5 443.5,119.5C 443.5,178.5 443.5,237.5 443.5,296.5C 413.868,326.632 384.035,356.632 354,386.5C 350.948,390.104 350.782,393.771 353.5,397.5C 350.167,401.5 346.5,405.167 342.5,408.5C 338.757,407.011 335.09,407.178 331.5,409C 321.5,419 311.5,429 301.5,439C 216.833,439.667 132.167,439.667 47.5,439C 24.8939,431.727 14.0605,416.227 15,392.5C 21.1679,369.826 36.0012,357.659 59.5,356C 61.8477,355.654 63.6811,354.487 65,352.5C 66.6304,332.565 66.9637,312.565 66,292.5C 65.0041,290.34 63.5041,288.673 61.5,287.5C 60.791,286.596 59.791,286.263 58.5,286.5C 58.2213,281.405 58.5546,276.405 59.5,271.5C 63.0791,271.089 65.2458,269.089 66,265.5C 66.5,216.834 66.6667,168.168 66.5,119.5 Z"/></g>
<g><path style="opacity:1" fill="#bfbec3" d="M 66.5,119.5 C 138.999,118.334 211.666,118.168 284.5,119C 270.333,133.167 256.167,147.333 242,161.5C 240.001,164.981 240.168,168.315 242.5,171.5C 239.167,175.5 235.5,179.167 231.5,182.5C 228.741,180.707 225.741,180.207 222.5,181C 209.667,193.833 196.833,206.667 184,219.5C 175.667,243.167 167.333,266.833 159,290.5C 152.256,291.479 145.422,291.812 138.5,291.5C 146.65,268.525 154.817,245.525 163,222.5C 197.167,188.333 231.333,154.167 265.5,120C 199.168,119.5 132.834,119.333 66.5,119.5 Z"/></g>
<g><path style="opacity:1" fill="#c6c5ca" d="M 443.5,119.5 C 449.167,119.5 454.833,119.5 460.5,119.5C 460.5,172.833 460.5,226.167 460.5,279.5C 455.167,285.5 449.5,291.167 443.5,296.5C 443.5,237.5 443.5,178.5 443.5,119.5 Z"/></g>
<g><path style="opacity:1" fill="#77777a" d="M 395.5,119.5 C 417.327,118.503 439.327,118.169 461.5,118.5C 461.832,172.336 461.499,226.003 460.5,279.5C 460.5,226.167 460.5,172.833 460.5,119.5C 454.833,119.5 449.167,119.5 443.5,119.5C 427.5,119.5 411.5,119.5 395.5,119.5 Z"/></g>
<g><path style="opacity:1" fill="#f4bf98" d="M 212.5,255.5 C 205.731,258.538 198.731,261.204 191.5,263.5C 189.317,262.15 187.65,260.316 186.5,258C 188.49,250.857 191.157,244.024 194.5,237.5C 200.854,243.188 206.854,249.188 212.5,255.5 Z"/></g>
<g><path style="opacity:1" fill="#eda97c" d="M 212.5,255.5 C 215.812,258.146 218.812,261.146 221.5,264.5C 214.976,267.843 208.143,270.51 201,272.5C 197.345,270.012 194.178,267.012 191.5,263.5C 198.731,261.204 205.731,258.538 212.5,255.5 Z"/></g>
<g><path style="opacity:1" fill="#fca204" d="M 478.5,332.5 C 478.83,316.325 478.496,300.325 477.5,284.5C 483.464,278.035 489.631,271.702 496,265.5C 496.5,287.497 496.667,309.497 496.5,331.5C 490.441,331.254 484.441,331.587 478.5,332.5 Z"/></g>
<g><path style="opacity:1" fill="#fdc80f" d="M 477.5,284.5 C 478.496,300.325 478.83,316.325 478.5,332.5C 474.511,336.878 474.511,341.211 478.5,345.5C 478.5,353.833 478.5,362.167 478.5,370.5C 474.5,374.833 474.5,379.167 478.5,383.5C 478.5,391.833 478.5,400.167 478.5,408.5C 474.577,412.715 474.577,417.049 478.5,421.5C 478.5,429.5 478.5,437.5 478.5,445.5C 474.511,449.878 474.511,454.211 478.5,458.5C 478.5,470.833 478.5,483.167 478.5,495.5C 407.833,495.667 337.166,495.5 266.5,495C 292.333,469.167 318.167,443.333 344,417.5C 344.788,414.228 344.288,411.228 342.5,408.5C 346.5,405.167 350.167,401.5 353.5,397.5C 356.177,399.432 359.177,399.932 362.5,399C 400.701,360.632 439.035,322.465 477.5,284.5 Z M 440.5,387.5 C 423.035,405.465 405.368,423.299 387.5,441C 405.497,441.5 423.497,441.667 441.5,441.5C 441.83,423.326 441.497,405.326 440.5,387.5 Z"/></g>
<g><path style="opacity:1" fill="#fca204" d="M 478.5,345.5 C 484.409,346.455 490.409,346.789 496.5,346.5C 496.5,354.167 496.5,361.833 496.5,369.5C 490.409,369.211 484.409,369.545 478.5,370.5C 478.5,362.167 478.5,353.833 478.5,345.5 Z"/></g>
<g><path style="opacity:0.972" fill="#060400" d="M 446.5,360.5 C 451.28,359.641 454.78,361.308 457,365.5C 457.667,393.833 457.667,422.167 457,450.5C 456.5,454.333 454.333,456.5 450.5,457C 421.833,457.667 393.167,457.667 364.5,457C 360.247,453.58 359.413,449.413 362,444.5C 390.062,416.271 418.228,388.271 446.5,360.5 Z M 440.5,387.5 C 423.035,405.465 405.368,423.299 387.5,441C 405.497,441.5 423.497,441.667 441.5,441.5C 441.83,423.326 441.497,405.326 440.5,387.5 Z"/></g>
<g><path style="opacity:1" fill="#faa104" d="M 478.5,383.5 C 484.409,384.455 490.409,384.789 496.5,384.5C 496.5,392.167 496.5,399.833 496.5,407.5C 490.409,407.211 484.409,407.545 478.5,408.5C 478.5,400.167 478.5,391.833 478.5,383.5 Z"/></g>
<g><path style="opacity:1" fill="#fea304" d="M 478.5,421.5 C 484.441,422.413 490.441,422.746 496.5,422.5C 496.5,429.833 496.5,437.167 496.5,444.5C 490.441,444.254 484.441,444.587 478.5,445.5C 478.5,437.5 478.5,429.5 478.5,421.5 Z"/></g>
<g><path style="opacity:1" fill="#fda204" d="M 478.5,458.5 C 484.409,459.455 490.409,459.789 496.5,459.5C 496.5,471.5 496.5,483.5 496.5,495.5C 490.5,495.5 484.5,495.5 478.5,495.5C 478.5,483.167 478.5,470.833 478.5,458.5 Z"/></g>
</svg>
