<?xml version="1.0" encoding="UTF-8"?>
<svg version="1.1" xmlns="http://www.w3.org/2000/svg" width="3266" height="799">
<path d="M0 0 C1.15927002 0.07839111 2.31854004 0.15678223 3.51293945 0.23754883 C19.05644182 1.43144182 19.05644182 1.43144182 21.75 4.125 C22.02314815 9.86111111 22.02314815 9.86111111 21.75 12.125 C19.75 14.125 19.75 14.125 17.3515625 14.35546875 C16.36929687 14.34128906 15.38703125 14.32710937 14.375 14.3125 C13.41851562 14.30605469 12.46203125 14.29960938 11.4765625 14.29296875 C8.54326141 14.16075497 5.68381171 13.91993265 2.765625 13.62890625 C-63.52014307 7.95210405 -130.33208772 20.4970053 -190.25 49.125 C-191.04889648 49.50060059 -191.84779297 49.87620117 -192.67089844 50.26318359 C-231.87012454 68.76740909 -266.48268299 95.41952639 -297.125 125.875 C-297.63611328 126.38144043 -298.14722656 126.88788086 -298.67382812 127.40966797 C-365.53989057 194.55759124 -401.44529693 290.73877806 -401.5 384.625 C-401.50067474 385.66790192 -401.50134949 386.71080383 -401.50204468 387.78530884 C-401.4846646 404.74615381 -400.78805039 421.32790271 -398.25 438.125 C-398.08371094 439.25744141 -397.91742188 440.38988281 -397.74609375 441.55664062 C-392.17780007 478.41049543 -380.77285585 513.33200468 -365.25 547.125 C-357.50183871 545.75560746 -350.05749589 543.70544234 -342.53125 541.4296875 C-340.76170959 540.90122726 -340.76170959 540.90122726 -338.9564209 540.36209106 C-335.21965716 539.24565069 -331.48470593 538.12330316 -327.75 537 C-323.98654539 535.87019537 -320.22271162 534.7417127 -316.45788574 533.6164856 C-314.12216073 532.91819654 -311.78725411 532.2171631 -309.45324707 531.51315308 C-307.88020813 531.0423381 -307.88020813 531.0423381 -306.27539062 530.56201172 C-304.88833923 530.14470291 -304.88833923 530.14470291 -303.4732666 529.71896362 C-301.25 529.125 -301.25 529.125 -299.25 529.125 C-299.87351927 535.56803246 -300.9382353 541.78814372 -302.25 548.125 C-302.04020508 547.23977661 -302.04020508 547.23977661 -301.82617188 546.33666992 C-301.16894239 543.65201429 -300.46033327 540.98357279 -299.75 538.3125 C-299.53085937 537.38373047 -299.31171875 536.45496094 -299.0859375 535.49804688 C-298.35524729 532.83487335 -297.58979112 530.54104891 -296.25 528.125 C-293.28380613 526.46171372 -291.473299 525.85297178 -288.25 525.125 C-286.0182971 524.45236859 -283.78934845 523.77056362 -281.5625 523.08203125 C-279.1258739 522.36421437 -276.68835069 521.64943661 -274.25 520.9375 C-272.37248047 520.38545898 -272.37248047 520.38545898 -270.45703125 519.82226562 C-267.38878689 518.92052969 -264.31977203 518.02151876 -261.25 517.125 C-259.97062827 520.82855465 -260.46203313 523.80531309 -261.05444336 527.63769531 C-261.15183304 528.28201508 -261.24922272 528.92633484 -261.3495636 529.59017944 C-261.67222421 531.71237485 -262.00596275 533.83266847 -262.33984375 535.953125 C-262.56616058 537.42703933 -262.79178282 538.90106047 -263.01673889 540.37518311 C-263.60987554 544.24946736 -264.21242896 548.12222991 -264.81695557 551.99475098 C-265.43249295 555.94874979 -266.03911259 559.90411516 -266.64648438 563.859375 C-267.83893303 571.61594853 -269.04133347 579.37093715 -270.25 587.125 C-270.01355774 585.80075264 -270.01355774 585.80075264 -269.77233887 584.44975281 C-268.28013772 576.12919239 -266.75365869 567.81582084 -265.18837738 559.50868511 C-264.38484714 555.23758967 -263.59477008 550.96489887 -262.83496094 546.68579102 C-262.10111836 542.55577023 -261.33256945 538.43360943 -260.53956604 534.31455421 C-260.24324848 532.74240255 -259.95949337 531.16782918 -259.68858337 529.59110069 C-257.55510476 517.24623215 -257.55510476 517.24623215 -254.40534973 514.54023743 C-252.30801113 513.72959188 -250.47909091 513.36607984 -248.25 513.125 C-247.36014404 512.83085205 -246.47028809 512.5367041 -245.5534668 512.23364258 C-243.01605868 511.46397352 -240.47802013 510.69684366 -237.9375 509.9375 C-236.59848633 509.52854492 -236.59848633 509.52854492 -235.23242188 509.11132812 C-234.37583984 508.85416016 -233.51925781 508.59699219 -232.63671875 508.33203125 C-231.86545654 508.0997583 -231.09419434 507.86748535 -230.29956055 507.62817383 C-228.25 507.125 -228.25 507.125 -225.25 507.125 C-225.02588898 519.37529089 -225.7331664 531.49728231 -226.5625 543.71484375 C-226.69745043 545.7560396 -226.83196422 547.79726436 -226.96606445 549.83851624 C-227.31683086 555.16019715 -227.67345031 560.48146953 -228.03137207 565.80267334 C-228.39690942 571.25297612 -228.75679676 576.7036518 -229.1171875 582.15429688 C-229.82265688 592.81156619 -230.53432232 603.46841168 -231.25 614.125 C-231.11441177 612.86268051 -230.97882355 611.60036102 -230.83912659 610.29978943 C-229.56040639 598.39646902 -228.28040275 586.49328723 -226.99914646 574.59023952 C-226.34050197 568.47095466 -225.68230778 562.35162207 -225.02514648 556.23217773 C-224.3907891 550.32523869 -223.75524392 544.41842853 -223.11887932 538.5117054 C-222.87645202 536.25954794 -222.63445082 534.00734457 -222.39288521 531.75509453 C-222.0541526 528.59759297 -221.71389761 525.44025887 -221.37329102 522.28295898 C-221.27402817 521.35435059 -221.17476532 520.42574219 -221.07249451 519.46899414 C-220.55324497 514.67140569 -219.96589051 509.89732379 -219.25 505.125 C-213.70230928 502.98257357 -208.14479773 501.10485706 -202.4375 499.4375 C-201.68791016 499.21255859 -200.93832031 498.98761719 -200.16601562 498.75585938 C-197.10288775 497.85526146 -194.46006657 497.125 -191.25 497.125 C-190.26 544.645 -189.27 592.165 -188.25 641.125 C-187.26 592.945 -186.27 544.765 -185.25 495.125 C-177.24468085 491.69414894 -177.24468085 491.69414894 -173.0625 490.4375 C-172.24394531 490.18613281 -171.42539063 489.93476562 -170.58203125 489.67578125 C-168.25 489.125 -168.25 489.125 -164.25 489.125 C-164.25 569.975 -164.25 650.825 -164.25 734.125 C-162.6 734.455 -160.95 734.785 -159.25 735.125 C-155.62 736.445 -151.99 737.765 -148.25 739.125 C-148.25 697.215 -148.25 655.305 -148.25 612.125 C-147.59 612.125 -146.93 612.125 -146.25 612.125 C-144.93 624.335 -143.61 636.545 -142.25 649.125 C-142.62125 642.504375 -142.62125 642.504375 -143 635.75 C-143.09047607 634.11796631 -143.18095215 632.48593262 -143.27416992 630.80444336 C-143.79435105 621.69017059 -144.4470311 612.59866907 -145.23828125 603.50390625 C-148.77784344 561.70824568 -148.73894097 520.03913815 -148.53810763 478.12324107 C-148.4923038 468.38584331 -148.47113423 458.64843015 -148.45129442 448.91095042 C-148.41017582 428.98217982 -148.3404524 409.05360414 -148.25 389.125 C-147.59 389.455 -146.93 389.785 -146.25 390.125 C-145.69612694 391.80978966 -145.69612694 391.80978966 -145.25985718 394.04916382 C-145.08990644 394.89903114 -144.91995569 395.74889847 -144.74485493 396.62451935 C-144.56527839 397.56875511 -144.38570185 398.51299088 -144.20068359 399.48583984 C-144.00436687 400.48086266 -143.80805014 401.47588547 -143.60578442 402.50106049 C-142.94505726 405.86112158 -142.29683434 409.22347691 -141.6484375 412.5859375 C-141.17937455 414.98461335 -140.70954367 417.38313915 -140.23899841 419.78152466 C-139.22454011 424.96135231 -138.21542708 430.14217808 -137.21109009 435.32397461 C-135.75444336 442.83933515 -134.28825651 450.35280918 -132.81966364 457.8658433 C-130.43600941 470.0613318 -128.05984538 482.25826683 -125.68798828 494.45605469 C-122.57715261 510.4536159 -119.45417144 526.44878746 -116.32732391 542.44322586 C-114.96011444 549.43683442 -113.5935224 556.43056364 -112.22705078 563.42431641 C-112.09456877 564.10237201 -111.96208675 564.78042762 -111.82559013 565.47903037 C-109.1578213 579.13343852 -106.49302814 592.78842556 -103.83152962 606.44405746 C-103.38536537 608.73313394 -102.93909633 611.02218999 -102.49270439 613.31122208 C-99.385803 629.24417563 -96.30859732 645.18270358 -93.25 661.125 C-98.02177598 628.7158227 -103.11474876 596.35786617 -108.2283254 564.0012697 C-109.42515197 556.42780014 -110.62013365 548.85403977 -111.81503969 541.280267 C-113.95112906 527.74118517 -116.08851831 514.20230892 -118.22680664 500.66357422 C-120.28631339 487.62362785 -122.34531915 474.58360257 -124.40356445 461.54345703 C-124.59410113 460.33630214 -124.59410113 460.33630214 -124.78848702 459.10476029 C-126.05692899 451.06841468 -127.32528836 443.03205604 -128.59362002 434.99569303 C-129.09031395 431.84855784 -129.58701165 428.70142325 -130.08371139 425.55428898 C-130.32921346 423.99876336 -130.574714 422.44323751 -130.82021301 420.88771141 C-132.13186564 412.57689554 -133.44370651 404.26610946 -134.75612068 395.95541382 C-134.87058965 395.23054746 -134.98505862 394.50568109 -135.10299635 393.75884908 C-135.55711633 390.88320166 -136.0112418 388.0075551 -136.46541253 385.13191569 C-137.63421394 377.73145971 -138.80238808 370.33090647 -139.96838474 362.93000793 C-140.35767465 360.45919766 -140.74696667 357.98838771 -141.13626099 355.51757812 C-141.41299771 353.76093606 -141.41299771 353.76093606 -141.69532508 351.96880627 C-142.64894406 345.92020926 -143.60773262 339.87249348 -144.57612783 333.82624435 C-145.06844686 330.75085198 -145.55771089 327.67497872 -146.04639328 324.59900665 C-146.35336024 322.67547882 -146.66516516 320.7527249 -146.97722721 318.83001709 C-147.15118739 317.73272278 -147.32514757 316.63542847 -147.50437927 315.50488281 C-147.65082603 314.59506653 -147.79727278 313.68525024 -147.94815731 312.74786377 C-148.2811697 309.85415074 -148.30091432 307.03529251 -148.25 304.125 C-147.59 304.125 -146.93 304.125 -146.25 304.125 C-146.01372391 304.95307663 -145.77744781 305.78115326 -145.53401184 306.63432312 C-133.07769371 350.28686913 -120.59416991 393.93152198 -108.0625 437.5625 C-107.76212326 438.60834133 -107.46174652 439.65418266 -107.15226746 440.73171616 C-102.83110944 455.77683977 -98.50880587 470.8216342 -94.18624878 485.8663559 C-88.89415438 504.2856613 -83.60269317 522.70514845 -78.3125 541.125 C-78.01205025 542.17109688 -77.71160049 543.21719376 -77.4020462 544.29499054 C-65.64607891 585.22730676 -53.93333919 626.17189779 -42.25 667.125 C-51.74759103 628.42663994 -61.29787912 589.74124886 -70.875 551.0625 C-71.16079548 549.90821629 -71.44659096 548.75393257 -71.74104691 547.56467056 C-79.85181249 514.81059515 -88.00540336 482.06737659 -96.19140625 449.33203125 C-96.50968211 448.05921236 -96.50968211 448.05921236 -96.83438778 446.76067996 C-100.86340266 430.64846528 -104.89378129 414.5365919 -108.92926025 398.42599487 C-109.13221836 397.61573119 -109.33517647 396.8054675 -109.54428482 395.97065037 C-109.74609486 395.16497319 -109.94790489 394.35929601 -110.15583038 393.52920437 C-110.5597809 391.91652413 -110.96372938 390.30384338 -111.36767578 388.69116211 C-111.5656309 387.9008655 -111.76358603 387.11056889 -111.96753979 386.2963239 C-115.1223377 373.700562 -118.27061157 361.10318315 -121.41112518 348.50385189 C-123.15701481 341.50020443 -124.90874326 334.49807387 -126.66880703 327.4979744 C-127.56484836 323.92666495 -128.45351555 320.35356194 -129.33913612 316.77965546 C-129.72311204 315.23642112 -130.11024654 313.69396842 -130.50090599 312.15241241 C-131.01089942 310.13845264 -131.50963746 308.12206025 -132.00512695 306.10449219 C-132.27404251 305.02882996 -132.54295807 303.95316772 -132.82002258 302.84490967 C-133.24091869 300.18244565 -133.14277107 298.63778265 -132.25 296.125 C-122.4020592 321.42904447 -112.60545978 346.75158655 -102.9375 372.125 C-95.75456908 390.97637349 -88.52500568 409.80896708 -81.25 428.625 C-73.99928394 447.37979926 -66.78838384 466.14916737 -59.625 484.9375 C-52.83760023 502.73888144 -46.03023475 520.53230934 -39.1875 538.3125 C-38.77692352 539.37947113 -38.36634705 540.44644226 -37.94332886 541.54574585 C-34.21037111 551.24597102 -30.47522781 560.94535379 -26.73828125 570.64404297 C-24.22038952 577.17899071 -21.70341553 583.71429117 -19.1875 590.25 C-18.57616714 591.83806961 -18.57616714 591.83806961 -17.95248413 593.45822144 C-8.64220996 617.65152656 0.56383562 641.88434341 9.75 666.125 C1.79055626 641.93091424 -6.46044173 617.84236721 -14.79579163 593.77549744 C-15.21122726 592.57598953 -15.6266629 591.37648163 -16.0546875 590.140625 C-16.47531967 588.92625259 -16.89595184 587.71188019 -17.32933044 586.46070862 C-22.09299128 572.70143069 -26.822213 558.93035088 -31.55139923 545.15919495 C-38.59794269 524.64097665 -45.66029275 504.12835409 -52.75 483.625 C-59.3287488 464.59843374 -65.88685909 445.56486541 -72.42894363 426.5256691 C-73.35421634 423.83293268 -74.27960424 421.14023584 -75.20498753 418.44753742 C-78.68871015 408.31046481 -82.17233092 398.17335703 -85.65472412 388.03582764 C-88.19956729 380.62760831 -90.74507975 373.21962021 -93.29249382 365.81228447 C-94.40759984 362.56972646 -95.52230507 359.32703204 -96.63598633 356.08398438 C-100.86601779 343.7670102 -105.10929834 331.45634686 -109.48828125 319.19140625 C-109.80606033 318.2989772 -110.12383942 317.40654816 -110.45124817 316.48707581 C-111.88389249 312.46579335 -113.32506105 308.44807665 -114.78540039 304.43676758 C-115.27131595 303.08035543 -115.7569339 301.72383661 -116.2421875 300.3671875 C-116.86649658 298.64798096 -116.86649658 298.64798096 -117.50341797 296.89404297 C-118.25 294.125 -118.25 294.125 -117.25 291.125 C-116.76313721 292.09945068 -116.27627441 293.07390137 -115.7746582 294.07788086 C-112.62467172 300.38097031 -109.47380135 306.68358398 -106.30978394 312.97964478 C-105.0102376 315.56597928 -103.71246669 318.15320306 -102.41479492 320.74047852 C-101.76937045 322.02632917 -101.12322541 323.31181842 -100.47631836 324.59692383 C-95.73256747 334.02306844 -91.13704268 343.51356795 -86.59811401 353.03996277 C-81.69339755 363.32046869 -76.67711241 373.54523391 -71.65170288 383.76715088 C-68.90288733 389.35895167 -66.15831992 394.95283614 -63.4140625 400.546875 C-62.60605446 402.19388901 -62.60605446 402.19388901 -61.78172302 403.87417603 C-57.47624901 412.6545203 -53.19605101 421.44681544 -48.9375 430.25 C-43.12649667 442.26095151 -37.28998016 454.2591988 -31.4375 466.25 C-31.01617798 467.11326904 -30.59485596 467.97653809 -30.1607666 468.8659668 C-28.45643392 472.35804851 -26.75209048 475.85012498 -25.04766846 479.34216309 C-20.58991562 488.47598331 -16.13821635 497.61274946 -11.6875 506.75 C-11.29766937 507.55028625 -10.90783875 508.35057251 -10.50619507 509.17510986 C-8.54036374 513.21078529 -6.57460188 517.24649455 -4.60888672 521.28222656 C-1.05253631 528.5835287 2.50450764 535.88449297 6.06149292 543.18548584 C8.04102308 547.24864368 10.02050934 551.31182291 12 555.375 C12.79166646 557.0000001 13.58333312 558.6250001 14.375 560.25 C15.95833333 563.5 17.54166667 566.75 19.125 570 C19.51678436 570.80418365 19.90856873 571.60836731 20.31222534 572.43692017 C21.1048244 574.06384473 21.89740656 575.69077753 22.68997192 577.31771851 C24.65473545 581.35083989 26.61978108 585.38382332 28.58544922 589.41650391 C32.32022762 597.07939844 36.05182934 604.74380191 39.77435303 612.41265869 C41.54620251 616.06247597 43.31954823 619.7115653 45.09301758 623.3605957 C45.94354236 625.11169518 46.79332199 626.86315679 47.64233398 628.61499023 C48.81439914 631.03329011 49.98895167 633.45036648 51.1640625 635.8671875 C51.51413361 636.59118744 51.86420471 637.31518738 52.22488403 638.06112671 C53.65858933 641.31171855 53.65858933 641.31171855 55.75 644.125 C55.29898926 643.12799072 54.84797852 642.13098145 54.38330078 641.10375977 C45.75902178 622.0294487 37.1946584 602.93207741 28.8125 583.75 C22.34148855 568.94310322 15.73866142 554.20120213 9.05252075 539.49029541 C2.80201665 525.73207793 -3.31630275 511.92085437 -9.36474609 498.07275391 C-15.05846248 485.04323838 -20.86642505 472.06982429 -26.75 459.125 C-33.40207519 444.48934986 -39.93005053 429.80519093 -46.36474609 415.07275391 C-52.05846408 402.04323472 -57.8666283 389.06991918 -63.75 376.125 C-70.93267307 360.31951106 -77.98452718 344.46129222 -84.9309082 328.55053711 C-85.65698371 326.88782309 -86.38313803 325.2251435 -87.109375 323.5625 C-87.46009567 322.75949966 -87.81081635 321.95649933 -88.17216492 321.12916565 C-90.44065009 315.94568979 -92.74543619 310.77987295 -95.078125 305.625 C-95.65698395 304.34171618 -96.23584143 303.0584317 -96.81469727 301.77514648 C-97.86583165 299.45132825 -98.9232208 297.13032497 -99.98803711 294.81274414 C-100.43928955 293.81364014 -100.89054199 292.81453613 -101.35546875 291.78515625 C-101.74887451 290.92543213 -102.14228027 290.06570801 -102.54760742 289.17993164 C-102.77939697 288.5018042 -103.01118652 287.82367676 -103.25 287.125 C-102.92 286.465 -102.59 285.805 -102.25 285.125 C-95.67050293 295.40863552 -89.40278401 305.86901901 -83.1875 316.375 C-77.10154412 326.66235424 -70.972983 336.91992423 -64.75 347.125 C-58.2663386 357.75804489 -51.885223 368.44867335 -45.54199219 379.16601562 C-40.00294929 388.52184031 -34.41003861 397.84190012 -28.75 407.125 C-22.26673213 417.75828845 -15.88522658 428.4486673 -9.54199219 439.16601562 C-4.00294929 448.52184031 1.58996139 457.84190012 7.25 467.125 C13.73326787 477.75828845 20.11477342 488.4486673 26.45800781 499.16601562 C31.99705071 508.52184031 37.58996139 517.84190012 43.25 527.125 C49.73326787 537.75828845 56.11477342 548.4486673 62.45800781 559.16601562 C68.6655939 569.65105578 74.9560219 580.08146352 81.29858398 590.48535156 C89.90455984 604.62555079 98.32422327 618.8769404 106.75 633.125 C102.65880301 624.7998635 98.44269648 616.60449879 93.8125 608.5625 C88.76104221 599.70575902 83.78991219 590.80795343 78.875 581.875 C77.51317934 579.40095439 76.1511774 576.92700863 74.7890625 574.453125 C74.45186691 573.84062393 74.11467133 573.22812286 73.76725769 572.59706116 C70.27872834 566.2634657 66.76543475 559.9436949 63.25 553.625 C58.06436281 544.30204606 52.89947003 534.96795446 47.75 525.625 C40.7307023 512.8904645 33.67675234 500.17542765 26.60888672 487.46777344 C23.48741651 481.8545386 20.3688631 476.2396837 17.25 470.625 C16.00001382 468.37499232 14.75001382 466.12499232 13.5 463.875 C-4 432.375 -21.5 400.875 -39 369.375 C-39.61866943 368.26141113 -40.23733887 367.14782227 -40.87475586 366.00048828 C-42.12562493 363.74889138 -43.37643867 361.49726374 -44.62719727 359.24560547 C-47.73844909 353.64478555 -50.8506387 348.04449095 -53.96484375 342.4453125 C-55.20581224 340.21358786 -56.44669762 337.981817 -57.6875 335.75 C-58.29859619 334.65083252 -58.90969238 333.55166504 -59.53930664 332.41918945 C-62.85949386 326.44267879 -66.17032683 320.46119861 -69.46875 314.47265625 C-69.82203873 313.83140808 -70.17532745 313.19015991 -70.5393219 312.52947998 C-72.23476476 309.4516821 -73.92894484 306.37320124 -75.62084961 303.29345703 C-76.23968018 302.1692334 -76.85851074 301.04500977 -77.49609375 299.88671875 C-78.10050293 298.78763184 -78.70491211 297.68854492 -79.32763672 296.55615234 C-80.70611672 294.09575636 -82.10378762 291.65780406 -83.53564453 289.22900391 C-83.91108902 288.58800247 -84.28653351 287.94700104 -84.6733551 287.28657532 C-85.401399 286.04760274 -86.13614365 284.8125376 -86.87828064 283.58195496 C-87.72949684 282.1301982 -88.49817677 280.63063226 -89.25 279.125 C-88.92 278.465 -88.59 277.805 -88.25 277.125 C-81.83579363 285.34064305 -75.65364812 293.68268393 -69.62890625 302.18701172 C-67.08422434 305.7634432 -64.50974716 309.31836922 -61.9375 312.875 C-60.82551738 314.41275792 -59.71353824 315.95051836 -58.6015625 317.48828125 C-58.04629883 318.2560791 -57.49103516 319.02387695 -56.91894531 319.81494141 C-55.28481701 322.07680829 -53.6536287 324.34076308 -52.0234375 326.60546875 C-46.47450027 334.3103087 -40.89176126 341.9878106 -35.25 349.625 C-29.05988881 358.00448458 -22.94525691 366.43607363 -16.85888672 374.89111328 C-14.15987872 378.63859784 -11.45461116 382.38155845 -8.75 386.125 C-7.66663696 387.62497854 -6.58330362 389.12497854 -5.5 390.625 C-4.695625 391.73875 -4.695625 391.73875 -3.875 392.875 C1 399.625 1 399.625 2.62475586 401.87475586 C3.70878416 403.3756555 4.79293142 404.87646922 5.87719727 406.37719727 C8.57587655 410.11273967 11.27251312 413.84972254 13.96484375 417.58984375 C19.51804624 425.29962973 25.10437205 432.98257631 30.75 440.625 C36.94011119 449.00448458 43.05474309 457.43607363 49.14111328 465.89111328 C51.84012118 469.63859769 54.54531494 473.38161201 57.25 477.125 C60.49131453 481.61110379 63.73141954 486.09804831 66.96484375 490.58984375 C72.57903178 498.38415847 78.22885383 506.149536 83.9375 513.875 C88.75286929 520.39222873 93.50864473 526.94613315 98.203125 533.55078125 C102.78990213 540.00025511 107.44333353 546.40207393 112.08105469 552.81494141 C113.71518299 555.07680829 115.3463713 557.34076308 116.9765625 559.60546875 C123.61671141 568.82570898 130.31734802 577.99878279 137.0703125 587.13671875 C137.59402435 587.87464157 138.11773621 588.61256439 138.65731812 589.37284851 C140.7593775 592.23272119 140.7593775 592.23272119 143.47013855 595.04208374 C153.46848106 606.21142966 153.2798444 616.89989752 153.04296875 631.33984375 C153.04489413 633.65011979 153.05167518 635.96039637 153.06306458 638.27064514 C153.07994418 644.30312175 153.03158231 650.33331341 152.96887207 656.36541748 C152.91647839 662.53981944 152.92682699 668.71409641 152.93164062 674.88867188 C152.93193876 686.96813095 152.86320204 699.04610801 152.75 711.125 C155.06362209 709.81444504 157.37592678 708.5016597 159.6875 707.1875 C160.34685547 706.81431641 161.00621094 706.44113281 161.68554688 706.05664062 C164.90832833 704.35537187 164.90832833 704.35537187 167.75 702.125 C167.87388835 700.38204417 167.92800011 698.63410251 167.95532227 696.88696289 C167.97526245 695.74730576 167.99520264 694.60764862 168.01574707 693.43345642 C168.04082336 691.53473534 168.04082336 691.53473534 168.06640625 689.59765625 C168.0871578 688.25293034 168.10820203 686.90820892 168.1295166 685.56349182 C168.18610851 681.87743845 168.23525202 678.19131925 168.28242874 674.50513458 C168.31240967 672.19446148 168.34429678 669.88382176 168.37667847 667.57318115 C168.91949231 628.42540138 168.84971576 589.27553237 168.75 550.125 C169.85520782 551.0520639 170.95749686 551.98260796 172.05859375 552.91455078 C172.67275146 553.43236115 173.28690918 553.95017151 173.91967773 554.4836731 C176.81749446 557.08226715 179.2690859 560.00956837 181.75 563 C182.78615666 564.22942098 183.82261374 565.45858883 184.859375 566.6875 C185.35244141 567.2753125 185.84550781 567.863125 186.35351562 568.46875 C189.10338968 571.73013909 191.93169556 574.92287977 194.75 578.125 C190.59384332 572.46927763 186.24547338 567.0136788 181.75 561.625 C180.56070903 560.19940886 179.37319683 558.77233186 178.1875 557.34375 C177.67058594 556.72435547 177.15367187 556.10496094 176.62109375 555.46679688 C176.00363281 554.69400391 175.38617187 553.92121094 174.75 553.125 C174.24520111 552.6192041 173.74040222 552.1134082 173.2203064 551.59228516 C167.48531159 545.25798186 167.97118127 538.7221096 168.1640625 530.5625 C168.17527214 529.16147693 168.18380397 527.76043013 168.18978882 526.359375 C168.21254954 522.69599919 168.27135619 519.03408178 168.3380127 515.37127686 C168.3997152 511.62402062 168.42686294 507.87652554 168.45703125 504.12890625 C168.52111736 496.79361048 168.62333493 489.45951063 168.75 482.125 C169.86256061 483.07710727 170.97490455 484.02946774 172.0871582 484.98193359 C172.70661819 485.51225189 173.32607819 486.04257019 173.96430969 486.58895874 C183.27109179 494.59460297 191.92957659 503.21659944 200.54370117 511.95556641 C204.13894506 515.58809431 207.72229102 519.16731154 211.609375 522.48828125 C217.29033115 527.36194363 222.48275673 532.75184088 227.75 538.0625 C228.82137887 539.13890654 229.89299182 540.21508014 230.96484375 541.29101562 C233.56259638 543.89966745 236.15717962 546.51144471 238.75 549.125 C236.28003803 545.9582502 233.7515225 543.01262949 230.88671875 540.19921875 C230.16419922 539.48443359 229.44167969 538.76964844 228.69726562 538.03320312 C227.20257523 536.56435007 225.70778517 535.09559842 224.21289062 533.62695312 C220.81677702 530.26700045 217.50055055 526.90108495 214.39453125 523.26953125 C209.8079103 517.9363275 204.75524506 513.0597959 199.75 508.125 C188.17643402 496.71433274 188.17643402 496.71433274 183.78198242 491.2800293 C182.05553053 489.44903196 180.47422479 488.1403735 178.4621582 486.66723633 C173.69391863 482.96538166 169.55660515 479.41570204 168.07220459 473.35980225 C167.12948965 465.51897457 167.56393407 457.67907193 167.9375 449.8125 C168.00280885 447.41487105 168.06210688 445.01707042 168.11523438 442.61914062 C168.25749148 436.7839731 168.47411293 430.95529792 168.75 425.125 C171.82700144 426.91096345 174.66470804 428.74274946 177.39453125 431.0234375 C178.39746216 431.85621216 178.39746216 431.85621216 179.4206543 432.70581055 C180.12746338 433.29789307 180.83427246 433.88997559 181.5625 434.5 C183.08557795 435.76475602 184.60902414 437.02906872 186.1328125 438.29296875 C186.90270508 438.93282715 187.67259766 439.57268555 188.46582031 440.23193359 C191.94052109 443.11167171 195.43558142 445.96595642 198.9375 448.8125 C199.59572754 449.3477832 200.25395508 449.88306641 200.93212891 450.43457031 C205.23124552 453.92022558 209.57215436 457.34783969 213.9375 460.75 C219.02344746 464.71384733 223.96633028 468.81489353 228.86499023 473.00708008 C233.21958826 476.71699014 237.69160436 480.25430768 242.20751953 483.76489258 C249.84963115 489.72684627 257.29160236 495.93597212 264.75 502.125 C264.75 501.795 264.75 501.465 264.75 501.125 C262.58673447 499.17345833 260.40253506 497.26646621 258.1875 495.375 C256.80071688 494.18236651 255.41399992 492.98965609 254.02734375 491.796875 C253.31433105 491.18521484 252.60131836 490.57355469 251.86669922 489.94335938 C248.65166774 487.18147305 245.45098006 484.40314503 242.25 481.625 C238.44431742 478.32474403 234.63696416 475.02647042 230.82421875 471.734375 C225.33874535 466.99455316 219.86235937 462.25449289 214.5 457.375 C211.18560714 454.36739392 207.79340917 451.50070304 204.3125 448.6875 C200.50912497 445.61163412 196.84917348 442.43746834 193.25 439.125 C188.8165167 435.0456894 184.25254353 431.19157841 179.55078125 427.42578125 C178.62652344 426.66652344 177.70226562 425.90726562 176.75 425.125 C176.09130417 424.66006134 175.43260834 424.19512268 174.75395203 423.71609497 C169.17392825 419.47784622 169.17392825 419.47784622 168.04585266 415.87791443 C167.82705816 413.30128313 167.84790683 410.83689952 167.96875 408.25390625 C167.98006958 407.331577 167.99138916 406.40924774 168.00305176 405.45896912 C168.04759209 402.53297022 168.14790138 399.61199925 168.25 396.6875 C168.29015639 394.69603468 168.32665338 392.70449198 168.359375 390.71289062 C168.44725316 385.84834361 168.5851365 380.98752199 168.75 376.125 C173.02343277 377.62127485 176.56670855 379.85160361 180.26953125 382.40234375 C180.90761719 382.83610825 181.54570313 383.26987274 182.203125 383.71678162 C184.32586225 385.1610818 186.44407351 386.61188608 188.5625 388.0625 C190.07539322 389.09315658 191.58866676 390.12325509 193.10229492 391.15283203 C195.49788762 392.782506 197.8931848 394.41260098 200.28730774 396.04443359 C208.52732233 401.66071063 216.79291672 407.238796 225.06112671 412.81344604 C229.24587368 415.63501673 233.42965349 418.45802018 237.61328125 421.28125 C238.44390579 421.84174545 239.27453033 422.40224091 240.13032532 422.97972107 C246.16718247 427.05427033 252.19955565 431.13540933 258.23046875 435.21875 C260.7592639 436.93017972 263.28811933 438.64152034 265.81698608 440.35284424 C267.41924284 441.43757558 269.02116007 442.52280862 270.62271118 443.60858154 C272.84137544 445.11270786 275.06120071 446.6151065 277.28125 448.1171875 C277.92221115 448.55244751 278.5631723 448.98770752 279.22355652 449.43615723 C283.66749704 452.43966771 288.18527891 455.30871506 292.75 458.125 C281.21098907 449.59142191 269.63158453 441.11849562 257.98388672 432.73388672 C253.48476831 429.49353805 248.99175881 426.24472298 244.49755859 422.99755859 C240.762055 420.29901978 237.0251852 417.60242047 233.28515625 414.91015625 C225.57536994 409.35695352 217.8924407 403.77060532 210.25 398.125 C204.00197627 393.50970609 197.73557534 388.92179705 191.4375 384.375 C190.76976562 383.89289063 190.10203125 383.41078125 189.4140625 382.9140625 C188.74503906 382.43195313 188.07601562 381.94984375 187.38671875 381.453125 C186.69255859 380.93089355 185.99839844 380.40866211 185.28320312 379.87060547 C183.24959108 378.46926332 181.29177322 377.32268918 179.12304688 376.16455078 C169.74045443 370.84971916 169.74045443 370.84971916 168.02511597 366.13085938 C167.01913903 360.59508236 167.46923352 355.07682827 167.875 349.5 C167.94534242 347.81145769 168.00920058 346.12263214 168.06640625 344.43359375 C168.21960669 340.32365066 168.4602853 336.22748756 168.75 332.125 C172.50952972 333.55210958 176.00987961 335.24823887 179.5546875 337.14453125 C180.68318115 337.74773193 181.8116748 338.35093262 182.97436523 338.97241211 C184.19138628 339.62717607 185.40826088 340.2822123 186.625 340.9375 C187.24803009 341.27202179 187.87106018 341.60654358 188.51296997 341.95120239 C197.72824269 346.90099179 206.87150426 351.96535087 215.96142578 357.14233398 C223.60566897 361.49305387 231.29454359 365.75909608 239 370 C241.47139417 371.36060443 243.94274745 372.72128312 246.4140625 374.08203125 C247.02608017 374.4189801 247.63809784 374.75592896 248.2686615 375.10308838 C257.95797359 380.43988839 267.62142148 385.82340079 277.28857422 391.20019531 C282.89241027 394.31633605 288.49773036 397.4298048 294.10296631 400.54342651 C296.99969296 402.15254241 299.8963273 403.76182447 302.79296875 405.37109375 C303.75227295 405.90404053 304.71157715 406.4369873 305.69995117 406.98608398 C306.37646729 407.36192627 307.0529834 407.73776855 307.75 408.125 C305.99595357 406.37095357 303.76379174 405.25998129 301.65234375 403.9765625 C300.55728516 403.31076172 299.46222656 402.64496094 298.33398438 401.95898438 C297.11856936 401.22252458 295.90307206 400.48620056 294.6875 399.75 C293.76022095 399.18744507 293.76022095 399.18744507 292.81420898 398.61352539 C282.15533522 392.1484409 271.44527341 385.77184567 260.71749878 379.42193604 C251.35882771 373.88125747 242.03583915 368.28685399 232.75 362.625 C223.97038156 357.27249673 215.16383084 351.97004099 206.3125 346.73681641 C203.54356759 345.09798992 200.78695257 343.44094452 198.0390625 341.76708984 C192.37355568 338.33160819 186.86379518 335.04445105 180.7265625 332.5 C171.20984947 328.34668545 171.20984947 328.34668545 168.75 324.125 C166.68880438 314.61777053 167.64969714 304.70703922 168.75 295.125 C176.84585342 297.6356836 184.54702491 300.94379626 192.3125 304.3125 C193.82485279 304.96526038 195.33739253 305.61758777 196.85009766 306.26953125 C199.35075388 307.34730857 201.85127739 308.42538494 204.35125732 309.50473022 C211.44286521 312.56575346 218.542536 315.60769559 225.64453125 318.64453125 C256.71411859 331.93258533 287.73616143 345.32693825 318.72247314 358.8079834 C324.07372925 361.13585478 329.42557534 363.46236921 334.77734375 365.7890625 C336.71085859 366.62971437 338.64437121 367.47037135 340.57788086 368.31103516 C341.3859166 368.66235504 342.19395233 369.01367493 343.026474 369.37564087 C343.59523758 369.62292938 344.16400116 369.8702179 344.75 370.125 C344.42 369.465 344.09 368.805 343.75 368.125 C343.58684929 366.61603879 343.47561022 365.10131191 343.390625 363.5859375 C340.45321756 317.36267584 329.37886478 273.52600033 310.75 231.125 C310.41532715 230.35639648 310.0806543 229.58779297 309.73583984 228.79589844 C298.65775281 203.56470901 283.74708562 179.7788214 266.75 158.125 C266.12222656 157.31675781 265.49445312 156.50851563 264.84765625 155.67578125 C256.52690513 145.1089378 247.68503616 135.00824186 238.5 125.1875 C237.52643555 124.14130493 237.52643555 124.14130493 236.53320312 123.07397461 C232.72925169 119.04265502 228.78399406 115.30228425 224.57617188 111.69506836 C222.19932332 109.65155057 219.91730791 107.51252185 217.625 105.375 C207.18724528 95.871755 195.77679603 87.59785515 184.37109375 79.30712891 C175.36401557 72.73901557 175.36401557 72.73901557 173.75 71.125 C173.5625 67.6875 173.5625 67.6875 173.75 64.125 C175.75 62.125 175.75 62.125 179.01953125 61.78515625 C183.23594618 62.16926944 185.02521205 63.12107222 188.4375 65.5625 C189.47003906 66.29339844 190.50257813 67.02429688 191.56640625 67.77734375 C192.61699219 68.55207031 193.66757812 69.32679687 194.75 70.125 C196.27947266 71.24068359 196.27947266 71.24068359 197.83984375 72.37890625 C220.17318919 88.90615674 241.34654528 107.27414141 259.75 128.125 C260.45769531 128.91559814 260.45769531 128.91559814 261.1796875 129.72216797 C274.33841478 144.45016239 286.22964203 160.41233141 296.75 177.125 C297.4311084 178.20539551 297.4311084 178.20539551 298.12597656 179.30761719 C328.31263759 227.57770057 348.02674967 281.51099407 354.75 338.125 C354.83613556 338.84427673 354.92227112 339.56355347 355.01101685 340.30462646 C356.73266554 355.08665845 357.11196455 369.75256963 357.0625 384.625 C357.05976578 386.33695557 357.05976578 386.33695557 357.05697632 388.08349609 C357.00991626 405.61743065 356.46296197 422.77411263 353.75 440.125 C353.57307617 441.28209473 353.39615234 442.43918945 353.21386719 443.63134766 C346.7149414 485.0886575 334.14681834 524.95664908 314.74755859 562.20361328 C313.71058625 564.2009144 312.69298687 566.20741284 311.67578125 568.21484375 C303.40525144 584.36734239 293.58921133 599.58224554 282.75 614.125 C282.35103516 614.66286133 281.95207031 615.20072266 281.54101562 615.75488281 C274.9938614 624.54240784 267.99522328 632.9066104 260.75 641.125 C259.91210938 642.07632813 259.07421875 643.02765625 258.2109375 644.0078125 C247.00031042 656.46792124 235.30414461 669.00289204 222.0546875 679.3125 C219.84168509 681.05289512 217.80672266 682.89182515 215.75 684.8125 C192.37360116 705.70644941 163.92217063 721.65334254 135.75 735.125 C135.0271582 735.47385254 134.30431641 735.82270508 133.55957031 736.18212891 C88.06730659 757.96949908 36.02582929 771.09715074 -14.55859375 771.328125 C-16.11401886 771.33857849 -16.11401886 771.33857849 -17.7008667 771.34924316 C-21.02978631 771.36653431 -24.35853734 771.37296337 -27.6875 771.375 C-28.82627594 771.37600708 -29.96505188 771.37701416 -31.13833618 771.37805176 C-48.72420737 771.36753565 -65.83465035 770.71224642 -83.25 768.125 C-84.23645508 767.99109863 -85.22291016 767.85719727 -86.23925781 767.71923828 C-161.46084927 757.46852587 -234.0452254 722.56604084 -289.40234375 670.78515625 C-291.29088175 669.02096643 -293.19978494 667.27831247 -295.12890625 665.55859375 C-306.31431987 655.56470222 -316.72361267 644.66001346 -326.046875 632.90234375 C-327.61457923 630.92603576 -329.19912818 628.99022518 -330.828125 627.06640625 C-346.11464799 608.80417078 -359.06074503 588.10630849 -370.25 567.125 C-370.98742432 565.74876465 -370.98742432 565.74876465 -371.73974609 564.34472656 C-395.81595354 518.97300936 -410.09651141 468.29099979 -414.25 417.125 C-414.30784668 416.42874512 -414.36569336 415.73249023 -414.42529297 415.01513672 C-422.30758287 315.30533899 -390.14063429 215.52236089 -326.40234375 138.64453125 C-323.52443635 135.27565598 -320.57540691 131.97712135 -317.5859375 128.70703125 C-315.70264529 126.62533201 -313.86624766 124.51763973 -312.03515625 122.390625 C-307.98546834 117.7533417 -303.6755139 113.40342269 -299.3125 109.0625 C-298.55259766 108.29873047 -297.79269531 107.53496094 -297.00976562 106.74804688 C-292.2535502 101.99995479 -287.37269368 97.47419066 -282.25 93.125 C-281.61360596 92.58190186 -280.97721191 92.03880371 -280.3215332 91.47924805 C-259.80509364 74.08897545 -237.82961274 59.03139935 -214.19628906 46.18847656 C-212.27526769 45.13880658 -210.36801265 44.06694164 -208.4609375 42.9921875 C-163.43052389 17.97591765 -111.41746158 4.1689972 -60.25 0.125 C-58.29707031 -0.04128906 -58.29707031 -0.04128906 -56.3046875 -0.2109375 C-37.5924946 -1.64803022 -18.70457132 -1.29163266 0 0 Z M311.75 410.125 C312.74 411.115 313.73 412.105 314.75 413.125 C315.41 412.795 316.07 412.465 316.75 412.125 C314.275 411.135 314.275 411.135 311.75 410.125 Z M293.75 459.125 C294.08 459.785 294.41 460.445 294.75 461.125 C295.41 460.795 296.07 460.465 296.75 460.125 C295.76 459.795 294.77 459.465 293.75 459.125 Z M296.75 461.125 C297.08 461.785 297.41 462.445 297.75 463.125 C298.41 462.795 299.07 462.465 299.75 462.125 C298.76 461.795 297.77 461.465 296.75 461.125 Z M268.75 505.125 C269.74 506.61 269.74 506.61 270.75 508.125 C271.41 507.795 272.07 507.465 272.75 507.125 C271.43 506.465 270.11 505.805 268.75 505.125 Z M-305.25 554.125 C-304.25 558.125 -304.25 558.125 -304.25 558.125 Z M-306.25 558.125 C-305.25 561.125 -305.25 561.125 -305.25 561.125 Z M-307.25 562.125 C-306.25 565.125 -306.25 565.125 -306.25 565.125 Z M-308.25 566.125 C-307.25 568.125 -307.25 568.125 -307.25 568.125 Z M196.75 580.125 C197.41 581.445 198.07 582.765 198.75 584.125 C198.75 583.135 198.75 582.145 198.75 581.125 C198.09 580.795 197.43 580.465 196.75 580.125 Z M202.75 587.125 C203.75 589.125 203.75 589.125 203.75 589.125 Z M-272.25 593.125 C-271.25 597.125 -271.25 597.125 -271.25 597.125 Z M-273.25 599.125 C-272.25 602.125 -272.25 602.125 -272.25 602.125 Z M-233.25 626.125 C-233.25 628.105 -233.25 630.085 -233.25 632.125 C-232.92 632.125 -232.59 632.125 -232.25 632.125 C-232.25 630.145 -232.25 628.165 -232.25 626.125 C-232.58 626.125 -232.91 626.125 -233.25 626.125 Z M107.75 634.125 C108.75 636.125 108.75 636.125 108.75 636.125 Z M108.75 636.125 C109.08 637.115 109.41 638.105 109.75 639.125 C109.75 638.135 109.75 637.145 109.75 636.125 C109.42 636.125 109.09 636.125 108.75 636.125 Z M110.75 639.125 C111.75 641.125 111.75 641.125 111.75 641.125 Z M111.75 641.125 C112.75 643.125 112.75 643.125 112.75 643.125 Z M114.75 646.125 C115.75 648.125 115.75 648.125 115.75 648.125 Z M57.75 649.125 C58.75 651.125 58.75 651.125 58.75 651.125 Z M58.75 651.125 C59.75 653.125 59.75 653.125 59.75 653.125 Z M59.75 653.125 C60.32452746 657.05575644 60.32452746 657.05575644 62.75 660.125 C62.17547254 656.19424356 62.17547254 656.19424356 59.75 653.125 Z M-141.25 659.125 C-141.25 662.095 -141.25 665.065 -141.25 668.125 C-140.92 668.125 -140.59 668.125 -140.25 668.125 C-140.25 665.155 -140.25 662.185 -140.25 659.125 C-140.58 659.125 -140.91 659.125 -141.25 659.125 Z M62.75 660.125 C63.75 662.125 63.75 662.125 63.75 662.125 Z M63.75 662.125 C64.75 664.125 64.75 664.125 64.75 664.125 Z M64.75 664.125 C65.75 666.125 65.75 666.125 65.75 666.125 Z M-92.25 666.125 C-92.25 667.775 -92.25 669.425 -92.25 671.125 C-91.92 671.125 -91.59 671.125 -91.25 671.125 C-91.25 669.475 -91.25 667.825 -91.25 666.125 C-91.58 666.125 -91.91 666.125 -92.25 666.125 Z M65.75 666.125 C66.75 668.125 66.75 668.125 66.75 668.125 Z M10.75 668.125 C11.75 671.125 11.75 671.125 11.75 671.125 Z M-41.25 670.125 C-40.25 674.125 -40.25 674.125 -40.25 674.125 Z M11.75 671.125 C12.75 673.125 12.75 673.125 12.75 673.125 Z M-91.25 672.125 C-90.25 676.125 -90.25 676.125 -90.25 676.125 Z M-140.25 673.125 C-139.25 677.125 -139.25 677.125 -139.25 677.125 Z M-40.25 674.125 C-39.25 677.125 -39.25 677.125 -39.25 677.125 Z M12.75 674.125 C13.75 676.125 13.75 676.125 13.75 676.125 Z M13.75 677.125 C14.75 679.125 14.75 679.125 14.75 679.125 Z M-90.25 678.125 C-89.25 681.125 -89.25 681.125 -89.25 681.125 Z M-39.25 678.125 C-38.25 681.125 -38.25 681.125 -38.25 681.125 Z M-38.25 682.125 C-37.25 684.125 -37.25 684.125 -37.25 684.125 Z M-89.25 685.125 C-88.25 687.125 -88.25 687.125 -88.25 687.125 Z M-37.25 686.125 C-36.25 688.125 -36.25 688.125 -36.25 688.125 Z " fill="#7A3205" transform="translate(415.25,27.875)"/>
<path d="M0 0 C1.41539062 1.16982422 1.41539062 1.16982422 2.859375 2.36328125 C28.69048359 24.65538202 41.514332 58.8498194 46 92 C46.01882523 94.33325739 46.02137394 96.66676456 46 99 C34.85720494 100.46024574 23.71339876 101.91248599 12.56822586 103.35447788 C7.39326716 104.02428417 2.21869922 104.69685646 -2.95507812 105.37573242 C-7.94683614 106.03062163 -12.939485 106.67826794 -17.93283844 107.32087517 C-19.83897772 107.56747951 -21.74477984 107.81670434 -23.65023041 108.06857491 C-26.3164344 108.42055265 -28.98367845 108.7632453 -31.65136719 109.10375977 C-32.4411496 109.21021317 -33.23093201 109.31666656 -34.04464722 109.42634583 C-37.66297717 109.87884323 -40.50732673 110.0256896 -44 109 C-44.27972656 107.8140625 -44.55945312 106.628125 -44.84765625 105.40625 C-48.49364631 90.47320562 -53.01683247 76.02613641 -63 64 C-63.63164063 63.23300781 -64.26328125 62.46601563 -64.9140625 61.67578125 C-78.63327683 46.54353922 -99.88055055 41.95170181 -119.5065918 40.79296875 C-123.02793191 40.69772366 -126.53993199 40.67095537 -130.0625 40.6875 C-131.31893311 40.69241455 -132.57536621 40.6973291 -133.86987305 40.70239258 C-156.95104117 40.98905125 -182.36370812 44.25790091 -199.98828125 60.6484375 C-209.69837725 71.99887982 -209.83287934 84.87864643 -209 99 C-208.40613104 102.89071501 -207.47045624 106.35555027 -206 110 C-205.7215625 110.71027344 -205.443125 111.42054688 -205.15625 112.15234375 C-199.79624847 124.18924373 -189.54991595 130.9758057 -177.62788391 135.67428589 C-170.51863939 138.3747144 -163.31934415 140.57322265 -155.91796875 142.30859375 C-155.03780594 142.51637955 -154.15764313 142.72416534 -153.25080872 142.93824768 C-137.88296533 146.48610026 -122.34342688 149.29958875 -106.85522461 152.26782227 C-57.48022225 161.74073915 3.20997776 173.54826185 33.8203125 218.20727539 C48.99172976 241.70374264 54.65178483 268.17772381 54.4375 295.875 C54.43479095 296.70250763 54.43208191 297.53001526 54.42929077 298.38259888 C54.36689969 310.97603291 53.59352664 322.86173237 50 335 C49.66097656 336.27101563 49.32195312 337.54203125 48.97265625 338.8515625 C44.22795173 354.89237849 35.7187255 369.26451082 25 382 C24.44570312 382.69351562 23.89140625 383.38703125 23.3203125 384.1015625 C19.65509006 388.5988895 15.47923428 392.32776826 11 396 C9.62908203 397.1446875 9.62908203 397.1446875 8.23046875 398.3125 C-28.0877625 427.54981824 -75.56171513 435.21998115 -120.9375 435.25 C-122.32036697 435.25101212 -122.32036697 435.25101212 -123.73117065 435.25204468 C-163.97583557 435.20556224 -205.38945381 430.02315927 -241 410 C-242.55267578 409.17435547 -242.55267578 409.17435547 -244.13671875 408.33203125 C-274.21630417 391.77842934 -295.74922589 363.50582324 -306 331 C-310.50012537 315.18129944 -313.48204889 299.48283348 -314.54296875 283.0703125 C-314.58756226 282.38590088 -314.63215576 281.70148926 -314.67810059 280.99633789 C-314.7864592 279.33096048 -314.8933819 277.66548974 -315 276 C-302.500429 275.97687857 -290.00086305 275.95908594 -277.50127506 275.94818783 C-271.69786387 275.94295856 -265.89446725 275.93586013 -260.09106445 275.92456055 C-254.49549147 275.91373322 -248.89993255 275.9077235 -243.3043499 275.90512276 C-241.16441056 275.90326823 -239.02447204 275.89964709 -236.88453865 275.89426994 C-233.89835034 275.88706156 -230.91222093 275.88600897 -227.92602539 275.88647461 C-227.03194977 275.88287933 -226.13787415 275.87928406 -225.21670532 275.87557983 C-219.11405216 275.88594784 -219.11405216 275.88594784 -218 277 C-217.68584835 279.14387275 -217.37756583 281.28878429 -217.1003418 283.43774414 C-214.58560577 302.72673327 -208.96695651 318.9834273 -195 333 C-194.47019531 333.55300781 -193.94039062 334.10601563 -193.39453125 334.67578125 C-175.44038927 351.79914031 -147.40553058 354.4365023 -123.9375 354.375 C-123.12084869 354.37412384 -122.30419739 354.37324768 -121.46279907 354.37234497 C-99.71618959 354.29540587 -76.53715923 351.77644991 -60 336 C-59.29359375 335.33355469 -58.5871875 334.66710937 -57.859375 333.98046875 C-48.27846733 324.13342475 -45.03771857 311.47295272 -44.6875 298.0625 C-44.93515748 283.77575897 -50.23505474 271.87314682 -60.1015625 261.6015625 C-79.86076137 243.86621688 -110.06705785 241.37368881 -135.12799072 236.91564941 C-143.05374943 235.50395868 -150.97534847 234.06918952 -158.89453125 232.62109375 C-159.73968355 232.46665802 -160.58483585 232.31222229 -161.45559883 232.15310669 C-179.91284152 228.76462666 -198.15468326 224.69217783 -215.9375 218.625 C-217.0615625 218.2448877 -218.185625 217.86477539 -219.34375 217.47314453 C-251.38029497 206.39736427 -278.98201879 187.26459036 -294.1809082 156.2878418 C-308.07641194 126.68407242 -311.42250838 88.4889622 -302 57 C-301.649375 55.77667969 -301.29875 54.55335938 -300.9375 53.29296875 C-296.52778894 39.65042517 -289.56026581 26.69045227 -280 16 C-279.31421875 15.18402344 -278.6284375 14.36804688 -277.921875 13.52734375 C-249.04815266 -20.07211372 -203.54692824 -32.73633103 -161 -37 C-159.92234375 -37.11214844 -158.8446875 -37.22429687 -157.734375 -37.33984375 C-104.4348698 -41.86410408 -42.44218314 -35.83142425 0 0 Z " fill="#7A3205" transform="translate(1288,201)"/>
<path d="M0 0 C29.37 0 58.74 0 89 0 C89.33 51.81 89.66 103.62 90 157 C94.62 152.05 99.24 147.1 104 142 C121.82314044 124.6719468 145.45594235 114.28272 170 111 C170.81855469 110.88914062 171.63710937 110.77828125 172.48046875 110.6640625 C206.91475495 106.80908946 244.19741781 113.27157715 272.0625 134.75 C306.08093119 163.16219373 321.03552558 206.50607821 325.359375 249.58007812 C330.28016992 305.31979679 325.61676318 367.68447085 288.29150391 412.46630859 C287.86530762 412.97242676 287.43911133 413.47854492 287 414 C286.15824219 415.00675781 285.31648438 416.01351563 284.44921875 417.05078125 C273.39118771 429.86865622 260.08791787 439.45410622 245 447 C243.87207031 447.56460937 242.74414062 448.12921875 241.58203125 448.7109375 C210.15074628 463.22902223 170.59511249 464.25322524 138.08691406 452.78613281 C117.55674929 445.05249564 103.48486261 432.48486261 88 417 C87.67 427.89 87.34 438.78 87 450 C58.29 450 29.58 450 0 450 C0 301.5 0 153 0 0 Z M128 191 C127.15953125 191.44214844 126.3190625 191.88429688 125.453125 192.33984375 C109.94876642 201.03095159 99.26074352 215.07244152 94 232 C90.68278057 244.87363455 88.8561466 257.49494885 88.796875 270.7890625 C88.79117493 271.80938568 88.78547485 272.82970886 88.77960205 273.88095093 C88.77019733 276.03748556 88.76363619 278.19403427 88.75976562 280.35058594 C88.75017199 283.56733189 88.7191516 286.78340657 88.6875 290 C88.5431587 318.14952752 90.59744557 349.04777769 111.1328125 370.42578125 C128.14575226 385.70034161 148.04761787 389.07835169 170.26660156 388.19091797 C184.57153723 387.19177009 199.23085449 380.5949908 209 370 C233.07035883 341.85490329 236.021244 303.10798216 233.69140625 267.56640625 C231.58230098 241.45869603 224.88419411 214.82508821 205.25 196.25 C184.2727886 178.97225806 151.28979537 178.46208869 128 191 Z " fill="#7A3205" transform="translate(2142,175)"/>
<path d="M0 0 C22.00759276 19.57949344 30.76047166 49.39894946 32.56162047 78.04518151 C33.32043551 92.41679808 33.55524961 106.76248904 33.53955078 121.15136719 C33.54091065 123.29104136 33.54269383 125.43071529 33.54486084 127.57038879 C33.54935953 133.29825606 33.54767893 139.02610501 33.54448175 144.75397253 C33.54192582 150.77121367 33.54430394 156.78845337 33.54586792 162.80569458 C33.54767717 172.88006875 33.54531293 182.95443554 33.54052734 193.02880859 C33.53505451 204.68483052 33.53687411 216.34083504 33.54235375 227.99685657 C33.54688175 238.03037537 33.54753795 248.06388892 33.54491508 258.09740841 C33.54335475 264.08027058 33.54315257 270.06312453 33.54645157 276.04598618 C33.5493268 281.64891828 33.54736113 287.25182767 33.54155731 292.85475731 C33.54022923 294.91520462 33.54062464 296.97565382 33.54281998 299.03610039 C33.54552876 301.83495546 33.54215413 304.6337364 33.53713989 307.43258667 C33.53937061 308.25832085 33.54160134 309.08405504 33.54389966 309.93481147 C33.52430828 315.52207844 33.52430828 315.52207844 32.41015625 316.63623047 C29.64076659 316.7314085 26.89638466 316.76177312 24.12670898 316.74975586 C22.82438828 316.7499749 22.82438828 316.7499749 21.49575806 316.75019836 C18.61173039 316.74949892 15.72776645 316.74170509 12.84375 316.73388672 C10.84977758 316.73202265 8.8558047 316.73059869 6.86183167 316.729599 C1.60269923 316.72577295 -3.65640578 316.71594192 -8.91552734 316.70489502 C-14.2776655 316.69468277 -19.63980806 316.69010178 -25.00195312 316.68505859 C-35.53126208 316.67431973 -46.06055064 316.65724227 -56.58984375 316.63623047 C-56.5922321 315.50592879 -56.59462046 314.37562712 -56.59708118 313.21107388 C-56.65596162 285.66658705 -56.73189717 258.12218709 -56.82555866 230.57779598 C-56.87046134 217.25735253 -56.90988873 203.93695031 -56.9362793 190.61645508 C-56.95930415 179.00187783 -56.99275227 167.38738454 -57.03854531 155.77287394 C-57.06241697 149.62712883 -57.08118542 143.48146656 -57.08745766 137.33567619 C-57.09353592 131.54167604 -57.11363442 125.74788767 -57.14411926 119.95396614 C-57.15285569 117.83654378 -57.15663127 115.71909369 -57.15485191 113.60165405 C-57.06595873 87.72643043 -57.06595873 87.72643043 -68.69921875 65.25732422 C-80.56595942 54.14759977 -94.76182467 51.8347222 -110.55078125 52.29248047 C-126.97577651 53.16515574 -142.28570176 59.7432275 -154.58984375 70.63623047 C-155.17894531 71.12091797 -155.76804687 71.60560547 -156.375 72.10498047 C-167.06896674 81.65403505 -173.64664444 96.68552108 -175.58984375 110.63623047 C-175.68994268 113.49158165 -175.74450033 116.32314132 -175.74806213 119.17831421 C-175.75300011 120.02465254 -175.75793809 120.87099088 -175.7630257 121.74297583 C-175.77835042 124.57116166 -175.78674767 127.39932488 -175.79516602 130.22753906 C-175.80474849 132.25795693 -175.81475879 134.28837281 -175.82516479 136.31878662 C-175.85217987 141.82650745 -175.87320784 147.33423682 -175.89316678 152.84198713 C-175.91504728 158.59955873 -175.94242587 164.35710411 -175.96922302 170.11465454 C-176.01912198 181.01547511 -176.0640712 191.91631025 -176.10724539 202.8171593 C-176.15664165 215.22820418 -176.21155093 227.63922276 -176.26692498 240.05024219 C-176.38070211 265.5788816 -176.48682269 291.10754523 -176.58984375 316.63623047 C-205.95984375 316.63623047 -235.32984375 316.63623047 -265.58984375 316.63623047 C-265.58984375 207.73623047 -265.58984375 98.83623047 -265.58984375 -13.36376953 C-237.20984375 -13.36376953 -208.82984375 -13.36376953 -179.58984375 -13.36376953 C-179.25984375 0.82623047 -178.92984375 15.01623047 -178.58984375 29.63623047 C-175.28984375 25.34623047 -171.98984375 21.05623047 -168.58984375 16.63623047 C-166.53094334 14.30909304 -164.54662216 12.10761553 -162.33984375 9.94873047 C-161.52507568 9.14967285 -161.52507568 9.14967285 -160.69384766 8.33447266 C-120.70159532 -29.92894197 -43.29286756 -37.13666434 0 0 Z " fill="#7A3205" transform="translate(2035.58984375,308.36376953125)"/>
<path d="M0 0 C29.7 0 59.4 0 90 0 C90.01458252 6.67677979 90.02916504 13.35355957 90.04418945 20.23266602 C90.0945505 42.3050192 90.16099914 64.37730237 90.23571491 86.44958591 C90.24466619 89.11702525 90.25359343 91.78446465 90.26245117 94.4519043 C90.26465486 95.11487673 90.26685854 95.77784917 90.269129 96.46091168 C90.30222777 106.50477393 90.32662696 116.54863265 90.34643555 126.5925293 C90.36945989 138.25984403 90.40290746 149.92707519 90.44870156 161.59432358 C90.47257389 167.76801431 90.4913419 173.94162257 90.49761391 180.11535835 C90.50369186 185.93562291 90.52378927 191.75567661 90.55427551 197.57586288 C90.56301243 199.70296066 90.56678742 201.83008603 90.56500816 203.957201 C90.54945651 229.75636094 90.54945651 229.75636094 101.96875 252.34375 C113.48368896 263.52492261 127.56740493 264.40733822 142.72265625 264.20703125 C159.01648209 263.73621161 171.97821097 256.6949695 184 246 C184.77085937 245.33484375 185.54171875 244.6696875 186.3359375 243.984375 C197.29354193 233.88692382 203.96098349 219.68756077 206 205 C206.10005163 202.15726653 206.15465464 199.33842903 206.15821838 196.49588013 C206.16315636 195.65362534 206.16809434 194.81137056 206.17318195 193.94359291 C206.18850592 191.12922662 206.19690372 188.31488306 206.20532227 185.50048828 C206.2149048 183.4799225 206.2249151 181.45935871 206.23532104 179.438797 C206.26233548 173.95793488 206.28336379 168.47706417 206.30332303 162.99617243 C206.32520393 157.26662797 206.35258233 151.53710986 206.37937927 145.80758667 C206.4292777 134.95989012 206.47422711 124.11217893 206.51740164 113.26445377 C206.56679836 100.91386714 206.62170747 88.56330695 206.67708123 76.2127459 C206.79085753 50.80852073 206.89697838 25.40427122 207 0 C236.37 0 265.74 0 296 0 C296 108.9 296 217.8 296 330 C267.29 330 238.58 330 209 330 C208.67 316.14 208.34 302.28 208 288 C205.69 290.97 203.38 293.94 201 297 C180.44582665 321.56729718 153.28004132 336.68170808 121.2355957 339.83666992 C89.38495482 342.1636415 56.19574546 336.84724938 31.28125 315.69140625 C14.26480805 299.69910201 6.51351339 277.39338414 2.75 254.875 C2.50527954 253.45743408 2.50527954 253.45743408 2.25561523 252.01123047 C-0.53859644 234.00276674 -0.1474007 215.48358819 -0.11352539 197.30712891 C-0.11324238 195.13642376 -0.11340348 192.96571852 -0.1139679 190.79501343 C-0.11425142 184.97831128 -0.10842756 179.16163032 -0.10139394 173.34493303 C-0.09508542 167.2377995 -0.09455073 161.13066534 -0.09336853 155.02352905 C-0.09027711 143.49281815 -0.08209362 131.96211688 -0.07201904 120.43141019 C-0.06078942 107.28967613 -0.05533029 94.14794157 -0.05032361 81.00620389 C-0.03990886 54.00412938 -0.02159103 27.00206805 0 0 Z " fill="#7A3205" transform="translate(1397,295)"/>
<path d="M0 0 C34.65 0 69.3 0 105 0 C107.97 5.28 110.94 10.56 114 16 C116.60398477 20.34860279 119.22247943 24.681575 121.875 29 C123.35397742 31.41910358 124.82988791 33.84006623 126.3046875 36.26171875 C126.873013 37.19476082 126.873013 37.19476082 127.45281982 38.14665222 C132.81308549 46.96257522 138.06045566 55.84597612 143.31591797 64.72460938 C143.68925262 65.355112 144.06258728 65.98561462 144.44723511 66.63522339 C145.18412192 67.88023847 145.92040044 69.12561381 146.65603638 70.37136841 C148.60378131 73.66488137 150.5705575 76.9454029 152.5625 80.21240234 C152.98072021 80.90073654 153.39894043 81.58907074 153.82983398 82.29826355 C154.6354981 83.62241736 155.44475977 84.94439073 156.25805664 86.26387024 C159 90.777164 159 90.777164 159 93 C159.66 93 160.32 93 161 93 C161.41052612 91.89481522 161.41052612 91.89481522 161.8293457 90.76730347 C162.92982884 88.16587722 164.14782336 86.053235 165.73046875 83.72314453 C166.27864258 82.91104523 166.82681641 82.09894592 167.39160156 81.26223755 C167.98424805 80.39452728 168.57689453 79.52681702 169.1875 78.6328125 C169.80463867 77.72103241 170.42177734 76.80925232 171.05761719 75.86984253 C173.0339868 72.95186597 175.01679291 70.03833267 177 67.125 C178.95319118 64.24640867 180.90504607 61.36691505 182.85668945 58.48727417 C184.06885092 56.69976585 185.28212561 54.91301163 186.49682617 53.12722778 C187.6762568 51.39195091 188.85185187 49.65406211 190.02398682 47.91384888 C191.47061944 45.7806299 192.9324134 43.66287911 194.40911865 41.55075073 C198.33124264 35.87755437 201.98151959 30.34413498 204.78878403 24.02733994 C208.95186851 14.66221865 214.1669979 3.0478318 224.32998657 -0.90660095 C237.88442795 -4.45568635 252.665447 -2.92631401 266.48455811 -2.05993652 C271.95885417 -1.74990275 277.43737935 -1.61539882 282.91796875 -1.46484375 C293.62301763 -1.14548011 304.30937677 -0.63548887 315 0 C313.52144921 3.8427166 311.80922768 6.99412102 309.47265625 10.39453125 C308.76834473 11.42457275 308.0640332 12.45461426 307.33837891 13.51586914 C306.57986126 14.61482109 305.82123266 15.71369648 305.0625 16.8125 C304.28522077 17.94559159 303.50836809 19.07897589 302.73193359 20.21264648 C301.19369385 22.45683787 299.65274557 24.69912363 298.10888672 26.93945312 C296.34153383 29.50434498 294.57760676 32.07150778 292.81640625 34.640625 C290.64130466 37.81170426 288.46102397 40.97916934 286.27832031 44.14501953 C284.01593351 47.42798647 281.75830186 50.71422243 279.5 54 C278.58335403 55.33334756 277.66668741 56.66668093 276.75 58 C276.29625 58.66 275.8425 59.32 275.375 60 C260.25 81.99999999 260.25 81.99999999 258.87548828 83.99926758 C257.95716639 85.33502333 257.0388722 86.67079812 256.12060547 88.0065918 C253.85448843 91.30301745 251.58791941 94.59913027 249.3203125 97.89453125 C243.81746873 105.89285069 238.32691886 113.89945144 232.84960938 121.9152832 C230.2341699 125.74141554 227.61365544 129.56375223 224.9765625 133.375 C224.49509766 134.07173828 224.01363281 134.76847656 223.51757812 135.48632812 C222.63519021 136.76226353 221.75126364 138.03713738 220.86523438 139.31054688 C217.08863751 144.77494139 213.54265503 150.38194063 210 156 C224.29247668 177.73445422 238.59382727 199.46303319 252.91259766 221.18017578 C254.1435612 223.04719623 255.37451821 224.91422098 256.60546875 226.78125 C257.2160614 227.70735077 257.82665405 228.63345154 258.45574951 229.58761597 C262.74068203 236.08752095 267.02147815 242.59013784 271.30078125 249.09375 C287.40870822 273.56916837 303.61079054 297.98009993 319.89164734 322.34083557 C323 326.99392871 323 326.99392871 323 330 C309.77923657 330.46462208 296.56043022 330.8193414 283.33314896 331.03624344 C277.18969559 331.14038833 271.05184707 331.2814226 264.91162109 331.50878906 C258.97828645 331.72710412 253.0503156 331.84586205 247.11327362 331.89754486 C244.85596945 331.93433542 242.59894086 332.00620318 240.34394073 332.11460114 C225.97467519 332.77747307 225.97467519 332.77747307 220 330 C214.76989776 325.14609025 211.84333779 318.78151066 209.04286289 312.32267666 C207.71130534 309.35701581 206.09855479 306.7770611 204.29296875 304.078125 C203.77726318 303.27366943 203.26155762 302.46921387 202.73022461 301.64038086 C202.22112549 300.85155518 201.71202637 300.06272949 201.1875 299.25 C200.00438698 297.40286958 198.82212658 295.55519283 197.640625 293.70703125 C197.04443359 292.77455566 196.44824219 291.84208008 195.83398438 290.88134766 C181.96186143 269.08704587 168.44173929 247.06169234 155 225 C152.15276421 227.69213495 149.96915558 230.3536581 147.8984375 233.67578125 C147.33133057 234.57804443 146.76422363 235.48030762 146.17993164 236.40991211 C145.5843042 237.36776611 144.98867676 238.32562012 144.375 239.3125 C143.11191298 241.32109021 141.84758722 243.32890199 140.58203125 245.3359375 C139.96666504 246.31272461 139.35129883 247.28951172 138.71728516 248.29589844 C136.54861469 251.71076823 134.32259316 255.08268173 132.0625 258.4375 C127.92534013 264.59030964 123.85917824 270.78730466 119.8125 277 C119.17666992 277.97598145 118.54083984 278.95196289 117.88574219 279.95751953 C115.27418255 283.96780171 112.66408621 287.97903413 110.0546875 291.99072266 C108.14140045 294.93182054 106.22695772 297.87216405 104.3125 300.8125 C103.75602783 301.66908203 103.19955566 302.52566406 102.6262207 303.40820312 C101.49159652 305.15062096 100.33581007 306.87943785 99.15948486 308.59397888 C97.47826542 311.12894435 96.12069946 313.73130948 94.77879333 316.45973206 C88.46527567 328.49023025 88.46527567 328.49023025 82.68416786 331.00897408 C76.06559827 332.53134544 69.3424775 332.06767801 62.609375 331.7578125 C60.45187053 331.724187 58.29422742 331.69858972 56.13653564 331.68063354 C50.49058185 331.61229917 44.85313095 331.43591502 39.21051025 331.23596191 C33.43968774 331.0509194 27.66747304 330.96943002 21.89453125 330.87890625 C10.59264248 330.68657184 -0.70296865 330.37991152 -12 330 C-11.21906813 328.57073352 -10.43521022 327.14306557 -9.65014648 325.71606445 C-8.99585915 324.52325615 -8.99585915 324.52325615 -8.32835388 323.30635071 C-6.46930593 320.0785839 -4.31633553 317.1465857 -2.0625 314.1875 C2.38048218 308.24051505 6.69316318 302.21533462 10.9375 296.125 C11.52958252 295.27599121 12.12166504 294.42698242 12.73168945 293.55224609 C13.91715114 291.85216161 15.10245562 290.15196749 16.28759766 288.45166016 C18.88733214 284.72959946 21.50466412 281.02007456 24.125 277.3125 C24.61218506 276.6230127 25.09937012 275.93352539 25.60131836 275.22314453 C26.57817403 273.84090269 27.55514286 272.45874081 28.53222656 271.07666016 C31.02320986 267.55232484 33.51144903 264.02605299 36 260.5 C36.99998722 259.08332432 37.99998722 257.66665764 39 256.25 C39.495 255.54875 39.99 254.8475 40.5 254.125 C81 196.75 81 196.75 82.50195312 194.62255859 C83.49585223 193.21431889 84.48934587 191.80579293 85.48242188 190.39697266 C88.07241158 186.72384994 90.67051999 183.05685408 93.28125 179.3984375 C93.82007812 178.64111328 94.35890625 177.88378906 94.9140625 177.10351562 C95.93747575 175.66544356 96.96334124 174.22911201 97.9921875 172.79492188 C98.45882812 172.13814453 98.92546875 171.48136719 99.40625 170.8046875 C100.01436523 169.95366455 100.01436523 169.95366455 100.63476562 169.08544922 C102.56652797 166.13460623 104.2688409 163.07276141 106 160 C102.5001849 154.73772421 98.9987177 149.47655263 95.49584961 144.21630859 C94.30954523 142.43436954 93.1236585 140.65215236 91.93823242 138.86962891 C85.74618906 129.55927146 79.53024389 120.26955687 73.17675781 111.06846619 C67.11206645 102.27950023 61.15524411 93.4174358 55.1875 84.5625 C54.55815552 83.62923889 53.92881104 82.69597778 53.28039551 81.73443604 C44.0044516 67.97787836 34.77074631 54.19401328 25.59179688 40.37255859 C21.40291179 34.0699547 17.18797564 27.78810055 12.90234375 21.55078125 C12.49873627 20.9623645 12.09512878 20.37394775 11.67929077 19.7677002 C9.79757907 17.02557542 7.90980867 14.28827978 6.01074219 11.55810547 C5.03669434 10.14295654 5.03669434 10.14295654 4.04296875 8.69921875 C3.47602295 7.88283936 2.90907715 7.06645996 2.32495117 6.2253418 C1 4 1 4 0 0 Z " fill="#7A3205" transform="translate(2943,295)"/>
<path d="M0 0 C2.13904504 0.0106746 4.27724083 0.00007055 6.41625977 -0.01269531 C28.25047403 -0.03406474 28.25047403 -0.03406474 34.84008789 3.26074219 C32.97575865 19.95861915 30.93199646 36.62441081 28.67797852 53.27416992 C28.20453225 56.77632389 27.73700177 60.27923792 27.26977539 63.78222656 C26.96803897 66.02380975 26.66596918 68.26534809 26.36352539 70.50683594 C26.22498138 71.54722519 26.08643738 72.58761444 25.94369507 73.65953064 C25.81330841 74.61646317 25.68292175 75.57339569 25.54858398 76.55932617 C25.43549896 77.39801743 25.32241394 78.23670868 25.2059021 79.10081482 C24.84008789 81.26074219 24.84008789 81.26074219 23.84008789 84.26074219 C22.55360352 84.04417969 21.26711914 83.82761719 19.94165039 83.60449219 C-6.36017175 79.44495067 -37.68340974 77.15963299 -60.47241211 93.51074219 C-74.83303389 104.95761462 -83.10863893 119.22931571 -85.7553215 137.38095665 C-86.55867698 145.08466236 -86.47006323 152.80703962 -86.47875977 160.54516602 C-86.48807549 162.45839351 -86.49824656 164.371617 -86.50920105 166.28483582 C-86.5363299 171.4409179 -86.5515993 176.59697292 -86.56462908 181.75310731 C-86.58033508 187.15564186 -86.60710122 192.55812176 -86.63265991 197.96061707 C-86.6793161 208.17412841 -86.71612364 218.3876502 -86.74933279 228.60121316 C-86.79482176 242.41473352 -86.85564625 256.22818599 -86.91558075 270.04164982 C-87.00950413 291.78131312 -87.08304318 313.5209964 -87.15991211 335.26074219 C-116.52991211 335.26074219 -145.89991211 335.26074219 -176.15991211 335.26074219 C-176.15991211 226.36074219 -176.15991211 117.46074219 -176.15991211 5.26074219 C-147.44991211 5.26074219 -118.73991211 5.26074219 -89.15991211 5.26074219 C-88.82991211 19.12074219 -88.49991211 32.98074219 -88.15991211 47.26074219 C-85.18991211 43.63074219 -82.21991211 40.00074219 -79.15991211 36.26074219 C-59.08543399 12.3484962 -31.12869414 -0.1841306 0 0 Z " fill="#7A3205" transform="translate(2710.159912109375,289.7392578125)"/>
<path d="M0 0 C29.37 0 58.74 0 89 0 C89 108.9 89 217.8 89 330 C59.63 330 30.26 330 0 330 C0 221.1 0 112.2 0 0 Z " fill="#7A3205" transform="translate(2799,295)"/>
<path d="M0 0 C12.64020057 10.63721494 18.96864918 23.72411506 21 40 C22.10842987 53.30115843 18.03370054 67.25180532 9.85546875 77.75390625 C7.65378141 80.27065618 5.37866568 82.65080452 3 85 C2.44699219 85.57492188 1.89398438 86.14984375 1.32421875 86.7421875 C-9.88492891 97.47849271 -24.9802218 99.59243391 -39.74609375 99.3125 C-54.90895707 98.66254694 -67.86713679 91.02693938 -78 80 C-88.22576624 66.56545883 -91.85088747 51.61592164 -90 35 C-89.07416302 30.46056462 -87.7503111 26.28461571 -86 22 C-85.71125 21.26652344 -85.4225 20.53304687 -85.125 19.77734375 C-79.3506851 6.81091342 -68.0981714 -2.85356412 -55.0625 -8 C-36.19702631 -14.73265976 -16.271648 -11.55423745 0 0 Z " fill="#7A3205" transform="translate(286,124)"/>
<path d="M0 0 C6.87338279 6.8002617 13.36876677 13.90878428 19.4375 21.4375 C23.09571015 25.97316443 26.94742965 30.2570117 30.91381836 34.51928711 C34.69490558 38.60661006 38.19689966 42.88043244 41.6875 47.21875 C44.1997101 50.24019188 46.82400827 53.12441773 49.5 56 C53.76918152 60.58760113 57.75758517 65.33442728 61.6875 70.21875 C64.19971133 73.24019336 66.82402457 76.12440078 69.5 79 C73.7895776 83.61001639 77.80410897 88.37783236 81.75390625 93.28515625 C84.0883059 96.10673495 86.51990598 98.80590712 89 101.5 C92.27418423 105.05670244 95.40642433 108.67161811 98.4375 112.4375 C102.09571015 116.97316443 105.94742965 121.2570117 109.91381836 125.51928711 C113.69490558 129.60661006 117.19689966 133.88043244 120.6875 138.21875 C123.19971133 141.24019336 125.82402457 144.12440078 128.5 147 C132.7895776 151.61001639 136.80410897 156.37783236 140.75390625 161.28515625 C143.0883059 164.10673495 145.51990598 166.80590712 148 169.5 C151.27418423 173.05670244 154.40642433 176.67161811 157.4375 180.4375 C161.09571015 184.97316443 164.94742965 189.2570117 168.91381836 193.51928711 C172.69490558 197.60661006 176.19689966 201.88043244 179.6875 206.21875 C182.19971133 209.24019336 184.82402457 212.12440078 187.5 215 C191.7895776 219.61001639 195.80410897 224.37783236 199.75390625 229.28515625 C202.0883059 232.10673495 204.51990598 234.80590712 207 237.5 C211.10953207 241.96688268 214.99501643 246.56631815 218.796875 251.296875 C220.74535308 253.88824908 220.74535308 253.88824908 222.50704956 255.1867218 C225.7445011 258.03099711 226.89132719 260.26577982 227.52770996 264.56533813 C227.7745429 269.1466147 227.67500342 273.72392902 227.5859375 278.30859375 C227.57473551 280.00251254 227.56620006 281.69645088 227.56021118 283.39039612 C227.53739131 287.83127279 227.47852898 292.27095671 227.4119873 296.71136475 C227.35041579 301.24946968 227.32316458 305.78776891 227.29296875 310.32617188 C227.22877756 319.21796963 227.1264826 328.10888532 227 337 C224.10062891 334.16148184 221.77991545 331.40063748 219.55078125 328.00390625 C218.54615845 326.48337646 218.54615845 326.48337646 217.52124023 324.93212891 C217.16375702 324.38663391 216.8062738 323.84113892 216.43795776 323.27911377 C214.44566875 320.24035846 212.43642599 317.21281774 210.4296875 314.18359375 C209.99726242 313.52999878 209.56483734 312.87640381 209.11930847 312.20300293 C203.77954782 304.14048672 198.35738184 296.13376876 192.9375 288.125 C191.86869314 286.54478656 190.79992721 284.96454544 189.73120117 283.38427734 C187.56415207 280.18026438 185.39670366 276.97652201 183.22900391 273.77294922 C178.53951424 266.84197131 173.85456101 259.90792852 169.16970825 252.97381592 C167.6189975 250.67861573 166.06817275 248.3834926 164.51733398 246.08837891 C156.27238307 233.88599636 148.03303157 221.67983823 139.79455566 209.4730835 C128.5665127 192.83696438 117.33074379 176.20607423 106.09277344 159.57666016 C101.41628884 152.65654956 96.74042871 145.73601702 92.06451416 138.81552124 C89.45970099 134.96033068 86.85484853 131.10516667 84.25 127.25 C83.20833314 125.70833346 82.16666648 124.16666679 81.125 122.625 C80.3515625 121.4803125 80.3515625 121.4803125 79.5625 120.3125 C69.66666667 105.66666667 59.77083333 91.02083333 49.875 76.375 C49.35948578 75.61204117 48.84397156 74.84908234 48.31283569 74.06300354 C47.27004175 72.51966402 46.22725612 70.97631887 45.18447876 69.43296814 C42.59762731 65.6043503 40.01063644 61.77582681 37.42333984 57.94750977 C32.52910733 50.70538871 27.63639213 43.46225413 22.74822998 36.21603394 C20.43236104 32.78315934 18.1157464 29.35078828 15.79907227 25.91845703 C14.69209021 24.27792156 13.5854759 22.63713788 12.47924805 20.99609375 C10.94802562 18.72463625 9.41555246 16.45402742 7.8828125 14.18359375 C7.43088531 13.51247055 6.97895813 12.84134735 6.51333618 12.14988708 C4.80369605 9.61948461 3.10077264 7.1262452 1.19482422 4.73852539 C0 3 0 3 0 0 Z " fill="#7A3205" transform="translate(340,296)"/>
<path d="M0 0 C30.36 0 60.72 0 92 0 C92 26.4 92 52.8 92 80 C61.64 80 31.28 80 0 80 C0 53.6 0 27.2 0 0 Z " fill="#7A3205" transform="translate(2797,175)"/>
<path d="M0 0 C3.89431805 1.57885475 6.48198787 4.24101735 9.359375 7.19921875 C10.12148285 7.96912895 10.12148285 7.96912895 10.89898682 8.7545929 C12.52083649 10.39419699 14.1358566 12.04031153 15.75 13.6875 C17.8663273 15.84068036 19.98588559 17.99060118 22.109375 20.13671875 C22.88432312 20.92005081 22.88432312 20.92005081 23.67492676 21.71920776 C26.98180251 25.03914291 30.39740624 28.15028366 33.96191406 31.18676758 C39.02081115 35.68753766 43.68361503 40.63627031 48.43652344 45.45703125 C55.03623612 52.17048126 55.03623612 52.17048126 62 58.5 C67.80886608 63.46888748 73.07383215 69.01778217 78.43652344 74.45703125 C85.01979571 81.15581399 85.01979571 81.15581399 91.96875 87.46875 C97.99159851 92.62067744 103.44689427 98.39182133 109.00927734 104.02978516 C114.17248769 109.25675956 119.3454046 114.38221491 124.93554688 119.15820312 C129.99839725 123.67501287 134.67407845 128.62659758 139.43652344 133.45703125 C146.01979571 140.15581399 146.01979571 140.15581399 152.96875 146.46875 C158.99159851 151.62067744 164.44689427 157.39182133 170.00927734 163.02978516 C175.16818536 168.2524041 180.33658431 173.3733854 185.92236328 178.14501953 C190.54757465 182.27455608 194.83496568 186.77379571 199.1875 191.1875 C201.115505 193.142305 203.04695367 195.09361537 204.98046875 197.04296875 C205.82504639 197.89914795 206.66962402 198.75532715 207.53979492 199.63745117 C209.91058601 202.04583578 209.91058601 202.04583578 212.61828613 203.78077698 C215 206 215 206 215.60127258 208.72088623 C215.59016953 209.76013245 215.57906647 210.79937866 215.56762695 211.87011719 C215.5672493 213.05103943 215.56687164 214.23196167 215.56648254 215.44866943 C215.54067612 216.71857727 215.51486969 217.98848511 215.48828125 219.296875 C215.47766914 221.25273529 215.47766914 221.25273529 215.46684265 223.24810791 C215.44779075 226.70750198 215.39870871 230.16583919 215.34332275 233.62481689 C215.29208934 237.15728458 215.26932008 240.68992378 215.24414062 244.22265625 C215.1905859 251.14887048 215.10529679 258.07438445 215 265 C211.45167875 261.48310272 208.08766021 257.88664751 204.875 254.0625 C204.40126953 253.50111328 203.92753906 252.93972656 203.43945312 252.36132812 C199.56287798 247.73709119 195.83591991 243.00511361 192.13305664 238.24145508 C188.50669604 233.59503933 184.7360056 229.08895165 180.90966797 224.60668945 C177.59827149 220.72328147 174.38449634 216.77668046 171.21484375 212.77734375 C168.3990022 209.24636784 165.54197784 205.74975881 162.6875 202.25 C158.52735335 197.14632729 154.42027211 192.00761935 150.375 186.8125 C146.4113986 181.72636771 142.31009715 176.78365884 138.11791992 171.88500977 C134.87601554 168.07974489 131.75656773 164.19562479 128.6875 160.25 C124.00588733 154.23319207 119.19293791 148.33522988 114.33496094 142.46020508 C108.72121793 135.67094123 103.16505683 128.83618967 97.61767578 121.99267578 C95.9760329 119.97047699 94.33038484 117.95160162 92.68359375 115.93359375 C87.52197568 109.60409595 82.39455769 103.25543388 77.375 96.8125 C73.41125249 91.726478 69.31010256 86.78366515 65.11791992 81.88500977 C61.87601554 78.07974489 58.75656773 74.19562479 55.6875 70.25 C51.00588733 64.23319207 46.19293791 58.33522988 41.33496094 52.46020508 C35.72252326 45.6725199 30.16796697 38.83914733 24.62207031 31.99707031 C22.96822062 29.96087367 21.30903801 27.92913122 19.6484375 25.8984375 C14.42574674 19.50619252 9.23617341 13.09355374 4.1875 6.5625 C3.54711792 5.73745972 3.54711792 5.73745972 2.89379883 4.89575195 C0 1.12257837 0 1.12257837 0 0 Z " fill="#793205" transform="translate(352,286)"/>
<path d="M0 0 C2.878418 1.3314565 5.19196251 2.83298322 7.6171875 4.87109375 C8.29942383 5.43981201 8.98166016 6.00853027 9.68457031 6.59448242 C10.40741211 7.20267822 11.13025391 7.81087402 11.875 8.4375 C17.27311135 12.93611845 22.69834771 17.37963894 28.25 21.6875 C33.31775145 25.62820539 38.23833768 29.70865598 43.11523438 33.88232422 C46.92045294 37.12410421 50.80446596 40.24350285 54.75 43.3125 C60.02742499 47.41880687 65.22117721 51.6145689 70.375 55.875 C71.08793213 56.4642627 71.80086426 57.05352539 72.53540039 57.66064453 C73.24946045 58.25087402 73.96352051 58.84110352 74.69921875 59.44921875 C83.77511432 66.95061967 92.90005089 74.38676658 102.1875 81.625 C107.27344746 85.58884733 112.21633028 89.68989353 117.11499023 93.88208008 C120.92025511 97.12398446 124.80437521 100.24343227 128.75 103.3125 C134.02742499 107.41880687 139.22117721 111.6145689 144.375 115.875 C145.08793213 116.4642627 145.80086426 117.05352539 146.53540039 117.66064453 C147.24946045 118.25087402 147.96352051 118.84110352 148.69921875 119.44921875 C158.33702572 127.41505017 168.04526647 135.28253141 177.90942383 142.96630859 C183.5385655 147.37509042 188.98304733 151.9921901 194.36141968 156.70341492 C196.00632589 158.06729934 196.00632589 158.06729934 198.0284729 159.18489075 C201.23884533 161.15301798 203.59293002 162.63860181 204.70285034 166.3506012 C204.92570829 169.22107709 204.90037477 171.99049868 204.78125 174.8671875 C204.76993042 175.90191193 204.75861084 176.93663635 204.74694824 178.00271606 C204.70229758 181.29539113 204.60195298 184.58365013 204.5 187.875 C204.45985852 190.11191611 204.42335893 192.34890073 204.390625 194.5859375 C204.30260124 200.05878873 204.168881 205.52907893 204 211 C196.63437737 204.76027824 196.63437737 204.76027824 193.28125 201.4140625 C192.65863281 200.79273438 192.03601563 200.17140625 191.39453125 199.53125 C190.76933594 198.9021875 190.14414062 198.273125 189.5 197.625 C188.87480469 197.00367188 188.24960937 196.38234375 187.60546875 195.7421875 C184.53502713 192.66538886 181.5746182 189.54661779 178.75 186.2421875 C173.9675524 180.70525365 168.7045646 175.63479386 163.5 170.5 C157.7606579 164.8375977 152.08310033 159.19923208 146.84179688 153.06445312 C142.77683849 148.50807878 138.34695803 144.2857743 134 140 C123.34416979 129.49415131 123.34416979 129.49415131 119.53125 125.03125 C114.84190229 119.54917923 109.63154074 114.56274894 104.5 109.5 C98.7606579 103.8375977 93.08310033 98.19923208 87.84179688 92.06445312 C83.77683849 87.50807878 79.34695803 83.2857743 75 79 C64.34416979 68.49415131 64.34416979 68.49415131 60.53125 64.03125 C55.84190229 58.54917923 50.63154074 53.56274894 45.5 48.5 C39.76249491 42.83941007 34.08915942 37.20254075 28.85058594 31.06884766 C24.29126441 25.97179085 19.28194349 21.26759936 14.39208984 16.48803711 C9.0934945 11.30088954 4.04289675 6.2552115 0 0 Z " fill="#793205" transform="translate(363,274)"/>
<path d="M0 0 C5.13882032 1.64849286 9.10994299 4.7569027 13.4375 7.875 C21.8388181 13.84022493 30.35196859 19.61781836 38.9375 25.3125 C50.28426273 32.84568484 61.5942117 40.43085348 72.875 48.0625 C73.64515442 48.58343231 74.41530884 49.10436462 75.20880127 49.64108276 C78.3786528 51.78522959 81.54839468 53.92953828 84.71789551 56.07420349 C93.74452747 62.18173253 102.77840826 68.27851308 111.8125 74.375 C115.14846134 76.62626676 118.48439957 78.87756776 121.8203125 81.12890625 C122.65083633 81.68939667 123.48136017 82.24988708 124.33705139 82.82736206 C129.55924449 86.35189142 134.78068561 89.87752989 140.00062561 93.40539551 C141.77967421 94.60697147 143.55948457 95.80742039 145.34007263 97.00671387 C149.66012148 99.91807772 153.96689155 102.84556631 158.24731445 105.81494141 C165.05254517 110.51218598 171.61909144 115.03389822 179.17578125 118.43359375 C190.27027282 123.63087788 190.27027282 123.63087788 193 129 C195.90317459 141.54949709 194.25831316 155.32099695 193 168 C188.94187464 165.34149313 185.35002805 162.63595676 181.8125 159.3125 C178.15304664 155.92997824 174.44710008 152.68365267 170.5625 149.5625 C166.02683557 145.90428985 161.7429883 142.05257035 157.48071289 138.08618164 C154.24806025 135.09573 150.93303234 132.26220993 147.5 129.5 C142.98222187 125.86500611 138.72181484 122.0328971 134.48046875 118.0859375 C131.24788253 115.09558642 127.93294134 112.26213671 124.5 109.5 C120.52370574 106.30068278 116.73331702 102.97415055 113 99.5 C108.38998361 95.2104224 103.62216764 91.19589103 98.71484375 87.24609375 C94.93432714 84.11832821 91.35519125 80.78726117 87.74609375 77.46484375 C85.08124834 75.07292703 82.35168175 72.80745116 79.5625 70.5625 C75.02683557 66.90428985 70.7429883 63.05257035 66.48071289 59.08618164 C63.24806025 56.09573 59.93303234 53.26220993 56.5 50.5 C51.98222187 46.86500611 47.72181484 43.0328971 43.48046875 39.0859375 C40.24788253 36.09558642 36.93294134 33.26213671 33.5 30.5 C28.98726764 26.86906591 24.72793601 23.04462721 20.49584961 19.09692383 C17.12861498 15.97635297 13.65197015 13.05425804 10.0625 10.1875 C6.17155804 7.06125183 2.97518535 4.00111133 0 0 Z " fill="#793205" transform="translate(374,262)"/>
<path d="M0 0 C5.89202712 1.61132867 10.81855491 4.58727173 16.0625 7.625 C18.13070857 8.8086938 20.19975915 9.99091728 22.26953125 11.171875 C23.36346191 11.79642578 24.45739258 12.42097656 25.58447266 13.06445312 C31.44490365 16.38550366 37.34757729 19.62943061 43.25 22.875 C45.7241383 24.23665237 48.19803731 25.59873907 50.671875 26.9609375 C51.28441635 27.29815826 51.8969577 27.63537903 52.52806091 27.9828186 C58.86162753 31.47130098 65.18134703 34.98458858 71.5 38.5 C80.82295394 43.68563719 90.15704554 48.85052997 99.5 54 C111.10713773 60.39787413 122.69945847 66.82194662 134.28125 73.265625 C137.69463845 75.16439736 141.10895482 77.06141877 144.52734375 78.95117188 C145.40959877 79.43894356 145.40959877 79.43894356 146.30967712 79.93656921 C147.49569185 80.59158011 148.68218268 81.24572968 149.86915588 81.89900208 C152.76766963 83.49661971 155.65085424 85.11519809 158.51928711 86.76635742 C163.42531452 89.57932126 168.11617272 92.16103851 173.47265625 94.00390625 C182.54302026 97.41285967 182.54302026 97.41285967 185 102 C187.04200287 112.84614326 186.02618335 124.08066619 185 135 C179.08594591 131.11169724 173.28392263 127.10340884 167.5625 122.9375 C165.97922335 121.78898435 164.39588838 120.64054911 162.8125 119.4921875 C161.61367188 118.62158691 161.61367188 118.62158691 160.390625 117.73339844 C158.09698793 116.07032418 155.79946237 114.41282028 153.5 112.7578125 C144.99605465 106.63598233 136.53591119 100.45886152 128.10791016 94.23291016 C120.5233116 88.63567826 112.8841167 83.11591373 105.23388672 77.60888672 C100.73476831 74.36853805 96.24175881 71.11972298 91.74755859 67.87255859 C88.012055 65.17401978 84.2751852 62.47742047 80.53515625 59.78515625 C72.74084153 54.17096822 64.975464 48.52114617 57.25 42.8125 C50.7351005 37.99885171 44.18298235 33.24544786 37.58203125 28.55078125 C27.27321864 21.21806791 17.02003733 13.80792711 6.875 6.25 C6.18164551 5.73646973 5.48829102 5.22293945 4.77392578 4.69384766 C3.16354884 3.48761141 1.57866771 2.2474486 0 1 C0 0.67 0 0.34 0 0 Z " fill="#793105" transform="translate(382,248)"/>
<path d="M0 0 C0 9.57 0 19.14 0 29 C-4.51431159 30.50477053 -8.95168074 31.79641664 -13.56225586 32.91333008 C-14.30292801 33.09487924 -15.04360016 33.27642839 -15.80671692 33.46347904 C-18.27550548 34.06792623 -20.74516252 34.66874266 -23.21484375 35.26953125 C-24.98788677 35.70277591 -26.76088055 36.13622214 -28.53382874 36.56985474 C-33.33476931 37.7432645 -38.13652681 38.91329585 -42.9385376 40.08231735 C-45.93464881 40.8118058 -48.93060527 41.54192645 -51.92651367 42.27224731 C-62.33422574 44.80919954 -72.74270719 47.34297072 -83.15185547 49.87402344 C-91.6831832 51.94849321 -100.21341297 54.02740837 -108.74267578 56.11035156 C-117.92129534 58.35184218 -127.10110642 60.58836644 -136.28251934 62.81838894 C-141.12185588 63.99388748 -145.96061948 65.17163088 -150.79806519 66.35488892 C-155.33559643 67.46461246 -159.87468719 68.56770496 -164.41509819 69.66558456 C-166.08279614 70.07005206 -167.74991017 70.4769356 -169.416399 70.88635635 C-171.68103881 71.44233966 -173.94758235 71.98973511 -176.21484375 72.53491211 C-177.48448975 72.84383896 -178.75413574 73.15276581 -180.06225586 73.47105408 C-183 74 -183 74 -185 73 C-179.61813165 70.22737337 -174.23606301 67.80261762 -168.5859375 65.63671875 C-167.79179947 65.32852707 -166.99766144 65.02033539 -166.17945862 64.70280457 C-164.47175584 64.04049754 -162.76338675 63.37990638 -161.05441284 62.72088623 C-157.36634225 61.29848454 -153.68169769 59.86730581 -149.99687195 58.43652344 C-148.09363379 57.69752156 -146.19024109 56.95891761 -144.28669739 56.22070312 C-135.48953115 52.80757915 -126.71144619 49.34728384 -117.9375 45.875 C-92.64228311 35.87275099 -67.32321741 25.93111322 -42 16 C-40.91521362 15.57454895 -39.83042725 15.1490979 -38.71276855 14.71075439 C-32.73000627 12.36473614 -26.74639447 10.02090829 -20.76138306 7.68063354 C-18.97208224 6.98077145 -17.18299678 6.2803585 -15.39413452 5.57937622 C-12.96261734 4.62678537 -10.53027309 3.67634095 -8.09765625 2.7265625 C-7.38390839 2.44647842 -6.67016052 2.16639435 -5.93478394 1.87782288 C-1.11447546 0 -1.11447546 0 0 0 Z " fill="#793205" transform="translate(567,27)"/>
<path d="M0 0 C5.91007202 1.86267058 11.55951519 4.00985636 17.1875 6.59765625 C17.95050415 6.94372421 18.7135083 7.28979218 19.49963379 7.64634705 C21.1427574 8.39188 22.78502835 9.13929457 24.42651367 9.88842773 C28.8943006 11.92671512 33.36908163 13.94953072 37.84375 15.97265625 C38.76845093 16.39100739 39.69315186 16.80935852 40.64587402 17.24038696 C50.23080721 21.56948662 59.86255567 25.78944583 69.5 30 C84.80071133 36.69008097 100.04794482 43.49132446 115.26831055 50.36206055 C128.24678572 56.21977316 141.25077238 62.01835413 154.26879883 67.78759766 C155.33112732 68.25864677 155.33112732 68.25864677 156.41491699 68.73921204 C158.30346523 69.57645168 160.19236648 70.41289491 162.08129883 71.24926758 C167.06488286 73.47575073 172.0309218 75.74132809 177 78 C177 87.57 177 97.14 177 107 C165.76190476 101.38095238 165.76190476 101.38095238 161.0234375 98.4609375 C159.42350952 97.48108887 159.42350952 97.48108887 157.79125977 96.48144531 C157.23608673 96.13907837 156.6809137 95.79671143 156.10891724 95.44396973 C153.05346886 93.56026862 149.98950637 91.69051167 146.92578125 89.8203125 C146.28396408 89.42823608 145.64214691 89.03615967 144.98088074 88.63220215 C137.54974392 84.10126114 130.05510742 79.67822817 122.5625 75.25 C113.00034523 69.59495617 103.49287228 63.87212775 94.07275391 57.98242188 C86.26381894 53.12028352 78.35441869 48.43323783 70.4375 43.75 C58.96217946 36.96160602 47.5291974 30.11012154 36.14697266 23.16674805 C30.3604426 19.63926261 24.56226018 16.13436884 18.734375 12.67578125 C17.55915434 11.97690328 16.38394259 11.27801032 15.20874023 10.57910156 C12.99207839 9.26290382 10.77294383 7.95085905 8.55102539 6.64355469 C7.57125732 6.0612207 6.59148926 5.47888672 5.58203125 4.87890625 C4.71811768 4.3691626 3.8542041 3.85941895 2.96411133 3.33422852 C1 2 1 2 0 0 Z " fill="#793205" transform="translate(390,234)"/>
<path d="M0 0 C0 7.92 0 15.84 0 24 C-11.25165571 28.50066228 -11.25165571 28.50066228 -15.22058105 29.84614563 C-16.12904282 30.15552126 -17.03750458 30.46489689 -17.97349548 30.78364754 C-18.93550369 31.10810293 -19.8975119 31.43255833 -20.88867188 31.7668457 C-21.93551651 32.12220839 -22.98236115 32.47757107 -24.06092834 32.84370232 C-27.52919804 34.01988374 -30.99890359 35.19176012 -34.46875 36.36328125 C-36.9504969 37.20318229 -39.43222665 38.04313404 -41.91394043 38.88313293 C-69.96302813 48.37020453 -98.05656508 57.72478576 -126.15164661 67.07455838 C-133.36472222 69.47506976 -140.57716613 71.87747668 -147.78958225 74.27996862 C-162.52573397 79.18861159 -177.26259913 84.09510858 -192 89 C-192.33 88.34 -192.66 87.68 -193 87 C-177.58947644 79.40915327 -162.05922483 72.17320983 -146.34143066 65.24316406 C-134.67799689 60.09976578 -123.07133488 54.84728758 -111.5 49.5 C-98.64112347 43.56024166 -85.73423377 37.74324613 -72.77838135 32.01831055 C-59.42893839 26.11622741 -46.15363643 20.06109718 -32.90625 13.93359375 C-25.30102377 10.41761405 -17.68324577 6.93057334 -10.0390625 3.5 C-9.26436615 3.14929443 -8.4896698 2.79858887 -7.6914978 2.43725586 C-2.23186343 0 -2.23186343 0 0 0 Z " fill="#793105" transform="translate(567,0)"/>
<path d="M0 0 C0 8.58 0 17.16 0 26 C-41.47848895 32.51549564 -82.96870767 38.95567129 -124.47567749 45.287323 C-128.95872873 45.97139604 -133.44129729 46.65851538 -137.92349243 47.34817505 C-143.23981308 48.16599709 -148.55703952 48.97764619 -153.87503433 49.78450775 C-155.8499583 50.08519149 -157.82455144 50.38805685 -159.79879379 50.6931839 C-162.50066446 51.11036309 -165.20360774 51.5197009 -167.90698242 51.92700195 C-168.70470723 52.05203126 -169.50243204 52.17706057 -170.32433033 52.30587864 C-175.77171997 53.11414001 -175.77171997 53.11414001 -178 52 C-171.00902972 49.24198058 -163.88393456 47.10778707 -156.67578125 44.9921875 C-155.32726917 44.59411774 -153.97883184 44.1957947 -152.63046265 43.79724121 C-148.96024776 42.71321797 -145.28895678 41.63288172 -141.61745834 40.55321503 C-137.73043502 39.4094904 -133.84441615 38.2623623 -129.95825195 37.11572266 C-120.56182768 34.34412841 -111.16368816 31.57837557 -101.76527405 28.8135376 C-97.97947792 27.69976463 -94.19376994 26.58569222 -90.40805721 25.47163582 C-74.10845746 20.67507316 -57.80858244 15.87944845 -41.50708008 11.08935547 C-39.72832144 10.5666128 -37.94956369 10.04386709 -36.17080688 9.52111816 C-32.87359931 8.55212689 -29.57628373 7.58350442 -26.27890015 6.6151123 C-25.52783493 6.39435406 -24.77676971 6.17359581 -24.00294495 5.94614792 C-22.56954828 5.52502222 -21.13597177 5.10450803 -19.70219421 4.68468094 C-15.10986839 3.33737683 -10.53557431 1.93974601 -5.9778595 0.47964478 C-4 0 -4 0 0 0 Z " fill="#793205" transform="translate(567,61)"/>
<path d="M0 0 C7.08491476 1.42862462 13.78562509 3.47926892 20.6171875 5.82421875 C21.72999588 6.20214569 22.84280426 6.58007263 23.98933411 6.9694519 C27.61955509 8.20397123 31.24731561 9.44554854 34.875 10.6875 C36.77726017 11.3363117 38.6797644 11.98440414 40.58228588 12.63244915 C56.81894161 18.16402046 73.02905021 23.7703161 89.21478271 29.44921875 C107.22474335 35.76762198 125.29608848 41.90195972 143.37768555 48.01196289 C144.46836838 48.38094696 145.55905121 48.74993103 146.68278503 49.13009644 C148.71170192 49.81633002 150.74097834 50.50150202 152.77070618 51.18533325 C159.21932459 53.3664686 165.59848742 55.67217724 172 58 C172 66.58 172 75.16 172 84 C168.31048757 82.77016252 165.20613395 81.72834868 161.80688477 80.05493164 C161.03073318 79.67519699 160.2545816 79.29546234 159.45491028 78.90422058 C158.62545395 78.49367935 157.79599762 78.08313812 156.94140625 77.66015625 C156.05752731 77.22653275 155.17364838 76.79290924 154.26298523 76.34614563 C151.36113705 74.92166794 148.46186239 73.49202945 145.5625 72.0625 C143.52657862 71.06223229 141.490443 70.06240056 139.45410156 69.06298828 C135.29771259 67.02292074 131.14204814 64.9813883 126.98681641 62.93896484 C119.20502631 59.116252 111.41096295 55.31887917 103.61477661 51.52563477 C99.63071746 49.58710199 95.64742896 47.64698688 91.6640625 45.70703125 C90.87340897 45.32201447 90.08275543 44.93699768 89.2681427 44.54031372 C80.05170125 40.05193406 70.83827114 35.55738282 61.625 31.0625 C60.37113998 30.45078949 60.37113998 30.45078949 59.09194946 29.82672119 C54.8404058 27.7525394 50.58889635 25.67828748 46.33740234 23.60400391 C37.79789382 19.4376789 29.25802406 15.2720944 20.71820068 11.10641479 C16.32123629 8.96159296 11.92429044 6.81673313 7.52734375 4.671875 C6.0559083 3.95410137 4.58447276 3.23632791 3.11303711 2.51855469 C2.08573486 2.01743164 1.05843262 1.51630859 0 1 C0 0.67 0 0.34 0 0 Z " fill="#793105" transform="translate(395,219)"/>
<path d="M0 0 C0 7.92 0 15.84 0 24 C-2.8430552 25.4215276 -5.43078409 25.3350347 -8.60498047 25.54458618 C-9.29131498 25.59106525 -9.9776495 25.63754431 -10.68478203 25.68543184 C-12.99532808 25.8408123 -15.30623412 25.98996956 -17.6171875 26.13916016 C-19.26941254 26.24894708 -20.92161337 26.35909876 -22.5737915 26.46958923 C-27.0692667 26.76902949 -31.56508863 27.06292456 -36.06101227 27.35554552 C-39.8089161 27.59996876 -43.55664302 27.84704583 -47.30437279 28.09412134 C-56.1421131 28.67671275 -64.98013976 29.25480718 -73.81835938 29.83007812 C-82.94939696 30.42448168 -92.07993509 31.02615084 -101.21025658 31.63144648 C-109.038448 32.15017723 -116.86691664 32.66456039 -124.69562721 33.17539632 C-129.37617033 33.48084516 -134.05659098 33.78793745 -138.73675537 34.09914017 C-143.13582952 34.39144962 -147.53522361 34.67833928 -151.93492889 34.96098518 C-153.55322693 35.06586469 -155.17140073 35.17268107 -156.78943634 35.28153419 C-158.99099853 35.42933886 -161.19289399 35.57026214 -163.39501953 35.7093811 C-165.24669235 35.83049224 -165.24669235 35.83049224 -167.13577271 35.95405006 C-170 36 -170 36 -172 35 C-167.86289749 33.54490573 -163.79771833 32.45858471 -159.49932861 31.59606934 C-158.2097525 31.33537155 -156.92017639 31.07467377 -155.59152222 30.80607605 C-154.17463571 30.52364126 -152.75773459 30.24127982 -151.34082031 29.95898438 C-149.83887257 29.65684661 -148.33699235 29.35437304 -146.83517456 29.05158997 C-142.76542008 28.23207129 -138.69473789 27.41724967 -134.6238718 26.60327339 C-130.35455486 25.74878274 -126.08610847 24.88996531 -121.81756592 24.03161621 C-113.7271173 22.405414 -105.63589364 20.78310245 -97.54438472 19.16218519 C-88.37219798 17.32458547 -79.2008869 15.48263434 -70.0296464 13.64031887 C-55.74590791 10.77110193 -41.46168909 7.90428824 -27.17675781 5.04101562 C-26.4673769 4.8988241 -25.75799599 4.75663258 -25.02711868 4.61013222 C-23.999238 4.40410913 -23.999238 4.40410913 -22.95059204 4.19392395 C-22.28829826 4.06115807 -21.62600448 3.92839218 -20.94364119 3.79160309 C-19.08178001 3.41859064 -17.21977548 3.04629391 -15.3577652 2.67402649 C-13.20813235 2.24251642 -11.05920735 1.80745555 -8.91121674 1.36784363 C-8.00874458 1.18373428 -7.10627243 0.99962494 -6.17645264 0.80993652 C-5.40847729 0.65175194 -4.64050194 0.49356735 -3.84925461 0.33058929 C-2 0 -2 0 0 0 Z " fill="#783105" transform="translate(567,92)"/>
<path d="M0 0 C16.72326583 3.53903521 33.29272724 7.72335782 49.87959409 11.84402061 C53.16579506 12.66016998 56.45231883 13.47501545 59.73883289 14.28990299 C67.48061386 16.20952929 75.2218103 18.1314994 82.96264648 20.05493164 C90.94646412 22.03868997 98.93133529 24.01816563 106.91670758 25.99565572 C113.7957916 27.69935716 120.67419841 29.40577284 127.55206722 31.11437351 C131.65106749 32.13261104 135.75032585 33.14977877 139.85025215 34.16428185 C143.68840438 35.11412501 147.52570438 36.06733497 151.36235809 37.02321243 C152.77263316 37.37396063 154.18321226 37.72348882 155.59410667 38.07173729 C157.51162924 38.54523516 159.42797884 39.02347586 161.34425354 39.5019989 C162.41873025 39.76873256 163.49320696 40.03546621 164.60024357 40.31028271 C167 41 167 41 168 42 C168.08713831 43.70772358 168.10700007 45.41898649 168.09765625 47.12890625 C168.09443359 48.16337891 168.09121094 49.19785156 168.08789062 50.26367188 C168.07951172 51.35228516 168.07113281 52.44089844 168.0625 53.5625 C168.05798828 54.65498047 168.05347656 55.74746094 168.04882812 56.87304688 C168.03699826 59.58208495 168.02051543 62.29101599 168 65 C161.87471681 64.36821224 156.45590917 62.02414182 150.7734375 59.79296875 C149.6587056 59.36066452 148.54397369 58.92836029 147.39546204 58.48295593 C144.35509578 57.30285156 141.31672034 56.11778412 138.27907944 54.93068695 C135.06643099 53.67674851 131.85115191 52.42959596 128.63598633 51.18212891 C124.66364743 49.64050592 120.69147999 48.0984514 116.72035217 46.55371094 C105.10895016 42.03716771 93.48344066 37.55780509 81.85275269 33.09115601 C78.69108963 31.87637921 75.53013549 30.65977538 72.36938477 29.44262695 C62.2407981 25.5434154 52.10781213 21.65639988 41.96385193 17.79733276 C37.08762946 15.94154634 32.21336324 14.08065372 27.33926392 12.21929932 C25.00054311 11.32784731 22.66084939 10.4389433 20.32015991 9.55267334 C17.09252767 8.3304301 13.86822756 7.09976687 10.64453125 5.8671875 C9.67750275 5.50359131 8.71047424 5.13999512 7.71414185 4.76538086 C6.83885834 4.42885498 5.96357483 4.0923291 5.06176758 3.74560547 C4.29705643 3.45507294 3.53234528 3.16454041 2.74446106 2.86520386 C1 2 1 2 0 0 Z " fill="#793205" transform="translate(399,203)"/>
<path d="M0 0 C0 7.59 0 15.18 0 23 C-34.83384553 22.46967703 -69.66536787 21.83648124 -104.49609375 21.13104248 C-108.82418719 21.04346084 -113.15231006 20.95764626 -117.48046875 20.87335205 C-122.65788144 20.77237368 -127.83520319 20.66755767 -133.01248169 20.55992508 C-134.93487989 20.52054076 -136.85730436 20.48241449 -138.77975464 20.44565964 C-148.55383121 20.25780793 -158.26855032 20.01980345 -168 19 C-168 18.67 -168 18.34 -168 18 C-127.94563736 13.46948315 -87.88873561 8.96104138 -47.82220459 4.53927612 C-44.19431465 4.1388219 -40.56659986 3.73683273 -36.93902588 3.33352661 C-32.65900284 2.85778809 -28.37863795 2.38525564 -24.09798431 1.91522598 C-22.52679997 1.74219358 -20.95573572 1.56806654 -19.38480377 1.39275742 C-17.23651416 1.15323285 -15.08781507 0.9177836 -12.93896484 0.68334961 C-11.73686371 0.55061142 -10.53476257 0.41787323 -9.29623413 0.28111267 C-6.20728586 0.01767796 -3.10016117 0 0 0 Z " fill="#7A3205" transform="translate(567,123)"/>
<path d="M0 0 C9.22360359 0.6078938 18.28351396 1.86409547 27.40722656 3.31665039 C28.91630844 3.55361859 30.42545027 3.79020529 31.93464661 4.02644348 C35.99433765 4.66300665 40.05317879 5.30484214 44.1118784 5.94769216 C48.3674514 6.62078309 52.62380019 7.28893244 56.88006592 7.95762634 C64.92318035 9.22202377 72.96559645 10.49080648 81.00776553 11.76120132 C90.17057094 13.20839779 99.33415238 14.65065035 108.4977994 16.09250653 C127.33272966 19.05620555 146.1666578 22.02622725 165 25 C165 32.59 165 40.18 165 48 C153.10886872 45.0954562 141.33604672 41.89264967 129.5703125 38.51953125 C127.70901145 37.98789902 125.8476565 37.45645546 123.98625183 36.92518616 C119.04784195 35.51481297 114.11046892 34.10084407 109.17337418 32.68587494 C106.11592439 31.80989979 103.05817806 30.93496746 100.00033569 30.06036377 C66.62545913 20.51366011 33.28637377 10.85110252 0 1 C0 0.67 0 0.34 0 0 Z " fill="#7A3205" transform="translate(402,188)"/>
<path d="M0 0 C0 7.26 0 14.52 0 22 C-10.5388387 21.39882807 -20.99893282 20.56552929 -31.49414062 19.41772461 C-32.96442944 19.25963795 -34.43475222 19.1018668 -35.90510559 18.94438171 C-39.84033059 18.52201058 -43.77507461 18.09530948 -47.70973778 17.66774058 C-51.8427126 17.21939685 -55.97612892 16.77515986 -60.10949707 16.33045959 C-67.91141224 15.4904512 -75.71293207 14.64682901 -83.51431131 13.80185944 C-92.40658913 12.83891603 -101.29930792 11.88007569 -110.19206333 10.92155445 C-128.46186472 8.9522202 -146.73111498 6.9778162 -165 5 C-165 4.34 -165 3.68 -165 3 C-147.03044871 2.6056639 -129.06083383 2.21436641 -111.09114075 1.82654572 C-102.74481128 1.64634728 -94.39850435 1.46520778 -86.05224609 1.28173828 C-78.76546269 1.12156093 -71.47864105 0.96326589 -64.19177055 0.80709887 C-60.34453207 0.72458533 -56.49731693 0.64121948 -52.65014648 0.55558777 C-35.09712331 0.16553435 -17.55856034 -0.07255603 0 0 Z " fill="#7A3205" transform="translate(567,153)"/>
<path d="M0 0 C17.33090415 0.648208 34.62358217 1.70413986 51.92517734 2.8858242 C55.56605314 3.13400701 59.20712161 3.37933518 62.84815979 3.62512207 C68.9387017 4.03670446 75.02908891 4.4505162 81.11938477 4.86572266 C88.13873618 5.34423893 95.15832821 5.81909504 102.17805523 6.29206705 C108.98430089 6.75074224 115.7903691 7.21200138 122.59636116 7.67442322 C125.47288527 7.869818 128.34946778 8.06431743 131.22610283 8.2580719 C135.23351919 8.52812598 139.24066868 8.80196065 143.24780273 9.07617188 C144.42655472 9.1551622 145.6053067 9.23415253 146.81977844 9.3155365 C148.46504013 9.42902184 148.46504013 9.42902184 150.14353943 9.5447998 C151.08707999 9.60894829 152.03062056 9.67309677 153.00275326 9.73918915 C156.6786246 10.05905175 160.33873099 10.54234137 164 11 C164 18.26 164 25.52 164 33 C153.87508259 31.87500918 153.87508259 31.87500918 148.82432556 30.87490845 C147.68233704 30.6506871 146.54034851 30.42646576 145.36375427 30.19544983 C144.1401973 29.9512883 142.91664032 29.70712677 141.65600586 29.45556641 C140.33096583 29.19395701 139.00586014 28.93267996 137.68069458 28.67170715 C134.10316107 27.96621546 130.5265454 27.25616856 126.95007396 26.54531527 C123.18516707 25.79788091 119.41939132 25.05485013 115.65370178 24.31137085 C108.51491418 22.90126632 101.37685797 21.48749631 94.23908287 20.07227647 C83.81010424 18.00465453 73.38011232 15.94215561 62.95002842 13.88011742 C62.17935014 13.72775112 61.40867186 13.57538482 60.6146397 13.41840136 C59.07539425 13.11408647 57.53614695 12.80978091 55.99689776 12.50548494 C51.53566509 11.62340596 47.07466583 10.7401588 42.61388236 9.855811 C39.8257517 9.30317796 37.03748711 8.75122241 34.24921238 8.19931674 C32.28863123 7.8109239 30.32825764 7.42148376 28.36788845 7.03202248 C23.11220531 5.99141918 17.85736579 4.96020863 12.58230591 4.02215576 C11.43429552 3.81697106 11.43429552 3.81697106 10.26309299 3.60764122 C8.37610133 3.27532521 6.48711139 2.95440514 4.59791565 2.63485718 C2 2 2 2 0 0 Z " fill="#793205" transform="translate(403,172)"/>
</svg>
