<?xml version="1.0" encoding="UTF-8"?>
<!DOCTYPE svg PUBLIC "-//W3C//DTD SVG 1.1//EN" "http://www.w3.org/Graphics/SVG/1.1/DTD/svg11.dtd">
<svg xmlns="http://www.w3.org/2000/svg" version="1.1" width="81px" height="81px" style="shape-rendering:geometricPrecision; text-rendering:geometricPrecision; image-rendering:optimizeQuality; fill-rule:evenodd; clip-rule:evenodd" xmlns:xlink="http://www.w3.org/1999/xlink">
<g><path style="opacity:1" fill="#fdfbfc" d="M -0.5,-0.5 C 26.5,-0.5 53.5,-0.5 80.5,-0.5C 80.5,26.5 80.5,53.5 80.5,80.5C 53.5,80.5 26.5,80.5 -0.5,80.5C -0.5,53.5 -0.5,26.5 -0.5,-0.5 Z"/></g>
<g><path style="opacity:1" fill="#ff4745" d="M 36.5,12.5 C 36.5,9.83333 36.5,7.16667 36.5,4.5C 28.1667,4.5 19.8333,4.5 11.5,4.5C 11.5,12.8333 11.5,21.1667 11.5,29.5C 10.507,21.0161 10.1736,12.3494 10.5,3.5C 19.5,3.5 28.5,3.5 37.5,3.5C 37.81,6.7131 37.4767,9.7131 36.5,12.5 Z"/></g>
<g><path style="opacity:1" fill="#fe0000" d="M 36.5,12.5 C 30.8333,12.5 25.1667,12.5 19.5,12.5C 19.5,18.1667 19.5,23.8333 19.5,29.5C 16.8333,29.5 14.1667,29.5 11.5,29.5C 11.5,21.1667 11.5,12.8333 11.5,4.5C 19.8333,4.5 28.1667,4.5 36.5,4.5C 36.5,7.16667 36.5,9.83333 36.5,12.5 Z"/></g>
<g><path style="opacity:1" fill="#fe1c11" d="M 42.5,3.5 C 51.5,3.5 60.5,3.5 69.5,3.5C 69.5,12.1667 69.5,20.8333 69.5,29.5C 66.5,29.5 63.5,29.5 60.5,29.5C 60.5,23.8333 60.5,18.1667 60.5,12.5C 54.5,12.5 48.5,12.5 42.5,12.5C 42.5,9.5 42.5,6.5 42.5,3.5 Z"/></g>
<g><path style="opacity:1" fill="#010f85" d="M 50.5,42.5 C 49.5098,36.3554 49.1765,30.0221 49.5,23.5C 43.1667,23.5 36.8333,23.5 30.5,23.5C 30.8235,30.0221 30.4902,36.3554 29.5,42.5C 29.5,35.8333 29.5,29.1667 29.5,22.5C 36.5,22.5 43.5,22.5 50.5,22.5C 50.5,29.1667 50.5,35.8333 50.5,42.5 Z"/></g>
<g><path style="opacity:1" fill="#0e3598" d="M 50.5,42.5 C 43.5,43.8333 36.5,43.8333 29.5,42.5C 30.4902,36.3554 30.8235,30.0221 30.5,23.5C 36.8333,23.5 43.1667,23.5 49.5,23.5C 49.1765,30.0221 49.5098,36.3554 50.5,42.5 Z"/></g>
<g><path style="opacity:1" fill="#fe160e" d="M 10.5,35.5 C 13.5,35.5 16.5,35.5 19.5,35.5C 19.5,41.1667 19.5,46.8333 19.5,52.5C 25.5,52.5 31.5,52.5 37.5,52.5C 37.5,55.5 37.5,58.5 37.5,61.5C 28.5,61.5 19.5,61.5 10.5,61.5C 10.5,52.8333 10.5,44.1667 10.5,35.5 Z"/></g>
<g><path style="opacity:1" fill="#fe1a0f" d="M 60.5,35.5 C 63.5,35.5 66.5,35.5 69.5,35.5C 69.5,44.1667 69.5,52.8333 69.5,61.5C 60.5,61.5 51.5,61.5 42.5,61.5C 42.5,58.5 42.5,55.5 42.5,52.5C 48.5,52.5 54.5,52.5 60.5,52.5C 60.5,46.8333 60.5,41.1667 60.5,35.5 Z"/></g>
<g><path style="opacity:1" fill="#1e277c" d="M 7.5,64.5 C 29.1667,63.1667 50.8333,63.1667 72.5,64.5C 71.1667,67.5 69.8333,70.5 68.5,73.5C 67.0015,71.7422 66.6681,69.9088 67.5,68C 65.6133,68.4229 63.6133,68.2563 61.5,67.5C 61.5,69.5 61.5,71.5 61.5,73.5C 61.1667,73.5 60.8333,73.5 60.5,73.5C 60.7989,71.396 60.4656,69.396 59.5,67.5C 58.8076,68.0253 58.3076,68.6919 58,69.5C 57.2904,68.0267 56.1238,67.3601 54.5,67.5C 53.8333,67.8333 53.1667,68.1667 52.5,68.5C 51.5768,67.6971 50.5768,67.5304 49.5,68C 48.536,69.7255 47.8693,71.5588 47.5,73.5C 46.8333,73.5 46.1667,73.5 45.5,73.5C 45.8339,71.3322 45.8339,69.3322 45.5,67.5C 43.8333,66.1667 42.1667,66.1667 40.5,67.5C 39.8347,69.6979 39.1681,72.0312 38.5,74.5C 38.2514,73.4179 38.0848,72.0846 38,70.5C 37.7216,71.4158 37.2216,72.0825 36.5,72.5C 36.2252,70.1582 35.3919,70.1582 34,72.5C 32,71.1667 32,69.8333 34,68.5C 37.4741,69.9277 37.9741,69.4277 35.5,67C 33.5048,66.3872 31.8381,66.8872 30.5,68.5C 29.0813,67.5489 27.4147,67.2155 25.5,67.5C 25.5,68.8333 25.5,70.1667 25.5,71.5C 25.1667,71.5 24.8333,71.5 24.5,71.5C 24.2407,67.9319 22.2407,66.5985 18.5,67.5C 18.1667,67.5 17.8333,67.5 17.5,67.5C 16.2652,67.7214 15.2652,68.3881 14.5,69.5C 13.8333,68.8333 13.1667,68.1667 12.5,67.5C 11.5344,69.396 11.2011,71.396 11.5,73.5C 10.6909,71.7078 10.1909,69.7078 10,67.5C 9.66667,69.8333 9.33333,72.1667 9,74.5C 8.82129,70.9748 8.32129,67.6414 7.5,64.5 Z"/></g>
<g><path style="opacity:1" fill="#06136e" d="M 7.5,64.5 C 8.32129,67.6414 8.82129,70.9748 9,74.5C 9.33333,72.1667 9.66667,69.8333 10,67.5C 10.1909,69.7078 10.6909,71.7078 11.5,73.5C 12.7348,73.2786 13.7348,72.6119 14.5,71.5C 15.1667,72.1667 15.8333,72.8333 16.5,73.5C 17.4656,71.604 17.7989,69.604 17.5,67.5C 17.8333,67.5 18.1667,67.5 18.5,67.5C 18.5,69.5 18.5,71.5 18.5,73.5C 21.0101,73.9465 23.0101,73.2798 24.5,71.5C 24.8333,71.5 25.1667,71.5 25.5,71.5C 25.3691,72.3764 25.7025,73.0431 26.5,73.5C 27.5,72.5 28.5,71.5 29.5,70.5C 26.8694,68.9954 27.2027,68.3287 30.5,68.5C 30.7932,72.8292 32.7932,74.1626 36.5,72.5C 37.2216,72.0825 37.7216,71.4158 38,70.5C 38.0848,72.0846 38.2514,73.4179 38.5,74.5C 39.1681,72.0312 39.8347,69.6979 40.5,67.5C 40.2053,69.7354 40.5386,71.7354 41.5,73.5C 42.8333,73.5 44.1667,73.5 45.5,73.5C 46.1667,73.5 46.8333,73.5 47.5,73.5C 49.205,72.4647 50.8716,72.4647 52.5,73.5C 53.4339,71.9052 53.4339,70.2385 52.5,68.5C 53.1667,68.1667 53.8333,67.8333 54.5,67.5C 54.2011,69.604 54.5344,71.604 55.5,73.5C 56.2508,72.624 56.7508,71.624 57,70.5C 57.4224,72.4257 58.5891,73.4257 60.5,73.5C 60.8333,73.5 61.1667,73.5 61.5,73.5C 63.1238,73.6399 64.2904,72.9733 65,71.5C 65.7096,72.9733 66.8762,73.6399 68.5,73.5C 69.8333,70.5 71.1667,67.5 72.5,64.5C 72.5,68.5 72.5,72.5 72.5,76.5C 50.8333,76.5 29.1667,76.5 7.5,76.5C 7.5,72.5 7.5,68.5 7.5,64.5 Z"/></g>
<g><path style="opacity:1" fill="#e7e8f0" d="M 17.5,67.5 C 17.7989,69.604 17.4656,71.604 16.5,73.5C 15.8333,72.8333 15.1667,72.1667 14.5,71.5C 13.7348,72.6119 12.7348,73.2786 11.5,73.5C 11.2011,71.396 11.5344,69.396 12.5,67.5C 13.1667,68.1667 13.8333,68.8333 14.5,69.5C 15.2652,68.3881 16.2652,67.7214 17.5,67.5 Z"/></g>
<g><path style="opacity:1" fill="#ededf4" d="M 18.5,67.5 C 22.2407,66.5985 24.2407,67.9319 24.5,71.5C 23.0101,73.2798 21.0101,73.9465 18.5,73.5C 18.5,71.5 18.5,69.5 18.5,67.5 Z"/></g>
<g><path style="opacity:1" fill="#f1f2f6" d="M 30.5,68.5 C 27.2027,68.3287 26.8694,68.9954 29.5,70.5C 28.5,71.5 27.5,72.5 26.5,73.5C 25.7025,73.0431 25.3691,72.3764 25.5,71.5C 25.5,70.1667 25.5,68.8333 25.5,67.5C 27.4147,67.2155 29.0813,67.5489 30.5,68.5 Z"/></g>
<g><path style="opacity:1" fill="#dfdee9" d="M 45.5,67.5 C 45.8339,69.3322 45.8339,71.3322 45.5,73.5C 44.1667,73.5 42.8333,73.5 41.5,73.5C 41.5,71.5 41.5,69.5 41.5,67.5C 42.8333,67.5 44.1667,67.5 45.5,67.5 Z"/></g>
<g><path style="opacity:1" fill="#efeff4" d="M 54.5,67.5 C 56.1238,67.3601 57.2904,68.0267 58,69.5C 58.3076,68.6919 58.8076,68.0253 59.5,67.5C 60.4656,69.396 60.7989,71.396 60.5,73.5C 58.5891,73.4257 57.4224,72.4257 57,70.5C 56.7508,71.624 56.2508,72.624 55.5,73.5C 54.5344,71.604 54.2011,69.604 54.5,67.5 Z"/></g>
<g><path style="opacity:1" fill="#d5d7e5" d="M 68.5,73.5 C 66.8762,73.6399 65.7096,72.9733 65,71.5C 64.2904,72.9733 63.1238,73.6399 61.5,73.5C 61.5,71.5 61.5,69.5 61.5,67.5C 63.6133,68.2563 65.6133,68.4229 67.5,68C 66.6681,69.9088 67.0015,71.7422 68.5,73.5 Z"/></g>
<g><path style="opacity:1" fill="#7e81b5" d="M 45.5,67.5 C 44.1667,67.5 42.8333,67.5 41.5,67.5C 41.5,69.5 41.5,71.5 41.5,73.5C 40.5386,71.7354 40.2053,69.7354 40.5,67.5C 42.1667,66.1667 43.8333,66.1667 45.5,67.5 Z"/></g>
<g><path style="opacity:1" fill="#0f1465" d="M 20.5,68.5 C 22.332,69.1405 22.6653,70.1405 21.5,71.5C 20.6143,70.675 20.281,69.675 20.5,68.5 Z"/></g>
<g><path style="opacity:1" fill="#e2e2ed" d="M 52.5,68.5 C 53.4339,70.2385 53.4339,71.9052 52.5,73.5C 50.8716,72.4647 49.205,72.4647 47.5,73.5C 47.8693,71.5588 48.536,69.7255 49.5,68C 50.5768,67.5304 51.5768,67.6971 52.5,68.5 Z"/></g>
<g><path style="opacity:1" fill="#e1e1ed" d="M 36.5,72.5 C 32.7932,74.1626 30.7932,72.8292 30.5,68.5C 31.8381,66.8872 33.5048,66.3872 35.5,67C 37.9741,69.4277 37.4741,69.9277 34,68.5C 32,69.8333 32,71.1667 34,72.5C 35.3919,70.1582 36.2252,70.1582 36.5,72.5 Z"/></g>
</svg>
