<?xml version="1.0" encoding="UTF-8"?>
<!DOCTYPE svg PUBLIC "-//W3C//DTD SVG 1.1//EN" "http://www.w3.org/Graphics/SVG/1.1/DTD/svg11.dtd">
<svg xmlns="http://www.w3.org/2000/svg" version="1.1" width="113px" height="74px" style="shape-rendering:geometricPrecision; text-rendering:geometricPrecision; image-rendering:optimizeQuality; fill-rule:evenodd; clip-rule:evenodd" xmlns:xlink="http://www.w3.org/1999/xlink">
<g><path style="opacity:1" fill="#fdfdfd" d="M -0.5,-0.5 C 37.1667,-0.5 74.8333,-0.5 112.5,-0.5C 112.5,24.1667 112.5,48.8333 112.5,73.5C 74.8333,73.5 37.1667,73.5 -0.5,73.5C -0.5,48.8333 -0.5,24.1667 -0.5,-0.5 Z"/></g>
<g><path style="opacity:1" fill="#ba2b2e" d="M 32.5,35.5 C 29.2629,39.4587 25.2629,42.4587 20.5,44.5C 20.5,42.5 20.5,40.5 20.5,38.5C 21.7682,36.0948 22.4349,33.4282 22.5,30.5C 23.6129,29.0536 23.7796,27.3869 23,25.5C 22.0228,24.2264 21.1894,24.2264 20.5,25.5C 17.1761,27.1673 14.1761,29.3339 11.5,32C 12.8989,32.5946 14.2322,32.4279 15.5,31.5C 16.7199,31.8869 17.3865,32.7202 17.5,34C 16.4177,37.8301 15.4177,41.6635 14.5,45.5C 9.08171,45.0765 6.41505,42.0765 6.5,36.5C 6.66667,35.1667 6.83333,33.8333 7,32.5C 8.85989,28.7802 10.6932,25.1136 12.5,21.5C 17.5118,15.6611 23.8451,13.1611 31.5,14C 36.8129,18.7939 37.9796,24.6272 35,31.5C 34.3918,33.0664 33.5585,34.3998 32.5,35.5 Z"/></g>
<g><path style="opacity:1" fill="#f0e6e5" d="M 25.5,16.5 C 26.2341,17.7079 26.5674,19.0413 26.5,20.5C 25.5994,22.7271 23.9328,23.7271 21.5,23.5C 20.6799,19.7779 22.0132,17.4446 25.5,16.5 Z"/></g>
<g><path style="opacity:1" fill="#585d5d" d="M 26.5,20.5 C 26.5674,19.0413 26.2341,17.7079 25.5,16.5C 25.81,15.2617 26.31,15.2617 27,16.5C 27.765,18.0657 27.5983,19.3991 26.5,20.5 Z"/></g>
<g><path style="opacity:1" fill="#595b5c" d="M 20.5,25.5 C 21.1894,24.2264 22.0228,24.2264 23,25.5C 23.7796,27.3869 23.6129,29.0536 22.5,30.5C 22.8799,28.302 22.2132,26.6354 20.5,25.5 Z"/></g>
<g><path style="opacity:1" fill="#343289" d="M 98.5,40.5 C 95.487,40.6283 92.987,39.6283 91,37.5C 90.2352,37.5699 89.7352,37.9033 89.5,38.5C 86.4254,40.3171 85.2587,42.9838 86,46.5C 86.7247,47.0585 87.5581,47.3918 88.5,47.5C 90.7063,45.8006 93.2063,44.8006 96,44.5C 99.5657,44.0386 100.232,45.0386 98,47.5C 93.1882,52.1885 87.6882,53.5218 81.5,51.5C 79.6878,49.5395 78.6878,47.2061 78.5,44.5C 79.4734,39.3534 82.4734,35.8534 87.5,34C 91.2946,33.1628 94.9613,33.4961 98.5,35C 100.811,37.2056 100.811,39.039 98.5,40.5 Z"/></g>
<g><path style="opacity:1" fill="#32318a" d="M 67.5,40.5 C 64.487,40.6283 61.987,39.6283 60,37.5C 59.2352,37.5699 58.7352,37.9033 58.5,38.5C 54.7052,40.2727 53.7052,43.1061 55.5,47C 56.8333,47.6667 58.1667,47.6667 59.5,47C 61.747,44.4582 64.4137,43.9582 67.5,45.5C 64.0771,51.0906 59.0771,53.4239 52.5,52.5C 49.039,50.5847 47.3723,47.5847 47.5,43.5C 51.16,33.8409 57.8267,31.0076 67.5,35C 68.807,36.9435 68.807,38.7768 67.5,40.5 Z"/></g>
<g><path style="opacity:1" fill="#d0542d" d="M 12.5,21.5 C 10.6932,25.1136 8.85989,28.7802 7,32.5C 6.83333,33.8333 6.66667,35.1667 6.5,36.5C 6.41505,42.0765 9.08171,45.0765 14.5,45.5C 13.9943,48.671 12.3276,51.0043 9.5,52.5C 6.24666,51.7492 4.07999,49.7492 3,46.5C 2.50267,42.4761 2.66934,38.4761 3.5,34.5C 5.76292,29.6355 8.76292,25.3021 12.5,21.5 Z"/></g>
<g><path style="opacity:1" fill="#35348a" d="M 42.5,51.5 C 40.8333,51.5 39.1667,51.5 37.5,51.5C 38.3739,48.2107 39.0405,44.8774 39.5,41.5C 38.7571,34.2374 41.7571,31.9041 48.5,34.5C 46.9422,40.4414 44.9422,46.108 42.5,51.5 Z"/></g>
<g><path style="opacity:1" fill="#33338d" d="M 73.5,51.5 C 71.712,51.7852 70.0453,51.4519 68.5,50.5C 69.7853,47.9795 70.4519,45.3128 70.5,42.5C 70.5,42.1667 70.5,41.8333 70.5,41.5C 71.9238,39.4855 72.5905,37.1522 72.5,34.5C 74.6934,33.2031 77.0268,33.2031 79.5,34.5C 78.0012,39.8277 76.5012,45.161 75,50.5C 74.6174,51.056 74.1174,51.3893 73.5,51.5 Z"/></g>
<g><path style="opacity:1" fill="#36348b" d="M 105.5,51.5 C 102.918,51.9746 100.918,51.3079 99.5,49.5C 99.9628,46.6697 100.629,44.003 101.5,41.5C 102.924,39.4855 103.59,37.1522 103.5,34.5C 105.717,33.6314 108.05,33.298 110.5,33.5C 109.126,39.674 107.459,45.674 105.5,51.5 Z"/></g>
<g><path style="opacity:1" fill="#494968" d="M 72.5,34.5 C 72.5905,37.1522 71.9238,39.4855 70.5,41.5C 70.4095,38.8478 71.0762,36.5145 72.5,34.5 Z"/></g>
<g><path style="opacity:1" fill="#5c5e6b" d="M 103.5,34.5 C 103.59,37.1522 102.924,39.4855 101.5,41.5C 101.41,38.8478 102.076,36.5145 103.5,34.5 Z"/></g>
<g><path style="opacity:1" fill="#505459" d="M 58.5,38.5 C 58.7352,37.9033 59.2352,37.5699 60,37.5C 61.987,39.6283 64.487,40.6283 67.5,40.5C 66.7261,41.1471 65.7261,41.4805 64.5,41.5C 62.3199,40.7274 60.3199,39.7274 58.5,38.5 Z"/></g>
<g><path style="opacity:1" fill="#54585b" d="M 89.5,38.5 C 89.7352,37.9033 90.2352,37.5699 91,37.5C 92.987,39.6283 95.487,40.6283 98.5,40.5C 97.7261,41.1471 96.7261,41.4805 95.5,41.5C 93.3199,40.7274 91.3199,39.7274 89.5,38.5 Z"/></g>
<g><path style="opacity:1" fill="#d4542a" d="M 32.5,35.5 C 29.9976,40.8505 26.331,45.1839 21.5,48.5C 20.5655,47.4324 20.2322,46.099 20.5,44.5C 25.2629,42.4587 29.2629,39.4587 32.5,35.5 Z"/></g>
<g><path style="opacity:1" fill="#655752" d="M 20.5,38.5 C 20.5,40.5 20.5,42.5 20.5,44.5C 20.2322,46.099 20.5655,47.4324 21.5,48.5C 21.44,49.0431 21.1067,49.3764 20.5,49.5C 19.1923,45.6853 19.1923,42.0187 20.5,38.5 Z"/></g>
<g><path style="opacity:1" fill="#666463" d="M 3.5,34.5 C 2.66934,38.4761 2.50267,42.4761 3,46.5C 4.07999,49.7492 6.24666,51.7492 9.5,52.5C 8.74943,53.5735 7.74943,53.7401 6.5,53C 4.4299,52.0524 2.9299,50.5524 2,48.5C 1.33333,44.8333 1.33333,41.1667 2,37.5C 2.23209,36.2625 2.73209,35.2625 3.5,34.5 Z"/></g>
<g><path style="opacity:1" fill="#484963" d="M 39.5,41.5 C 39.0405,44.8774 38.3739,48.2107 37.5,51.5C 39.1667,51.5 40.8333,51.5 42.5,51.5C 40.7354,52.4614 38.7354,52.7947 36.5,52.5C 36.5165,48.4661 37.5165,44.7994 39.5,41.5 Z"/></g>
<g><path style="opacity:1" fill="#595d5a" d="M 47.5,43.5 C 47.3723,47.5847 49.039,50.5847 52.5,52.5C 46.8785,51.5692 45.2118,48.5692 47.5,43.5 Z"/></g>
<g><path style="opacity:1" fill="#5e625c" d="M 78.5,44.5 C 78.6878,47.2061 79.6878,49.5395 81.5,51.5C 79.5891,51.4257 78.4224,50.4257 78,48.5C 77.235,46.9343 77.4017,45.6009 78.5,44.5 Z"/></g>
<g><path style="opacity:1" fill="#43455c" d="M 70.5,42.5 C 70.4519,45.3128 69.7853,47.9795 68.5,50.5C 70.0453,51.4519 71.712,51.7852 73.5,51.5C 71.7354,52.4614 69.7354,52.7947 67.5,52.5C 67.7234,48.8379 68.7234,45.5046 70.5,42.5 Z"/></g>
<g><path style="opacity:1" fill="#4c4f60" d="M 99.5,49.5 C 100.918,51.3079 102.918,51.9746 105.5,51.5C 103.393,52.4682 101.059,52.8016 98.5,52.5C 98.2627,51.209 98.596,50.209 99.5,49.5 Z"/></g>
</svg>
