<?xml version="1.0" encoding="UTF-8"?>
<!DOCTYPE svg PUBLIC "-//W3C//DTD SVG 1.1//EN" "http://www.w3.org/Graphics/SVG/1.1/DTD/svg11.dtd">
<svg xmlns="http://www.w3.org/2000/svg" version="1.1" width="117px" height="66px" style="shape-rendering:geometricPrecision; text-rendering:geometricPrecision; image-rendering:optimizeQuality; fill-rule:evenodd; clip-rule:evenodd" xmlns:xlink="http://www.w3.org/1999/xlink">
<g><path style="opacity:1" fill="#fbfbfd" d="M -0.5,-0.5 C 38.5,-0.5 77.5,-0.5 116.5,-0.5C 116.5,21.5 116.5,43.5 116.5,65.5C 77.5,65.5 38.5,65.5 -0.5,65.5C -0.5,43.5 -0.5,21.5 -0.5,-0.5 Z"/></g>
<g><path style="opacity:1" fill="#11b4ef" d="M 15.5,13.5 C 32.4705,12.6379 40.6372,20.6379 40,37.5C 37.0496,45.2916 31.5496,49.9583 23.5,51.5C 23.3342,46.8215 23.5008,42.1548 24,37.5C 26.3679,35.3156 27.0346,32.6489 26,29.5C 21.2349,26.2084 17.7349,27.2084 15.5,32.5C 16.0476,34.556 17.2142,36.2226 19,37.5C 19.4992,42.1548 19.6658,46.8215 19.5,51.5C 6.03851,48.6056 0.538505,40.2723 3,26.5C 5.35314,20.3154 9.51981,15.982 15.5,13.5 Z"/></g>
<g><path style="opacity:1" fill="#291e73" d="M 55.5,13.5 C 61.5411,12.5928 66.8744,14.0928 71.5,18C 70.2921,20.2503 68.9587,22.417 67.5,24.5C 64.2904,21.7776 60.6237,20.9443 56.5,22C 55.1667,23.6667 55.1667,25.3333 56.5,27C 60.1667,28.6667 63.8333,30.3333 67.5,32C 71.7144,36.2002 72.5478,41.0336 70,46.5C 63.8331,52.149 56.9998,52.9823 49.5,49C 45.7561,45.9041 46.0894,43.0707 50.5,40.5C 54.3045,43.4961 58.4712,44.1628 63,42.5C 63.7203,40.8876 63.5536,39.3876 62.5,38C 59.6179,36.3921 56.6179,35.0587 53.5,34C 47.9752,31.0812 46.1419,26.5812 48,20.5C 49.7424,17.2543 52.2424,14.921 55.5,13.5 Z"/></g>
<g><path style="opacity:1" fill="#251b71" d="M 75.5,14.5 C 82.6154,14.0753 89.6154,14.5753 96.5,16C 101.406,20.8519 101.74,26.0186 97.5,31.5C 100.567,33.4686 101.9,36.3019 101.5,40C 101.883,45.2329 99.55,48.5662 94.5,50C 88.1754,50.4995 81.8421,50.6662 75.5,50.5C 75.5,38.5 75.5,26.5 75.5,14.5 Z"/></g>
<g><path style="opacity:1" fill="#281e74" d="M 105.5,15.5 C 107.833,15.5 110.167,15.5 112.5,15.5C 112.5,26.8333 112.5,38.1667 112.5,49.5C 110.167,49.5 107.833,49.5 105.5,49.5C 105.5,38.1667 105.5,26.8333 105.5,15.5 Z"/></g>
<g><path style="opacity:1" fill="#04015b" d="M 105.5,15.5 C 107.948,14.5269 110.615,14.1936 113.5,14.5C 113.5,26.5 113.5,38.5 113.5,50.5C 110.615,50.8064 107.948,50.4731 105.5,49.5C 107.833,49.5 110.167,49.5 112.5,49.5C 112.5,38.1667 112.5,26.8333 112.5,15.5C 110.167,15.5 107.833,15.5 105.5,15.5 Z"/></g>
<g><path style="opacity:1" fill="#fbfbfc" d="M 90.5,21.5 C 92.4411,23.0106 92.9411,25.0106 92,27.5C 90.3005,28.4061 88.4672,28.7394 86.5,28.5C 86.5,30.8333 86.5,33.1667 86.5,35.5C 92.6739,34.1729 94.8406,36.5062 93,42.5C 92.6174,43.056 92.1174,43.3893 91.5,43.5C 88.8333,43.5 86.1667,43.5 83.5,43.5C 83.5,36.1667 83.5,28.8333 83.5,21.5C 85.8333,21.5 88.1667,21.5 90.5,21.5 Z"/></g>
<g><path style="opacity:1" fill="#8d87b4" d="M 90.5,21.5 C 88.1667,21.5 85.8333,21.5 83.5,21.5C 83.5,28.8333 83.5,36.1667 83.5,43.5C 86.1667,43.5 88.8333,43.5 91.5,43.5C 88.7131,44.4767 85.7131,44.81 82.5,44.5C 82.5,36.5 82.5,28.5 82.5,20.5C 85.3854,20.1936 88.0521,20.5269 90.5,21.5 Z"/></g>
</svg>
