<?xml version="1.0" encoding="UTF-8"?>
<!DOCTYPE svg PUBLIC "-//W3C//DTD SVG 1.1//EN" "http://www.w3.org/Graphics/SVG/1.1/DTD/svg11.dtd">
<svg xmlns="http://www.w3.org/2000/svg" version="1.1" width="1016px" height="1016px" style="shape-rendering:geometricPrecision; text-rendering:geometricPrecision; image-rendering:optimizeQuality; fill-rule:evenodd; clip-rule:evenodd" xmlns:xlink="http://www.w3.org/1999/xlink">
<g><path style="opacity:1" fill="#fdfefd" d="M -0.5,-0.5 C 338.167,-0.5 676.833,-0.5 1015.5,-0.5C 1015.5,338.167 1015.5,676.833 1015.5,1015.5C 676.833,1015.5 338.167,1015.5 -0.5,1015.5C -0.5,676.833 -0.5,338.167 -0.5,-0.5 Z"/></g>
<g><path style="opacity:1" fill="#f6a02c" d="M 546.5,963.5 C 527.516,964.391 508.516,964.724 489.5,964.5C 335.921,952.5 216.754,882.834 132,755.5C 63.7326,640.707 47.0659,518.707 82,389.5C 129.096,242.737 225.263,143.571 370.5,92C 494.819,54.4746 614.486,65.808 729.5,126C 850.505,196.759 924.672,301.259 952,439.5C 973.051,577.659 939.718,700.659 852,808.5C 770.84,899.999 669.006,951.666 546.5,963.5 Z"/></g>
<g><path style="opacity:1" fill="#fefefd" d="M 478.5,92.5 C 617.702,85.7199 734.869,132.72 830,233.5C 914.319,332.363 948.652,446.696 933,576.5C 912.161,708.451 845.661,809.951 733.5,881C 630.783,940.896 521.45,957.229 405.5,930C 293.305,898.7 206.472,833.867 145,735.5C 93.6128,645.854 75.6128,549.854 91,447.5C 118.74,300.801 199.573,194.968 333.5,130C 379.788,109.174 428.122,96.6741 478.5,92.5 Z"/></g>
<g><path style="opacity:1" fill="#3e4a51" d="M 590.5,816.5 C 560.175,818.386 529.841,820.219 499.5,822C 471.511,823.148 443.511,823.648 415.5,823.5C 412.833,823.5 410.167,823.5 407.5,823.5C 386.989,822.503 366.322,821.503 345.5,820.5C 312.086,819.583 278.753,817.417 245.5,814C 233.505,810.672 225.339,803.172 221,791.5C 220.558,772.801 221.225,754.135 223,735.5C 227.853,695.662 248.02,666.495 283.5,648C 310.26,636.58 337.927,628.08 366.5,622.5C 366.666,614.493 366.5,606.493 366,598.5C 340.412,581.341 324.245,557.674 317.5,527.5C 297.093,523.927 285.26,511.927 282,491.5C 278.088,474.375 283.254,461.042 297.5,451.5C 285.23,407.9 295.397,370.567 328,339.5C 324.324,311.442 319.991,283.442 315,255.5C 298.278,250.061 291.944,238.728 296,221.5C 304.673,205.388 317.173,201.554 333.5,210C 345.335,220.232 347.501,232.065 340,245.5C 353.667,255.833 367.333,266.167 381,276.5C 394.988,258.522 408.488,240.189 421.5,221.5C 412.394,214.267 409.227,204.934 412,193.5C 419.553,177.484 431.72,172.65 448.5,179C 461.954,188.65 464.787,200.817 457,215.5C 454.651,218.017 452.151,220.35 449.5,222.5C 462.757,240.679 476.257,258.679 490,276.5C 504.186,265.642 518.353,254.808 532.5,244C 524.436,226.134 529.436,213.467 547.5,206C 569,204.833 579.167,215 578,236.5C 575.067,246.434 568.567,252.6 558.5,255C 553.015,283.86 548.015,312.86 543.5,342C 554.046,356.263 561.546,372.096 566,389.5C 570.319,410.288 568.819,430.621 561.5,450.5C 572.581,455.955 578.747,464.955 580,477.5C 582.024,491.911 578.524,504.745 569.5,516C 562.726,522.204 554.726,525.37 545.5,525.5C 538.76,556.732 522.26,581.399 496,599.5C 495.722,606.835 495.889,614.168 496.5,621.5C 526.909,627.692 556.242,637.192 584.5,650C 614.21,666.378 632.376,691.211 639,724.5C 640.666,744.154 642.166,763.821 643.5,783.5C 642.626,797.087 635.959,806.587 623.5,812C 612.513,813.71 601.513,815.21 590.5,816.5 Z"/></g>
<g><path style="opacity:1" fill="#fde6ce" d="M 380.5,606.5 C 404.34,618.405 429.34,621.572 455.5,616C 464.693,613.657 473.693,610.824 482.5,607.5C 488.007,641.808 474.007,663.308 440.5,672C 413.116,675.56 393.282,665.06 381,640.5C 379.932,637.396 379.099,634.229 378.5,631C 379.312,622.844 379.978,614.678 380.5,606.5 Z"/></g>
<g><path style="opacity:1" fill="#efe9d8" d="M 354.5,569.5 C 388.06,602.471 427.06,610.971 471.5,595C 476.992,592.421 482.325,589.588 487.5,586.5C 488.107,586.624 488.44,586.957 488.5,587.5C 439.985,614.853 395.485,609.52 355,571.5C 354.536,570.906 354.369,570.239 354.5,569.5 Z"/></g>
<g><path style="opacity:1" fill="#fde6ce" d="M 488.5,587.5 C 488.44,586.957 488.107,586.624 487.5,586.5C 482.325,589.588 476.992,592.421 471.5,595C 427.06,610.971 388.06,602.471 354.5,569.5C 339.596,554.682 331.429,536.682 330,515.5C 329.167,514.667 328.333,513.833 327.5,513C 310.661,515.517 300.161,508.683 296,492.5C 295.072,485.06 295.406,477.726 297,470.5C 304.256,461.512 312.423,460.346 321.5,467C 325.26,468.176 328.093,467.01 330,463.5C 330.323,442.021 338.823,424.521 355.5,411C 358.753,408.126 362.253,405.626 366,403.5C 404.106,421.965 443.273,424.465 483.5,411C 488.954,408.773 494.287,406.273 499.5,403.5C 520.074,418.646 531.24,438.979 533,464.5C 537.175,468.45 541.341,468.45 545.5,464.5C 556.509,461.42 563.342,465.42 566,476.5C 570.267,500.891 560.1,513.058 535.5,513C 534.667,513.833 533.833,514.667 533,515.5C 529.085,546.346 514.251,570.346 488.5,587.5 Z"/></g>
<g><path style="opacity:1" fill="#3d4951" d="M 394.5,526.5 C 396.527,526.338 398.527,526.505 400.5,527C 417.193,545.23 435.526,547.23 455.5,533C 458.529,526.724 463.029,525.224 469,528.5C 471,531.833 471,535.167 469,538.5C 447.02,560.215 423.52,562.049 398.5,544C 393.715,540.602 391.548,536.102 392,530.5C 392.662,529.016 393.496,527.683 394.5,526.5 Z"/></g>
<g><path style="opacity:1" fill="#3c4950" d="M 378.5,456.5 C 385.786,455.559 390.619,458.559 393,465.5C 395.614,474.626 393.114,481.792 385.5,487C 377.521,487.373 372.688,483.539 371,475.5C 369.724,467.55 372.224,461.217 378.5,456.5 Z"/></g>
<g><path style="opacity:1" fill="#3d4951" d="M 475.5,456.5 C 484.108,455.27 489.275,458.937 491,467.5C 491.913,473.185 490.913,478.518 488,483.5C 479.019,490.164 472.686,488.164 469,477.5C 466.764,468.955 468.93,461.955 475.5,456.5 Z"/></g>
<g><path style="opacity:1" fill="#9f846e" d="M 530.5,348.5 C 549.617,371.71 557.117,398.376 553,428.5C 551.907,435.884 549.74,442.884 546.5,449.5C 540.893,429.446 530.559,412.279 515.5,398C 510.641,393.74 505.308,390.24 499.5,387.5C 462.664,407.69 424.331,410.857 384.5,397C 378.675,394.255 373.008,391.255 367.5,388C 365.833,387.333 364.167,387.333 362.5,388C 342.927,399.903 328.76,416.403 320,437.5C 318.53,441.378 317.697,445.378 317.5,449.5C 315.167,449.5 312.833,449.5 310.5,449.5C 302.628,420.135 306.461,392.469 322,366.5C 326.726,360.34 331.893,354.673 337.5,349.5C 401.762,348.504 466.095,348.171 530.5,348.5 Z"/></g>
<g><path style="opacity:1" fill="#1f3949" d="M 530.5,348.5 C 466.095,348.171 401.762,348.504 337.5,349.5C 336.262,349.19 336.262,348.69 337.5,348C 402.001,347.168 466.335,347.335 530.5,348.5 Z"/></g>
<g><path style="opacity:1" fill="#fdee71" d="M 531.5,333.5 C 468.669,334.499 405.669,334.832 342.5,334.5C 342.351,333.448 342.517,332.448 343,331.5C 405.618,333.494 468.452,334.161 531.5,333.5 Z"/></g>
<g><path style="opacity:1" fill="#3d4951" d="M 683.5,313.5 C 735.639,309.231 776.139,328.564 805,371.5C 827.175,413.646 826.841,455.646 804,497.5C 796.114,509.223 786.947,519.89 776.5,529.5C 782.248,539.997 788.248,550.33 794.5,560.5C 803.804,560.863 810.971,564.863 816,572.5C 832.066,599.576 847.733,626.909 863,654.5C 867.346,678.161 857.846,692.994 834.5,699C 822.806,700.658 812.973,697.158 805,688.5C 788.081,659.663 771.414,630.663 755,601.5C 752.73,594.465 753.23,587.632 756.5,581C 750.686,569.852 744.019,559.352 736.5,549.5C 686.19,562.883 643.357,550.55 608,512.5C 574.632,468.08 570.632,421.08 596,371.5C 616.745,339.539 645.911,320.206 683.5,313.5 Z"/></g>
<g><path style="opacity:1" fill="#a3aba8" d="M 763.5,536.5 C 764.675,536.281 765.675,536.614 766.5,537.5C 771.38,546.763 776.38,555.929 781.5,565C 777.522,567.993 773.189,570.493 768.5,572.5C 762.465,563.604 756.798,554.438 751.5,545C 751.645,544.228 751.978,543.561 752.5,543C 756.592,541.297 760.259,539.131 763.5,536.5 Z"/></g>
<g><path style="opacity:1" fill="#f4f6f6" d="M 687.5,326.5 C 735.189,324.09 771.356,343.09 796,383.5C 807.344,406.329 810.678,430.329 806,455.5C 792.953,505.546 760.786,534.046 709.5,541C 662.917,542.799 628.083,523.632 605,483.5C 582.619,432.928 591.452,388.761 631.5,351C 647.955,337.685 666.621,329.519 687.5,326.5 Z"/></g>
<g><path style="opacity:1" fill="#3e4952" d="M 659.5,372.5 C 676.16,370.383 689.827,375.716 700.5,388.5C 716.568,370.836 735.235,367.669 756.5,379C 773.575,392.554 779.742,410.054 775,431.5C 772.779,437.61 769.779,443.277 766,448.5C 747.683,470.821 726.85,490.321 703.5,507C 699.671,507.758 696.338,506.758 693.5,504C 670.703,486.203 650.203,466.037 632,443.5C 619.459,420.533 622.626,400.033 641.5,382C 647.161,378.005 653.161,374.838 659.5,372.5 Z"/></g>
<g><path style="opacity:1" fill="#eeda6d" d="M 707.5,486.5 C 705.704,487.793 704.037,489.293 702.5,491C 701.5,491.667 700.5,491.667 699.5,491C 681.041,475.542 663.541,459.042 647,441.5C 642.859,436.551 640.359,430.884 639.5,424.5C 639.369,423.761 639.536,423.094 640,422.5C 641,425.833 642,429.167 643,432.5C 650.675,444.184 659.842,454.684 670.5,464C 680,472.167 689.5,480.333 699,488.5C 700.113,487.289 701.28,487.289 702.5,488.5C 703.833,487.5 705.167,486.5 706.5,485.5C 707.107,485.624 707.44,485.957 707.5,486.5 Z"/></g>
<g><path style="opacity:1" fill="#fcd16e" d="M 707.5,486.5 C 707.44,485.957 707.107,485.624 706.5,485.5C 705.167,486.5 703.833,487.5 702.5,488.5C 701.28,487.289 700.113,487.289 699,488.5C 689.5,480.333 680,472.167 670.5,464C 659.842,454.684 650.675,444.184 643,432.5C 642,429.167 641,425.833 640,422.5C 639.536,423.094 639.369,423.761 639.5,424.5C 637.171,402.627 647.004,389.627 669,385.5C 674.655,386.496 679.822,388.663 684.5,392C 689.127,397.471 694.461,401.971 700.5,405.5C 702.197,405.101 703.863,404.601 705.5,404C 713.323,391.926 724.323,385.926 738.5,386C 758.589,394.012 766.089,408.512 761,429.5C 756.645,437.542 751.312,444.875 745,451.5C 733.233,464.106 720.733,475.772 707.5,486.5 Z"/></g>
<g><path style="opacity:1" fill="#25314f" d="M 335.5,294.5 C 336.5,301.164 337.5,307.831 338.5,314.5C 338.649,315.552 338.483,316.552 338,317.5C 336.871,312.191 335.871,306.857 335,301.5C 334.204,298.961 334.371,296.628 335.5,294.5 Z"/></g>
<g><path style="opacity:1" fill="#ead86d" d="M 479.5,286.5 C 465.48,269.303 451.98,251.636 439,233.5C 437.667,232.167 436.333,230.833 435,229.5C 433.383,231.763 431.55,233.763 429.5,235.5C 430.735,231.484 432.902,228.817 436,227.5C 451.007,246.87 465.507,266.537 479.5,286.5 Z"/></g>
<g><path style="opacity:1" fill="#fdd16e" d="M 479.5,286.5 C 481.63,288.127 483.63,289.96 485.5,292C 488.303,292.755 490.97,292.422 493.5,291C 509.719,278.447 526.219,266.281 543,254.5C 543.168,259.172 542.834,263.839 542,268.5C 538.36,290.151 534.86,311.817 531.5,333.5C 468.452,334.161 405.618,333.494 343,331.5C 342.517,332.448 342.351,333.448 342.5,334.5C 341.167,327.833 339.833,321.167 338.5,314.5C 337.5,307.831 336.5,301.164 335.5,294.5C 333.011,281.224 331.178,267.891 330,254.5C 335.145,258.971 340.312,263.304 345.5,267.5C 354.959,275.446 364.626,283.279 374.5,291C 380.468,295.874 385.968,295.374 391,289.5C 395.768,282.949 400.268,276.282 404.5,269.5C 412.068,257.599 420.402,246.266 429.5,235.5C 431.55,233.763 433.383,231.763 435,229.5C 436.333,230.833 437.667,232.167 439,233.5C 451.98,251.636 465.48,269.303 479.5,286.5 Z"/></g>
<g><path style="opacity:1" fill="#e7d56d" d="M 345.5,267.5 C 356.797,275.161 367.797,283.328 378.5,292C 382.505,293.098 386.005,292.265 389,289.5C 393.648,282.362 398.815,275.695 404.5,269.5C 400.268,276.282 395.768,282.949 391,289.5C 385.968,295.374 380.468,295.874 374.5,291C 364.626,283.279 354.959,275.446 345.5,267.5 Z"/></g>
<g><path style="opacity:1" fill="#f9d36d" d="M 549.5,219.5 C 559.659,218.832 564.826,223.498 565,233.5C 561.909,240.128 556.743,242.628 549.5,241C 543.397,237.96 541.231,233.126 543,226.5C 544.694,223.642 546.861,221.309 549.5,219.5 Z"/></g>
<g><path style="opacity:1" fill="#f9d36d" d="M 315.5,219.5 C 322.35,218.672 327.183,221.339 330,227.5C 330.655,237.844 325.822,242.344 315.5,241C 308.955,238.173 306.788,233.339 309,226.5C 310.694,223.642 312.861,221.309 315.5,219.5 Z"/></g>
<g><path style="opacity:1" fill="#f9d26e" d="M 432.5,189.5 C 443.865,189.028 448.699,194.362 447,205.5C 439.218,215.13 431.884,214.797 425,204.5C 424.333,202.167 424.333,199.833 425,197.5C 427.028,194.308 429.528,191.641 432.5,189.5 Z"/></g>
<g><path style="opacity:1" fill="#89939a" d="M 793.5,575.5 C 798.543,574.431 802.377,576.097 805,580.5C 820,606.5 835,632.5 850,658.5C 853.123,670.089 849.29,678.589 838.5,684C 828.612,687.773 820.446,685.606 814,677.5C 798.667,650.833 783.333,624.167 768,597.5C 766.817,593.726 767.651,590.559 770.5,588C 778.548,584.313 786.215,580.147 793.5,575.5 Z"/></g>
<g><path style="opacity:1" fill="#abd4ea" d="M 496.5,634.5 C 517.397,639.776 538.064,645.942 558.5,653C 585.569,662.11 605.736,679.276 619,704.5C 623.074,714.461 625.74,724.795 627,735.5C 628.72,753.136 629.387,770.803 629,788.5C 626.643,794.193 622.477,797.693 616.5,799C 600.858,800.831 585.192,802.331 569.5,803.5C 569.667,782.497 569.5,761.497 569,740.5C 564.578,733.941 560.245,733.941 556,740.5C 555.5,762.164 555.333,783.831 555.5,805.5C 514.881,808.039 474.214,809.373 433.5,809.5C 392.135,809.07 350.802,807.737 309.5,805.5C 309.667,783.831 309.5,762.164 309,740.5C 304.571,735.192 300.237,735.192 296,740.5C 295.5,761.831 295.333,783.164 295.5,804.5C 279.081,803.874 262.748,802.374 246.5,800C 240.143,796.982 235.977,792.149 234,785.5C 234.222,770.831 234.889,756.164 236,741.5C 239.439,701.789 259.272,673.622 295.5,657C 318.494,647.992 341.994,641.492 366,637.5C 372.727,661.227 387.894,676.727 411.5,684C 444.104,691.249 469.937,681.416 489,654.5C 492.199,648.065 494.699,641.398 496.5,634.5 Z"/></g>
<g><path style="opacity:1" fill="#c6cacc" d="M 590.5,816.5 C 532.306,822.786 473.973,825.12 415.5,823.5C 443.511,823.648 471.511,823.148 499.5,822C 529.841,820.219 560.175,818.386 590.5,816.5 Z"/></g>
<g><path style="opacity:1" fill="#d1d3d5" d="M 345.5,820.5 C 366.322,821.503 386.989,822.503 407.5,823.5C 388.487,823.515 369.487,823.015 350.5,822C 348.618,821.802 346.952,821.302 345.5,820.5 Z"/></g>
<g><path style="opacity:1" fill="#fce3c2" d="M 546.5,963.5 C 545.048,964.302 543.382,964.802 541.5,965C 523.995,965.829 506.662,965.662 489.5,964.5C 508.516,964.724 527.516,964.391 546.5,963.5 Z"/></g>
</svg>
