<?xml version="1.0" encoding="UTF-8"?>
<!DOCTYPE svg PUBLIC "-//W3C//DTD SVG 1.1//EN" "http://www.w3.org/Graphics/SVG/1.1/DTD/svg11.dtd">
<svg xmlns="http://www.w3.org/2000/svg" version="1.1" width="1024px" height="1024px" style="shape-rendering:geometricPrecision; text-rendering:geometricPrecision; image-rendering:optimizeQuality; fill-rule:evenodd; clip-rule:evenodd" xmlns:xlink="http://www.w3.org/1999/xlink">
<g><path style="opacity:1" fill="#fdfdfd" d="M -0.5,-0.5 C 340.833,-0.5 682.167,-0.5 1023.5,-0.5C 1023.5,340.833 1023.5,682.167 1023.5,1023.5C 682.167,1023.5 340.833,1023.5 -0.5,1023.5C -0.5,682.167 -0.5,340.833 -0.5,-0.5 Z"/></g>
<g><path style="opacity:1" fill="#fbb335" d="M 481.5,79.5 C 604.08,73.2984 711.08,110.465 802.5,191C 898.684,282.933 944.517,395.766 940,529.5C 928.191,682.059 857.691,798.226 728.5,878C 613.78,941.517 494.114,952.85 369.5,912C 242.423,864.59 154.923,777.424 107,650.5C 60.4153,506.032 80.7487,372.032 168,248.5C 248.068,147.539 352.568,91.2055 481.5,79.5 Z"/></g>
<g><path style="opacity:1" fill="#fdfdfd" d="M 494.5,98.5 C 587.565,96.5077 672.565,121.341 749.5,173C 855.054,251.236 912.221,356.403 921,488.5C 923.803,618.005 877.97,726.505 783.5,814C 697.912,886.977 598.579,920.977 485.5,916C 356.481,904.265 253.648,846.765 177,743.5C 105.589,638.093 85.2559,523.426 116,399.5C 154.898,267.609 238.064,176.109 365.5,125C 407.321,109.67 450.321,100.837 494.5,98.5 Z"/></g>
<g><path style="opacity:1" fill="#010207" d="M 583.5,679.5 C 584.493,715.427 584.826,751.427 584.5,787.5C 584.5,787.833 584.5,788.167 584.5,788.5C 583.827,752.627 583.16,716.627 582.5,680.5C 582.624,679.893 582.957,679.56 583.5,679.5 Z"/></g>
<g><path style="opacity:1" fill="#3c464d" d="M 726.5,464.5 C 727.331,477.327 727.831,490.327 728,503.5C 728.333,490.5 728.667,477.5 729,464.5C 729.171,469.864 729.671,475.198 730.5,480.5C 731.192,479.975 731.692,479.308 732,478.5C 734,479.167 736,479.833 738,480.5C 738.167,572.334 738.667,664.001 739.5,755.5C 744.651,756.327 749.984,756.827 755.5,757C 752.833,757.333 750.167,757.667 747.5,758C 750.177,758.249 752.51,759.249 754.5,761C 753.552,761.483 752.552,761.649 751.5,761.5C 751.886,765.554 754.22,767.554 758.5,767.5C 759.006,763.993 758.34,760.826 756.5,758C 757.449,757.383 758.282,757.549 759,758.5C 759.667,771.833 759.667,785.167 759,798.5C 758.829,793.467 758.329,788.467 757.5,783.5C 755.082,784.457 752.916,785.791 751,787.5C 750.828,780.654 750.328,773.987 749.5,767.5C 715.5,767.5 681.5,767.5 647.5,767.5C 647.5,774.167 647.5,780.833 647.5,787.5C 681.5,787.5 715.5,787.5 749.5,787.5C 715.669,788.332 681.669,788.832 647.5,789C 681.5,789.333 715.5,789.667 749.5,790C 715.162,790.167 680.828,790.667 646.5,791.5C 647.729,792.281 649.062,792.781 650.5,793C 649.54,794.419 648.707,795.919 648,797.5C 647.667,797.167 647.333,796.833 647,796.5C 646.481,797.516 645.647,798.182 644.5,798.5C 637.125,798.395 629.125,798.062 620.5,797.5C 621.263,796.281 622.263,795.281 623.5,794.5C 622.359,793.575 622.359,792.741 623.5,792C 622.5,791.667 621.5,791.333 620.5,791C 608.5,790.667 596.5,790.333 584.5,790C 651.163,789.167 651.163,788.667 584.5,788.5C 584.5,788.167 584.5,787.833 584.5,787.5C 601.167,787.5 617.833,787.5 634.5,787.5C 634.174,778.651 634.507,769.984 635.5,761.5C 635.334,770.173 635.5,778.84 636,787.5C 636.333,778.5 636.667,769.5 637,760.5C 638.319,758.513 640.152,757.346 642.5,757C 648.833,756.333 655.167,756.333 661.5,757C 661.833,757.333 662.167,757.667 662.5,758C 661.809,759.067 661.309,760.234 661,761.5C 659.933,759.717 658.433,759.217 656.5,760C 658.26,760.965 658.594,762.132 657.5,763.5C 656.5,762.167 655.5,762.167 654.5,763.5C 653.808,762.975 653.308,762.308 653,761.5C 652.228,762.849 651.061,763.682 649.5,764C 674.5,764.667 699.5,764.667 724.5,764C 725.167,762.667 725.833,761.333 726.5,760C 724.699,759.683 724.366,759.016 725.5,758C 710.833,757.667 696.167,757.333 681.5,757C 697.074,756.825 712.574,756.325 728,755.5C 728.667,740.5 728.667,725.5 728,710.5C 727.617,711.056 727.117,711.389 726.5,711.5C 726.5,710.833 726.167,710.5 725.5,710.5C 719.198,715.271 713.031,720.938 707,727.5C 706.517,726.552 706.351,725.552 706.5,724.5C 703.664,724.798 703.164,724.131 705,722.5C 708.025,723.791 708.359,723.124 706,720.5C 705.667,720.833 705.333,721.167 705,721.5C 704.316,720.216 704.483,719.049 705.5,718C 704.5,717.667 703.5,717.333 702.5,717C 707.407,712.636 711.407,708.136 714.5,703.5C 701.01,702.504 687.344,702.171 673.5,702.5C 673.5,716.167 673.5,729.833 673.5,743.5C 672.669,730.006 672.169,716.339 672,702.5C 671.667,716.167 671.333,729.833 671,743.5C 670.667,730.167 670.333,716.833 670,703.5C 668.869,702.396 668.035,702.729 667.5,704.5C 668.246,705.736 668.579,707.07 668.5,708.5C 667.325,708.719 666.325,708.386 665.5,707.5C 664.823,701.954 667.157,697.954 672.5,695.5C 674.111,696.32 674.778,697.654 674.5,699.5C 677.898,699.82 681.232,699.487 684.5,698.5C 684.291,697.914 683.957,697.414 683.5,697C 685.081,696.293 686.581,695.46 688,694.5C 691.663,698.258 695.496,698.758 699.5,696C 698.376,695.751 697.376,695.251 696.5,694.5C 696.846,693.304 697.346,693.304 698,694.5C 699.698,693.267 701.698,692.6 704,692.5C 705.833,692.667 707.667,692.833 709.5,693C 710.833,694 710.833,695 709.5,696C 710.984,697.574 712.651,698.907 714.5,700C 700.833,700.333 687.167,700.667 673.5,701C 687.5,701.667 701.5,701.667 715.5,701C 718.915,699.857 719.249,698.19 716.5,696C 717.428,695.612 718.095,694.945 718.5,694C 718.294,691.27 717.294,689.103 715.5,687.5C 709.036,680.535 702.369,673.702 695.5,667C 696.833,667 698.167,667 699.5,667C 699.043,666.586 698.709,666.086 698.5,665.5C 700.078,664.702 701.744,664.202 703.5,664C 704.126,663.25 704.626,662.416 705,661.5C 711.698,668.726 718.531,675.059 725.5,680.5C 726.496,667.01 726.829,653.344 726.5,639.5C 727.331,652.994 727.831,666.661 728,680.5C 728.333,666.833 728.667,653.167 729,639.5C 729.333,649.5 729.667,659.5 730,669.5C 730.414,669.957 730.914,670.291 731.5,670.5C 731.998,669.397 732.331,668.397 732.5,667.5C 734.535,668.597 735.868,670.263 736.5,672.5C 737.666,660.514 737.833,648.514 737,636.5C 735.954,634.91 734.787,633.41 733.5,632C 733.833,631.667 734.167,631.333 734.5,631C 732.972,629.639 731.305,628.472 729.5,627.5C 728.667,613.512 728.167,599.512 728,585.5C 727.831,599.339 727.331,613.006 726.5,626.5C 726.829,612.99 726.496,599.656 725.5,586.5C 725.565,586.062 725.399,585.728 725,585.5C 712.298,598.369 699.465,611.035 686.5,623.5C 686.082,622.778 685.416,622.278 684.5,622C 685.126,621.25 685.626,620.416 686,619.5C 687.281,620.647 687.614,620.313 687,618.5C 686.085,617.672 685.419,616.672 685,615.5C 684.667,615.833 684.333,616.167 684,616.5C 683.292,615.619 682.458,614.953 681.5,614.5C 692.833,602.833 704.167,591.167 715.5,579.5C 715.5,578.833 715.5,578.167 715.5,577.5C 702.006,576.669 688.339,576.169 674.5,576C 683.5,575.667 692.5,575.333 701.5,575C 700.833,574.667 700.167,574.333 699.5,574C 701.112,573.28 702.612,573.446 704,574.5C 704.5,574 705,573.5 705.5,573C 704.448,571.881 703.281,571.381 702,571.5C 701.383,570.551 701.549,569.718 702.5,569C 692.5,568.667 682.5,568.333 672.5,568C 687.167,567.667 701.833,567.333 716.5,567C 701.994,566.831 687.661,566.331 673.5,565.5C 688.01,565.829 702.343,565.496 716.5,564.5C 716.938,564.565 717.272,564.399 717.5,564C 714.333,560.833 711.167,557.667 708,554.5C 708.497,552.802 708.33,551.135 707.5,549.5C 707.833,549.167 708.167,548.833 708.5,548.5C 709.685,549.853 711.019,551.02 712.5,552C 711.044,552.423 710.544,553.256 711,554.5C 713.667,553.167 715.667,551.167 717,548.5C 719.167,550.667 721.333,552.833 723.5,555C 721.43,555.379 719.93,554.545 719,552.5C 718.405,553.899 718.572,555.232 719.5,556.5C 718.471,556.296 717.471,556.796 716.5,558C 717.667,558.5 718.5,559.333 719,560.5C 720.365,556.777 722.032,556.777 724,560.5C 725.333,559.833 726.667,559.167 728,558.5C 728.667,544.167 728.667,529.833 728,515.5C 727.833,529.179 727.333,542.846 726.5,556.5C 725.893,556.376 725.56,556.043 725.5,555.5C 726.496,542.344 726.829,529.01 726.5,515.5C 725.811,514.293 725.645,512.959 726,511.5C 725.667,511.833 725.333,512.167 725,512.5C 724.612,511.572 723.945,510.905 723,510.5C 719.621,511.761 716.288,511.761 713,510.5C 709.609,512.844 706.442,512.344 703.5,509C 704.938,508.781 706.271,508.281 707.5,507.5C 706.313,507.446 704.98,507.113 703.5,506.5C 710.992,505.605 718.326,504.605 725.5,503.5C 726.495,490.677 726.829,477.677 726.5,464.5 Z"/></g>
<g><path style="opacity:1" fill="#1d2b36" d="M 544.5,655.5 C 570.339,655.169 596.005,655.502 621.5,656.5C 595.402,657.827 569.402,657.827 543.5,656.5C 544.167,656.5 544.5,656.167 544.5,655.5 Z"/></g>
<g><path style="opacity:1" fill="#02040a" d="M 550.5,591.5 C 547.547,592.004 544.714,593.004 542,594.5C 541.333,614.167 541.333,633.833 542,653.5C 542.708,654.381 543.542,655.047 544.5,655.5C 544.5,656.167 544.167,656.5 543.5,656.5C 542.542,656.047 541.708,655.381 541,654.5C 540.333,634.167 540.333,613.833 541,593.5C 543.826,591.66 546.993,590.994 550.5,591.5 Z"/></g>
<g><path style="opacity:1" fill="#0d1620" d="M 492.5,615.5 C 493.496,615.414 494.329,615.748 495,616.5C 495.5,636.831 495.667,657.164 495.5,677.5C 494.828,657.431 494.161,637.264 493.5,617C 451.5,616.667 409.5,616.333 367.5,616C 409.165,615.5 450.832,615.333 492.5,615.5 Z"/></g>
<g><path style="opacity:1" fill="#333c44" d="M 715.5,368.5 C 744.625,391.119 773.625,413.952 802.5,437C 809.346,437.172 816.013,437.672 822.5,438.5C 816.158,438.334 809.825,438.5 803.5,439C 810.167,439.333 816.833,439.667 823.5,440C 824,440.5 824.5,441 825,441.5C 825.805,458.544 825.638,475.544 824.5,492.5C 823.078,492.709 821.745,493.209 820.5,494C 802.5,494.667 784.5,494.667 766.5,494C 765.667,493.167 764.833,492.333 764,491.5C 763.825,486.981 763.325,482.647 762.5,478.5C 754.833,478.5 747.167,478.5 739.5,478.5C 739.5,570.833 739.5,663.167 739.5,755.5C 738.667,664.001 738.167,572.334 738,480.5C 736,479.833 734,479.167 732,478.5C 731.692,479.308 731.192,479.975 730.5,480.5C 729.671,475.198 729.171,469.864 729,464.5C 728.667,477.5 728.333,490.5 728,503.5C 727.831,490.327 727.331,477.327 726.5,464.5C 713.368,477.131 700.368,489.965 687.5,503C 700.162,503.5 712.829,503.667 725.5,503.5C 718.326,504.605 710.992,505.605 703.5,506.5C 704.98,507.113 706.313,507.446 707.5,507.5C 706.271,508.281 704.938,508.781 703.5,509C 706.442,512.344 709.609,512.844 713,510.5C 716.288,511.761 719.621,511.761 723,510.5C 723.945,510.905 724.612,511.572 725,512.5C 725.333,512.167 725.667,511.833 726,511.5C 725.645,512.959 725.811,514.293 726.5,515.5C 712.829,515.333 699.163,515.5 685.5,516C 698.728,529.396 712.062,542.562 725.5,555.5C 725.56,556.043 725.893,556.376 726.5,556.5C 727.333,542.846 727.833,529.179 728,515.5C 728.667,529.833 728.667,544.167 728,558.5C 726.667,559.167 725.333,559.833 724,560.5C 722.032,556.777 720.365,556.777 719,560.5C 718.5,559.333 717.667,558.5 716.5,558C 717.471,556.796 718.471,556.296 719.5,556.5C 718.572,555.232 718.405,553.899 719,552.5C 719.93,554.545 721.43,555.379 723.5,555C 721.333,552.833 719.167,550.667 717,548.5C 715.667,551.167 713.667,553.167 711,554.5C 710.544,553.256 711.044,552.423 712.5,552C 711.019,551.02 709.685,549.853 708.5,548.5C 708.167,548.833 707.833,549.167 707.5,549.5C 708.33,551.135 708.497,552.802 708,554.5C 711.167,557.667 714.333,560.833 717.5,564C 717.272,564.399 716.938,564.565 716.5,564.5C 702.506,550.673 688.339,537.006 674,523.5C 673.5,537.496 673.333,551.496 673.5,565.5C 687.661,566.331 701.994,566.831 716.5,567C 701.833,567.333 687.167,567.667 672.5,568C 682.5,568.333 692.5,568.667 702.5,569C 701.549,569.718 701.383,570.551 702,571.5C 703.281,571.381 704.448,571.881 705.5,573C 705,573.5 704.5,574 704,574.5C 702.612,573.446 701.112,573.28 699.5,574C 700.167,574.333 700.833,574.667 701.5,575C 692.5,575.333 683.5,575.667 674.5,576C 688.339,576.169 702.006,576.669 715.5,577.5C 701.5,577.5 687.5,577.5 673.5,577.5C 673.5,590.833 673.5,604.167 673.5,617.5C 673.409,619.698 674.075,620.031 675.5,618.5C 675.435,618.938 675.601,619.272 676,619.5C 677.704,617.627 679.537,615.96 681.5,614.5C 682.458,614.953 683.292,615.619 684,616.5C 684.333,616.167 684.667,615.833 685,615.5C 685.419,616.672 686.085,617.672 687,618.5C 687.614,620.313 687.281,620.647 686,619.5C 685.626,620.416 685.126,621.25 684.5,622C 685.416,622.278 686.082,622.778 686.5,623.5C 685.494,624.396 685.494,625.062 686.5,625.5C 699.656,626.496 712.99,626.829 726.5,626.5C 727.331,613.006 727.831,599.339 728,585.5C 728.167,599.512 728.667,613.512 729.5,627.5C 731.305,628.472 732.972,629.639 734.5,631C 734.167,631.333 733.833,631.667 733.5,632C 734.787,633.41 735.954,634.91 737,636.5C 737.833,648.514 737.666,660.514 736.5,672.5C 735.868,670.263 734.535,668.597 732.5,667.5C 732.331,668.397 731.998,669.397 731.5,670.5C 730.914,670.291 730.414,669.957 730,669.5C 729.667,659.5 729.333,649.5 729,639.5C 728.667,653.167 728.333,666.833 728,680.5C 727.831,666.661 727.331,652.994 726.5,639.5C 713.833,639.5 701.167,639.5 688.5,639.5C 687.127,639.343 685.793,639.51 684.5,640C 689.405,645.41 694.738,650.243 700.5,654.5C 708.833,663.167 717.167,671.833 725.5,680.5C 718.531,675.059 711.698,668.726 705,661.5C 704.626,662.416 704.126,663.25 703.5,664C 701.744,664.202 700.078,664.702 698.5,665.5C 698.709,666.086 699.043,666.586 699.5,667C 698.167,667 696.833,667 695.5,667C 702.369,673.702 709.036,680.535 715.5,687.5C 717.294,689.103 718.294,691.27 718.5,694C 718.095,694.945 717.428,695.612 716.5,696C 719.249,698.19 718.915,699.857 715.5,701C 701.5,701.667 687.5,701.667 673.5,701C 687.167,700.667 700.833,700.333 714.5,700C 712.651,698.907 710.984,697.574 709.5,696C 710.833,695 710.833,694 709.5,693C 707.667,692.833 705.833,692.667 704,692.5C 701.698,692.6 699.698,693.267 698,694.5C 697.346,693.304 696.846,693.304 696.5,694.5C 697.376,695.251 698.376,695.751 699.5,696C 695.496,698.758 691.663,698.258 688,694.5C 686.581,695.46 685.081,696.293 683.5,697C 683.957,697.414 684.291,697.914 684.5,698.5C 681.232,699.487 677.898,699.82 674.5,699.5C 674.778,697.654 674.111,696.32 672.5,695.5C 667.157,697.954 664.823,701.954 665.5,707.5C 666.325,708.386 667.325,708.719 668.5,708.5C 668.579,707.07 668.246,705.736 667.5,704.5C 668.035,702.729 668.869,702.396 670,703.5C 670.333,716.833 670.667,730.167 671,743.5C 671.333,729.833 671.667,716.167 672,702.5C 672.169,716.339 672.669,730.006 673.5,743.5C 687.167,730.167 700.833,716.833 714.5,703.5C 711.407,708.136 707.407,712.636 702.5,717C 703.5,717.333 704.5,717.667 705.5,718C 704.483,719.049 704.316,720.216 705,721.5C 705.333,721.167 705.667,720.833 706,720.5C 708.359,723.124 708.025,723.791 705,722.5C 703.164,724.131 703.664,724.798 706.5,724.5C 706.351,725.552 706.517,726.552 707,727.5C 713.031,720.938 719.198,715.271 725.5,710.5C 713.5,722.833 701.5,735.167 689.5,747.5C 687.475,749.196 685.475,750.863 683.5,752.5C 682.909,753.151 682.243,753.818 681.5,754.5C 696.485,755.499 711.485,755.833 726.5,755.5C 726.5,740.833 726.5,726.167 726.5,711.5C 727.117,711.389 727.617,711.056 728,710.5C 728.667,725.5 728.667,740.5 728,755.5C 712.574,756.325 697.074,756.825 681.5,757C 696.167,757.333 710.833,757.667 725.5,758C 724.366,759.016 724.699,759.683 726.5,760C 725.833,761.333 725.167,762.667 724.5,764C 699.5,764.667 674.5,764.667 649.5,764C 651.061,763.682 652.228,762.849 653,761.5C 653.308,762.308 653.808,762.975 654.5,763.5C 655.5,762.167 656.5,762.167 657.5,763.5C 658.594,762.132 658.26,760.965 656.5,760C 658.433,759.217 659.933,759.717 661,761.5C 661.309,760.234 661.809,759.067 662.5,758C 662.167,757.667 661.833,757.333 661.5,757C 655.167,756.333 648.833,756.333 642.5,757C 640.152,757.346 638.319,758.513 637,760.5C 636.667,769.5 636.333,778.5 636,787.5C 635.5,778.84 635.334,770.173 635.5,761.5C 636.353,758.482 638.353,756.649 641.5,756C 647.825,755.5 654.158,755.334 660.5,755.5C 661.333,663.334 661.833,571.001 662,478.5C 662.333,570.833 662.667,663.167 663,755.5C 663.167,707.497 663.667,659.497 664.5,611.5C 667.749,609.795 668.416,607.795 666.5,605.5C 665.749,606.376 665.249,607.376 665,608.5C 664.333,606.833 664.333,605.167 665,603.5C 666.016,604.634 666.683,604.301 667,602.5C 667.333,603.167 667.667,603.833 668,604.5C 669,602.833 670,601.167 671,599.5C 671.676,605.357 671.509,610.857 670.5,616C 671.126,616.75 671.626,617.584 672,618.5C 672.667,605.167 672.667,591.833 672,578.5C 671.667,579.833 671.333,581.167 671,582.5C 668.667,580.833 666.667,578.833 665,576.5C 664.667,576.833 664.333,577.167 664,577.5C 663.333,557.833 663.333,538.167 664,518.5C 664.414,518.957 664.914,519.291 665.5,519.5C 667.336,518.081 669.336,516.914 671.5,516C 671.167,515 670.833,514 670.5,513C 673.054,510.602 673.054,508.269 670.5,506C 672.301,505.683 672.634,505.016 671.5,504C 672.126,503.25 672.626,502.416 673,501.5C 675.884,502.203 679.051,502.37 682.5,502C 681.366,500.984 681.699,500.317 683.5,500C 682.167,499.333 682.167,498.667 683.5,498C 681.459,496.758 680.293,494.925 680,492.5C 678.667,493.833 677.333,495.167 676,496.5C 675.601,496.272 675.435,495.938 675.5,495.5C 690.473,480.861 705.473,466.194 720.5,451.5C 720.938,451.435 721.272,451.601 721.5,452C 720.167,453.333 718.833,454.667 717.5,456C 718.448,456.483 719.448,456.649 720.5,456.5C 720.587,459.598 720.087,459.932 719,457.5C 718.25,458.126 717.416,458.626 716.5,459C 717.967,460.098 718.801,461.598 719,463.5C 720.31,461.048 721.476,458.548 722.5,456C 720.071,455.549 719.904,454.715 722,453.5C 722.915,454.328 723.581,455.328 724,456.5C 725.333,456.5 726.667,456.5 728,456.5C 728.219,455.062 728.719,453.729 729.5,452.5C 732.021,453.785 734.687,454.452 737.5,454.5C 737.077,452.219 737.744,450.552 739.5,449.5C 747.167,449.5 754.833,449.5 762.5,449.5C 762.334,455.176 762.501,460.843 763,466.5C 763.333,461.167 763.667,455.833 764,450.5C 765.749,451.299 767.082,450.632 768,448.5C 769.83,452.272 771.33,451.939 772.5,447.5C 772.833,447.833 773.167,448.167 773.5,448.5C 772.175,460.363 772.175,472.197 773.5,484C 787.673,484.827 801.673,484.661 815.5,483.5C 815.5,472.167 815.5,460.833 815.5,449.5C 802.006,448.669 788.339,448.169 774.5,448C 779.202,447.828 783.868,447.328 788.5,446.5C 787.724,444.644 786.391,443.311 784.5,442.5C 785.641,441.575 785.641,440.741 784.5,440C 785.167,439.667 785.833,439.333 786.5,439C 783.922,436.843 783.922,435.677 786.5,435.5C 786.081,434.328 785.415,433.328 784.5,432.5C 783.304,432.846 783.304,433.346 784.5,434C 783.207,434.49 781.873,434.657 780.5,434.5C 759.253,418.922 738.586,402.588 718.5,385.5C 716.621,382.885 714.288,380.719 711.5,379C 712.238,377.176 712.572,375.176 712.5,373C 711.364,371.47 710.364,370.137 709.5,369C 710.191,367.933 710.691,366.766 711,365.5C 712.129,367.141 713.629,368.141 715.5,368.5 Z"/></g>
<g><path style="opacity:1" fill="#e4e8e9" d="M 725.5,710.5 C 726.167,710.5 726.5,710.833 726.5,711.5C 726.5,726.167 726.5,740.833 726.5,755.5C 711.485,755.833 696.485,755.499 681.5,754.5C 682.243,753.818 682.909,753.151 683.5,752.5C 697.421,753.482 711.421,753.815 725.5,753.5C 725.667,740.163 725.5,726.829 725,713.5C 713.58,725.423 701.747,736.756 689.5,747.5C 701.5,735.167 713.5,722.833 725.5,710.5 Z"/></g>
<g><path style="opacity:1" fill="#d0d8dd" d="M 683.5,752.5 C 685.475,750.863 687.475,749.196 689.5,747.5C 701.747,736.756 713.58,725.423 725,713.5C 725.5,726.829 725.667,740.163 725.5,753.5C 711.421,753.815 697.421,753.482 683.5,752.5 Z"/></g>
<g><path style="opacity:1" fill="#d5dbe0" d="M 714.5,703.5 C 700.833,716.833 687.167,730.167 673.5,743.5C 673.5,729.833 673.5,716.167 673.5,702.5C 687.344,702.171 701.01,702.504 714.5,703.5 Z"/></g>
<g><path style="opacity:1" fill="#d6dde1" d="M 715.5,687.5 C 715.611,688.117 715.944,688.617 716.5,689C 702.171,689.5 687.837,689.667 673.5,689.5C 673.333,675.829 673.5,662.163 674,648.5C 687.471,660.97 700.638,673.804 713.5,687C 714.094,687.464 714.761,687.631 715.5,687.5 Z"/></g>
<g><path style="opacity:1" fill="#f7f9f9" d="M 688.5,639.5 C 701.167,639.5 713.833,639.5 726.5,639.5C 726.829,653.344 726.496,667.01 725.5,680.5C 717.167,671.833 708.833,663.167 700.5,654.5C 709.078,661.574 717.245,669.24 725,677.5C 725.5,665.171 725.667,652.838 725.5,640.5C 712.989,640.829 700.655,640.495 688.5,639.5 Z"/></g>
<g><path style="opacity:1" fill="#d0d7dc" d="M 688.5,639.5 C 700.655,640.495 712.989,640.829 725.5,640.5C 725.667,652.838 725.5,665.171 725,677.5C 717.245,669.24 709.078,661.574 700.5,654.5C 694.738,650.243 689.405,645.41 684.5,640C 685.793,639.51 687.127,639.343 688.5,639.5 Z"/></g>
<g><path style="opacity:1" fill="#f8fafa" d="M 725.5,586.5 C 726.496,599.656 726.829,612.99 726.5,626.5C 712.99,626.829 699.656,626.496 686.5,625.5C 699.833,612.833 712.833,599.833 725.5,586.5 Z"/></g>
<g><path style="opacity:1" fill="#151c26" d="M 714.5,579.5 C 714.833,579.5 715.167,579.5 715.5,579.5C 704.167,591.167 692.833,602.833 681.5,614.5C 679.537,615.96 677.704,617.627 676,619.5C 675.601,619.272 675.435,618.938 675.5,618.5C 684.833,608.833 694.167,599.167 703.5,589.5C 706.5,587.167 709.167,584.5 711.5,581.5C 712.5,580.833 713.5,580.167 714.5,579.5 Z"/></g>
<g><path style="opacity:1" fill="#9aa3a9" d="M 715.5,577.5 C 715.5,578.167 715.5,578.833 715.5,579.5C 715.167,579.5 714.833,579.5 714.5,579.5C 701.344,578.504 688.01,578.171 674.5,578.5C 674.829,591.677 674.495,604.677 673.5,617.5C 673.5,604.167 673.5,590.833 673.5,577.5C 687.5,577.5 701.5,577.5 715.5,577.5 Z"/></g>
<g><path style="opacity:1" fill="#121a23" d="M 725.5,586.5 C 712.833,599.833 699.833,612.833 686.5,625.5C 685.494,625.062 685.494,624.396 686.5,623.5C 699.465,611.035 712.298,598.369 725,585.5C 725.399,585.728 725.565,586.062 725.5,586.5 Z"/></g>
<g><path style="opacity:1" fill="#d0d7dd" d="M 724.5,589.5 C 725.495,601.322 725.828,613.322 725.5,625.5C 713.495,625.667 701.495,625.5 689.5,625C 701.369,613.298 713.035,601.465 724.5,589.5 Z"/></g>
<g><path style="opacity:1" fill="#d1d8dd" d="M 711.5,581.5 C 709.167,584.5 706.5,587.167 703.5,589.5C 693.921,597.575 684.754,606.242 676,615.5C 675.5,603.505 675.333,591.505 675.5,579.5C 687.88,578.854 699.88,579.521 711.5,581.5 Z"/></g>
<g><path style="opacity:1" fill="#f7fafb" d="M 714.5,579.5 C 713.5,580.167 712.5,580.833 711.5,581.5C 699.88,579.521 687.88,578.854 675.5,579.5C 675.333,591.505 675.5,603.505 676,615.5C 684.754,606.242 693.921,597.575 703.5,589.5C 694.167,599.167 684.833,608.833 675.5,618.5C 674.075,620.031 673.409,619.698 673.5,617.5C 674.495,604.677 674.829,591.677 674.5,578.5C 688.01,578.171 701.344,578.504 714.5,579.5 Z"/></g>
<g><path style="opacity:1" fill="#212932" d="M 365.5,564.5 C 335.804,563.174 306.137,563.174 276.5,564.5C 276.577,563.25 277.244,562.417 278.5,562C 306.5,561.333 334.5,561.333 362.5,562C 363.942,562.377 364.942,563.21 365.5,564.5 Z"/></g>
<g><path style="opacity:1" fill="#303941" d="M 375.5,485.5 C 375.178,491.358 375.511,497.025 376.5,502.5C 378.167,502.5 379.833,502.5 381.5,502.5C 414.998,503.332 448.664,503.832 482.5,504C 446.835,504.5 411.168,504.667 375.5,504.5C 375.137,506.911 376.137,508.411 378.5,509C 377.167,510 377.167,511 378.5,512C 374.815,512.914 375.148,513.581 379.5,514C 414.002,514.168 448.336,514.668 482.5,515.5C 447.167,515.5 411.833,515.5 376.5,515.5C 377.477,526.316 383.143,533.483 393.5,537C 416.833,537.667 440.167,537.667 463.5,537C 466.951,536.105 470.284,534.938 473.5,533.5C 469.001,537.39 463.668,539.223 457.5,539C 441.167,539.333 424.833,539.667 408.5,540C 412.494,540.43 413.16,541.93 410.5,544.5C 411.183,547.461 412.016,547.795 413,545.5C 413.483,546.448 413.649,547.448 413.5,548.5C 423.506,548.666 433.506,548.5 443.5,548C 441.1,547.814 438.766,547.314 436.5,546.5C 436.099,544.566 435.099,543.066 433.5,542C 434.872,541.598 436.205,541.098 437.5,540.5C 437.109,541.718 437.776,542.552 439.5,543C 438.366,544.016 438.699,544.683 440.5,545C 440.167,545.333 439.833,545.667 439.5,546C 441.899,546.711 444.232,546.544 446.5,545.5C 447.386,544.675 447.719,543.675 447.5,542.5C 450.021,542.56 452.354,541.894 454.5,540.5C 458.191,541.021 461.857,541.688 465.5,542.5C 463.939,544.689 462.272,545.855 460.5,546C 461.742,547.651 462.576,549.485 463,551.5C 463.374,550.584 463.874,549.75 464.5,549C 470.454,547.02 476.12,544.52 481.5,541.5C 476.959,545.607 471.626,548.44 465.5,550C 455.394,571.718 438.727,579.384 415.5,573C 405.278,568.279 397.945,560.779 393.5,550.5C 377.549,546.881 367.549,537.215 363.5,521.5C 364.338,521.158 364.672,520.492 364.5,519.5C 365.331,507.34 365.831,495.007 366,482.5C 367.267,486.336 369.267,489.669 372,492.5C 372.687,494.568 372.52,496.568 371.5,498.5C 372.052,500.333 372.885,502 374,503.5C 374.172,497.319 374.672,491.319 375.5,485.5 Z"/></g>
<g><path style="opacity:1" fill="#d6dce1" d="M 408.5,551.5 C 422.327,550.339 436.327,550.173 450.5,551C 441.517,563.044 430.184,565.71 416.5,559C 413.308,556.972 410.641,554.472 408.5,551.5 Z"/></g>
<g><path style="opacity:1" fill="#d3dade" d="M 716.5,564.5 C 702.343,565.496 688.01,565.829 673.5,565.5C 673.333,551.496 673.5,537.496 674,523.5C 688.339,537.006 702.506,550.673 716.5,564.5 Z"/></g>
<g><path style="opacity:1" fill="#d5dbe0" d="M 726.5,515.5 C 726.829,529.01 726.496,542.344 725.5,555.5C 712.062,542.562 698.728,529.396 685.5,516C 699.163,515.5 712.829,515.333 726.5,515.5 Z"/></g>
<g><path style="opacity:1" fill="#d4dbe0" d="M 482.5,515.5 C 482.124,522.859 479.124,528.859 473.5,533.5C 470.284,534.938 466.951,536.105 463.5,537C 440.167,537.667 416.833,537.667 393.5,537C 383.143,533.483 377.477,526.316 376.5,515.5C 411.833,515.5 447.167,515.5 482.5,515.5 Z"/></g>
<g><path style="opacity:1" fill="#374049" d="M 317.5,296.5 C 315.171,303.643 313.671,310.976 313,318.5C 312.181,327.219 312.348,333.886 313.5,338.5C 314.588,344.021 315.588,349.688 316.5,355.5C 315.387,356.946 315.22,358.613 316,360.5C 319.473,373.777 325.306,385.777 333.5,396.5C 341.765,405.937 350.265,415.27 359,424.5C 363.71,431.265 367.876,438.265 371.5,445.5C 374.86,454.174 376.193,463.174 375.5,472.5C 411.167,472.5 446.833,472.5 482.5,472.5C 482.5,469.167 482.5,465.833 482.5,462.5C 483.167,460.167 483.833,457.833 484.5,455.5C 484.369,456.239 484.536,456.906 485,457.5C 485.973,455.608 486.64,453.608 487,451.5C 487.216,456.203 489.716,458.536 494.5,458.5C 494.667,478.169 494.5,497.836 494,517.5C 493.4,522.797 491.9,527.797 489.5,532.5C 488.232,536.767 485.565,539.767 481.5,541.5C 476.12,544.52 470.454,547.02 464.5,549C 463.874,549.75 463.374,550.584 463,551.5C 462.576,549.485 461.742,547.651 460.5,546C 462.272,545.855 463.939,544.689 465.5,542.5C 461.857,541.688 458.191,541.021 454.5,540.5C 452.354,541.894 450.021,542.56 447.5,542.5C 447.719,543.675 447.386,544.675 446.5,545.5C 444.232,546.544 441.899,546.711 439.5,546C 439.833,545.667 440.167,545.333 440.5,545C 438.699,544.683 438.366,544.016 439.5,543C 437.776,542.552 437.109,541.718 437.5,540.5C 436.205,541.098 434.872,541.598 433.5,542C 435.099,543.066 436.099,544.566 436.5,546.5C 438.766,547.314 441.1,547.814 443.5,548C 433.506,548.5 423.506,548.666 413.5,548.5C 413.649,547.448 413.483,546.448 413,545.5C 412.016,547.795 411.183,547.461 410.5,544.5C 413.16,541.93 412.494,540.43 408.5,540C 424.833,539.667 441.167,539.333 457.5,539C 463.668,539.223 469.001,537.39 473.5,533.5C 479.124,528.859 482.124,522.859 482.5,515.5C 448.336,514.668 414.002,514.168 379.5,514C 375.148,513.581 374.815,512.914 378.5,512C 377.167,511 377.167,510 378.5,509C 376.137,508.411 375.137,506.911 375.5,504.5C 411.168,504.667 446.835,504.5 482.5,504C 448.664,503.832 414.998,503.332 381.5,502.5C 415.337,502.832 449.004,502.498 482.5,501.5C 482.5,496.833 482.5,492.167 482.5,487.5C 482.5,487.167 482.5,486.833 482.5,486.5C 447.004,485.502 411.337,485.168 375.5,485.5C 374.672,491.319 374.172,497.319 374,503.5C 372.885,502 372.052,500.333 371.5,498.5C 372.52,496.568 372.687,494.568 372,492.5C 369.267,489.669 367.267,486.336 366,482.5C 365.831,495.007 365.331,507.34 364.5,519.5C 364.667,500.497 364.5,481.497 364,462.5C 362.661,453.958 359.494,446.291 354.5,439.5C 344.571,427.73 334.405,416.064 324,404.5C 304.977,376.087 298.144,345.087 303.5,311.5C 305.282,307.964 306.615,302.964 307.5,296.5C 311.838,296.378 312.172,296.045 308.5,295.5C 309.078,291.479 311.078,290.146 314.5,291.5C 314.538,298.041 315.204,298.041 316.5,291.5C 316.595,293.215 316.928,294.881 317.5,296.5 Z"/></g>
<g><path style="opacity:1" fill="#fafcfc" d="M 482.5,486.5 C 482.5,486.833 482.5,487.167 482.5,487.5C 447.5,487.5 412.5,487.5 377.5,487.5C 377.5,492.167 377.5,496.833 377.5,501.5C 412.5,501.5 447.5,501.5 482.5,501.5C 449.004,502.498 415.337,502.832 381.5,502.5C 379.833,502.5 378.167,502.5 376.5,502.5C 376.5,497.167 376.5,491.833 376.5,486.5C 411.833,486.5 447.167,486.5 482.5,486.5 Z"/></g>
<g><path style="opacity:1" fill="#080d14" d="M 502.5,440.5 C 499.444,446.501 497.277,452.834 496,459.5C 495.667,479.833 495.333,500.167 495,520.5C 494.397,525.176 492.564,529.176 489.5,532.5C 491.9,527.797 493.4,522.797 494,517.5C 494.5,497.836 494.667,478.169 494.5,458.5C 495.83,451.821 498.496,445.821 502.5,440.5 Z"/></g>
<g><path style="opacity:1" fill="#040a12" d="M 762.5,478.5 C 763.325,482.647 763.825,486.981 764,491.5C 764.833,492.333 765.667,493.167 766.5,494C 784.5,494.667 802.5,494.667 820.5,494C 821.745,493.209 823.078,492.709 824.5,492.5C 823.942,493.79 822.942,494.623 821.5,495C 802.833,495.667 784.167,495.667 765.5,495C 764.667,494.167 763.833,493.333 763,492.5C 762.501,487.845 762.334,483.179 762.5,478.5 Z"/></g>
<g><path style="opacity:1" fill="#d0d7dc" d="M 482.5,487.5 C 482.5,492.167 482.5,496.833 482.5,501.5C 447.5,501.5 412.5,501.5 377.5,501.5C 377.5,496.833 377.5,492.167 377.5,487.5C 412.5,487.5 447.5,487.5 482.5,487.5 Z"/></g>
<g><path style="opacity:1" fill="#a6afb4" d="M 375.5,485.5 C 411.337,485.168 447.004,485.502 482.5,486.5C 447.167,486.5 411.833,486.5 376.5,486.5C 376.5,491.833 376.5,497.167 376.5,502.5C 375.511,497.025 375.178,491.358 375.5,485.5 Z"/></g>
<g><path style="opacity:1" fill="#222932" d="M 354.5,439.5 C 359.494,446.291 362.661,453.958 364,462.5C 364.5,481.497 364.667,500.497 364.5,519.5C 364.672,520.492 364.338,521.158 363.5,521.5C 362.714,501.191 362.214,480.857 362,460.5C 360.585,453.086 358.085,446.086 354.5,439.5 Z"/></g>
<g><path style="opacity:1" fill="#fcec51" d="M 482.5,462.5 C 482.5,465.833 482.5,469.167 482.5,472.5C 446.833,472.5 411.167,472.5 375.5,472.5C 376.193,463.174 374.86,454.174 371.5,445.5C 371.435,445.062 371.601,444.728 372,444.5C 375.914,453.053 377.747,462.053 377.5,471.5C 412.167,471.5 446.833,471.5 481.5,471.5C 480.994,466.3 481.327,463.3 482.5,462.5 Z"/></g>
<g><path style="opacity:1" fill="#d5dce0" d="M 726.5,464.5 C 726.829,477.677 726.495,490.677 725.5,503.5C 712.829,503.667 700.162,503.5 687.5,503C 700.368,489.965 713.368,477.131 726.5,464.5 Z"/></g>
<g><path style="opacity:1" fill="#f4f7f8" d="M 660.5,450.5 C 660.5,455.5 660.5,460.5 660.5,465.5C 619.33,465.832 578.33,465.499 537.5,464.5C 537.833,464.5 538.167,464.5 538.5,464.5C 578.833,464.5 619.167,464.5 659.5,464.5C 659.5,460.5 659.5,456.5 659.5,452.5C 624.832,452.333 590.165,452.5 555.5,453C 553.595,454.421 551.595,455.588 549.5,456.5C 551.004,454.164 553.004,452.331 555.5,451C 590.498,450.5 625.498,450.333 660.5,450.5 Z"/></g>
<g><path style="opacity:1" fill="#232b34" d="M 822.5,438.5 C 824.371,438.859 825.871,439.859 827,441.5C 827.667,457.833 827.667,474.167 827,490.5C 826.292,491.381 825.458,492.047 824.5,492.5C 825.638,475.544 825.805,458.544 825,441.5C 824.5,441 824,440.5 823.5,440C 816.833,439.667 810.167,439.333 803.5,439C 809.825,438.5 816.158,438.334 822.5,438.5 Z"/></g>
<g><path style="opacity:1" fill="#e1e6e9" d="M 739.5,450.5 C 746.833,450.5 754.167,450.5 761.5,450.5C 761.5,455.5 761.5,460.5 761.5,465.5C 754.167,465.5 746.833,465.5 739.5,465.5C 739.5,460.5 739.5,455.5 739.5,450.5 Z"/></g>
<g><path style="opacity:1" fill="#a0def0" d="M 815.5,449.5 C 815.5,460.833 815.5,472.167 815.5,483.5C 801.833,483.5 788.167,483.5 774.5,483.5C 774.5,472.167 774.5,460.833 774.5,449.5C 788.167,449.5 801.833,449.5 815.5,449.5 Z"/></g>
<g><path style="opacity:1" fill="#d0d7dc" d="M 538.5,464.5 C 541.627,461.102 545.293,458.435 549.5,456.5C 551.595,455.588 553.595,454.421 555.5,453C 590.165,452.5 624.832,452.333 659.5,452.5C 659.5,456.5 659.5,460.5 659.5,464.5C 619.167,464.5 578.833,464.5 538.5,464.5 Z"/></g>
<g><path style="opacity:1" fill="#97d0ed" d="M 776.5,451.5 C 788.833,451.5 801.167,451.5 813.5,451.5C 813.5,461.5 813.5,471.5 813.5,481.5C 801.167,481.5 788.833,481.5 776.5,481.5C 776.5,471.5 776.5,461.5 776.5,451.5 Z"/></g>
<g><path style="opacity:1" fill="#d4dadf" d="M 720.5,451.5 C 705.473,466.194 690.473,480.861 675.5,495.5C 674.504,480.342 674.17,465.009 674.5,449.5C 690.17,449.333 705.837,449.5 721.5,450C 720.944,450.383 720.611,450.883 720.5,451.5 Z"/></g>
<g><path style="opacity:1" fill="#39424b" d="M 739.5,449.5 C 737.744,450.552 737.077,452.219 737.5,454.5C 734.687,454.452 732.021,453.785 729.5,452.5C 728.719,453.729 728.219,455.062 728,456.5C 726.667,456.5 725.333,456.5 724,456.5C 723.581,455.328 722.915,454.328 722,453.5C 719.904,454.715 720.071,455.549 722.5,456C 721.476,458.548 720.31,461.048 719,463.5C 718.801,461.598 717.967,460.098 716.5,459C 717.416,458.626 718.25,458.126 719,457.5C 720.087,459.932 720.587,459.598 720.5,456.5C 719.448,456.649 718.448,456.483 717.5,456C 718.833,454.667 720.167,453.333 721.5,452C 721.272,451.601 720.938,451.435 720.5,451.5C 720.611,450.883 720.944,450.383 721.5,450C 705.837,449.5 690.17,449.333 674.5,449.5C 674.17,465.009 674.504,480.342 675.5,495.5C 675.435,495.938 675.601,496.272 676,496.5C 677.333,495.167 678.667,493.833 680,492.5C 680.293,494.925 681.459,496.758 683.5,498C 682.167,498.667 682.167,499.333 683.5,500C 681.699,500.317 681.366,500.984 682.5,502C 679.051,502.37 675.884,502.203 673,501.5C 672.626,502.416 672.126,503.25 671.5,504C 672.634,505.016 672.301,505.683 670.5,506C 673.054,508.269 673.054,510.602 670.5,513C 670.833,514 671.167,515 671.5,516C 669.336,516.914 667.336,518.081 665.5,519.5C 664.914,519.291 664.414,518.957 664,518.5C 663.333,538.167 663.333,557.833 664,577.5C 664.333,577.167 664.667,576.833 665,576.5C 666.667,578.833 668.667,580.833 671,582.5C 671.333,581.167 671.667,579.833 672,578.5C 672.667,591.833 672.667,605.167 672,618.5C 671.626,617.584 671.126,616.75 670.5,616C 671.509,610.857 671.676,605.357 671,599.5C 670,601.167 669,602.833 668,604.5C 667.667,603.833 667.333,603.167 667,602.5C 666.683,604.301 666.016,604.634 665,603.5C 664.333,605.167 664.333,606.833 665,608.5C 665.249,607.376 665.749,606.376 666.5,605.5C 668.416,607.795 667.749,609.795 664.5,611.5C 663.667,659.497 663.167,707.497 663,755.5C 662.667,663.167 662.333,570.833 662,478.5C 661.833,571.001 661.333,663.334 660.5,755.5C 660.5,663.167 660.5,570.833 660.5,478.5C 636.167,478.5 611.833,478.5 587.5,478.5C 587.5,507.5 587.5,536.5 587.5,565.5C 592.642,566.638 596.309,569.638 598.5,574.5C 603.236,580.742 608.569,586.576 614.5,592C 617.334,592.045 619.834,592.879 622,594.5C 622.5,614.497 622.667,634.497 622.5,654.5C 622.672,655.492 622.338,656.158 621.5,656.5C 596.005,655.502 570.339,655.169 544.5,655.5C 543.542,655.047 542.708,654.381 542,653.5C 541.333,633.833 541.333,614.167 542,594.5C 544.714,593.004 547.547,592.004 550.5,591.5C 558.492,583.008 566.658,574.675 575,566.5C 575.5,537.169 575.667,507.835 575.5,478.5C 556.497,478.667 537.497,478.5 518.5,478C 513.374,475.447 512.207,471.614 515,466.5C 515.816,465.177 516.983,464.511 518.5,464.5C 520.144,464.714 521.644,464.38 523,463.5C 523.306,465.906 524.139,468.073 525.5,470C 522.84,471.676 522.84,473.343 525.5,475C 527.473,475.495 529.473,475.662 531.5,475.5C 532.414,472.644 534.081,470.144 536.5,468C 578.002,467.833 619.335,467.333 660.5,466.5C 660.5,466.167 660.5,465.833 660.5,465.5C 660.5,460.5 660.5,455.5 660.5,450.5C 660.5,449.5 660.5,448.5 660.5,447.5C 662.597,447.997 664.43,448.33 666,448.5C 667.322,446.526 666.822,444.692 664.5,443C 665.167,442.333 665.833,441.667 666.5,441C 637.833,440.667 609.167,440.333 580.5,440C 618.167,439.667 655.833,439.333 693.5,439C 694.056,438.617 694.389,438.117 694.5,437.5C 694.333,417.164 694.5,396.831 695,376.5C 695.851,379.612 697.017,379.946 698.5,377.5C 700.326,377.92 702.326,377.92 704.5,377.5C 704.173,398.076 704.507,418.576 705.5,439C 731.167,439.333 756.833,439.667 782.5,440C 774.147,440.168 765.813,440.668 757.5,441.5C 756.603,444.565 754.603,446.398 751.5,447C 755.167,447.333 758.833,447.667 762.5,448C 754.656,448.171 746.989,448.671 739.5,449.5 Z"/></g>
<g><path style="opacity:1" fill="#070b13" d="M 598.5,574.5 C 604.298,579.797 609.965,585.297 615.5,591C 618.334,591.045 620.834,591.879 623,593.5C 623.829,614.004 623.663,634.337 622.5,654.5C 622.667,634.497 622.5,614.497 622,594.5C 619.834,592.879 617.334,592.045 614.5,592C 608.569,586.576 603.236,580.742 598.5,574.5 Z"/></g>
<g><path style="opacity:1" fill="#fed354" d="M 552.5,603.5 C 572.167,603.5 591.833,603.5 611.5,603.5C 611.5,617.5 611.5,631.5 611.5,645.5C 591.833,645.5 572.167,645.5 552.5,645.5C 552.5,631.5 552.5,617.5 552.5,603.5 Z"/></g>
<g><path style="opacity:1" fill="#f5bc52" d="M 554.5,605.5 C 572.845,605.167 591.179,605.5 609.5,606.5C 610.48,618.783 610.813,631.116 610.5,643.5C 591.833,643.5 573.167,643.5 554.5,643.5C 554.5,630.833 554.5,618.167 554.5,605.5 Z"/></g>
<g><path style="opacity:1" fill="#f8f9f9" d="M 582.5,576.5 C 587.631,581.13 592.631,585.963 597.5,591C 587.5,591.667 577.5,591.667 567.5,591C 572.395,585.936 577.395,581.103 582.5,576.5 Z"/></g>
<g><path style="opacity:1" fill="#889299" d="M 537.5,464.5 C 578.33,465.499 619.33,465.832 660.5,465.5C 660.5,465.833 660.5,466.167 660.5,466.5C 619.161,466.833 577.828,466.5 536.5,465.5C 536.624,464.893 536.957,464.56 537.5,464.5 Z"/></g>
<g><path style="opacity:1" fill="#2b333a" d="M 715.5,368.5 C 713.629,368.141 712.129,367.141 711,365.5C 710.691,366.766 710.191,367.933 709.5,369C 710.364,370.137 711.364,371.47 712.5,373C 712.572,375.176 712.238,377.176 711.5,379C 714.288,380.719 716.621,382.885 718.5,385.5C 714.332,383.577 710.665,380.91 707.5,377.5C 707.44,376.957 707.107,376.624 706.5,376.5C 705.172,396.996 705.172,417.329 706.5,437.5C 731.836,437.667 757.169,437.5 782.5,437C 781.619,436.292 780.953,435.458 780.5,434.5C 781.873,434.657 783.207,434.49 784.5,434C 783.304,433.346 783.304,432.846 784.5,432.5C 785.415,433.328 786.081,434.328 786.5,435.5C 783.922,435.677 783.922,436.843 786.5,439C 785.833,439.333 785.167,439.667 784.5,440C 785.641,440.741 785.641,441.575 784.5,442.5C 786.391,443.311 787.724,444.644 788.5,446.5C 783.868,447.328 779.202,447.828 774.5,448C 788.339,448.169 802.006,448.669 815.5,449.5C 801.833,449.5 788.167,449.5 774.5,449.5C 774.5,460.833 774.5,472.167 774.5,483.5C 788.167,483.5 801.833,483.5 815.5,483.5C 801.673,484.661 787.673,484.827 773.5,484C 772.175,472.197 772.175,460.363 773.5,448.5C 773.167,448.167 772.833,447.833 772.5,447.5C 771.33,451.939 769.83,452.272 768,448.5C 767.082,450.632 765.749,451.299 764,450.5C 763.667,455.833 763.333,461.167 763,466.5C 762.501,460.843 762.334,455.176 762.5,449.5C 754.833,449.5 747.167,449.5 739.5,449.5C 746.989,448.671 754.656,448.171 762.5,448C 758.833,447.667 755.167,447.333 751.5,447C 754.603,446.398 756.603,444.565 757.5,441.5C 765.813,440.668 774.147,440.168 782.5,440C 756.833,439.667 731.167,439.333 705.5,439C 704.507,418.576 704.173,398.076 704.5,377.5C 702.326,377.92 700.326,377.92 698.5,377.5C 697.017,379.946 695.851,379.612 695,376.5C 694.5,396.831 694.333,417.164 694.5,437.5C 694.167,437.5 693.833,437.5 693.5,437.5C 693.833,417.156 693.5,396.822 692.5,376.5C 691.893,376.624 691.56,376.957 691.5,377.5C 688.622,379.105 685.622,380.439 682.5,381.5C 684.927,379.442 687.593,377.609 690.5,376C 687.833,375.333 687.833,374.667 690.5,374C 689.333,372.833 688.167,371.667 687,370.5C 686.383,369.551 686.549,368.718 687.5,368C 683.479,369.166 679.479,370.666 675.5,372.5C 680.605,369.108 685.938,365.941 691.5,363C 697.5,362.333 703.5,362.333 709.5,363C 711.996,364.331 713.996,366.164 715.5,368.5 Z"/></g>
<g><path style="opacity:1" fill="#6e757d" d="M 707.5,377.5 C 706.503,397.326 706.17,417.326 706.5,437.5C 705.172,417.329 705.172,396.996 706.5,376.5C 707.107,376.624 707.44,376.957 707.5,377.5 Z"/></g>
<g><path style="opacity:1" fill="#343c44" d="M 292.5,399.5 C 300.018,399.887 302.518,403.554 300,410.5C 294.074,415.214 288.241,420.047 282.5,425C 274.246,428.081 270.746,425.248 272,416.5C 278.627,410.457 285.461,404.79 292.5,399.5 Z"/></g>
<g><path style="opacity:1" fill="#8a9096" d="M 691.5,377.5 C 691.56,376.957 691.893,376.624 692.5,376.5C 693.5,396.822 693.833,417.156 693.5,437.5C 693.167,437.5 692.833,437.5 692.5,437.5C 692.83,417.326 692.497,397.326 691.5,377.5 Z"/></g>
<g><path style="opacity:1" fill="#262347" d="M 316.5,355.5 C 319.706,370.237 325.372,383.904 333.5,396.5C 325.306,385.777 319.473,373.777 316,360.5C 315.22,358.613 315.387,356.946 316.5,355.5 Z"/></g>
<g><path style="opacity:1" fill="#fcfcfc" d="M 707.5,377.5 C 710.665,380.91 714.332,383.577 718.5,385.5C 738.586,402.588 759.253,418.922 780.5,434.5C 780.953,435.458 781.619,436.292 782.5,437C 757.169,437.5 731.836,437.667 706.5,437.5C 706.17,417.326 706.503,397.326 707.5,377.5 Z"/></g>
<g><path style="opacity:1" fill="#fcfcfc" d="M 691.5,377.5 C 692.497,397.326 692.83,417.326 692.5,437.5C 655.498,437.667 618.498,437.5 581.5,437C 615.518,418.994 649.185,400.494 682.5,381.5C 685.622,380.439 688.622,379.105 691.5,377.5 Z"/></g>
<g><path style="opacity:1" fill="#323b43" d="M 682.5,381.5 C 649.185,400.494 615.518,418.994 581.5,437C 618.498,437.5 655.498,437.667 692.5,437.5C 692.833,437.5 693.167,437.5 693.5,437.5C 693.833,437.5 694.167,437.5 694.5,437.5C 694.389,438.117 694.056,438.617 693.5,439C 655.833,439.333 618.167,439.667 580.5,440C 609.167,440.333 637.833,440.667 666.5,441C 665.833,441.667 665.167,442.333 664.5,443C 666.822,444.692 667.322,446.526 666,448.5C 664.43,448.33 662.597,447.997 660.5,447.5C 660.5,448.5 660.5,449.5 660.5,450.5C 625.498,450.333 590.498,450.5 555.5,451C 553.004,452.331 551.004,454.164 549.5,456.5C 545.293,458.435 541.627,461.102 538.5,464.5C 538.167,464.5 537.833,464.5 537.5,464.5C 536.957,464.56 536.624,464.893 536.5,465.5C 577.828,466.5 619.161,466.833 660.5,466.5C 619.335,467.333 578.002,467.833 536.5,468C 534.081,470.144 532.414,472.644 531.5,475.5C 529.473,475.662 527.473,475.495 525.5,475C 522.84,473.343 522.84,471.676 525.5,470C 524.139,468.073 523.306,465.906 523,463.5C 521.644,464.38 520.144,464.714 518.5,464.5C 526.763,457.685 535.096,450.852 543.5,444C 553.833,438.167 564.167,432.333 574.5,426.5C 568.243,421.748 562.41,416.415 557,410.5C 556.38,402.545 559.88,400.045 567.5,403C 574.297,408.148 580.797,413.648 587,419.5C 616.617,403.943 646.117,388.276 675.5,372.5C 679.479,370.666 683.479,369.166 687.5,368C 686.549,368.718 686.383,369.551 687,370.5C 688.167,371.667 689.333,372.833 690.5,374C 687.833,374.667 687.833,375.333 690.5,376C 687.593,377.609 684.927,379.442 682.5,381.5 Z"/></g>
<g><path style="opacity:1" fill="#384048" d="M 251.5,326.5 C 261.172,326.334 270.839,326.5 280.5,327C 281.667,327.5 282.5,328.333 283,329.5C 284.458,333.781 283.292,336.947 279.5,339C 270.5,339.667 261.5,339.667 252.5,339C 247.603,335.138 247.27,330.972 251.5,326.5 Z"/></g>
<g><path style="opacity:1" fill="#353e46" d="M 577.5,325.5 C 586.839,325.334 596.173,325.5 605.5,326C 611.596,332.617 610.262,336.951 601.5,339C 593.445,339.822 585.445,339.488 577.5,338C 573.547,333.835 573.547,329.669 577.5,325.5 Z"/></g>
<g><path style="opacity:1" fill="#363e48" d="M 502.5,440.5 C 498.496,445.821 495.83,451.821 494.5,458.5C 489.716,458.536 487.216,456.203 487,451.5C 486.64,453.608 485.973,455.608 485,457.5C 484.536,456.906 484.369,456.239 484.5,455.5C 487.254,443.658 492.421,432.992 500,423.5C 515.078,409.763 527.078,393.763 536,375.5C 555.462,313.712 538.296,265.046 484.5,229.5C 478.023,224.939 470.857,221.606 463,219.5C 462.235,219.57 461.735,219.903 461.5,220.5C 453.749,218.714 446.082,217.047 438.5,215.5C 432.223,214.352 424.556,214.186 415.5,215C 411.535,215.108 407.868,215.941 404.5,217.5C 365.91,227.747 338.244,251.08 321.5,287.5C 319.795,290.261 318.462,293.261 317.5,296.5C 316.928,294.881 316.595,293.215 316.5,291.5C 315.204,298.041 314.538,298.041 314.5,291.5C 311.078,290.146 309.078,291.479 308.5,295.5C 312.172,296.045 311.838,296.378 307.5,296.5C 306.615,302.964 305.282,307.964 303.5,311.5C 312.702,260.457 341.702,225.957 390.5,208C 435.064,196.379 475.397,204.712 511.5,233C 555.464,274.36 567.298,323.527 547,380.5C 543.011,389.82 538.011,398.487 532,406.5C 521.928,417.73 512.095,429.064 502.5,440.5 Z"/></g>
<g><path style="opacity:1" fill="#1b1c46" d="M 321.5,287.5 C 315.485,303.95 312.818,320.95 313.5,338.5C 312.348,333.886 312.181,327.219 313,318.5C 313.671,310.976 315.171,303.643 317.5,296.5C 318.462,293.261 319.795,290.261 321.5,287.5 Z"/></g>
<g><path style="opacity:1" fill="#333c44" d="M 276.5,238.5 C 278.308,238.491 279.975,238.991 281.5,240C 287.667,244.833 293.833,249.667 300,254.5C 302.857,261.967 300.357,265.801 292.5,266C 286,260.833 279.5,255.667 273,250.5C 270.255,245.248 271.422,241.248 276.5,238.5 Z"/></g>
<g><path style="opacity:1" fill="#333b43" d="M 578.5,238.5 C 586.018,238.887 588.518,242.554 586,249.5C 579.926,254.786 573.759,259.952 567.5,265C 561.991,267.412 558.324,265.746 556.5,260C 556.625,258.373 557.125,256.873 558,255.5C 565.023,249.969 571.857,244.302 578.5,238.5 Z"/></g>
<g><path style="opacity:1" fill="#1c1f47" d="M 461.5,220.5 C 461.735,219.903 462.235,219.57 463,219.5C 470.857,221.606 478.023,224.939 484.5,229.5C 476.945,226.223 469.278,223.223 461.5,220.5 Z"/></g>
<g><path style="opacity:1" fill="#fdcb52" d="M 438.5,215.5 C 446.082,217.047 453.749,218.714 461.5,220.5C 469.278,223.223 476.945,226.223 484.5,229.5C 538.296,265.046 555.462,313.712 536,375.5C 527.078,393.763 515.078,409.763 500,423.5C 492.421,432.992 487.254,443.658 484.5,455.5C 483.833,457.833 483.167,460.167 482.5,462.5C 481.327,463.3 480.994,466.3 481.5,471.5C 446.833,471.5 412.167,471.5 377.5,471.5C 377.747,462.053 375.914,453.053 372,444.5C 371.601,444.728 371.435,445.062 371.5,445.5C 367.876,438.265 363.71,431.265 359,424.5C 350.265,415.27 341.765,405.937 333.5,396.5C 325.372,383.904 319.706,370.237 316.5,355.5C 315.588,349.688 314.588,344.021 313.5,338.5C 312.818,320.95 315.485,303.95 321.5,287.5C 338.244,251.08 365.91,227.747 404.5,217.5C 415.765,215.867 427.098,215.2 438.5,215.5 Z"/></g>
<g><path style="opacity:1" fill="#0e1249" d="M 408.5,401.5 C 409.699,407.964 411.032,414.464 412.5,421C 424.213,421.791 435.879,421.624 447.5,420.5C 447.389,421.117 447.056,421.617 446.5,422C 434.833,422.667 423.167,422.667 411.5,422C 410.874,421.25 410.374,420.416 410,419.5C 409.301,413.511 408.801,407.511 408.5,401.5 Z"/></g>
<g><path style="opacity:1" fill="#efda53" d="M 497.5,370.5 C 502.909,373.994 505.076,378.994 504,385.5C 496.527,392.973 489.027,400.473 481.5,408C 476.098,410.479 471.765,409.146 468.5,404C 466.833,403.667 465.167,403.333 463.5,403C 464.167,402.667 464.833,402.333 465.5,402C 464.333,400.833 463.167,399.667 462,398.5C 459.122,399.689 456.288,401.022 453.5,402.5C 452.239,406.061 451.406,409.728 451,413.5C 450.51,412.207 450.343,410.873 450.5,409.5C 450.337,407.143 450.503,404.81 451,402.5C 454.153,400.168 457.653,398.501 461.5,397.5C 465.284,400.109 468.951,402.943 472.5,406C 475.03,407.422 477.697,407.755 480.5,407C 488,399.5 495.5,392 503,384.5C 503.667,382.833 503.667,381.167 503,379.5C 501.144,376.444 499.311,373.444 497.5,370.5 Z"/></g>
<g><path style="opacity:1" fill="#f9ea53" d="M 496.5,298.5 C 496.249,300.17 495.582,301.67 494.5,303C 495.929,305.69 496.929,308.523 497.5,311.5C 503.568,311.789 509.568,312.622 515.5,314C 516.931,314.465 518.097,315.299 519,316.5C 519.822,328.578 519.655,339.911 518.5,350.5C 518.667,339.495 518.5,328.495 518,317.5C 517.097,316.299 515.931,315.465 514.5,315C 508.295,314.792 502.295,313.626 496.5,311.5C 495.441,308.382 494.108,305.382 492.5,302.5C 493.521,300.812 494.855,299.479 496.5,298.5 Z"/></g>
<g><path style="opacity:1" fill="#0a1047" d="M 342.5,316.5 C 341.376,328.121 341.209,339.787 342,351.5C 343.622,352.099 345.122,352.766 346.5,353.5C 344.533,353.739 342.699,353.406 341,352.5C 340.333,340.833 340.333,329.167 341,317.5C 341.383,316.944 341.883,316.611 342.5,316.5 Z"/></g>
<g><path style="opacity:1" fill="#363f49" d="M 448.5,251.5 C 449.114,256.64 450.114,261.806 451.5,267C 454.715,268.774 458.048,270.274 461.5,271.5C 465.685,267.481 470.018,263.647 474.5,260C 476.167,259.333 477.833,259.333 479.5,260C 487.387,267.887 495.221,275.721 503,283.5C 503.667,285.167 503.667,286.833 503,288.5C 500.563,291.72 498.397,295.053 496.5,298.5C 494.855,299.479 493.521,300.812 492.5,302.5C 494.108,305.382 495.441,308.382 496.5,311.5C 502.295,313.626 508.295,314.792 514.5,315C 515.931,315.465 517.097,316.299 518,317.5C 518.5,328.495 518.667,339.495 518.5,350.5C 517.733,351.172 517.066,352.005 516.5,353C 509.846,354.073 503.18,355.073 496.5,356C 495.361,359.083 494.028,362.083 492.5,365C 493.833,367.191 495.5,369.024 497.5,370.5C 499.311,373.444 501.144,376.444 503,379.5C 503.667,381.167 503.667,382.833 503,384.5C 495.5,392 488,399.5 480.5,407C 477.697,407.755 475.03,407.422 472.5,406C 468.951,402.943 465.284,400.109 461.5,397.5C 457.653,398.501 454.153,400.168 451,402.5C 450.503,404.81 450.337,407.143 450.5,409.5C 449.679,412.641 449.179,415.975 449,419.5C 448.617,420.056 448.117,420.389 447.5,420.5C 435.879,421.624 424.213,421.791 412.5,421C 411.032,414.464 409.699,407.964 408.5,401.5C 404.516,400.178 400.516,398.844 396.5,397.5C 392.048,400.778 387.715,404.278 383.5,408C 381.833,408.667 380.167,408.667 378.5,408C 370.667,400.167 362.833,392.333 355,384.5C 354.294,382.029 354.627,379.695 356,377.5C 359.291,373.741 362.457,369.907 365.5,366C 364.264,362.793 362.931,359.626 361.5,356.5C 356.349,355.574 351.349,354.574 346.5,353.5C 345.122,352.766 343.622,352.099 342,351.5C 341.209,339.787 341.376,328.121 342.5,316.5C 348.824,314.758 355.324,313.424 362,312.5C 363.029,309.61 364.195,306.776 365.5,304C 362.954,299.079 359.787,294.579 356,290.5C 354.627,288.305 354.294,285.971 355,283.5C 362.5,276 370,268.5 377.5,261C 379.5,260.333 381.5,260.333 383.5,261C 387.759,264.282 391.759,267.782 395.5,271.5C 397.013,272.309 398.68,272.476 400.5,272C 399.549,272.718 399.383,273.551 400,274.5C 400.923,273.241 401.757,271.908 402.5,270.5C 404.711,269.877 406.711,268.877 408.5,267.5C 409.663,260.863 410.663,254.196 411.5,247.5C 423.171,247.333 434.838,247.5 446.5,248C 447.249,249.734 447.749,251.567 448,253.5C 448.464,252.906 448.631,252.239 448.5,251.5 Z"/></g>
<g><path style="opacity:1" fill="#d2dade" d="M 420.5,257.5 C 426.206,257.171 431.872,257.505 437.5,258.5C 438.167,264.167 438.833,269.833 439.5,275.5C 446.467,277.991 453.133,281.158 459.5,285C 461.167,285.667 462.833,285.667 464.5,285C 468.356,281.9 472.023,278.567 475.5,275C 476.167,274.333 476.833,274.333 477.5,275C 481.5,279 485.5,283 489.5,287C 485.224,291.433 481.558,296.266 478.5,301.5C 482.425,308.022 485.258,315.022 487,322.5C 493.235,324.296 499.568,325.629 506,326.5C 506.499,331.823 506.666,337.156 506.5,342.5C 500.477,342.669 494.477,343.169 488.5,344C 487.667,344.833 486.833,345.667 486,346.5C 484.459,353.408 481.959,359.908 478.5,366C 482.152,370.989 485.819,375.989 489.5,381C 485.333,385.167 481.167,389.333 477,393.5C 472.609,389.438 467.943,385.771 463,382.5C 456.443,386.03 449.609,388.863 442.5,391C 441.299,391.903 440.465,393.069 440,394.5C 438.933,399.806 438.099,405.139 437.5,410.5C 431.833,410.5 426.167,410.5 420.5,410.5C 420.529,404.79 420.029,399.123 419,393.5C 418.5,392.333 417.667,391.5 416.5,391C 408.965,389.151 401.799,386.318 395,382.5C 390.845,385.987 386.678,389.487 382.5,393C 377.532,390.218 373.198,386.384 369.5,381.5C 373.256,377.087 376.589,372.42 379.5,367.5C 376.129,360.752 373.295,353.752 371,346.5C 370.5,346 370,345.5 369.5,345C 363.789,344.381 358.122,343.548 352.5,342.5C 352.5,337.167 352.5,331.833 352.5,326.5C 358.528,325.923 364.528,325.089 370.5,324C 373.209,316.578 376.209,309.245 379.5,302C 375.848,297.011 372.181,292.011 368.5,287C 372.667,282.833 376.833,278.667 381,274.5C 385.433,278.776 390.266,282.442 395.5,285.5C 403.315,282.064 411.148,278.73 419,275.5C 419.699,269.511 420.199,263.511 420.5,257.5 Z"/></g>
<g><path style="opacity:1" fill="#363f49" d="M 420.5,296.5 C 444.761,294.028 460.261,304.361 467,327.5C 468.91,351.197 458.41,366.031 435.5,372C 413.28,374.09 398.78,364.59 392,343.5C 388.774,319.929 398.274,304.263 420.5,296.5 Z"/></g>
<g><path style="opacity:1" fill="#fccc52" d="M 424.5,308.5 C 439.057,307.686 448.891,314.019 454,327.5C 456.55,347.074 448.05,358.074 428.5,360.5C 409.798,357.301 401.632,346.301 404,327.5C 407.849,317.813 414.683,311.479 424.5,308.5 Z"/></g>
<g><path style="opacity:1" fill="#232d49" d="M 448.5,251.5 C 448.631,252.239 448.464,252.906 448,253.5C 447.749,251.567 447.249,249.734 446.5,248C 434.838,247.5 423.171,247.333 411.5,247.5C 410.663,254.196 409.663,260.863 408.5,267.5C 406.711,268.877 404.711,269.877 402.5,270.5C 401.757,271.908 400.923,273.241 400,274.5C 399.383,273.551 399.549,272.718 400.5,272C 398.68,272.476 397.013,272.309 395.5,271.5C 399.51,270.16 403.51,268.826 407.5,267.5C 408.332,260.843 409.165,254.177 410,247.5C 410.5,247 411,246.5 411.5,246C 423.167,245.333 434.833,245.333 446.5,246C 448.155,247.444 448.822,249.278 448.5,251.5 Z"/></g>
<g><path style="opacity:1" fill="#0d1a48" d="M 438.5,215.5 C 427.098,215.2 415.765,215.867 404.5,217.5C 407.868,215.941 411.535,215.108 415.5,215C 424.556,214.186 432.223,214.352 438.5,215.5 Z"/></g>
<g><path style="opacity:1" fill="#373f47" d="M 365.5,564.5 C 366.117,564.611 366.617,564.944 367,565.5C 367.5,581.83 367.667,598.163 367.5,614.5C 409.337,614.168 451.003,614.501 492.5,615.5C 450.832,615.333 409.165,615.5 367.5,616C 409.5,616.333 451.5,616.667 493.5,617C 494.161,637.264 494.828,657.431 495.5,677.5C 524.169,677.333 552.835,677.5 581.5,678C 582.416,678.278 583.082,678.778 583.5,679.5C 582.957,679.56 582.624,679.893 582.5,680.5C 583.16,716.627 583.827,752.627 584.5,788.5C 651.163,788.667 651.163,789.167 584.5,790C 596.5,790.333 608.5,790.667 620.5,791C 621.5,791.333 622.5,791.667 623.5,792C 622.359,792.741 622.359,793.575 623.5,794.5C 622.263,795.281 621.263,796.281 620.5,797.5C 629.125,798.062 637.125,798.395 644.5,798.5C 645.647,798.182 646.481,797.516 647,796.5C 647.333,796.833 647.667,797.167 648,797.5C 648.707,795.919 649.54,794.419 650.5,793C 649.062,792.781 647.729,792.281 646.5,791.5C 680.828,790.667 715.162,790.167 749.5,790C 715.5,789.667 681.5,789.333 647.5,789C 681.669,788.832 715.669,788.332 749.5,787.5C 749.5,780.833 749.5,774.167 749.5,767.5C 750.328,773.987 750.828,780.654 751,787.5C 752.916,785.791 755.082,784.457 757.5,783.5C 758.329,788.467 758.829,793.467 759,798.5C 759.667,785.167 759.667,771.833 759,758.5C 758.282,757.549 757.449,757.383 756.5,758C 758.34,760.826 759.006,763.993 758.5,767.5C 754.22,767.554 751.886,765.554 751.5,761.5C 752.552,761.649 753.552,761.483 754.5,761C 752.51,759.249 750.177,758.249 747.5,758C 750.167,757.667 752.833,757.333 755.5,757C 749.984,756.827 744.651,756.327 739.5,755.5C 745.509,755.334 751.509,755.501 757.5,756C 759.333,756.5 760.5,757.667 761,759.5C 761.667,772.5 761.667,785.5 761,798.5C 760.292,799.381 759.458,800.047 758.5,800.5C 591.667,799.667 424.667,799.167 257.5,799C 254.833,796 254.833,793 257.5,790C 280.157,789.168 280.157,788.668 257.5,788.5C 262.975,787.511 268.642,787.178 274.5,787.5C 274.333,713.499 274.5,639.499 275,565.5C 275.383,564.944 275.883,564.611 276.5,564.5C 306.137,563.174 335.804,563.174 365.5,564.5 Z"/></g>
<g><path style="opacity:1" fill="#536a77" d="M 389.5,739.5 C 389.5,755.5 389.5,771.5 389.5,787.5C 382.167,788.833 374.833,788.833 367.5,787.5C 374.5,787.5 381.5,787.5 388.5,787.5C 388.17,771.325 388.504,755.325 389.5,739.5 Z"/></g>
<g><path style="opacity:1" fill="#7d878e" d="M 497.5,747.5 C 509.989,746.505 522.656,746.171 535.5,746.5C 535.5,760.5 535.5,774.5 535.5,788.5C 522.656,788.829 509.989,788.495 497.5,787.5C 509.833,787.5 522.167,787.5 534.5,787.5C 534.5,774.167 534.5,760.833 534.5,747.5C 522.167,747.5 509.833,747.5 497.5,747.5 Z"/></g>
<g><path style="opacity:1" fill="#baf9fe" d="M 394.5,734.5 C 391.833,735.167 390.167,736.833 389.5,739.5C 388.504,755.325 388.17,771.325 388.5,787.5C 381.5,787.5 374.5,787.5 367.5,787.5C 367.5,787.167 367.5,786.833 367.5,786.5C 374.167,786.5 380.833,786.5 387.5,786.5C 387.333,770.497 387.5,754.497 388,738.5C 388.785,736.714 389.951,735.214 391.5,734C 410.743,732.359 430.077,732.025 449.5,733C 430.995,733.168 412.662,733.668 394.5,734.5 Z"/></g>
<g><path style="opacity:1" fill="#f3f6f7" d="M 749.5,767.5 C 749.5,774.167 749.5,780.833 749.5,787.5C 715.5,787.5 681.5,787.5 647.5,787.5C 647.5,780.833 647.5,774.167 647.5,767.5C 681.5,767.5 715.5,767.5 749.5,767.5 Z"/></g>
<g><path style="opacity:1" fill="#d0d7dc" d="M 649.5,768.5 C 682.167,768.5 714.833,768.5 747.5,768.5C 747.5,774.5 747.5,780.5 747.5,786.5C 714.833,786.5 682.167,786.5 649.5,786.5C 649.5,780.5 649.5,774.5 649.5,768.5 Z"/></g>
<g><path style="opacity:1" fill="#232328" d="M 394.5,734.5 C 413.503,734.333 432.503,734.5 451.5,735C 452.701,735.903 453.535,737.069 454,738.5C 454.5,754.83 454.667,771.163 454.5,787.5C 464.325,788.33 474.325,788.83 484.5,789C 474.151,789.832 463.817,789.666 453.5,788.5C 452.681,771.544 452.181,754.544 452,737.5C 451.5,737 451,736.5 450.5,736C 431.5,735.333 412.5,735.333 393.5,736C 392.667,736.833 391.833,737.667 391,738.5C 390.831,755.005 390.331,771.338 389.5,787.5C 389.5,771.5 389.5,755.5 389.5,739.5C 390.167,736.833 391.833,735.167 394.5,734.5 Z"/></g>
<g><path style="opacity:1" fill="#4f6576" d="M 571.5,689.5 C 572.498,722.329 572.832,755.329 572.5,788.5C 564.167,788.5 555.833,788.5 547.5,788.5C 547.5,771.833 547.5,755.167 547.5,738.5C 548.496,754.658 548.83,770.991 548.5,787.5C 556.167,787.5 563.833,787.5 571.5,787.5C 571.5,755.167 571.5,722.833 571.5,690.5C 571.5,690.167 571.5,689.833 571.5,689.5 Z"/></g>
<g><path style="opacity:1" fill="#f7fafb" d="M 497.5,748.5 C 497.5,748.167 497.5,747.833 497.5,747.5C 509.833,747.5 522.167,747.5 534.5,747.5C 534.5,760.833 534.5,774.167 534.5,787.5C 522.167,787.5 509.833,787.5 497.5,787.5C 497.5,787.167 497.5,786.833 497.5,786.5C 509.5,786.5 521.5,786.5 533.5,786.5C 533.5,773.833 533.5,761.167 533.5,748.5C 522.167,748.5 510.833,748.5 499.5,748.5C 499.667,760.838 499.5,773.171 499,785.5C 498.831,772.993 498.331,760.66 497.5,748.5 Z"/></g>
<g><path style="opacity:1" fill="#b9f9fd" d="M 571.5,690.5 C 571.5,722.833 571.5,755.167 571.5,787.5C 563.833,787.5 556.167,787.5 548.5,787.5C 548.83,770.991 548.496,754.658 547.5,738.5C 547.267,736.938 546.6,735.605 545.5,734.5C 547.411,734.574 548.578,735.574 549,737.5C 549.5,753.83 549.667,770.163 549.5,786.5C 556.5,786.5 563.5,786.5 570.5,786.5C 570.5,754.833 570.5,723.167 570.5,691.5C 542.831,691.667 515.165,691.5 487.5,691C 515.498,690.5 543.498,690.333 571.5,690.5 Z"/></g>
<g><path style="opacity:1" fill="#d2d9df" d="M 402.5,746.5 C 415.5,746.5 428.5,746.5 441.5,746.5C 441.5,760.167 441.5,773.833 441.5,787.5C 428.5,787.5 415.5,787.5 402.5,787.5C 402.5,773.833 402.5,760.167 402.5,746.5 Z"/></g>
<g><path style="opacity:1" fill="#97d0ed" d="M 483.5,686.5 C 483.833,686.5 484.167,686.5 484.5,686.5C 484.953,687.458 485.619,688.292 486.5,689C 514.831,689.5 543.165,689.667 571.5,689.5C 571.5,689.833 571.5,690.167 571.5,690.5C 543.498,690.333 515.498,690.5 487.5,691C 515.165,691.5 542.831,691.667 570.5,691.5C 570.5,723.167 570.5,754.833 570.5,786.5C 563.5,786.5 556.5,786.5 549.5,786.5C 549.667,770.163 549.5,753.83 549,737.5C 548.578,735.574 547.411,734.574 545.5,734.5C 526.164,734.333 506.83,734.5 487.5,735C 486.667,735.833 485.833,736.667 485,737.5C 484.5,754.163 484.333,770.83 484.5,787.5C 474.5,787.5 464.5,787.5 454.5,787.5C 454.667,771.163 454.5,754.83 454,738.5C 453.535,737.069 452.701,735.903 451.5,735C 432.503,734.5 413.503,734.333 394.5,734.5C 412.662,733.668 430.995,733.168 449.5,733C 430.077,732.025 410.743,732.359 391.5,734C 389.951,735.214 388.785,736.714 388,738.5C 387.5,754.497 387.333,770.497 387.5,786.5C 380.833,786.5 374.167,786.5 367.5,786.5C 367.5,739.5 367.5,692.5 367.5,645.5C 368.333,691.998 368.833,738.665 369,785.5C 369.5,733.168 369.667,680.834 369.5,628.5C 407.167,628.5 444.833,628.5 482.5,628.5C 482.17,648.007 482.503,667.341 483.5,686.5 Z"/></g>
<g><path style="opacity:1" fill="#d0d7dd" d="M 497.5,748.5 C 498.331,760.66 498.831,772.993 499,785.5C 499.5,773.171 499.667,760.838 499.5,748.5C 510.833,748.5 522.167,748.5 533.5,748.5C 533.5,761.167 533.5,773.833 533.5,786.5C 521.5,786.5 509.5,786.5 497.5,786.5C 497.5,773.833 497.5,761.167 497.5,748.5 Z"/></g>
<g><path style="opacity:1" fill="#97d1ed" d="M 352.5,575.5 C 352.5,645.833 352.5,716.167 352.5,786.5C 331.167,786.5 309.833,786.5 288.5,786.5C 288.5,716.167 288.5,645.833 288.5,575.5C 309.833,575.5 331.167,575.5 352.5,575.5 Z"/></g>
<g><path style="opacity:1" fill="#a4e6fa" d="M 352.5,575.5 C 353.167,575.5 353.833,575.5 354.5,575.5C 354.5,645.833 354.5,716.167 354.5,786.5C 353.833,786.5 353.167,786.5 352.5,786.5C 352.5,716.167 352.5,645.833 352.5,575.5 Z"/></g>
<g><path style="opacity:1" fill="#353b42" d="M 304.5,696.5 C 315.172,696.333 325.839,696.5 336.5,697C 337.704,698.353 338.371,700.019 338.5,702C 338.695,704.352 338.028,706.352 336.5,708C 326.167,708.667 315.833,708.667 305.5,708C 301.928,704.485 301.595,700.652 304.5,696.5 Z"/></g>
<g><path style="opacity:1" fill="#1c1619" d="M 571.5,689.5 C 543.165,689.667 514.831,689.5 486.5,689C 485.619,688.292 484.953,687.458 484.5,686.5C 484.667,607.836 485.167,607.836 486,686.5C 486.5,687 487,687.5 487.5,688C 515.67,688.168 543.67,688.668 571.5,689.5 Z"/></g>
<g><path style="opacity:1" fill="#aceffc" d="M 483.5,686.5 C 482.503,667.341 482.17,648.007 482.5,628.5C 444.833,628.5 407.167,628.5 369.5,628.5C 369.667,680.834 369.5,733.168 369,785.5C 368.833,738.665 368.333,691.998 367.5,645.5C 367.5,639.5 367.5,633.5 367.5,627.5C 406.167,627.5 444.833,627.5 483.5,627.5C 483.5,647.167 483.5,666.833 483.5,686.5 Z"/></g>
<g><path style="opacity:1" fill="#39414a" d="M 305.5,650.5 C 315.839,650.334 326.172,650.5 336.5,651C 339.394,653.909 340.227,657.409 339,661.5C 338.097,662.701 336.931,663.535 335.5,664C 325.5,664.667 315.5,664.667 305.5,664C 301.541,659.501 301.541,655.001 305.5,650.5 Z"/></g>
<g><path style="opacity:1" fill="#abecf6" d="M 389.5,651.5 C 414.59,651.019 439.59,651.519 464.5,653C 465,653.5 465.5,654 466,654.5C 466.167,663.667 466.333,672.833 466.5,682C 466.643,691.928 466.143,701.762 465,711.5C 464.097,712.701 462.931,713.535 461.5,714C 437.104,714.971 412.77,714.637 388.5,713C 387.667,712.167 386.833,711.333 386,710.5C 385.333,691.833 385.333,673.167 386,654.5C 387.145,653.364 388.312,652.364 389.5,651.5 Z"/></g>
<g><path style="opacity:1" fill="#2e3138" d="M 390.5,652.5 C 414.923,652.02 439.257,652.52 463.5,654C 464,654.5 464.5,655 465,655.5C 465.167,664.333 465.333,673.167 465.5,682C 465.642,691.596 465.142,701.096 464,710.5C 463.5,711 463,711.5 462.5,712C 438.167,712.667 413.833,712.667 389.5,712C 388.667,711.167 387.833,710.333 387,709.5C 386.333,691.5 386.333,673.5 387,655.5C 388.145,654.364 389.312,653.364 390.5,652.5 Z"/></g>
<g><path style="opacity:1" fill="#3a434b" d="M 452.5,700.5 C 452.5,688.833 452.5,677.167 452.5,665.5C 434.833,665.5 417.167,665.5 399.5,665.5C 398.175,676.998 398.175,689.165 399.5,702C 417.164,702.5 434.83,702.667 452.5,702.5C 452.5,703.833 452.5,705.167 452.5,706.5C 454.582,706.472 456.416,707.139 458,708.5C 458.333,708.167 458.667,707.833 459,707.5C 459.456,708.744 458.956,709.577 457.5,710C 457.833,710.333 458.167,710.667 458.5,711C 435.833,711.667 413.167,711.667 390.5,711C 390,710.5 389.5,710 389,709.5C 388.175,691.26 388.341,673.093 389.5,655C 413.833,654.333 438.167,654.333 462.5,655C 463.659,673.093 463.825,691.26 463,709.5C 462.346,710.696 461.846,710.696 461.5,709.5C 462.606,705.223 462.772,700.89 462,696.5C 460.762,698.435 460.262,700.435 460.5,702.5C 458.449,705.215 456.783,705.048 455.5,702C 455.833,701.667 456.167,701.333 456.5,701C 454.697,689.414 453.864,677.581 454,665.5C 453.831,677.341 453.331,689.007 452.5,700.5 Z"/></g>
<g><path style="opacity:1" fill="#b4f5fc" d="M 399.5,665.5 C 417.167,665.5 434.833,665.5 452.5,665.5C 452.5,677.167 452.5,688.833 452.5,700.5C 434.833,700.5 417.167,700.5 399.5,700.5C 399.5,688.833 399.5,677.167 399.5,665.5 Z"/></g>
<g><path style="opacity:1" fill="#97d0ed" d="M 401.5,666.5 C 418.167,666.5 434.833,666.5 451.5,666.5C 451.5,677.5 451.5,688.5 451.5,699.5C 434.833,699.5 418.167,699.5 401.5,699.5C 401.5,688.5 401.5,677.5 401.5,666.5 Z"/></g>
<g><path style="opacity:1" fill="#b3f7fe" d="M 287.5,574.5 C 310.006,574.169 332.34,574.503 354.5,575.5C 353.833,575.5 353.167,575.5 352.5,575.5C 331.167,575.5 309.833,575.5 288.5,575.5C 288.5,645.833 288.5,716.167 288.5,786.5C 309.833,786.5 331.167,786.5 352.5,786.5C 353.167,786.5 353.833,786.5 354.5,786.5C 354.5,786.833 354.5,787.167 354.5,787.5C 332.167,787.5 309.833,787.5 287.5,787.5C 287.5,716.5 287.5,645.5 287.5,574.5 Z"/></g>
<g><path style="opacity:1" fill="#27252b" d="M 304.5,606.5 C 315.172,606.333 325.839,606.5 336.5,607C 339.287,609.167 340.12,612.001 339,615.5C 338.5,616.667 337.667,617.5 336.5,618C 325.833,618.667 315.167,618.667 304.5,618C 301.875,614.168 301.875,610.335 304.5,606.5 Z"/></g>
<g><path style="opacity:1" fill="#3a444c" d="M 304.5,608.5 C 315.5,608.5 326.5,608.5 337.5,608.5C 337.813,611.247 337.48,613.914 336.5,616.5C 326.214,617.642 315.88,617.809 305.5,617C 303.265,614.415 302.931,611.582 304.5,608.5 Z"/></g>
<g><path style="opacity:1" fill="#65899c" d="M 287.5,574.5 C 287.5,645.5 287.5,716.5 287.5,787.5C 309.833,787.5 332.167,787.5 354.5,787.5C 332.006,788.497 309.339,788.831 286.5,788.5C 286.167,716.998 286.501,645.665 287.5,574.5 Z"/></g>
<g><path style="opacity:1" fill="#010106" d="M 257.5,788.5 C 280.157,788.668 280.157,789.168 257.5,790C 254.833,793 254.833,796 257.5,799C 424.667,799.167 591.667,799.667 758.5,800.5C 591.166,800.667 423.833,800.5 256.5,800C 252.211,795.648 252.544,791.815 257.5,788.5 Z"/></g>
</svg>
