<?xml version="1.0" encoding="UTF-8"?>
<!DOCTYPE svg PUBLIC "-//W3C//DTD SVG 1.1//EN" "http://www.w3.org/Graphics/SVG/1.1/DTD/svg11.dtd">
<svg xmlns="http://www.w3.org/2000/svg" version="1.1" width="1024px" height="1024px" style="shape-rendering:geometricPrecision; text-rendering:geometricPrecision; image-rendering:optimizeQuality; fill-rule:evenodd; clip-rule:evenodd" xmlns:xlink="http://www.w3.org/1999/xlink">
<g><path style="opacity:1" fill="#fefefe" d="M -0.5,-0.5 C 340.833,-0.5 682.167,-0.5 1023.5,-0.5C 1023.5,340.833 1023.5,682.167 1023.5,1023.5C 682.167,1023.5 340.833,1023.5 -0.5,1023.5C -0.5,682.167 -0.5,340.833 -0.5,-0.5 Z"/></g>
<g><path style="opacity:1" fill="#f6a84e" d="M 485.5,66.5 C 622.701,61.8837 738.868,108.55 834,206.5C 923.505,307.025 961.839,424.691 949,559.5C 928.754,700.922 858.254,809.089 737.5,884C 635.802,942.91 527.468,959.91 412.5,935C 289.249,904.352 195.082,834.852 130,726.5C 67.2345,612.712 54.9012,493.712 93,369.5C 139.751,236.749 228.585,144.582 359.5,93C 400.363,78.0621 442.363,69.2288 485.5,66.5 Z"/></g>
<g><path style="opacity:1" fill="#fefefe" d="M 494.5,84.5 C 627.138,82.6202 738.305,129.954 828,226.5C 909.903,322.686 944.237,434.02 931,560.5C 910.656,694.788 843.156,797.621 728.5,869C 612.251,934.992 490.917,945.992 364.5,902C 258.704,861.205 180.537,790.038 130,688.5C 82.2057,583.748 76.539,476.748 113,367.5C 159.99,239.844 247.49,153.01 375.5,107C 414.318,94.2681 453.985,86.7681 494.5,84.5 Z"/></g>
<g><path style="opacity:1" fill="#262f3c" d="M 702.5,197.5 C 583.5,198.833 464.5,198.833 345.5,197.5C 464.5,196.167 583.5,196.167 702.5,197.5 Z"/></g>
<g><path style="opacity:1" fill="#cdeafd" d="M 713.5,221.5 C 724.221,231.22 734.221,241.553 743.5,252.5C 748.434,258.608 753.601,264.608 759,270.5C 761.66,274.814 763.327,279.481 764,284.5C 764.167,432.667 764.667,580.667 765.5,728.5C 764.949,731.807 764.616,735.14 764.5,738.5C 760.791,757.874 749.458,770.207 730.5,775.5C 728.194,775.993 725.861,776.326 723.5,776.5C 624.668,775.334 525.668,775.168 426.5,776C 425.833,776.333 425.167,776.667 424.5,777C 424.728,777.399 425.062,777.565 425.5,777.5C 425.167,778.167 424.833,778.833 424.5,779.5C 423.833,779.5 423.5,779.833 423.5,780.5C 422.833,780.833 422.167,781.167 421.5,781.5C 404.382,781.724 387.049,779.557 369.5,775C 353.989,769.489 343.989,758.823 339.5,743C 343.581,728.506 347.581,714.006 351.5,699.5C 351.457,698.584 351.124,697.917 350.5,697.5C 352.995,688.19 355.495,678.857 358,669.5C 358.953,667.408 360.286,667.075 362,668.5C 371.135,702.235 380.468,735.902 390,769.5C 394.178,774.762 399.178,775.762 405,772.5C 413.465,759.737 422.298,747.237 431.5,735C 432.833,734.333 434.167,734.333 435.5,735C 448.991,740.416 462.658,745.249 476.5,749.5C 483.591,748.74 487.257,744.74 487.5,737.5C 472.483,690.11 457.149,642.777 441.5,595.5C 445.749,589.746 450.582,584.412 456,579.5C 490.435,533.011 494.435,484.011 468,432.5C 440.215,389.856 400.715,369.856 349.5,372.5C 339.019,371.921 328.686,373.588 318.5,377.5C 317.024,375.58 316.024,373.413 315.5,371C 315.905,370.055 316.572,369.388 317.5,369C 316.263,368.768 315.263,368.268 314.5,367.5C 315.833,367.5 317.167,367.5 318.5,367.5C 319.833,366.833 321.167,366.167 322.5,365.5C 323.79,364.942 324.623,363.942 325,362.5C 325.333,320.167 325.667,277.833 326,235.5C 328.624,227.209 333.791,221.042 341.5,217C 341.272,216.601 340.938,216.435 340.5,216.5C 340.842,215.662 341.508,215.328 342.5,215.5C 342.56,216.043 342.893,216.376 343.5,216.5C 344.795,215.902 346.128,215.402 347.5,215C 465.167,214.333 582.833,214.333 700.5,215C 705.189,216.538 709.522,218.705 713.5,221.5 Z"/></g>
<g><path style="opacity:1" fill="#3e4551" d="M 345.5,197.5 C 464.5,198.833 583.5,198.833 702.5,197.5C 710.3,199.4 717.3,202.9 723.5,208C 736,220.5 748.5,233 761,245.5C 766.723,251.288 771.723,257.621 776,264.5C 777.803,268.744 779.303,273.078 780.5,277.5C 779.167,431.167 779.167,584.833 780.5,738.5C 775.495,767.172 758.828,784.839 730.5,791.5C 629.041,791.656 527.374,791.489 425.5,791C 422.458,787.959 421.792,784.459 423.5,780.5C 423.5,779.833 423.833,779.5 424.5,779.5C 524.127,778.671 623.793,778.171 723.5,778C 726.776,777.819 729.109,776.985 730.5,775.5C 749.458,770.207 760.791,757.874 764.5,738.5C 764.369,739.239 764.536,739.906 765,740.5C 765.333,739.167 765.667,737.833 766,736.5C 766.667,584.167 766.667,431.833 766,279.5C 764.89,277.603 764.724,275.77 765.5,274C 764.473,273.487 763.473,272.987 762.5,272.5C 756.897,265.228 750.564,258.562 743.5,252.5C 734.221,241.553 724.221,231.22 713.5,221.5C 709.307,216.405 703.974,213.405 697.5,212.5C 641.04,211.829 583.207,211.496 524,211.5C 465.5,211.667 407,211.833 348.5,212C 347.263,212.232 346.263,212.732 345.5,213.5C 344.5,214.167 343.5,214.833 342.5,215.5C 341.508,215.328 340.842,215.662 340.5,216.5C 331.018,220.971 325.351,228.305 323.5,238.5C 322.817,278.833 322.151,320.5 321.5,363.5C 321.624,364.107 321.957,364.44 322.5,364.5C 322.5,364.833 322.5,365.167 322.5,365.5C 321.167,366.167 319.833,366.833 318.5,367.5C 315.281,367.141 312.447,365.808 310,363.5C 309.833,320.331 309.333,277.331 308.5,234.5C 313.13,214.536 325.464,202.203 345.5,197.5 Z"/></g>
<g><path style="opacity:1" fill="#dff7fd" d="M 697.5,212.5 C 703.974,213.405 709.307,216.405 713.5,221.5C 709.522,218.705 705.189,216.538 700.5,215C 582.833,214.333 465.167,214.333 347.5,215C 346.128,215.402 344.795,215.902 343.5,216.5C 342.893,216.376 342.56,216.043 342.5,215.5C 343.5,214.833 344.5,214.167 345.5,213.5C 462.812,212.508 580.145,212.174 697.5,212.5 Z"/></g>
<g><path style="opacity:1" fill="#10131a" d="M 697.5,212.5 C 580.145,212.174 462.812,212.508 345.5,213.5C 346.263,212.732 347.263,212.232 348.5,212C 407,211.833 465.5,211.667 524,211.5C 583.207,211.496 641.04,211.829 697.5,212.5 Z"/></g>
<g><path style="opacity:1" fill="#2b313d" d="M 308.5,234.5 C 309.333,277.331 309.833,320.331 310,363.5C 312.447,365.808 315.281,367.141 318.5,367.5C 317.167,367.5 315.833,367.5 314.5,367.5C 311.358,367.201 309.191,365.534 308,362.5C 307.178,319.792 307.344,277.125 308.5,234.5 Z"/></g>
<g><path style="opacity:1" fill="#dcf5fa" d="M 340.5,216.5 C 340.938,216.435 341.272,216.601 341.5,217C 333.791,221.042 328.624,227.209 326,235.5C 325.667,277.833 325.333,320.167 325,362.5C 324.623,363.942 323.79,364.942 322.5,365.5C 322.5,365.167 322.5,364.833 322.5,364.5C 323.494,322.572 323.827,280.572 323.5,238.5C 325.351,228.305 331.018,220.971 340.5,216.5 Z"/></g>
<g><path style="opacity:1" fill="#09080d" d="M 323.5,238.5 C 323.827,280.572 323.494,322.572 322.5,364.5C 321.957,364.44 321.624,364.107 321.5,363.5C 322.151,320.5 322.817,278.833 323.5,238.5 Z"/></g>
<g><path style="opacity:1" fill="#393f49" d="M 396.5,301.5 C 397.833,300.833 398.833,299.833 399.5,298.5C 496.763,297.336 594.097,297.169 691.5,298C 697.174,303.569 696.84,308.569 690.5,313C 593.833,313.667 497.167,313.667 400.5,313C 396.886,310.056 395.553,306.223 396.5,301.5 Z"/></g>
<g><path style="opacity:1" fill="#def6fb" d="M 396.5,301.5 C 395.553,306.223 396.886,310.056 400.5,313C 497.167,313.667 593.833,313.667 690.5,313C 696.84,308.569 697.174,303.569 691.5,298C 594.097,297.169 496.763,297.336 399.5,298.5C 399.062,298.565 398.728,298.399 398.5,298C 399.328,297.085 400.328,296.419 401.5,296C 497.833,295.333 594.167,295.333 690.5,296C 696.681,299.212 698.514,304.046 696,310.5C 694.048,312.894 691.548,314.394 688.5,315C 593.167,315.667 497.833,315.667 402.5,315C 395.28,312.396 393.114,307.563 396,300.5C 396.399,300.728 396.565,301.062 396.5,301.5 Z"/></g>
<g><path style="opacity:1" fill="#d6edf4" d="M 486.5,394.5 C 482.789,391.126 482.623,387.459 486,383.5C 487.319,381.513 489.152,380.346 491.5,380C 557.833,379.333 624.167,379.333 690.5,380C 696.977,383.115 698.811,387.949 696,394.5C 694.269,396.617 692.102,398.117 689.5,399C 623.5,399.667 557.5,399.667 491.5,399C 488.885,398.388 487.219,396.888 486.5,394.5 Z"/></g>
<g><path style="opacity:1" fill="#3c424e" d="M 491.5,381.5 C 557.332,382.333 623.332,382.833 689.5,383C 693.39,384.945 695.057,388.112 694.5,392.5C 694.084,394.752 692.751,396.252 690.5,397C 623.833,397.667 557.167,397.667 490.5,397C 489.016,396.338 487.683,395.504 486.5,394.5C 484.098,388.494 485.764,384.161 491.5,381.5 Z"/></g>
<g><path style="opacity:1" fill="#0e0c10" d="M 491.5,381.5 C 558.167,381.333 624.834,381.5 691.5,382C 695.388,384.806 696.388,388.306 694.5,392.5C 695.057,388.112 693.39,384.945 689.5,383C 623.332,382.833 557.332,382.333 491.5,381.5 Z"/></g>
<g><path style="opacity:1" fill="#f2fdfb" d="M 743.5,252.5 C 750.564,258.562 756.897,265.228 762.5,272.5C 763.226,275.179 764.059,277.846 765,280.5C 765.5,429.833 765.667,579.166 765.5,728.5C 764.667,580.667 764.167,432.667 764,284.5C 763.327,279.481 761.66,274.814 759,270.5C 753.601,264.608 748.434,258.608 743.5,252.5 Z"/></g>
<g><path style="opacity:1" fill="#ecfbfd" d="M 689.5,481.5 C 689.833,481.5 690.167,481.5 690.5,481.5C 695.65,478.349 696.817,474.016 694,468.5C 693.097,467.299 691.931,466.465 690.5,466C 635.833,465.333 581.167,465.333 526.5,466C 522.093,468.532 520.426,472.365 521.5,477.5C 518.841,471.291 520.841,466.791 527.5,464C 581.5,463.333 635.5,463.333 689.5,464C 698.682,468.716 699.682,474.716 692.5,482C 691.251,482.74 690.251,482.573 689.5,481.5 Z"/></g>
<g><path style="opacity:1" fill="#3c434e" d="M 690.5,481.5 C 635.294,480.825 579.961,480.159 524.5,479.5C 523.5,478.833 522.5,478.167 521.5,477.5C 520.426,472.365 522.093,468.532 526.5,466C 581.167,465.333 635.833,465.333 690.5,466C 691.931,466.465 693.097,467.299 694,468.5C 696.817,474.016 695.65,478.349 690.5,481.5 Z"/></g>
<g><path style="opacity:1" fill="#0a0a0d" d="M 524.5,479.5 C 579.961,480.159 635.294,480.825 690.5,481.5C 690.167,481.5 689.833,481.5 689.5,481.5C 634.832,481.667 580.166,481.5 525.5,481C 524.944,480.617 524.611,480.117 524.5,479.5 Z"/></g>
<g><path style="opacity:1" fill="#1b1d23" d="M 762.5,272.5 C 763.473,272.987 764.473,273.487 765.5,274C 764.724,275.77 764.89,277.603 766,279.5C 766.667,431.833 766.667,584.167 766,736.5C 765.667,737.833 765.333,739.167 765,740.5C 764.536,739.906 764.369,739.239 764.5,738.5C 764.616,735.14 764.949,731.807 765.5,728.5C 765.667,579.166 765.5,429.833 765,280.5C 764.059,277.846 763.226,275.179 762.5,272.5 Z"/></g>
<g><path style="opacity:1" fill="#dfedf1" d="M 525.5,548.5 C 580.834,548.333 636.168,548.5 691.5,549C 696.868,552.232 698.368,556.732 696,562.5C 694.363,564.81 692.196,566.31 689.5,567C 635.167,567.667 580.833,567.667 526.5,567C 517.667,561.204 517.334,555.037 525.5,548.5 Z"/></g>
<g><path style="opacity:1" fill="#090a10" d="M 524.5,563.5 C 579.961,564.159 635.294,564.825 690.5,565.5C 635.499,565.667 580.499,565.5 525.5,565C 524.944,564.617 524.611,564.117 524.5,563.5 Z"/></g>
<g><path style="opacity:1" fill="#404752" d="M 693.5,562.5 C 692.833,563.833 691.833,564.833 690.5,565.5C 635.294,564.825 579.961,564.159 524.5,563.5C 522.738,562.738 521.738,561.404 521.5,559.5C 522.168,556.755 523.501,554.255 525.5,552C 580.833,551.333 636.167,551.333 691.5,552C 694.629,555.018 695.296,558.518 693.5,562.5 Z"/></g>
<g><path style="opacity:1" fill="#282d39" d="M 693.5,562.5 C 695.296,558.518 694.629,555.018 691.5,552C 636.167,551.333 580.833,551.333 525.5,552C 523.501,554.255 522.168,556.755 521.5,559.5C 520.943,555.112 522.61,551.945 526.5,550C 581.167,549.333 635.833,549.333 690.5,550C 695.731,553.241 696.731,557.407 693.5,562.5 Z"/></g>
<g><path style="opacity:1" fill="#3c4250" d="M 349.5,372.5 C 400.715,369.856 440.215,389.856 468,432.5C 494.435,484.011 490.435,533.011 456,579.5C 450.582,584.412 445.749,589.746 441.5,595.5C 457.149,642.777 472.483,690.11 487.5,737.5C 487.257,744.74 483.591,748.74 476.5,749.5C 462.658,745.249 448.991,740.416 435.5,735C 434.167,734.333 432.833,734.333 431.5,735C 422.298,747.237 413.465,759.737 405,772.5C 399.178,775.762 394.178,774.762 390,769.5C 380.468,735.902 371.135,702.235 362,668.5C 360.286,667.075 358.953,667.408 358,669.5C 355.495,678.857 352.995,688.19 350.5,697.5C 344.135,721.959 337.302,746.292 330,770.5C 325.867,774.9 321.2,775.567 316,772.5C 306.641,759.103 296.808,746.103 286.5,733.5C 271.901,739.533 257.067,744.866 242,749.5C 235.613,748.775 232.447,745.109 232.5,738.5C 247.626,690.455 262.959,642.455 278.5,594.5C 274.251,588.746 269.418,583.412 264,578.5C 234.151,539.237 227.485,496.237 244,449.5C 264.791,404.183 299.958,378.517 349.5,372.5 Z"/></g>
<g><path style="opacity:1" fill="#f5e275" d="M 465.5,468.5 C 473.447,501.821 468.113,532.821 449.5,561.5C 448.957,561.44 448.624,561.107 448.5,560.5C 466.503,532.983 471.836,503.149 464.5,471C 464.528,469.93 464.861,469.097 465.5,468.5 Z"/></g>
<g><path style="opacity:1" fill="#fccd71" d="M 465.5,468.5 C 464.861,469.097 464.528,469.93 464.5,471C 471.836,503.149 466.503,532.983 448.5,560.5C 448.624,561.107 448.957,561.44 449.5,561.5C 435.926,579.744 418.592,593.077 397.5,601.5C 379.219,607.207 360.552,608.874 341.5,606.5C 291.854,594.685 262.02,563.685 252,513.5C 247.256,465.492 265.09,428.659 305.5,403C 341.301,384.023 377.301,383.69 413.5,402C 439.326,417.466 456.659,439.632 465.5,468.5 Z"/></g>
<g><path style="opacity:1" fill="#131c47" d="M 444.5,472.5 C 447.175,484.657 448.175,496.99 447.5,509.5C 446.671,502.011 446.171,494.344 446,486.5C 445.484,482.434 444.65,478.434 443.5,474.5C 443.543,473.584 443.876,472.917 444.5,472.5 Z"/></g>
<g><path style="opacity:1" fill="#edd874" d="M 274.5,475.5 C 270.439,495.76 272.273,515.426 280,534.5C 283.022,540.328 286.189,545.995 289.5,551.5C 271.252,528.67 266.085,503.003 274,474.5C 274.399,474.728 274.565,475.062 274.5,475.5 Z"/></g>
<g><path style="opacity:1" fill="#3c4251" d="M 444.5,472.5 C 443.876,472.917 443.543,473.584 443.5,474.5C 444.65,478.434 445.484,482.434 446,486.5C 446.171,494.344 446.671,502.011 447.5,509.5C 443.448,534.615 431.448,554.948 411.5,570.5C 398.975,578.454 385.308,583.454 370.5,585.5C 337.456,588.134 310.456,576.8 289.5,551.5C 286.189,545.995 283.022,540.328 280,534.5C 272.273,515.426 270.439,495.76 274.5,475.5C 288.259,434.592 316.759,412.592 360,409.5C 402.063,412.086 430.23,433.086 444.5,472.5 Z"/></g>
<g><path style="opacity:1" fill="#20244c" d="M 298.5,459.5 C 287.988,478.846 285.655,499.179 291.5,520.5C 289.583,517.196 288.416,513.529 288,509.5C 286.385,496.162 287.718,483.162 292,470.5C 293.689,466.44 295.856,462.773 298.5,459.5 Z"/></g>
<g><path style="opacity:1" fill="#fdcc71" d="M 291.5,520.5 C 285.655,499.179 287.988,478.846 298.5,459.5C 325.07,425.443 358.07,417.609 397.5,436C 423.653,453.485 434.82,477.985 431,509.5C 426.189,535.983 411.356,554.483 386.5,565C 348.434,576.315 318.6,565.482 297,532.5C 295.241,528.356 293.408,524.356 291.5,520.5 Z"/></g>
<g><path style="opacity:1" fill="#3d4251" d="M 398.5,463.5 C 407.918,464.067 411.085,468.734 408,477.5C 390.5,497 373,516.5 355.5,536C 352.134,537.879 348.8,537.879 345.5,536C 333.333,525.167 321.833,513.667 311,501.5C 310.333,499.5 310.333,497.5 311,495.5C 312.5,494 314,492.5 315.5,491C 317.5,490.333 319.5,490.333 321.5,491C 331.315,499.314 340.982,507.814 350.5,516.5C 366.551,498.788 382.551,481.121 398.5,463.5 Z"/></g>
<g><path style="opacity:1" fill="#f3e376" d="M 411.5,570.5 C 399.685,580.86 386.019,585.86 370.5,585.5C 385.308,583.454 398.975,578.454 411.5,570.5 Z"/></g>
<g><path style="opacity:1" fill="#2a323f" d="M 780.5,277.5 C 781.832,431.154 781.832,584.821 780.5,738.5C 779.167,584.833 779.167,431.167 780.5,277.5 Z"/></g>
<g><path style="opacity:1" fill="#19244b" d="M 427.5,604.5 C 428.302,603.115 428.969,603.282 429.5,605C 432.167,613 434.833,621 437.5,629C 437.43,629.765 437.097,630.265 436.5,630.5C 433.871,621.609 430.871,612.942 427.5,604.5 Z"/></g>
<g><path style="opacity:1" fill="#242a4c" d="M 397.5,601.5 C 396.653,602.966 395.32,603.8 393.5,604C 380.438,607.966 367.104,609.633 353.5,609C 348.661,608.79 344.661,607.956 341.5,606.5C 360.552,608.874 379.219,607.207 397.5,601.5 Z"/></g>
<g><path style="opacity:1" fill="#fdcc71" d="M 427.5,604.5 C 430.871,612.942 433.871,621.609 436.5,630.5C 447.443,662.724 458.109,695.058 468.5,727.5C 468.167,728.5 467.833,729.5 467.5,730.5C 456.279,725.723 444.946,721.223 433.5,717C 429.495,715.902 425.995,716.735 423,719.5C 416.383,729.942 409.216,739.942 401.5,749.5C 400.914,749.291 400.414,748.957 400,748.5C 390.667,713.833 381.333,679.167 372,644.5C 369.709,637.674 368.542,630.674 368.5,623.5C 388.256,621.48 406.59,615.313 423.5,605C 424.793,604.51 426.127,604.343 427.5,604.5 Z"/></g>
<g><path style="opacity:1" fill="#fdcc71" d="M 292.5,603.5 C 310.767,614.145 330.434,620.812 351.5,623.5C 351.72,629.97 350.886,636.303 349,642.5C 339.767,678.441 329.767,714.107 319,749.5C 311.843,740.519 305.176,731.185 299,721.5C 295.901,717.034 291.735,715.534 286.5,717C 275.244,721.465 263.91,725.632 252.5,729.5C 265.239,687.285 278.572,645.285 292.5,603.5 Z"/></g>
<g><path style="opacity:1" fill="#d8f1f9" d="M 723.5,776.5 C 624.207,777.495 524.874,777.829 425.5,777.5C 425.062,777.565 424.728,777.399 424.5,777C 425.167,776.667 425.833,776.333 426.5,776C 525.668,775.168 624.668,775.334 723.5,776.5 Z"/></g>
<g><path style="opacity:1" fill="#0b0709" d="M 730.5,775.5 C 729.109,776.985 726.776,777.819 723.5,778C 623.793,778.171 524.127,778.671 424.5,779.5C 424.833,778.833 425.167,778.167 425.5,777.5C 524.874,777.829 624.207,777.495 723.5,776.5C 725.861,776.326 728.194,775.993 730.5,775.5 Z"/></g>
<g><path style="opacity:1" fill="#2a323e" d="M 423.5,780.5 C 421.792,784.459 422.458,787.959 425.5,791C 527.374,791.489 629.041,791.656 730.5,791.5C 727.834,791.933 725.168,792.433 722.5,793C 623.833,793.667 525.167,793.667 426.5,793C 422.093,790.468 420.426,786.635 421.5,781.5C 422.167,781.167 422.833,780.833 423.5,780.5 Z"/></g>
</svg>
