<?xml version="1.0" encoding="UTF-8"?>
<!DOCTYPE svg PUBLIC "-//W3C//DTD SVG 1.1//EN" "http://www.w3.org/Graphics/SVG/1.1/DTD/svg11.dtd">
<svg xmlns="http://www.w3.org/2000/svg" version="1.1" width="1024px" height="1024px" style="shape-rendering:geometricPrecision; text-rendering:geometricPrecision; image-rendering:optimizeQuality; fill-rule:evenodd; clip-rule:evenodd" xmlns:xlink="http://www.w3.org/1999/xlink">
<g><path style="opacity:1" fill="#fcfcfb" d="M -0.5,-0.5 C 340.833,-0.5 682.167,-0.5 1023.5,-0.5C 1023.5,340.833 1023.5,682.167 1023.5,1023.5C 682.167,1023.5 340.833,1023.5 -0.5,1023.5C -0.5,682.167 -0.5,340.833 -0.5,-0.5 Z"/></g>
<g><path style="opacity:1" fill="#febf43" d="M 478.5,53.5 C 640.687,46.2029 772.52,105.203 874,230.5C 957.897,345.472 984.563,472.805 954,612.5C 920.416,743.26 845.249,842.094 728.5,909C 617.718,967.139 502.052,979.139 381.5,945C 275.471,910.953 191.971,847.453 131,754.5C 57.1453,634.343 39.812,506.343 79,370.5C 125.13,233.037 215.296,136.87 349.5,82C 391.279,66.3011 434.279,56.8011 478.5,53.5 Z"/></g>
<g><path style="opacity:1" fill="#fefefd" d="M 484.5,76.5 C 645.352,71.1843 773.185,132.851 868,261.5C 929.707,353.673 953.707,455.006 940,565.5C 913.438,726.343 826.271,840.509 678.5,908C 586.111,945.049 491.778,950.716 395.5,925C 262.533,883.698 168.367,799.198 113,671.5C 75.4449,574.218 71.4449,475.551 101,375.5C 137.474,267.043 205.308,184.543 304.5,128C 360.965,98.0544 420.965,80.8877 484.5,76.5 Z"/></g>
<g><path style="opacity:1" fill="#454c52" d="M 806.5,752.5 C 806.265,751.903 805.765,751.57 805,751.5C 800.692,753.369 796.192,754.535 791.5,755C 704.501,755.5 617.501,755.667 530.5,755.5C 529.904,757.398 529.904,759.065 530.5,760.5C 524.025,774.085 513.358,782.418 498.5,785.5C 399.15,784.828 299.65,784.161 200,783.5C 198.93,783.528 198.097,783.861 197.5,784.5C 180.126,779.124 169.626,767.457 166,749.5C 165.333,725.5 165.333,701.5 166,677.5C 169.043,638.213 187.21,608.38 220.5,588C 241.969,575.788 264.969,568.288 289.5,565.5C 289.832,556.143 289.498,546.81 288.5,537.5C 245.479,511.963 225.479,474.13 228.5,424C 218.64,374.918 231.974,333.585 268.5,300C 309.802,269.873 354.136,264.707 401.5,284.5C 402.036,258.791 402.87,233.124 404,207.5C 408.443,194.122 417.277,184.955 430.5,180C 522.79,178.343 615.123,178.01 707.5,179C 710.377,179.956 713.044,181.289 715.5,183C 752.306,218.805 788.806,254.972 825,291.5C 826.861,293.888 828.194,296.554 829,299.5C 829.667,440.5 829.667,581.5 829,722.5C 826.195,736.123 818.695,746.123 806.5,752.5 Z"/></g>
<g><path style="opacity:1" fill="#f0efec" d="M 721.5,309.5 C 718.903,309.721 718.903,310.221 721.5,311C 724.167,311.667 726.833,312.333 729.5,313C 756.831,313.5 784.165,313.667 811.5,313.5C 811.333,448.167 811.5,582.834 812,717.5C 812.278,718.416 812.778,719.082 813.5,719.5C 812.445,723.275 811.112,726.942 809.5,730.5C 805.062,735.38 799.729,738.713 793.5,740.5C 792.5,740.5 791.5,740.5 790.5,740.5C 704.833,740.5 619.167,740.5 533.5,740.5C 533.942,715.129 533.442,689.795 532,664.5C 525.796,628.893 506.963,602.393 475.5,585C 455.705,574.634 434.705,568.134 412.5,565.5C 412.083,555.494 411.916,545.494 412,535.5C 442.067,515.4 460.067,487.4 466,451.5C 481.266,517.099 522.1,555.599 588.5,567C 614.665,569.707 639.665,565.541 663.5,554.5C 693.654,584.821 723.654,615.321 753.5,646C 767.512,654.648 780.012,652.815 791,640.5C 797.271,629.958 796.938,619.625 790,609.5C 761.985,580.985 734.152,552.319 706.5,523.5C 738.787,485.594 749.287,442.26 738,393.5C 716.068,328.599 670.735,294.266 602,290.5C 545.254,292.956 503.921,319.29 478,369.5C 474.201,378.232 471.201,387.232 469,396.5C 472.323,358.326 459.49,326.826 430.5,302C 427.337,299.584 424.004,297.418 420.5,295.5C 419.333,267.506 419.167,239.506 420,211.5C 423.167,204.333 428.333,199.167 435.5,196C 521.122,194.511 606.789,194.011 692.5,194.5C 692.333,220.502 692.5,246.502 693,272.5C 695.808,290.171 705.308,302.504 721.5,309.5 Z"/></g>
<g><path style="opacity:1" fill="#fec046" d="M 743.5,234.5 C 762.833,253.167 781.833,272.167 800.5,291.5C 800.414,292.496 800.748,293.329 801.5,294C 776.801,294.93 752.135,294.597 727.5,293C 717.61,289.729 712.11,282.896 711,272.5C 710.517,273.448 710.351,274.448 710.5,275.5C 709.566,274.432 709.232,273.099 709.5,271.5C 710.167,249.33 710.833,226.996 711.5,204.5C 721.653,214.152 731.653,223.986 741.5,234C 742.094,234.464 742.761,234.631 743.5,234.5 Z"/></g>
<g><path style="opacity:1" fill="#404555" d="M 723.5,293.5 C 725.179,293.892 726.846,294.392 728.5,295C 753.833,295.667 779.167,295.667 804.5,295C 803.295,293.624 801.962,292.458 800.5,291.5C 781.833,272.167 762.833,253.167 743.5,234.5C 735.5,226.167 727.5,217.833 719.5,209.5C 748.655,237.149 777.655,265.649 806.5,295C 806.355,295.772 806.022,296.439 805.5,297C 780.833,297.667 756.167,297.667 731.5,297C 727.81,296.562 725.144,295.395 723.5,293.5 Z"/></g>
<g><path style="opacity:1" fill="#fed942" d="M 719.5,209.5 C 727.5,217.833 735.5,226.167 743.5,234.5C 742.761,234.631 742.094,234.464 741.5,234C 731.653,223.986 721.653,214.152 711.5,204.5C 710.833,226.996 710.167,249.33 709.5,271.5C 709.333,247.831 709.5,224.164 710,200.5C 713.036,203.704 716.203,206.704 719.5,209.5 Z"/></g>
<g><path style="opacity:1" fill="#ebb164" d="M 329.5,289.5 C 362.855,285.862 392.855,294.029 419.5,314C 443.103,333.706 453.603,358.873 451,389.5C 436.05,376.892 424.55,361.725 416.5,344C 413.167,342 409.833,342 406.5,344C 382.064,369.546 352.064,383.213 316.5,385C 300.185,386.066 283.851,386.733 267.5,387C 257.709,389.143 249.542,393.977 243,401.5C 239.704,351.589 260.871,316.423 306.5,296C 314.19,293.486 321.857,291.32 329.5,289.5 Z"/></g>
<g><path style="opacity:1" fill="#fad542" d="M 800.5,291.5 C 801.962,292.458 803.295,293.624 804.5,295C 779.167,295.667 753.833,295.667 728.5,295C 726.846,294.392 725.179,293.892 723.5,293.5C 716.235,289.645 711.902,283.645 710.5,275.5C 710.351,274.448 710.517,273.448 711,272.5C 712.11,282.896 717.61,289.729 727.5,293C 752.135,294.597 776.801,294.93 801.5,294C 800.748,293.329 800.414,292.496 800.5,291.5 Z"/></g>
<g><path style="opacity:1" fill="#97a1a4" d="M 586.5,307.5 C 641.69,303.342 683.523,324.676 712,371.5C 735.268,420.446 730.602,466.446 698,509.5C 661.964,547.507 618.464,560.007 567.5,547C 515.961,528.458 487.127,491.958 481,437.5C 479.475,386.707 500.308,348.207 543.5,322C 557.186,314.827 571.52,309.994 586.5,307.5 Z"/></g>
<g><path style="opacity:1" fill="#454c52" d="M 587.5,325.5 C 633.437,321.222 668.937,338.222 694,376.5C 715.54,417.841 712.873,457.507 686,495.5C 662.049,523.495 631.549,536.328 594.5,534C 548.703,527.863 518.203,503.029 503,459.5C 491.363,408.397 507.196,368.23 550.5,339C 562.195,332.383 574.529,327.883 587.5,325.5 Z"/></g>
<g><path style="opacity:1" fill="#ecf5fa" d="M 608.5,340.5 C 578.031,371.47 547.198,402.47 516,433.5C 515.802,435.382 515.302,437.048 514.5,438.5C 512.193,403.955 524.86,376.455 552.5,356C 569.394,344.609 588.061,339.442 608.5,340.5 Z"/></g>
<g><path style="opacity:1" fill="#ecf5fa" d="M 628.5,344.5 C 639.907,346.87 649.907,351.87 658.5,359.5C 618.142,402.524 576.809,444.524 534.5,485.5C 526.568,476.974 521.235,466.974 518.5,455.5C 555.242,418.425 591.909,381.425 628.5,344.5 Z"/></g>
<g><path style="opacity:1" fill="#badaec" d="M 608.5,340.5 C 615.512,340.75 622.179,342.083 628.5,344.5C 591.909,381.425 555.242,418.425 518.5,455.5C 516.421,450.122 515.087,444.456 514.5,438.5C 515.302,437.048 515.802,435.382 516,433.5C 547.198,402.47 578.031,371.47 608.5,340.5 Z"/></g>
<g><path style="opacity:1" fill="#fee2bf" d="M 408.5,364.5 C 420.33,382.065 434.496,397.732 451,411.5C 457.073,459.03 440.573,496.196 401.5,523C 375.382,538.021 347.715,541.687 318.5,534C 278.533,520.704 254.033,493.537 245,452.5C 240.46,433.781 245.627,418.615 260.5,407C 263.618,405.107 266.951,403.774 270.5,403C 305.632,405.353 339.632,400.353 372.5,388C 386.026,382.27 398.026,374.437 408.5,364.5 Z"/></g>
<g><path style="opacity:1" fill="#ecf5fa" d="M 671.5,372.5 C 679.727,380.943 685.393,390.943 688.5,402.5C 652.418,440.083 615.751,477.25 578.5,514C 577.906,514.464 577.239,514.631 576.5,514.5C 565.32,511.245 555.32,505.912 546.5,498.5C 588.856,457.144 630.522,415.144 671.5,372.5 Z"/></g>
<g><path style="opacity:1" fill="#ecf4f9" d="M 692.5,419.5 C 695.392,461.227 678.392,491.727 641.5,511C 631.652,515.545 621.318,518.045 610.5,518.5C 606.154,518.666 601.821,518.499 597.5,518C 628.667,486.833 659.833,455.667 691,424.5C 691.198,422.618 691.698,420.952 692.5,419.5 Z"/></g>
<g><path style="opacity:1" fill="#bad9ec" d="M 658.5,359.5 C 663.833,362.833 668.167,367.167 671.5,372.5C 630.522,415.144 588.856,457.144 546.5,498.5C 541.77,494.773 537.77,490.44 534.5,485.5C 576.809,444.524 618.142,402.524 658.5,359.5 Z"/></g>
<g><path style="opacity:1" fill="#f7f7f5" d="M 721.5,309.5 C 724.763,310.482 728.097,311.149 731.5,311.5C 758.833,311.5 786.167,311.5 813.5,311.5C 813.5,447.5 813.5,583.5 813.5,719.5C 812.778,719.082 812.278,718.416 812,717.5C 811.5,582.834 811.333,448.167 811.5,313.5C 784.165,313.667 756.831,313.5 729.5,313C 726.833,312.333 724.167,311.667 721.5,311C 718.903,310.221 718.903,309.721 721.5,309.5 Z"/></g>
<g><path style="opacity:1" fill="#b9d9ec" d="M 688.5,402.5 C 690.834,407.817 692.167,413.484 692.5,419.5C 691.698,420.952 691.198,422.618 691,424.5C 659.833,455.667 628.667,486.833 597.5,518C 601.821,518.499 606.154,518.666 610.5,518.5C 598.871,520.078 587.537,518.745 576.5,514.5C 577.239,514.631 577.906,514.464 578.5,514C 615.751,477.25 652.418,440.083 688.5,402.5 Z"/></g>
<g><path style="opacity:1" fill="#353d45" d="M 731.5,311.5 C 759.236,310.168 787.069,310.168 815,311.5C 815.667,446.833 815.667,582.167 815,717.5C 814.774,722.607 812.941,726.94 809.5,730.5C 811.112,726.942 812.445,723.275 813.5,719.5C 813.5,583.5 813.5,447.5 813.5,311.5C 786.167,311.5 758.833,311.5 731.5,311.5 Z"/></g>
<g><path style="opacity:1" fill="#98a1a4" d="M 693.5,534.5 C 703.079,542.575 712.246,551.242 721,560.5C 740.333,580.5 759.667,600.5 779,620.5C 782.273,629.618 779.106,634.951 769.5,636.5C 767.209,636.378 765.209,635.545 763.5,634C 734.638,605.472 706.138,576.639 678,547.5C 677.312,546.668 677.479,546.002 678.5,545.5C 683.823,542.163 688.823,538.497 693.5,534.5 Z"/></g>
<g><path style="opacity:1" fill="#fde2bf" d="M 392.5,544.5 C 402.526,573.265 392.526,591.098 362.5,598C 346.069,601.373 330.736,598.706 316.5,590C 311.422,586.263 307.922,581.43 306,575.5C 305.5,565.839 305.334,556.172 305.5,546.5C 331.962,555.257 358.629,555.757 385.5,548C 388.069,547.102 390.402,545.935 392.5,544.5 Z"/></g>
<g><path style="opacity:1" fill="#b5d9ef" d="M 517.5,670.5 C 517.5,672.5 517.5,674.5 517.5,676.5C 517.667,701.502 517.5,726.502 517,751.5C 513.986,761.845 507.153,768.011 496.5,770C 486.172,770.5 475.839,770.666 465.5,770.5C 465.667,742.831 465.5,715.165 465,687.5C 462.601,682.872 459.101,681.539 454.5,683.5C 453.206,684.29 452.039,685.29 451,686.5C 450.5,714.498 450.333,742.498 450.5,770.5C 383.833,770.5 317.167,770.5 250.5,770.5C 250.667,742.498 250.5,714.498 250,686.5C 249.617,685.944 249.117,685.611 248.5,685.5C 246.484,682.856 243.817,682.023 240.5,683C 239,684.5 237.5,686 236,687.5C 235.5,715.165 235.333,742.831 235.5,770.5C 224.495,770.667 213.495,770.5 202.5,770C 192.307,766.474 185.474,759.641 182,749.5C 181.333,725.167 181.333,700.833 182,676.5C 187.607,631.553 212.107,602.386 255.5,589C 266.612,585.222 277.945,582.389 289.5,580.5C 293.464,590.631 300.131,598.464 309.5,604C 329.415,614.765 350.415,617.431 372.5,612C 389.584,607.475 401.917,597.309 409.5,581.5C 443.676,583.838 472.843,597.171 497,621.5C 508.283,636.054 515.116,652.387 517.5,670.5 Z"/></g>
<g><path style="opacity:1" fill="#484f55" d="M 676.5,624.5 C 682.757,628.717 683.09,633.383 677.5,638.5C 637.002,637.667 596.335,637.167 555.5,637C 551.296,632.845 551.629,629.178 556.5,626C 596.669,625.833 636.669,625.333 676.5,624.5 Z"/></g>
<g><path style="opacity:1" fill="#323941" d="M 676.5,624.5 C 636.669,625.333 596.669,625.833 556.5,626C 551.629,629.178 551.296,632.845 555.5,637C 596.335,637.167 637.002,637.667 677.5,638.5C 637.238,639.66 596.904,639.827 556.5,639C 551.465,635.987 550.298,631.82 553,626.5C 553.75,625.874 554.584,625.374 555.5,625C 595.832,624.5 636.165,624.333 676.5,624.5 Z"/></g>
<g><path style="opacity:1" fill="#424a50" d="M 557.5,668.5 C 618.168,668.333 678.834,668.5 739.5,669C 743.277,671.911 744.444,675.744 743,680.5C 742.097,681.701 740.931,682.535 739.5,683C 678.5,683.667 617.5,683.667 556.5,683C 551.003,677.683 551.336,672.85 557.5,668.5 Z"/></g>
<g><path style="opacity:1" fill="#2a2727" d="M 454.5,683.5 C 461.134,683.677 461.134,684.177 454.5,685C 453.667,685.833 452.833,686.667 452,687.5C 451.832,715.336 451.332,743.003 450.5,770.5C 450.333,742.498 450.5,714.498 451,686.5C 452.039,685.29 453.206,684.29 454.5,683.5 Z"/></g>
<g><path style="opacity:1" fill="#2b2c2d" d="M 517.5,676.5 C 517.5,674.5 517.5,672.5 517.5,670.5C 517.369,669.761 517.536,669.094 518,668.5C 518.333,670.5 518.667,672.5 519,674.5C 519.667,699.5 519.667,724.5 519,749.5C 518.832,724.997 518.332,700.663 517.5,676.5 Z"/></g>
<g><path style="opacity:1" fill="#333b42" d="M 790.5,740.5 C 791.5,740.5 792.5,740.5 793.5,740.5C 794.239,740.369 794.906,740.536 795.5,741C 794.167,741.333 792.833,741.667 791.5,742C 705.833,742.667 620.167,742.667 534.5,742C 620.001,741.833 705.334,741.333 790.5,740.5 Z"/></g>
<g><path style="opacity:1" fill="#2a2a2a" d="M 248.5,685.5 C 249.117,685.611 249.617,685.944 250,686.5C 250.5,714.498 250.667,742.498 250.5,770.5C 249.817,742.294 249.151,713.961 248.5,685.5 Z"/></g>
<g><path style="opacity:1" fill="#1b222b" d="M 806.5,752.5 C 802.62,753.971 798.62,755.138 794.5,756C 706.834,756.5 619.167,756.667 531.5,756.5C 531.567,757.959 531.234,759.292 530.5,760.5C 529.904,759.065 529.904,757.398 530.5,755.5C 617.501,755.667 704.501,755.5 791.5,755C 796.192,754.535 800.692,753.369 805,751.5C 805.765,751.57 806.265,751.903 806.5,752.5 Z"/></g>
<g><path style="opacity:1" fill="#394149" d="M 197.5,784.5 C 198.097,783.861 198.93,783.528 200,783.5C 299.65,784.161 399.15,784.828 498.5,785.5C 400.195,786.66 301.861,786.826 203.5,786C 201.564,785.187 199.564,784.687 197.5,784.5 Z"/></g>
</svg>
