<?xml version="1.0" encoding="UTF-8"?>
<svg version="1.1" xmlns="http://www.w3.org/2000/svg" width="1024" height="1024">
<path d="M0 0 C337.92 0 675.84 0 1024 0 C1024 337.92 1024 675.84 1024 1024 C686.08 1024 348.16 1024 0 1024 C0 686.08 0 348.16 0 0 Z " fill="#FEFEFE" transform="translate(0,0)"/>
<path d="M0 0 C3.38218089 0.01073553 6.76383092 0.00001776 10.14599609 -0.01269531 C28.73863974 -0.02517467 47.19731956 1.05367924 65.57177734 4.01074219 C66.63662354 4.17993164 67.70146973 4.34912109 68.79858398 4.5234375 C132.20004661 14.92484304 195.28821662 38.85322117 246.10351562 78.86083984 C247.87284077 80.25175161 249.65578266 81.62322499 251.44287109 82.99121094 C254.9635145 85.69875803 258.43213546 88.46657518 261.88427734 91.26074219 C262.41682129 91.68742187 262.94936523 92.11410156 263.49804688 92.55371094 C273.35281286 100.5212668 282.28859438 109.45506924 291.25927734 118.38574219 C291.86523743 118.98643524 292.47119751 119.5871283 293.09552002 120.20602417 C300.51118938 127.57186075 307.38798154 135.06344262 313.88427734 143.26074219 C314.83034342 144.37466845 315.78345862 145.48269956 316.74755859 146.58105469 C323.57190279 154.39585395 329.60738115 162.62331382 335.46289062 171.18359375 C336.78046163 173.10903073 338.11067305 175.0251024 339.44287109 176.94042969 C349.5510127 191.62766187 358.25839365 207.28140869 365.96191406 223.35107422 C366.87719755 225.24608413 367.81794573 227.1266186 368.76318359 229.00683594 C395.01271951 282.01314517 407.08656131 342.54911167 407.13427734 401.44824219 C407.13528442 402.32102814 407.1362915 403.19381409 407.1373291 404.0930481 C407.12527044 419.66414771 406.09956177 434.83252748 403.88427734 450.26074219 C403.74505859 451.29054199 403.60583984 452.3203418 403.46240234 453.38134766 C399.88631874 479.61009971 393.64363945 505.28760466 384.88427734 530.26074219 C384.5687793 531.16050781 384.25328125 532.06027344 383.92822266 532.98730469 C367.06048026 580.39177867 341.10337402 623.57971177 307.88427734 661.26074219 C307.04638672 662.21207031 306.20849609 663.16339844 305.34521484 664.14355469 C299.49185232 670.64930437 293.37145491 676.8735924 287.19677734 683.07324219 C286.40070068 683.8739917 285.60462402 684.67474121 284.78442383 685.49975586 C279.97915862 690.29203791 275.05909263 694.87083789 269.88427734 699.26074219 C268.93016968 700.07490601 268.93016968 700.07490601 267.95678711 700.90551758 C195.81555682 762.05985187 103.11527299 796.76708808 5.44677734 796.57324219 C4.40967621 796.57141937 3.37257507 796.56959656 2.30404663 796.56771851 C-33.89619635 796.46135216 -69.1586431 791.84105614 -104.11572266 782.26074219 C-105.3396875 781.93517334 -105.3396875 781.93517334 -106.58837891 781.60302734 C-150.37200786 769.87269347 -193.85042855 748.72677934 -230.19042969 721.69189453 C-232.17459835 720.21697737 -234.17337374 718.76358147 -236.17431641 717.31152344 C-258.96417798 700.64626658 -280.9090717 680.8737988 -299.11572266 659.26074219 C-300.00096742 658.24903389 -300.88784233 657.23875084 -301.77587891 656.22949219 C-319.73009694 635.73107045 -335.00400944 613.13114262 -348.11572266 589.26074219 C-348.83840332 587.95097412 -348.83840332 587.95097412 -349.57568359 586.61474609 C-390.60985674 511.68800119 -405.99765369 422.64914498 -392.11572266 338.26074219 C-391.91253418 337.01921387 -391.7093457 335.77768555 -391.5 334.49853516 C-390.19467355 326.7187895 -388.71866205 318.98424075 -387.11572266 311.26074219 C-386.9563623 310.47038574 -386.79700195 309.6800293 -386.6328125 308.86572266 C-373.04958861 242.26749041 -338.11778748 178.73459899 -291.90087891 129.26464844 C-289.68784852 126.89180041 -287.53969407 124.474942 -285.42822266 122.01074219 C-279.83859404 115.56638881 -273.73214576 109.66924425 -267.25634766 104.12402344 C-264.78385779 101.97187441 -262.39300908 99.740935 -259.99072266 97.51074219 C-238.68694937 78.13570558 -214.19980741 62.01027125 -188.95849609 48.27246094 C-187.24203383 47.3300895 -185.54142642 46.35899733 -183.84228516 45.38574219 C-146.29307758 24.37919249 -103.49839606 11.43426948 -61.24072266 4.44824219 C-60.06662842 4.25302979 -58.89253418 4.05781738 -57.68286133 3.85668945 C-38.51945261 0.87945365 -19.37571259 -0.07283049 0 0 Z " fill="#FEFEFE" transform="translate(507.11572265625,108.7392578125)"/>
<path d="M0 0 C1.13727285 -0.0055344 2.27454571 -0.01106879 3.44628137 -0.0167709 C7.24171055 -0.03034014 11.03647792 -0.01542757 14.83189392 -0.00050354 C17.55913395 -0.00208065 20.28635024 -0.009637 23.01358032 -0.01687622 C29.64257812 -0.03078034 36.2713849 -0.02327374 42.90037353 -0.00820064 C50.62528323 0.00869326 58.35014581 0.00544498 66.07506829 0.00170528 C79.86058514 -0.00416802 93.64601054 0.00997794 107.4315033 0.03465271 C120.79905118 0.05857659 134.16647691 0.06565448 147.53404236 0.05516052 C162.10263088 0.04374416 176.67116296 0.04182976 191.2397508 0.05625862 C192.79397324 0.05778441 194.34819569 0.05930476 195.90241814 0.06081963 C197.04938124 0.06195635 197.04938124 0.06195635 198.21951531 0.06311603 C203.60047463 0.06785295 208.9814087 0.06601166 214.36236763 0.06175423 C220.92175799 0.05682114 227.48103301 0.06284061 234.040397 0.08264852 C237.38526255 0.09250144 240.72980656 0.09603227 244.07470322 0.08975601 C247.70404248 0.08380004 251.33286544 0.09631532 254.9621582 0.11352539 C256.54052093 0.10451032 256.54052093 0.10451032 258.15076977 0.09531313 C265.07100119 0.15498682 271.13853717 0.77056789 276.65977478 5.36839294 C277.19860291 6.03097107 277.73743103 6.69354919 278.29258728 7.37620544 C278.84688416 8.03362732 279.40118103 8.69104919 279.97227478 9.36839294 C283.6647078 14.81722653 283.6993931 19.64547209 283.65809631 26.02398682 C283.66065959 27.46984721 283.66065959 27.46984721 283.66327465 28.9449169 C283.66657073 32.17705273 283.65556376 35.40898129 283.64463806 38.64109802 C283.64407397 40.95707698 283.64439046 43.27305629 283.64552307 45.58903503 C283.64609768 51.87989188 283.63432582 58.1706727 283.62037516 64.46151185 C283.60788584 71.03452817 283.60669872 77.60754616 283.60432434 84.18057251 C283.59914446 95.21414002 283.58631272 106.24768085 283.56846619 117.28123474 C283.5501044 128.64516561 283.53594936 140.0090889 283.52745056 151.37303162 C283.52692511 152.07366196 283.52639967 152.7742923 283.5258583 153.49615387 C283.5232482 157.01105739 283.52072079 160.52596097 283.51823449 164.04086459 C283.49750558 193.1943297 283.46213437 222.3477672 283.41758728 251.50120544 C284.35715271 250.88994812 285.29671814 250.2786908 286.26475525 249.64891052 C287.52135078 248.83523265 288.77802834 248.02168145 290.03477478 247.20823669 C290.95939514 246.60598267 290.95939514 246.60598267 291.9026947 245.99156189 C311.00840383 233.6464312 332.48421028 227.35889996 355.19883728 231.69261169 C369.09741159 235.18412247 383.56564601 241.34093758 393.73008728 251.68870544 C396.25977815 254.07972033 396.25977815 254.07972033 399.58946228 254.48558044 C401.24912865 254.1059182 402.89783814 253.67629044 404.53477478 253.20823669 C419.93368471 249.43153927 436.16292395 254.69822468 449.41758728 262.50120544 C450.75837303 263.49119098 452.09295119 264.48971298 453.41758728 265.50120544 C453.42345352 264.91192261 453.42931976 264.32263977 453.43536377 263.71549988 C453.96251441 212.95433474 453.96251441 212.95433474 456.78086853 190.88401794 C457.85288968 182.45275644 458.32197088 173.84056265 456.41758728 165.50120544 C455.71375916 166.00651794 455.00993103 166.51183044 454.28477478 167.03245544 C446.38040732 172.2332403 439.85879552 174.21048859 430.41758728 172.50120544 C427.96839063 171.37569675 426.04916778 170.1997713 423.96836853 168.49729919 C423.45661072 168.16858826 422.94485291 167.83987732 422.41758728 167.50120544 C421.42758728 167.83120544 420.43758728 168.16120544 419.41758728 168.50120544 C411.39388747 169.7465063 404.54666467 167.88416704 397.04258728 165.25120544 C396.18673035 164.95149841 395.33087341 164.65179138 394.44908142 164.34300232 C389.63490186 162.56615556 385.4670013 160.67696636 381.41758728 157.50120544 C380.98446228 156.55245544 380.55133728 155.60370544 380.10508728 154.62620544 C377.95955414 150.65299593 375.39180471 149.34665662 371.63633728 146.99339294 C366.06961811 143.24957829 362.89324442 137.98959103 361.41758728 131.50120544 C358.89591992 113.76640207 372.09346763 95.62615782 381.98008728 81.87620544 C388.46334138 73.63947336 395.78241887 65.6510186 406.41758728 63.50120544 C435.74413618 60.50870045 473.89292567 71.70002761 497.26914978 89.69651794 C545.3771427 131.40949066 570.75155061 255.82380776 575.69883728 316.97776794 C576.05402012 328.43241464 573.0488825 338.19523507 566.41758728 347.50120544 C565.94965759 348.17667419 565.48172791 348.85214294 564.99961853 349.54808044 C547.40908792 372.15801696 510.31834742 381.01272801 483.52940369 384.55857849 C451.83118518 388.07574119 419.97598969 385.58311797 389.41758728 376.50120544 C389.15977478 377.22823669 388.90196228 377.95526794 388.63633728 378.70433044 C381.38600896 395.3429044 362.60875191 406.16793375 346.81602478 413.18479919 C336.44008365 417.20398559 325.80031225 419.55786373 314.65977478 419.51683044 C313.46263855 419.51344666 313.46263855 419.51344666 312.24131775 419.50999451 C311.63948669 419.50709412 311.03765564 419.50419373 310.41758728 419.50120544 C310.43853455 420.56556824 310.45948181 421.62993103 310.48106384 422.72654724 C310.5536269 426.6866961 310.59944579 430.64678654 310.63731384 434.60740662 C310.65739233 436.3194213 310.6846612 438.03136772 310.71934509 439.7431488 C310.76803129 442.20824552 310.79059301 444.67243334 310.80821228 447.13792419 C310.82885742 447.89957382 310.84950256 448.66122345 310.87077332 449.44595337 C310.87231431 453.12021424 310.54048758 455.29864012 308.61875916 458.46604919 C305.58320911 461.27265359 302.62897744 461.50813353 298.66758728 461.81370544 C297.98954041 461.88653748 297.31149353 461.95936951 296.61289978 462.03440857 C291.87079859 462.50771715 287.1806813 462.55994315 282.41758728 462.50120544 C282.07727478 464.32651794 282.07727478 464.32651794 281.73008728 466.18870544 C280.13725162 473.3678433 277.76913087 481.02277335 273.63243103 487.14183044 C272.14521921 489.38122618 272.14521921 489.38122618 272.95274353 491.50511169 C274.77026486 493.98178743 276.75261576 496.19814055 278.85508728 498.43870544 C286.46739185 506.55264458 286.46739185 506.55264458 286.3467865 511.27122498 C285.13889192 515.46997571 282.77076317 517.79626917 279.70274353 520.73948669 C278.84633522 521.58884041 278.84633522 521.58884041 277.97262573 522.45535278 C276.15319157 524.25350847 274.3168393 526.03326156 272.48008728 527.81370544 C271.24787903 529.02940006 270.01674658 530.24618613 268.78672791 531.46409607 C258.00212875 542.08620257 258.00212875 542.08620257 252.55039978 542.05198669 C246.84234668 540.57792903 242.13275475 535.1034622 237.92539978 531.17308044 C235.5826349 529.26195575 235.5826349 529.26195575 232.98789978 529.57151794 C229.97867131 530.65996228 227.16237072 531.95894139 224.29258728 533.37620544 C218.44823437 536.14844126 212.71406668 538.06273119 206.41758728 539.50120544 C206.38020447 540.81476013 206.34282166 542.12831482 206.30430603 543.48167419 C206.23863071 545.21737909 206.17218391 546.95305491 206.10508728 548.68870544 C206.08252869 549.55302185 206.05997009 550.41733826 206.03672791 551.30784607 C205.83368201 556.12557133 205.58643537 559.62482358 202.41758728 563.50120544 C199.38956357 565.51988792 198.77682744 565.75520647 195.3768158 565.79173279 C194.16524559 565.81087234 194.16524559 565.81087234 192.92919922 565.83039856 C191.6260099 565.83373703 191.6260099 565.83373703 190.29649353 565.83714294 C189.40018723 565.84379974 188.50388092 565.85045654 187.58041382 565.85731506 C185.68493197 565.86743915 183.7894145 565.87213216 181.89390564 565.87181091 C178.99430126 565.87618401 176.09621916 565.91250508 173.19688416 565.95042419 C171.35509249 565.95629242 169.51329359 565.96026177 167.67149353 565.96214294 C166.80472488 565.97651398 165.93795624 565.99088501 165.04492188 566.00569153 C159.03616721 565.96009405 159.03616721 565.96009405 155.88877869 563.62522888 C154.17024035 561.14409985 153.6687132 559.35538743 153.23008728 556.37620544 C153.08442322 555.41843201 152.93875916 554.46065857 152.78868103 553.47386169 C152.24961551 549.15566316 151.7750941 544.83832761 151.41758728 540.50120544 C149.84170837 539.93852966 149.84170837 539.93852966 148.23399353 539.36448669 C134.44217317 534.35928462 134.44217317 534.35928462 128.21446228 530.28636169 C126.45425163 529.35778485 126.45425163 529.35778485 124.52305603 529.59886169 C121.54913136 530.87340084 119.43212231 532.77446113 116.98008728 534.87620544 C108.00500354 542.54060241 108.00500354 542.54060241 103.66319275 542.43284607 C99.30817432 541.18275202 97.09430945 538.91647601 93.96055603 535.74339294 C93.37212418 535.16211639 92.78369232 534.58083984 92.1774292 533.98194885 C90.94013502 532.75241829 89.70917324 531.51648639 88.48423767 530.27464294 C86.61260478 528.3838001 84.71352817 526.52410329 82.81016541 524.66526794 C81.60852171 523.46391466 80.40859216 522.26084386 79.21055603 521.05589294 C78.6439476 520.50456696 78.07733917 519.95324097 77.49356079 519.38520813 C73.86811018 515.65063423 72.3884286 512.92591812 72.41758728 507.50120544 C73.38975525 505.48484802 73.38975525 505.48484802 74.90977478 503.89573669 C75.44989197 503.30470154 75.99000916 502.71366638 76.54649353 502.10472107 C77.12270447 501.51368591 77.69891541 500.92265076 78.29258728 500.31370544 C79.4209778 499.11750915 80.54361992 497.91585793 81.65977478 496.70823669 C82.16363708 496.18721375 82.66749939 495.6661908 83.18663025 495.12937927 C84.63461369 493.21414691 85.13096852 491.88190188 85.41758728 489.50120544 C84.40497807 486.95662585 83.34820103 484.61482105 82.10508728 482.18870544 C79.03128584 476.08422202 76.41758728 470.49018779 76.41758728 463.50120544 C75.78256287 463.46680359 75.14753845 463.43240173 74.49327087 463.3969574 C71.59108922 463.2262564 68.69242482 463.0203143 65.79258728 462.81370544 C64.79356384 462.76020935 63.79454041 462.70671326 62.76524353 462.65159607 C54.3915102 462.01386141 54.3915102 462.01386141 50.70664978 459.73167419 C47.99784524 455.90883912 48.17033891 454.38561873 48.27452087 449.79930115 C48.30550369 448.0331823 48.30550369 448.0331823 48.33711243 446.23138428 C48.36366913 445.33042526 48.39022583 444.42946625 48.41758728 443.50120544 C47.7877424 443.50581441 47.15789753 443.51042337 46.50896645 443.515172 C31.15034185 443.62581874 15.79185679 443.70844293 0.4329319 443.7602663 C-6.99469229 443.78599689 -14.42204968 443.82104799 -21.84950256 443.87840271 C-28.3268174 443.92839643 -34.80393891 443.96053383 -41.28144133 443.97164792 C-44.70814375 443.97813996 -48.13429332 443.99328808 -51.56081772 444.02985573 C-55.39565733 444.0662819 -59.22936085 444.07114476 -63.06434631 444.0688324 C-64.18788513 444.08680878 -65.31142395 444.10478516 -66.4690094 444.12330627 C-73.75887865 444.07590723 -79.57475738 442.81807021 -85.58241272 438.50120544 C-90.28396354 432.88096134 -91.70428203 427.8556895 -91.7166338 420.59930897 C-91.72109164 419.3846734 -91.72554948 418.17003784 -91.73014241 416.91859514 C-91.73005312 415.56883799 -91.72986327 414.21908085 -91.72958374 412.86932373 C-91.73288341 411.4368542 -91.7366092 410.0043856 -91.74072522 408.57191819 C-91.75074145 404.63058201 -91.7544614 400.68926106 -91.75711453 396.74791396 C-91.76101866 392.49895876 -91.77059687 388.25001562 -91.77932739 384.00106812 C-91.79908795 373.73786752 -91.80915715 363.47466595 -91.81805518 353.21145108 C-91.82243845 348.37856833 -91.82780513 343.54568668 -91.83304405 338.71280479 C-91.85005535 322.64796965 -91.86454989 306.58313519 -91.87179279 290.51829243 C-91.87370269 286.3495922 -91.87562302 282.18089198 -91.87757874 278.01219177 C-91.87806248 276.97608063 -91.87854622 275.93996949 -91.87904461 274.87246104 C-91.88734633 258.08519212 -91.91268608 241.29799441 -91.94515941 224.51075659 C-91.97822527 207.27676594 -91.9962411 190.0428115 -91.99943703 172.80878896 C-92.00160249 163.13204639 -92.01035639 153.45540772 -92.03589821 143.77869606 C-92.05759866 135.53828868 -92.06565882 127.29801042 -92.05593143 119.05757771 C-92.05138493 114.85390584 -92.05329322 110.65050044 -92.07269287 106.44686508 C-92.09031239 102.59567156 -92.08933694 98.74493913 -92.07379558 94.8937408 C-92.07141766 93.50339427 -92.07575274 92.11301591 -92.08762423 90.72271804 C-92.17651027 79.62206267 -90.58937081 72.00702587 -82.74647522 63.86839294 C-82.24298553 63.34131744 -81.73949585 62.81424194 -81.2207489 62.27119446 C-79.35632444 60.33272432 -77.470364 58.41676966 -75.58241272 56.50120544 C-74.78685974 55.68784729 -73.99130676 54.87448914 -73.17164612 54.03648376 C-67.47899753 48.21924636 -61.75017323 42.43959744 -56.00038147 36.67893982 C-53.45456113 34.12759687 -50.91819801 31.56705862 -48.38379478 29.00438118 C-46.39838581 27.00020713 -44.40616232 25.00290992 -42.41211319 23.00733566 C-41.02611653 21.61692831 -39.64720175 20.21947267 -38.26853943 18.8217926 C-26.90085272 7.49370854 -16.38529988 -0.149885 0 0 Z " fill="#283741" transform="translate(270.58241271972656,254.49879455566406)"/>
<path d="M0 0 C1.44532377 -0.01059839 1.44532377 -0.01059839 2.919846 -0.02141088 C4.51889053 -0.01778826 4.51889053 -0.01778826 6.15023899 -0.01409245 C7.27689159 -0.01932912 8.4035442 -0.0245658 9.56433779 -0.02996117 C13.3653507 -0.04504482 17.16622999 -0.04566815 20.96727085 -0.04633427 C23.68188214 -0.05286536 26.39648167 -0.062327 29.11108494 -0.07155704 C36.50349353 -0.09443506 43.89587348 -0.10233047 51.28831267 -0.10738349 C55.90123375 -0.11063688 60.51414645 -0.11715713 65.1270628 -0.12438488 C77.89087595 -0.14395348 90.65468131 -0.16035649 103.41851044 -0.16326141 C104.23574621 -0.16344898 105.05298199 -0.16363655 105.89498249 -0.16382981 C107.55182048 -0.16419607 109.20865846 -0.16455976 110.86549645 -0.16492092 C111.68798825 -0.16510373 112.51048005 -0.16528654 113.35789585 -0.16547489 C114.59313347 -0.16574572 114.59313347 -0.16574572 115.85332537 -0.16602201 C129.20462099 -0.16956562 142.55575551 -0.19659841 155.90699523 -0.23397278 C169.60396201 -0.2720092 183.30084875 -0.29141854 196.99786955 -0.29172093 C204.69257876 -0.29230651 212.38709576 -0.30086319 220.08175564 -0.32971859 C226.63233832 -0.35417015 233.18265871 -0.36155778 239.73327463 -0.34647106 C243.07768507 -0.33927635 246.42115297 -0.34296055 249.76557636 -0.36288166 C253.38636396 -0.38314104 257.00578975 -0.37290786 260.62655735 -0.35466862 C262.2222558 -0.37446857 262.2222558 -0.37446857 263.85019058 -0.39466852 C264.81634751 -0.38347988 265.78250443 -0.37229124 266.77793884 -0.36076355 C267.61413803 -0.36157801 268.45033721 -0.36239246 269.31187576 -0.3632316 C271.45188999 0.26006222 271.45188999 0.26006222 273.22094047 2.44513571 C274.56910297 5.52810401 274.82493181 7.56844813 274.82103348 10.91971207 C274.82700662 12.05480408 274.83297977 13.18989609 274.83913392 14.35938483 C274.83039539 15.60159693 274.82165687 16.84380902 274.81265354 18.1236639 C274.81396197 19.46029156 274.81658909 20.79691848 274.82042104 22.13354129 C274.82713063 25.80505148 274.81512698 29.47629925 274.80008686 33.14777601 C274.78713752 37.10750689 274.79151517 41.06722285 274.79379368 45.02696896 C274.79536711 51.88701353 274.7859506 58.74697253 274.76908016 65.60699558 C274.74470421 75.52543652 274.73688633 85.44383605 274.73311619 95.3623037 C274.7265495 111.45414184 274.70658243 127.54593438 274.67820835 143.63774776 C274.65067341 159.2699069 274.62943706 174.90205365 274.61668491 190.53423214 C274.61589674 191.49771809 274.61510857 192.46120405 274.61429652 193.45388655 C274.61038142 198.28738831 274.60659029 203.12089016 274.60286081 207.95439208 C274.57175813 248.05631406 274.5189164 288.15818513 274.45188999 328.26006222 C272.45188999 328.26006222 272.45188999 328.26006222 270.20188999 326.13506222 C268.78197402 324.65060462 267.36620792 323.15899524 266.03782749 321.59209347 C265.55571812 321.04939816 265.07360874 320.50670284 264.57688999 319.94756222 C264.14634312 319.43580441 263.71579624 318.92404659 263.27220249 318.39678097 C260.26146626 316.51668602 257.91043576 316.84991416 254.45188999 317.26006222 C251.45216101 319.0281863 251.45216101 319.0281863 248.82688999 321.51006222 C247.92712437 322.29896847 247.02735874 323.08787472 246.10032749 323.90068722 C245.22634312 324.67928097 244.35235874 325.45787472 243.45188999 326.26006222 C241.79327743 327.60340132 240.1291369 328.94006284 238.45188999 330.26006222 C233.59738824 328.39437416 228.92973515 326.15882432 224.24290562 323.91435909 C219.72256496 321.7770493 215.15264205 319.96610653 210.45188999 318.26006222 C210.41225132 317.68038692 210.37261265 317.10071163 210.3317728 316.50347042 C210.14034494 313.85811716 209.92139165 311.21572799 209.70188999 308.57256222 C209.64001499 307.6605505 209.57813999 306.74853878 209.51438999 305.80889034 C209.43704624 304.92265987 209.35970249 304.03642941 209.28001499 303.12334347 C209.21717319 302.31163692 209.1543314 301.49993038 209.0895853 300.66362667 C208.17512235 297.21688557 207.14721602 295.6338988 204.45188999 293.26006222 C201.30618162 292.52812856 198.2320885 292.58297905 195.01438999 292.63115597 C194.09730259 292.62874401 193.18021519 292.62633205 192.23533726 292.62384701 C190.2986884 292.62482538 188.36201155 292.63821679 186.4255228 292.66313839 C183.46199083 292.69744529 180.501441 292.68379827 177.53782749 292.66435909 C175.6550023 292.67125769 173.77218481 292.68093019 171.88938999 292.69365597 C170.56113194 292.68621616 170.56113194 292.68621616 169.20604038 292.67862606 C164.19832411 292.74323034 164.19832411 292.74323034 159.92454624 295.17046261 C157.80561708 298.17707977 157.30490331 299.98120544 157.13548374 303.61162472 C157.09358921 304.46240597 157.05169468 305.31318722 157.00853062 306.18974972 C156.96921421 307.07920284 156.9298978 307.96865597 156.88938999 308.88506222 C156.8462064 309.78224972 156.8030228 310.67943722 156.75853062 311.60381222 C156.65232139 313.82240504 156.55027805 316.04111101 156.45188999 318.26006222 C155.03649937 318.80533566 155.03649937 318.80533566 153.59251499 319.36162472 C152.29513688 319.86815047 150.99830053 320.37606515 149.70188999 320.88506222 C149.02537388 321.14996456 148.34885777 321.41486691 147.65184116 321.68779659 C142.1948818 323.86673515 137.0606369 326.46425483 131.94017124 329.35381222 C129.45188999 330.26006222 129.45188999 330.26006222 127.47142124 329.69756222 C124.83032091 327.81763007 122.3216121 325.83115227 119.82688999 323.76006222 C118.86524937 322.96599972 117.90360874 322.17193722 116.91282749 321.35381222 C114.45188999 319.26006222 114.45188999 319.26006222 112.45188999 317.26006222 C109.08473174 316.52658418 107.67532433 316.31608484 104.45188999 317.26006222 C100.48281315 320.19042321 97.18567991 323.73006046 93.82688999 327.32256222 C92.91165562 328.26551144 91.99642124 329.20846066 91.05345249 330.17998409 C88.48487887 332.84320891 85.9591833 335.53919244 83.45188999 338.26006222 C82.80316929 338.95760616 82.15444859 339.65515011 81.48606968 340.37383175 C78.75201183 343.41266187 77.50525186 344.85984822 76.95188999 349.01006222 C78.05291437 354.36838085 82.41178488 358.07526434 86.10423374 361.84209347 C88.45188999 364.26006222 88.45188999 364.26006222 90.45188999 367.26006222 C90.13097279 371.68413501 88.10601511 375.18982703 86.07688999 379.07256222 C83.51202789 384.0453205 81.31392036 388.98430951 79.45188999 394.26006222 C77.82999123 395.88196098 75.88554617 395.63640621 73.64720249 395.87334347 C72.67138218 395.9874255 71.69556187 396.10150753 70.69017124 396.21904659 C68.62364952 396.45370182 66.55589544 396.67775951 64.48704624 396.89092159 C63.5086478 397.00887081 62.53024937 397.12682003 61.52220249 397.24834347 C60.622598 397.34671505 59.72299351 397.44508663 58.79612827 397.54643917 C55.69609877 398.49013697 55.07257659 399.46479489 53.45188999 402.26006222 C52.87421503 405.7586509 52.87421503 405.7586509 52.76438999 409.51006222 C52.6986478 410.77334347 52.63290562 412.03662472 52.56517124 413.33818722 C52.52778843 414.30240597 52.49040562 415.26662472 52.45188999 416.26006222 C36.61417304 416.33013024 20.7764979 416.38303952 4.93866444 416.41549873 C-2.41505265 416.43097043 -9.76867346 416.45206562 -17.12232876 416.48638058 C-23.53146499 416.5162738 -29.94053149 416.53563503 -36.3497355 416.5423277 C-39.74367386 416.54624013 -43.13741274 416.55544088 -46.53128719 416.57725239 C-50.31924295 416.59895018 -54.10678205 416.60203228 -57.8947897 416.60063839 C-59.02119869 416.61142422 -60.14760769 416.62221004 -61.30815029 416.63332272 C-62.85618847 416.62713673 -62.85618847 416.62713673 -64.43550014 416.62082577 C-65.33148293 416.62359115 -66.22746571 416.62635653 -67.15059948 416.6292057 C-70.15711247 416.16629442 -71.37278444 415.38204872 -73.54811001 413.26006222 C-74.04490399 410.68814069 -74.04490399 410.68814069 -74.04030132 407.53416061 C-74.04826552 406.33338279 -74.05622971 405.13260496 -74.06443524 403.89543992 C-74.05302239 402.55618761 -74.04123999 401.2169384 -74.02912807 399.87769222 C-74.03087144 398.4602934 -74.03437203 397.04289582 -74.03948474 395.62550515 C-74.04845485 391.72137932 -74.03239358 387.81769005 -74.01237249 383.91361988 C-73.99514093 379.70708921 -74.00094114 375.5005843 -74.00398159 371.29402828 C-74.00608168 364.00284941 -73.9935037 356.71181343 -73.97103024 349.42067051 C-73.93855833 338.87885245 -73.92810815 328.33710367 -73.92307827 317.79524102 C-73.91431805 300.69289939 -73.88768278 283.59063395 -73.84986782 266.4883337 C-73.81316652 249.87245217 -73.78484556 233.25659132 -73.76783657 216.64067745 C-73.76626023 215.10505048 -73.76626023 215.10505048 -73.76465204 213.53840075 C-73.75943199 208.40267634 -73.75437714 203.26695179 -73.74940443 198.13122714 C-73.70791977 155.50745271 -73.63745159 112.88376139 -73.54811001 70.26006222 C-72.92694302 70.25419598 -72.30577602 70.24832973 -71.66578579 70.24228573 C-65.17623394 70.17814464 -58.68716852 70.09367196 -52.19801235 69.99761105 C-49.77913245 69.96444246 -47.36017665 69.93638564 -44.94117641 69.91362667 C-41.45565991 69.87993287 -37.97083386 69.82760781 -34.48561001 69.77178097 C-33.41133755 69.76539104 -32.33706509 69.75900112 -31.23023891 69.75241756 C-24.12732794 69.61463954 -17.70316377 69.15930081 -12.23561001 64.13506222 C-7.77005052 56.52707197 -7.10767024 49.20090845 -7.10670376 40.51396847 C-7.0934959 39.4216441 -7.08028805 38.32931973 -7.06667995 37.20389462 C-7.02604029 33.74342349 -7.00416515 30.28321701 -6.98561001 26.82256222 C-6.96183657 23.33699212 -6.93381458 19.85167151 -6.89382839 16.36624813 C-6.86942724 14.20395291 -6.85460466 12.04152448 -6.85021877 9.87909603 C-6.84003216 8.90725872 -6.82984554 7.93542141 -6.81935024 6.93413448 C-6.81507519 6.07747692 -6.81080013 5.22081936 -6.80639553 4.33820248 C-6.2704633 0.02614377 -3.71616122 0.0086718 0 0 Z " fill="#B1E5FE" transform="translate(266.54811000823975,268.7399377822876)"/>
<path d="M0 0 C1.286716 0.00465271 2.57343201 0.00930542 3.8991394 0.01409912 C23.34034593 0.09630805 42.4937789 0.51890004 61.75 3.375 C62.41273926 3.47210266 63.07547852 3.56920532 63.75830078 3.66925049 C141.56132843 15.15252924 215.36617353 46.67464938 275.75 97.375 C276.38631348 97.90689941 277.02262695 98.43879883 277.67822266 98.98681641 C284.02109477 104.30155434 290.21774125 109.64835066 295.9765625 115.6015625 C297.74306639 117.36806639 299.58465542 118.95986474 301.5 120.5625 C306.85430725 125.1728624 311.48675253 130.46126002 316.21972656 135.69189453 C317.68517017 137.30369547 319.16353144 138.90222701 320.6484375 140.49609375 C346.73703533 168.53532574 368.27433533 200.93885272 384.82324219 235.45214844 C385.75477901 237.38491557 386.70804308 239.30580616 387.6640625 241.2265625 C421.89158932 310.87251132 435.37936556 394.3400755 425.75 471.375 C425.6046582 472.60734375 425.45931641 473.8396875 425.30957031 475.109375 C420.22464655 517.64857107 408.23567262 558.28694915 390.75 597.375 C390.40259766 598.16616211 390.05519531 598.95732422 389.69726562 599.77246094 C373.7128303 636.1021968 350.83796726 670.7896752 323.9453125 699.96875 C322.74053787 701.28928589 321.5434668 702.61761741 320.38476562 703.97875977 C315.12240159 710.14207015 309.44518582 715.86593371 303.71777344 721.5925293 C302.01205402 723.30043056 300.31450973 725.01618045 298.6171875 726.73242188 C291.96895499 733.41439809 285.1404922 739.51354877 277.75 745.375 C276.64796899 746.30954038 275.55163282 747.25090256 274.46484375 748.203125 C222.04386276 793.91481025 155.22014366 822.07888491 87.75 836.375 C86.75597168 836.59236816 85.76194336 836.80973633 84.73779297 837.03369141 C78.43923351 838.39625566 72.12997903 839.47039793 65.75 840.375 C64.48526855 840.55546875 63.22053711 840.7359375 61.91748047 840.921875 C-30.9046543 853.78766736 -127.23333141 835.90627189 -251.078125 761.55859375 C-257.95656327 756.35168649 -264.63730615 750.91373444 -271.25 745.375 C-271.84232422 744.88177246 -272.43464844 744.38854492 -273.04492188 743.88037109 C-313.69149493 709.9515845 -346.90338065 668.77100577 -372.20263672 622.2890625 C-373.24628163 620.38179534 -374.31154162 618.48782288 -375.37890625 616.59375 C-400.46680163 571.40844069 -414.04316071 520.3771575 -420.25 469.375 C-420.37149414 468.41658203 -420.49298828 467.45816406 -420.61816406 466.47070312 C-429.79762419 391.44574245 -415.27268106 313.83968003 -384.25 245.375 C-383.87311035 244.52776367 -383.4962207 243.68052734 -383.10791016 242.80761719 C-365.31047953 202.90113074 -339.58035354 167.52267738 -310.25 135.375 C-309.36441406 134.39660156 -308.47882813 133.41820312 -307.56640625 132.41015625 C-300.18012317 124.27082758 -292.68055499 116.3297583 -284.32421875 109.171875 C-282.04842282 107.2003757 -279.84077333 105.16365605 -277.625 103.125 C-271.97958144 98.03288433 -266.03012155 93.37830008 -260.01269531 88.73925781 C-258.33104976 87.43772937 -256.66027626 86.12352335 -254.9921875 84.8046875 C-183.25239864 28.36381035 -90.75500012 -0.58915039 0 0 Z M-66 29.0625 C-66.76236969 29.19194 -67.52473938 29.32138 -68.31021118 29.45474243 C-103.21707326 35.42649016 -137.27630699 46.13430622 -169.25 61.375 C-170.02069824 61.74222168 -170.79139648 62.10944336 -171.58544922 62.48779297 C-175.54462706 64.39267198 -179.4648577 66.36274699 -183.36083984 68.39355469 C-185.34463788 69.42416571 -187.33790205 70.43485344 -189.33203125 71.4453125 C-212.01616397 83.0585564 -232.90433847 97.6272695 -252.46777344 113.90136719 C-254.1045773 115.25475734 -255.75429553 116.58900285 -257.4140625 117.9140625 C-262.35075997 121.87158031 -266.95340466 125.94017005 -271.359375 130.48046875 C-273.23243472 132.35739843 -275.17385304 134.08821569 -277.1875 135.8125 C-283.77749725 141.49798783 -289.8058375 147.70197215 -295.4609375 154.3125 C-296.69098976 155.73055151 -297.94805377 157.12547678 -299.2265625 158.5 C-305.89973549 165.68276075 -311.78226794 173.40039629 -317.65087891 181.24072266 C-319.12794914 183.21210403 -320.61571326 185.17492016 -322.10546875 187.13671875 C-336.24002325 205.90522168 -348.03593168 226.2667344 -358.27929688 247.38476562 C-359.21873393 249.31089512 -360.17826618 251.22586967 -361.140625 253.140625 C-380.33412751 291.93485413 -391.02035229 334.56980905 -396.25 377.375 C-396.37920334 378.36746231 -396.37920334 378.36746231 -396.51101685 379.37997437 C-398.3025725 393.28129867 -398.60996457 407.05746163 -398.5625 421.0625 C-398.56067719 422.18062073 -398.55885437 423.29874146 -398.55697632 424.45074463 C-398.5064203 442.93119328 -397.7896772 461.05250264 -395.25 479.375 C-395.08902832 480.56496582 -394.92805664 481.75493164 -394.76220703 482.98095703 C-385.09629172 551.75659079 -355.01849659 617.68012068 -311.25 671.375 C-310.81896973 671.90512695 -310.38793945 672.43525391 -309.94384766 672.98144531 C-295.84617317 690.22076616 -280.28742478 707.00646143 -263.25 721.375 C-262.28449219 722.22964844 -261.31898438 723.08429687 -260.32421875 723.96484375 C-225.77489994 754.42845474 -184.9732885 777.55328651 -142.25 794.375 C-141.34846191 794.73190918 -140.44692383 795.08881836 -139.51806641 795.45654297 C-105.81488326 808.6539086 -70.23168841 816.0973767 -34.25 819.375 C-32.85225342 819.51639404 -32.85225342 819.51639404 -31.42626953 819.66064453 C-20.43193177 820.66470184 -9.40600746 820.61869974 1.625 820.625 C2.68902039 820.62567474 3.75304077 820.62634949 4.8493042 820.62704468 C22.66712767 820.60916302 40.08231079 819.84444177 57.75 817.375 C59.5745874 817.12556641 59.5745874 817.12556641 61.43603516 816.87109375 C101.5532764 811.21413846 140.13797749 799.7230845 176.75 782.375 C177.6898877 781.93188477 178.62977539 781.48876953 179.59814453 781.03222656 C205.68891933 768.62789571 230.180458 753.41250545 252.75 735.375 C254.17892578 734.23611328 254.17892578 734.23611328 255.63671875 733.07421875 C260.96079647 728.77485891 266.117321 724.32816714 271.16796875 719.7109375 C272.58672909 718.4273994 274.01179872 717.15031336 275.46362305 715.90429688 C281.29395698 710.89572736 286.75196815 705.55661294 292.1875 700.125 C293.07759766 699.24714844 293.96769531 698.36929688 294.88476562 697.46484375 C300.2050573 692.15621086 305.11651534 686.67915587 309.79248047 680.79394531 C311.596329 678.56489427 313.47312476 676.46237634 315.4375 674.375 C365.30650019 618.83228123 393.54028896 541.39649645 402.75 468.375 C402.86859375 467.49086426 402.9871875 466.60672852 403.109375 465.69580078 C413.11464593 389.331166 395.04867909 307.06421065 359.73876953 239.28320312 C358.72504729 237.32684436 357.73491414 235.3596715 356.74609375 233.390625 C347.89454888 215.97941268 337.20337712 199.59300347 325.18359375 184.20996094 C323.73717944 182.35859004 322.30528367 180.49666309 320.875 178.6328125 C316.13905839 172.49511055 311.27966821 166.55082188 306.015625 160.8515625 C304.78393394 159.50519676 303.55945983 158.15138276 302.37597656 156.76245117 C297.11653911 150.602017 291.44230065 144.88118153 285.71777344 139.1574707 C284.01205402 137.44956944 282.31450973 135.73381955 280.6171875 134.01757812 C273.98195739 127.34824147 267.14191353 121.21231185 259.75 115.375 C258.44394064 114.29123207 257.14145121 113.2031371 255.84375 112.109375 C245.92522361 103.83646246 235.56266903 96.43247266 224.75 89.375 C223.93966309 88.84406738 223.12932617 88.31313477 222.29443359 87.76611328 C157.7927498 45.83173139 81.94548803 24.18431125 5.23779297 24.18969727 C1.78470313 24.18752186 -1.66806055 24.1693363 -5.12109375 24.15039062 C-25.64778626 24.09637494 -45.76983146 25.58103705 -66 29.0625 Z " fill="#FEBC40" transform="translate(509.25,84.625)"/>
<path d="M0 0 C20.67996324 7.31892856 33.85695621 16.8528231 43.375 36.625 C48.60436151 47.82078438 52.89304539 59.35367448 57 71 C57.36641602 72.03737305 57.73283203 73.07474609 58.11035156 74.14355469 C109.46154759 221.00887387 109.46154759 221.00887387 96.9375 248.9375 C95.52734375 251.11328125 95.52734375 251.11328125 94 253 C93.29037109 253.91845703 93.29037109 253.91845703 92.56640625 254.85546875 C73.26733876 276.65715845 35.11427488 283.78606899 7.67626953 285.84326172 C-7.62690616 286.73950682 -22.83171605 286.16013672 -38 284 C-38.70108887 283.90348145 -39.40217773 283.80696289 -40.12451172 283.70751953 C-61.21583411 280.7071422 -83.27353618 274.89776254 -100.66796875 262.1875 C-102.97402562 260.75239159 -102.97402562 260.75239159 -105.73828125 261.25 C-107.94290341 261.79336872 -107.94290341 261.79336872 -109 263 C-109.50125283 266.33142278 -109.50125283 266.33142278 -109 270 C-105.40643631 274.33281108 -101.3660769 276.70140369 -96.4375 279.1875 C-95.77814453 279.52974609 -95.11878906 279.87199219 -94.43945312 280.22460938 C-91.30774178 281.8455454 -88.15884366 283.43263482 -85 285 C-91.97224927 299.57833937 -107.31739681 309.40140703 -122.046875 315.01171875 C-132.34942144 318.4595286 -142.32422994 319.54980697 -153.13012695 320.1784668 C-154.08878662 320.24332275 -155.04744629 320.30817871 -156.03515625 320.375 C-156.8950415 320.42398437 -157.75492676 320.47296875 -158.64086914 320.5234375 C-161.42277373 321.08540353 -162.77658909 322.28992496 -165 324 C-168.453125 324.07421875 -168.453125 324.07421875 -172.25 323.6875 C-174.14492188 323.50767578 -174.14492188 323.50767578 -176.078125 323.32421875 C-177.04234375 323.21722656 -178.0065625 323.11023438 -179 323 C-179.36351562 322.06800781 -179.72703125 321.13601563 -180.1015625 320.17578125 C-183.45843461 311.63950988 -187.05925787 303.28673789 -191 295 C-190.40832031 294.35933594 -189.81664062 293.71867187 -189.20703125 293.05859375 C-186.77546887 290.39696511 -184.37901866 287.70866566 -182 285 C-181.42378906 284.34773438 -180.84757813 283.69546875 -180.25390625 283.0234375 C-177.67787047 279.82710982 -176.99073235 278.28729703 -177.125 274.125 C-177.68110322 271.15547637 -177.68110322 271.15547637 -179 270 C-179.13237163 267.35978452 -179.1998411 264.74504374 -179.22460938 262.10302734 C-179.24169449 260.86146378 -179.24169449 260.86146378 -179.25912476 259.59481812 C-179.36991881 250.91899172 -179.41723833 242.2423031 -179.45996094 233.56591797 C-179.48222181 229.4489566 -179.52396332 225.33290378 -179.58300781 221.21630859 C-179.65412959 216.24836696 -179.69079869 211.28127937 -179.70307922 206.31285477 C-179.71347685 204.42059576 -179.73589422 202.5283624 -179.77067566 200.6363945 C-180.02883862 185.82405865 -180.02883862 185.82405865 -177.49307251 181.32832336 C-175.74540404 179.55032786 -174.1213018 178.29040146 -172 177 C-171.05898438 176.19433594 -170.11796875 175.38867188 -169.1484375 174.55859375 C-162.15197828 169.20778058 -155.21574066 165.18372047 -147 162 C-145.95714844 161.58621094 -144.91429687 161.17242187 -143.83984375 160.74609375 C-126.68332377 154.87729609 -109.00378549 156.76731988 -92.88671875 164.4921875 C-87.60705598 167.24990039 -82.74866088 170.41212289 -78 174 C-80.48773856 176.70406366 -83.28370053 178.62221903 -86.3125 180.6875 C-92.37862688 185.0445197 -97.10897012 190.02984578 -100 197 C-100.23979762 199.36222232 -100.23979762 199.36222232 -100.125 201.75 C-100.10695313 202.54921875 -100.08890625 203.3484375 -100.0703125 204.171875 C-100.04710937 204.77515625 -100.02390625 205.3784375 -100 206 C-95.16880066 206.47659862 -95.16880066 206.47659862 -90.9375 204.5 C-89.82912589 203.06983986 -88.73238764 201.63006527 -87.671875 200.1640625 C-79.84559412 189.41322402 -69.91149482 183.31571592 -57 180 C-53.88139723 179.59106234 -50.83007246 179.52084017 -47.6875 179.5625 C-46.85645752 179.57224854 -46.02541504 179.58199707 -45.16918945 179.59204102 C-27.33597006 180.10314562 -13.7732141 190.25499887 -1.9296875 202.76171875 C1.95304953 206.98838414 5.52655764 211.43378926 9 216 C9.33 216.33 9.66 216.66 10 217 C13.51745287 216.74751373 13.51745287 216.74751373 17 216 C18.41262818 213.17474364 18.26243608 211.13379559 18 208 C16.6525725 205.51118001 16.6525725 205.51118001 14.75 203.25 C6.41710952 191.98797226 4.68806609 179.44767349 4.69921875 165.71875 C4.69384598 164.67455399 4.68847321 163.63035797 4.68293762 162.55451965 C4.67165978 159.20288579 4.67791132 155.85163484 4.6875 152.5 C4.68766113 151.35816254 4.68782227 150.21632507 4.68798828 149.03988647 C4.70381599 132.95850948 5.49874474 117.4214068 7.68359375 101.48925781 C9.33556086 88.49276346 8.71715492 70.23703378 1.61645508 58.76464844 C0.00622955 56.69004721 0.00622955 56.69004721 -3.25 56.125 C-8.46055866 57.34079702 -9.59997856 60.06128622 -12.36328125 64.4453125 C-14.64564965 68.00776819 -17.15595121 71.07797561 -21 73 C-26.02494826 73.37924138 -28.91501557 73.00366502 -33 70 C-33.33 69.67 -33.66 69.34 -34 69 C-33.89812368 63.49867868 -32.69091977 60.17425599 -29.875 55.4375 C-27.20943655 50.93966709 -27.20943655 50.93966709 -27.0625 45.875 C-27.71669161 43.13229177 -27.71669161 43.13229177 -29 42 C-32.28513122 41.16352514 -32.28513122 41.16352514 -36 42 C-42.92186636 48.92186636 -46.29334559 59.46016553 -47 69 C-54.17234046 68.4482815 -63.75807573 67.24192427 -69 62 C-68.35933594 61.04480469 -67.71867188 60.08960938 -67.05859375 59.10546875 C-65.2606434 56.42247543 -63.47358788 53.73255112 -61.69140625 51.0390625 C-60.08392221 48.61217729 -58.45114978 46.21868421 -56.77734375 43.8359375 C-52.94708899 38.25178785 -51.09998011 34.81443633 -52 28 C-55.19320621 27.32774606 -57.82353869 27.17644967 -61 28 C-64.1207647 30.98527896 -66.145327 34.53832099 -68.3125 38.25 C-69.492365 40.17416638 -70.67583908 42.09612539 -71.86328125 44.015625 C-72.37157471 44.87446289 -72.87986816 45.73330078 -73.40356445 46.61816406 C-75.04641117 49.06924414 -76.85034341 50.98795168 -79 53 C-80.31886772 51.90344712 -81.62990057 50.79746577 -82.9375 49.6875 C-83.66839844 49.07261719 -84.39929688 48.45773437 -85.15234375 47.82421875 C-87.71873162 45.29038548 -87.96942834 43.34382652 -88.28515625 39.79296875 C-87.94191337 35.2273682 -86.58002082 32.28729254 -84.4375 28.3125 C-84.07470947 27.61697021 -83.71191895 26.92144043 -83.33813477 26.20483398 C-82.24392974 24.12596376 -81.12691947 22.06128976 -80 20 C-79.3915625 18.88109375 -78.783125 17.7621875 -78.15625 16.609375 C-59.04862812 -17.26322743 -32.78118388 -10.64848739 0 0 Z " fill="#FED683" transform="translate(733,341)"/>
<path d="M0 0 C0.72267864 -0.00694553 1.44535728 -0.01389106 2.18993527 -0.02104706 C4.61221245 -0.03934772 7.03351361 -0.02904486 9.45582581 -0.01878357 C11.19213088 -0.02584055 12.9284298 -0.03458463 14.66471863 -0.04489136 C19.38170974 -0.06742048 24.09836588 -0.06443737 28.81539035 -0.05556989 C32.75190295 -0.05046477 36.68835234 -0.05774871 40.62485844 -0.06504196 C49.91085543 -0.08205228 59.19668814 -0.07846386 68.48268127 -0.06175232 C78.06562175 -0.04482948 87.64810678 -0.06066519 97.2309975 -0.0929752 C105.45617561 -0.11965784 113.68121183 -0.1269507 121.90642887 -0.11846012 C126.82004055 -0.11352706 131.73337813 -0.11576696 136.64695549 -0.13624763 C141.26740165 -0.15458395 145.88719193 -0.14867135 150.50760269 -0.12404823 C152.20352538 -0.11903379 153.89949786 -0.12254655 155.59538078 -0.13519669 C157.9106978 -0.15110131 160.22384812 -0.13620442 162.5390625 -0.11352539 C164.48224444 -0.11264593 164.48224444 -0.11264593 166.46468258 -0.1117487 C170.67906928 0.67200344 172.12952068 2.27651144 174.83302307 5.5146637 C175.16302307 5.8446637 175.49302307 6.1746637 175.83302307 6.5146637 C175.93948441 8.83312699 175.98080958 11.12215605 175.98019409 13.4414978 C175.98387078 14.17456939 175.98754747 14.90764098 175.99133557 15.66292685 C176.00241547 18.13800817 176.0062235 20.61304757 176.01002502 23.08815002 C176.01628642 24.85518529 176.02293293 26.62221923 176.02993774 28.38925171 C176.04737752 33.20335253 176.05790754 38.01744339 176.06614327 42.831568 C176.07128698 45.83656314 176.07736298 48.84155515 176.0836544 51.84654808 C176.10271453 61.24061989 176.11694407 70.63468379 176.12526637 80.02877122 C176.1350437 90.88726049 176.16137272 101.74554617 176.20176727 112.60396367 C176.23188718 120.98699363 176.24673131 129.36996509 176.25004739 137.75304812 C176.25240257 142.76447133 176.26142348 147.77567726 176.28650856 152.78704262 C176.30972234 157.50089029 176.31404963 162.2143766 176.30374718 166.92826653 C176.30325007 168.66009851 176.30962173 170.39194788 176.32330322 172.12372589 C176.3409182 174.48521419 176.33396853 176.84539096 176.32077026 179.20687866 C176.33173951 179.89491587 176.34270876 180.58295308 176.3540104 181.2918399 C176.30937604 184.59151917 176.02715612 186.26246378 173.99003887 188.90890026 C170.05264051 191.84004722 166.63080794 191.6459296 161.86222839 191.66183472 C161.14857129 191.6655114 160.43491418 191.66918809 159.69963109 191.6729762 C157.30219331 191.68401175 154.90479886 191.68785661 152.50733948 191.69166565 C150.79089215 191.69793028 149.07444619 191.70457708 147.35800171 191.71157837 C142.69064184 191.72898519 138.0232922 191.73953876 133.35590792 191.7477839 C130.44101439 191.75293359 127.52612404 191.75900926 124.61123276 191.76529503 C115.49427859 191.78434422 106.37733251 191.79857726 97.26036227 191.806907 C86.73017321 191.8166865 76.20019397 191.84302573 65.67007887 191.88340789 C57.53412464 191.91354024 49.39823066 191.92837303 41.26222169 191.93168801 C36.40114116 191.93404132 31.54028484 191.94303845 26.67926407 191.96814919 C22.10737773 191.99138531 17.53586397 191.99568121 12.96393394 191.9853878 C11.28573431 191.98489128 9.6075166 191.9912459 7.92937279 192.00494385 C5.63839476 192.0225984 3.34876329 192.01558976 1.05778503 192.00241089 C-0.22421972 192.00479924 -1.50622448 192.0071876 -2.82707787 192.00964832 C-6.87306705 191.41001869 -8.50152455 190.61981593 -11.16697693 187.5146637 C-11.66916439 184.83782908 -11.84055167 182.78845733 -11.79516602 180.11317444 C-11.8022604 179.36528892 -11.80935479 178.6174034 -11.81666416 177.84685469 C-11.83427602 175.33911824 -11.81612461 172.83292528 -11.79808044 170.32521057 C-11.80321808 168.52817071 -11.81049818 166.73113587 -11.81976318 164.93411255 C-11.83830533 160.05181599 -11.8253209 155.1700643 -11.80567288 150.2877903 C-11.78930828 145.18205232 -11.79809623 140.07634945 -11.80319214 134.97059631 C-11.80771555 126.39584125 -11.79182793 117.82130416 -11.76390076 109.24659729 C-11.73184777 99.3285416 -11.7318638 89.41087908 -11.74911553 79.49279547 C-11.76497113 69.95772203 -11.75825327 60.42279294 -11.74117851 50.88772583 C-11.73430016 46.82717046 -11.73534851 42.76673053 -11.74272346 38.70617676 C-11.75037625 33.92573795 -11.73829318 29.14574738 -11.71087456 24.36538506 C-11.70397905 22.6093879 -11.70390522 20.85334898 -11.71109009 19.09735298 C-11.71975864 16.70311692 -11.70387454 14.31027245 -11.68164062 11.91615295 C-11.68988139 11.21848926 -11.69812216 10.52082557 -11.70661265 9.80202055 C-11.65251507 6.65362331 -11.31451666 4.74100986 -9.58274651 2.0842371 C-6.26771693 -0.06960336 -3.94427978 0.00854874 0 0 Z " fill="#283842" transform="translate(286.16697692871094,335.48533630371094)"/>
<path d="M0 0 C1.084021 0.00523682 2.16804199 0.01047363 3.28491211 0.01586914 C4.45473633 0.0190918 5.62456055 0.02231445 6.82983398 0.02563477 C8.0615332 0.03401367 9.29323242 0.04239258 10.56225586 0.05102539 C12.41560547 0.05779297 12.41560547 0.05779297 14.30639648 0.06469727 C17.37089703 0.07652931 20.43530307 0.09301366 23.49975586 0.11352539 C23.57492432 0.70367432 23.65009277 1.29382324 23.72753906 1.90185547 C24.0759769 4.57847965 24.44387761 7.2520758 24.81225586 9.92602539 C24.98917969 11.31917969 24.98917969 11.31917969 25.16967773 12.74047852 C25.29536133 13.6331543 25.42104492 14.52583008 25.55053711 15.44555664 C25.66051025 16.26773682 25.7704834 17.08991699 25.88378906 17.93701172 C26.60649683 20.49069375 27.42694586 21.48709479 29.49975586 23.11352539 C31.64110404 23.87623677 33.81418068 24.55123596 35.99975586 25.17602539 C43.52049091 27.44011122 50.1376831 30.91292295 56.88842773 34.89892578 C60.53641627 36.96273578 62.88044513 38.09019291 67.12866211 38.25024414 C71.44167705 36.79591349 74.12339762 34.59855748 77.43725586 31.55102539 C78.02571289 31.03088867 78.61416992 30.51075195 79.22045898 29.97485352 C80.6583832 28.70059547 82.08072545 27.40879074 83.49975586 26.11352539 C87.52018797 27.76044939 90.4304162 30.56803687 93.56225586 33.48852539 C94.09141602 33.97063477 94.62057617 34.45274414 95.16577148 34.94946289 C97.91886527 37.4918431 100.37989193 40.01808394 102.49975586 43.11352539 C101.96233765 43.74798584 101.96233765 43.74798584 101.4140625 44.39526367 C99.78445674 46.33301596 98.17339975 48.28540203 96.56225586 50.23852539 C95.99829102 50.90368164 95.43432617 51.56883789 94.85327148 52.25415039 C90.5277989 57.51717518 90.5277989 57.51717518 89.49975586 64.11352539 C90.9450828 67.34697265 90.9450828 67.34697265 93.12475586 70.55102539 C96.93862824 76.71125658 99.30808417 82.7194955 101.39428711 89.64086914 C101.94149414 91.35983398 101.94149414 91.35983398 102.49975586 93.11352539 C102.79881836 94.36391602 103.09788086 95.61430664 103.40600586 96.90258789 C105.86766161 100.67773906 106.58573289 100.75537018 110.82397461 101.67211914 C112.93947236 102.00308535 115.06220936 102.28825788 117.18725586 102.55102539 C122.78694336 103.32446289 122.78694336 103.32446289 128.49975586 104.11352539 C128.49975586 112.36352539 128.49975586 120.61352539 128.49975586 129.11352539 C118.24975586 130.42602539 118.24975586 130.42602539 115.0378418 130.81787109 C113.77375488 130.98935669 113.77375488 130.98935669 112.48413086 131.16430664 C111.62529297 131.27427979 110.76645508 131.38425293 109.8815918 131.49755859 C107.10553351 132.21547527 105.5836221 133.15383257 103.49975586 135.11352539 C102.57377337 137.74541884 101.84308229 140.22955266 101.18725586 142.92602539 C98.66532319 152.38657119 94.95419177 160.93187152 89.49975586 169.11352539 C89.03991358 172.78226707 89.1645951 174.56522843 91.10913086 177.74633789 C91.81553711 178.56875977 92.52194336 179.39118164 93.24975586 180.23852539 C93.94584961 181.06610352 94.64194336 181.89368164 95.35913086 182.74633789 C97.44805414 185.14540279 97.44805414 185.14540279 99.82788086 187.16821289 C100.65545898 188.13114258 100.65545898 188.13114258 101.49975586 189.11352539 C101.15425535 192.66005379 99.61525523 194.35387895 97.12084961 196.78540039 C96.44731445 197.44926758 95.7737793 198.11313477 95.07983398 198.79711914 C94.3727832 199.4790332 93.66573242 200.16094727 92.93725586 200.86352539 C92.22633789 201.5609082 91.51541992 202.25829102 90.78295898 202.97680664 C89.02844872 204.69599119 87.26732234 206.40778411 85.49975586 208.11352539 C80.76225428 205.9313532 77.25992885 202.42493778 73.54077148 198.83813477 C70.48769511 196.09505198 69.21384768 195.12619221 64.97631836 195.05102539 C61.2374346 196.19369548 58.47549561 197.6931794 55.18725586 199.80102539 C48.90346846 203.66736903 42.51503816 206.0382154 35.45361328 208.12207031 C30.31822402 209.61566097 30.31822402 209.61566097 26.49975586 213.11352539 C25.81968839 215.31947614 25.81968839 215.31947614 25.55053711 217.78149414 C25.43621338 218.58611084 25.32188965 219.39072754 25.20410156 220.21972656 C25.01013794 221.74496948 25.01013794 221.74496948 24.81225586 223.30102539 C24.37913086 226.53915039 23.94600586 229.77727539 23.49975586 233.11352539 C14.91975586 233.11352539 6.33975586 233.11352539 -2.50024414 233.11352539 C-3.60697163 227.57988795 -4.56846528 222.65302416 -5.18774414 217.17602539 C-5.91645288 212.92075174 -5.91645288 212.92075174 -9.25024414 210.23852539 C-10.65854508 209.83323796 -12.07730386 209.46396853 -13.50024414 209.11352539 C-22.59550104 206.19704884 -30.2276321 202.80949129 -38.24633789 197.68774414 C-42.16298361 195.79289633 -44.20157061 195.38133375 -48.50024414 196.11352539 C-51.27597103 197.80978274 -53.57283284 199.89125953 -55.93774414 202.11352539 C-56.57389648 202.68586914 -57.21004883 203.25821289 -57.86547852 203.84790039 C-59.42438322 205.25443095 -60.96429567 206.68196177 -62.50024414 208.11352539 C-65.65229396 206.72005163 -67.76196187 205.0886746 -70.17211914 202.63696289 C-70.83598633 201.96665039 -71.49985352 201.29633789 -72.18383789 200.60571289 C-73.20670898 199.55770508 -73.20670898 199.55770508 -74.25024414 198.48852539 C-74.94762695 197.78211914 -75.64500977 197.07571289 -76.36352539 196.34790039 C-78.08036902 194.60753836 -79.79236246 192.86267558 -81.50024414 191.11352539 C-79.93185911 187.7868185 -78.25225097 185.70526366 -75.56274414 183.17602539 C-71.36392281 179.13009216 -71.36392281 179.13009216 -68.50024414 174.11352539 C-68.91894842 169.61047936 -71.01214157 166.24411512 -73.25024414 162.42602539 C-76.96125764 155.86147057 -79.14164207 149.34381833 -80.86450195 142.01708984 C-82.08526 136.89349046 -82.08526 136.89349046 -85.50024414 133.11352539 C-88.9087364 132.34545465 -88.9087364 132.34545465 -92.75024414 131.98852539 C-94.03415039 131.84157227 -95.31805664 131.69461914 -96.64086914 131.54321289 C-97.91446289 131.40141602 -99.18805664 131.25961914 -100.50024414 131.11352539 C-107.36129198 130.25247755 -107.36129198 130.25247755 -108.50024414 129.11352539 C-108.59970867 127.34493346 -108.63104631 125.57241088 -108.63305664 123.80102539 C-108.6343457 122.72594727 -108.63563477 121.65086914 -108.63696289 120.54321289 C-108.63116211 118.84551758 -108.63116211 118.84551758 -108.62524414 117.11352539 C-108.62911133 115.98172852 -108.63297852 114.84993164 -108.63696289 113.68383789 C-108.63567383 112.60875977 -108.63438477 111.53368164 -108.63305664 110.42602539 C-108.63192871 109.4321582 -108.63080078 108.43829102 -108.62963867 107.41430664 C-108.50024414 105.11352539 -108.50024414 105.11352539 -107.50024414 104.11352539 C-105.97933403 103.82893677 -104.44803524 103.59931106 -102.91430664 103.39477539 C-101.98360352 103.2671582 -101.05290039 103.13954102 -100.09399414 103.00805664 C-99.11430664 102.87786133 -98.13461914 102.74766602 -97.12524414 102.61352539 C-95.20041738 102.35569051 -93.27592026 102.09537932 -91.35180664 101.83227539 C-90.49409668 101.71819336 -89.63638672 101.60411133 -88.75268555 101.48657227 C-86.34127446 101.14774085 -86.34127446 101.14774085 -83.50024414 100.11352539 C-82.78303856 97.69751506 -82.23779483 95.38930503 -81.75024414 92.92602539 C-79.7128474 83.73961374 -76.20244987 75.4180525 -70.78540039 67.65649414 C-68.99644414 64.11664455 -68.89518331 62.042219 -69.50024414 58.11352539 C-71.1894979 55.33365805 -73.27822069 53.04067872 -75.50024414 50.67602539 C-76.07258789 50.03987305 -76.64493164 49.4037207 -77.23461914 48.74829102 C-78.6411497 47.18938631 -80.06868052 45.64947386 -81.50024414 44.11352539 C-74.95294684 36.46487674 -74.95294684 36.46487674 -71.81274414 32.86352539 C-71.25200195 32.21899414 -70.69125977 31.57446289 -70.11352539 30.91040039 C-69.58114258 30.31743164 -69.04875977 29.72446289 -68.50024414 29.11352539 C-68.01942383 28.52055664 -67.53860352 27.92758789 -67.04321289 27.31665039 C-65.50024414 26.11352539 -65.50024414 26.11352539 -63.67602539 26.11352539 C-59.96506188 27.81910287 -57.14158346 30.75232342 -54.18579102 33.51977539 C-50.38299771 36.88698491 -47.59221759 38.16991491 -42.50024414 38.11352539 C-39.11305155 36.69146843 -39.11305155 36.69146843 -35.87524414 34.48852539 C-28.60407081 29.99716099 -21.10345626 26.95520131 -12.98071289 24.28540039 C-9.20264953 23.13195735 -9.20264953 23.13195735 -6.35961914 20.56665039 C-5.08333635 16.92344315 -4.8049444 13.25448727 -4.43774414 9.42602539 C-3.51643811 0.15966641 -3.51643811 0.15966641 0 0 Z " fill="#ADB9C5" transform="translate(439.500244140625,573.886474609375)"/>
<path d="M0 0 C1.2677445 -0.0013775 2.53548901 -0.00275499 3.84165001 -0.00417423 C5.23929237 -0.00062807 6.6369345 0.00300982 8.03457642 0.00672913 C9.53715322 0.00703567 11.03973016 0.00690161 12.5423069 0.00636387 C16.55724424 0.0061386 20.57215162 0.01192424 24.58708191 0.0189743 C28.35791109 0.02467949 32.12873308 0.02493798 35.89956665 0.02565002 C46.91934599 0.03089228 57.93911979 0.04485347 68.95889282 0.05775452 C93.58514282 0.07837952 118.21139282 0.09900452 143.58389282 0.12025452 C143.58389282 53.91025452 143.58389282 107.70025452 143.58389282 163.12025452 C129.58389282 163.12025452 129.58389282 163.12025452 125.40029907 160.12025452 C124.27495463 158.82109646 123.19025227 157.48574682 122.14639282 156.12025452 C121.56349487 155.42907532 120.98059692 154.73789612 120.3800354 154.02577209 C118.74761501 152.08210935 117.16585624 150.10494828 115.58389282 148.12025452 C114.32223143 146.67469783 113.05379471 145.23494371 111.77139282 143.80775452 C111.25705688 143.21091858 110.74272095 142.61408264 110.21279907 141.99916077 C106.73230732 137.98449282 103.14478428 134.06352358 99.58389282 130.12025452 C94.81602307 124.84039876 90.06877064 119.54733646 85.39639282 114.18275452 C83.31178118 111.81061023 81.19960638 109.46469387 79.08389282 107.12025452 C75.81998434 103.50349106 72.59598333 99.85635843 69.39639282 96.18275452 C67.31178118 93.81061023 65.19960638 91.46469387 63.08389282 89.12025452 C59.81998434 85.50349106 56.59598333 81.85635843 53.39639282 78.18275452 C51.31178118 75.81061023 49.19960638 73.46469387 47.08389282 71.12025452 C42.26268007 65.77235466 37.50495255 60.37723236 32.83389282 54.89759827 C28.09309959 49.33902972 23.34303065 43.81087478 18.39639282 38.43275452 C14.37241258 34.04937572 10.60680181 29.50909217 6.87295532 24.87806702 C4.48375806 21.99961434 1.99445655 19.24530702 -0.54110718 16.49525452 C-12.41610718 3.58119202 -12.41610718 3.58119202 -12.41610718 1.12025452 C-8.22140071 0.32539821 -4.26682667 -0.00357356 0 0 Z " fill="#B2E5FE" transform="translate(304.4161071777344,349.87974548339844)"/>
<path d="M0 0 C10.69826242 7.87674266 17.05433491 17.21888156 20.1875 30.25 C21.50222861 43.97821272 18.96274191 56.43499242 10.1875 67.25 C9.68605469 67.87519531 9.18460937 68.50039063 8.66796875 69.14453125 C1.44313351 77.21314287 -9.31067694 81.65358177 -19.95703125 82.5 C-32.97005454 82.95911438 -43.88504213 79.81177583 -53.8125 71.25 C-61.99268019 63.55006522 -67.12724974 53.53529225 -68.18359375 42.3046875 C-68.5617586 29.36560816 -65.89494307 17.9712083 -56.8125 8.25 C-41.58584826 -7.84830265 -19.3262177 -12.13275416 0 0 Z " fill="#FDFDFE" transform="translate(473.8125,652.75)"/>
<path d="M0 0 C2 0 2 0 3.234375 1.22265625 C3.73453125 1.82980469 4.2346875 2.43695313 4.75 3.0625 C8.3737757 7.3333785 12.16463407 11.42042343 16 15.5 C20.15516092 19.93022619 24.26799816 24.37597761 28.23046875 28.98046875 C30.60884497 31.6948628 33.05512354 34.34569125 35.5 37 C39.14118485 40.95519641 42.73641883 44.94203567 46.25390625 49.0078125 C48.32374291 51.36937111 50.44472279 53.68136871 52.5625 56 C56.31619344 60.15220199 59.75359131 64.44229682 63 69 C62.28714844 69.7734375 61.57429688 70.546875 60.83984375 71.34375 C54.60190584 78.1107632 54.60190584 78.1107632 48.5 85 C45.0932265 88.9308925 41.56997215 92.75196573 38.046875 96.578125 C35.49444857 99.35494057 32.97016712 102.14980717 30.5 105 C27.5615588 108.39050908 24.53881537 111.69964934 21.5 115 C17.26054112 119.60580537 13.10393974 124.27339354 9 129 C7.54519588 130.66974815 6.08681038 132.33638217 4.625 134 C3.95726562 134.763125 3.28953125 135.52625 2.6015625 136.3125 C2.07304687 136.869375 1.54453125 137.42625 1 138 C0.67 138 0.34 138 0 138 C0 92.46 0 46.92 0 0 Z " fill="#B1E5FD" transform="translate(288,371)"/>
<path d="M0 0 C7.09703247 5.98985112 11.90501737 11.8722499 16.125 20.125 C16.46289551 20.78113281 16.80079102 21.43726563 17.14892578 22.11328125 C23.14506604 34.40309177 24.29155985 50.68540949 20.1875 63.75 C19.44716666 65.58406622 18.65580135 67.39844013 17.8125 69.1875 C17.38839844 70.11691406 16.96429688 71.04632812 16.52734375 72.00390625 C9.23558554 86.60773397 -2.08442022 95.67942437 -17.20703125 101.2421875 C-29.96570149 105.28884307 -46.0985239 104.9715272 -58.1875 99.1875 C-59.59708984 98.53394531 -59.59708984 98.53394531 -61.03515625 97.8671875 C-75.31985413 90.67571649 -84.69505371 79.12201688 -90.1875 64.1875 C-94.11250283 51.26942052 -94.51598494 34.31991632 -88.1875 22.1875 C-78.89616068 5.4148839 -66.79882287 -4.68572004 -48.625 -11.0625 C-31.57676224 -14.83213026 -13.69432867 -10.51823437 0 0 Z M-69.33203125 16.84375 C-78.10409057 27.92424598 -80.43658317 40.47314177 -79.1875 54.1875 C-76.92286829 66.08020665 -70.05055863 76.22115949 -60.1875 83.1875 C-49.01929464 89.88486079 -37.59267613 92.0474 -24.7109375 89.5 C-17.68082911 87.52432551 -11.85911941 84.78942302 -6.1875 80.1875 C-5.56230469 79.68605469 -4.93710937 79.18460938 -4.29296875 78.66796875 C3.86215627 71.36566726 8.27257478 60.53554473 9.0625 49.78515625 C9.54511559 34.92964503 5.11567455 23.89627456 -4.8125 13 C-14.20934561 3.98118841 -26.11983211 0.63995059 -38.8125 0.875 C-50.96789312 2.00049936 -60.9960222 8.19160487 -69.33203125 16.84375 Z " fill="#273741" transform="translate(485.1875,644.8125)"/>
<path d="M0 0 C3.67670584 1.51052023 5.71874462 3.6488615 8.3125 6.625 C9.10269531 7.52476562 9.89289063 8.42453125 10.70703125 9.3515625 C11.84205078 10.66253906 11.84205078 10.66253906 13 12 C14.166313 13.33364271 15.33294819 14.66700376 16.5 16 C17.056875 16.639375 17.61375 17.27875 18.1875 17.9375 C20.27211164 20.30964429 22.38428644 22.65556065 24.5 25 C27.76390848 28.61676345 30.98790949 32.26389608 34.1875 35.9375 C36.27211164 38.30964429 38.38428644 40.65556065 40.5 43 C42.00042289 44.66628597 43.50044074 46.33293678 45 48 C45.64453125 48.71542969 46.2890625 49.43085938 46.953125 50.16796875 C47.54609375 50.83441406 48.1390625 51.50085938 48.75 52.1875 C49.26046875 52.75855469 49.7709375 53.32960938 50.296875 53.91796875 C52.67920494 56.83031246 54.81302676 59.93823746 57 63 C19.71 63 -17.58 63 -56 63 C-49.960115 55.9534675 -43.90428067 48.95852551 -37.625 42.125 C-30.14318139 33.9816017 -22.77722263 25.76460977 -15.60864258 17.34375 C-10.55117958 11.42756433 -5.30113399 5.69767551 0 0 Z " fill="#B3E6FE" transform="translate(359,450)"/>
<path d="M0 0 C5.65346596 3.37056533 9.49877565 8.21831259 11.5625 14.4375 C12.5687373 21.3328735 11.64652797 27.11240813 8.26171875 33.203125 C4.76183317 37.80527339 -0.00803925 40.62767975 -5.4375 42.4375 C-12.37633934 43.15708334 -18.00324199 43.15393571 -23.75390625 38.93359375 C-28.35185485 34.84771367 -32.10938686 30.53549852 -32.7734375 24.265625 C-32.92055302 10.78984308 -32.92055302 10.78984308 -28.4375 5.4375 C-20.60716059 -1.73112059 -10.1595069 -4.60721824 0 0 Z " fill="#273640" transform="translate(419.4375,369.5625)"/>
<path d="M0 0 C0.07427668 5.6050325 0.12866208 11.20977711 0.16479492 16.81518555 C0.17986128 18.72116081 0.20031824 20.62710152 0.22631836 22.53295898 C0.26279642 25.27596576 0.27974792 28.01851328 0.29296875 30.76171875 C0.30845261 31.61086349 0.32393646 32.46000824 0.33988953 33.33488464 C0.34122348 38.04713885 0.08932841 41.18305283 -3 45 C-6.43604765 46.71802382 -10.38438896 46.1196618 -14.1640625 46.09765625 C-15.07127045 46.0962413 -15.97847839 46.09482635 -16.91317749 46.09336853 C-19.81715155 46.08776096 -22.72104915 46.07520718 -25.625 46.0625 C-27.59114472 46.05748598 -29.55729065 46.0529229 -31.5234375 46.04882812 C-36.3489879 46.03778906 -41.17448097 46.02051935 -46 46 C-46 45.34 -46 44.68 -46 44 C-44.56077576 42.58201599 -44.56077576 42.58201599 -42.55249023 40.92358398 C-37.84412021 36.91722085 -33.50597493 32.61562222 -29.16015625 28.22265625 C-28.35259384 27.41130722 -27.54503143 26.59995819 -26.71299744 25.76402283 C-24.16037295 23.19927883 -21.61104546 20.63129689 -19.0625 18.0625 C-15.68121105 14.65472823 -12.29669646 11.25020857 -8.91015625 7.84765625 C-7.74154808 6.66660057 -7.74154808 6.66660057 -6.54933167 5.46168518 C-5.83446091 4.7435112 -5.11959015 4.02533722 -4.38305664 3.28540039 C-3.75210587 2.6492128 -3.12115509 2.01302521 -2.47108459 1.3575592 C-1 0 -1 0 0 0 Z " fill="#7DB3DA" transform="translate(247,280)"/>
<path d="M0 0 C0.66 0 1.32 0 2 0 C3.625 2.5 3.625 2.5 5 5 C4.34 5 3.68 5 3 5 C3.00276538 5.67329535 3.00553076 6.34659069 3.00837994 7.04028893 C3.07456758 23.40591012 3.1242453 39.77148905 3.15543652 56.13721275 C3.1709204 64.05148493 3.19203882 71.96566789 3.22631836 79.87988281 C3.25617434 86.77609109 3.27556393 93.67223478 3.28226548 100.56850588 C3.28618424 104.2217099 3.29542503 107.87472909 3.31719017 111.52787399 C3.34126287 115.6011864 3.34197246 119.67417534 3.34057617 123.74755859 C3.35675491 125.57419289 3.35675491 125.57419289 3.3732605 127.43772888 C3.36913651 128.54273239 3.36501251 129.6477359 3.36076355 130.78622437 C3.36352893 131.75041983 3.36629431 132.71461529 3.36914349 133.70802879 C3.24732614 134.46437929 3.12550879 135.22072979 3 136 C1.515 136.99 1.515 136.99 0 138 C0 92.46 0 46.92 0 0 Z " fill="#B8E9F6" transform="translate(288,371)"/>
<path d="M0 0 C3.68435029 1.04736571 5.06058191 3.38348198 6.9375 6.55078125 C7.67240789 10.55194642 7.32564018 11.96857099 5.0625 15.36328125 C2.35805063 18.14727324 1.51483296 18.4854228 -2.375 18.92578125 C-6.0625 18.55078125 -6.0625 18.55078125 -9 16.55078125 C-11.29297397 13.21554639 -11.82423735 11.4507107 -11.5390625 7.48828125 C-10.08515601 1.57731714 -5.57866821 -0.36979808 0 0 Z " fill="#B6E7FB" transform="translate(411.0625,380.44921875)"/>
<path d="M0 0 C0.04934926 5.65998046 0.08569529 11.31983636 0.10986328 16.97998047 C0.11993582 18.90643494 0.13359443 20.83287408 0.15087891 22.75927734 C0.17507241 25.52445252 0.18647036 28.289426 0.1953125 31.0546875 C0.20563507 31.9193161 0.21595764 32.7839447 0.22659302 33.67477417 C0.22699106 35.78453521 0.12265243 37.89380718 0 40 C-0.66 40.66 -1.32 41.32 -2 42 C-2.33 30.12 -2.66 18.24 -3 6 C-5.31 7.98 -7.62 9.96 -10 12 C-10.66 11.67 -11.32 11.34 -12 11 C-10.19047409 9.16364422 -8.37759362 7.33083792 -6.5625 5.5 C-6.04623047 4.97535156 -5.52996094 4.45070313 -4.99804688 3.91015625 C-1.11328125 0 -1.11328125 0 0 0 Z " fill="#86C2EB" transform="translate(247,280)"/>
<path d="M0 0 C0.66 0.33 1.32 0.66 2 1 C1.07058594 1.9178125 0.14117187 2.835625 -0.81640625 3.78125 C-9.39873211 12.27280533 -9.39873211 12.27280533 -17.46875 21.24609375 C-20.15235938 24.31992184 -23.07633594 27.15631459 -26 30 C-26 27 -26 27 -24.49609375 25.23828125 C-23.81675781 24.60277344 -23.13742188 23.96726563 -22.4375 23.3125 C-19.71492384 20.69463831 -17.1297927 18.06845693 -14.6875 15.1875 C-10.09295432 9.83432003 -5.02548895 4.9436998 0 0 Z " fill="#FDB42C" transform="translate(219,199)"/>
<path d="M0 0 C0 3.60967047 -0.60072754 4.0205747 -2.9921875 6.57421875 C-3.61480469 7.24130859 -4.23742187 7.90839844 -4.87890625 8.59570312 C-5.53761719 9.28599609 -6.19632812 9.97628906 -6.875 10.6875 C-7.52597656 11.38939453 -8.17695313 12.09128906 -8.84765625 12.81445312 C-12.45837906 16.64479722 -12.45837906 16.64479722 -14 18 C-14.66 18 -15.32 18 -16 18 C-14.6415798 14.95667235 -13.11536976 12.87690849 -10.7421875 10.546875 C-10.11699219 9.928125 -9.49179687 9.309375 -8.84765625 8.671875 C-8.19667969 8.03765625 -7.54570312 7.4034375 -6.875 6.75 C-6.21628906 6.1003125 -5.55757813 5.450625 -4.87890625 4.78125 C-3.25703357 3.18288273 -1.6306719 1.58938103 0 0 Z " fill="#1E2A33" transform="translate(367,589)"/>
<path d="M0 0 C0.66 0.33 1.32 0.66 2 1 C-2.62 5.95 -7.24 10.9 -12 16 C-12.66 15.67 -13.32 15.34 -14 15 C-9.38 10.05 -4.76 5.1 0 0 Z " fill="#BECBD8" transform="translate(374,600)"/>
<path d="M0 0 C0 3.52032428 -0.70351351 4.4385343 -3 7 C-3.66 7 -4.32 7 -5 7 C-5.2475 7.598125 -5.495 8.19625 -5.75 8.8125 C-7.16370012 11.28647521 -8.65055383 12.43370255 -11 14 C-11.66 13.67 -12.32 13.34 -13 13 C-8.71 8.71 -4.42 4.42 0 0 Z " fill="#86C2E8" transform="translate(230,296)"/>
<path d="M0 0 C0.33 0 0.66 0 1 0 C1 4.29 1 8.58 1 13 C5.455 13.99 5.455 13.99 10 15 C8 17 8 17 5.5625 17.3125 C3 17 3 17 1.3515625 15.9296875 C-0.72420477 12.96601978 -0.2854277 10.37053968 -0.1875 6.8125 C-0.16042969 5.54019531 -0.13335937 4.26789062 -0.10546875 2.95703125 C-0.07066406 1.98121094 -0.03585937 1.00539063 0 0 Z " fill="#121E28" transform="translate(320,698)"/>
<path d="M0 0 C0.33 0.66 0.66 1.32 1 2 C-2.61251516 6.56048012 -5.98797445 10.01665146 -11 13 C-9.46356148 9.31930113 -7.21849055 7.01224796 -4.375 4.25 C-3.55773437 3.45078125 -2.74046875 2.6515625 -1.8984375 1.828125 C-0.95871094 0.92320312 -0.95871094 0.92320312 0 0 Z " fill="#17262F" transform="translate(536,770)"/>
<path d="M0 0 C0.33 0 0.66 0 1 0 C1 4.29 1 8.58 1 13 C0.34 13 -0.32 13 -1 13 C-2.5121867 9.97562661 -2.17263369 7.33758466 -2 4 C-1 1.5625 -1 1.5625 0 0 Z " fill="#33414A" transform="translate(727,464)"/>
<path d="M0 0 C2.475 0.99 2.475 0.99 5 2 C2.3765992 4.91488977 -0.71816394 6.88503898 -4 9 C-4.66 8.67 -5.32 8.34 -6 8 C-3.69 6.35 -1.38 4.7 1 3 C0.67 2.01 0.34 1.02 0 0 Z " fill="#F3E58D" transform="translate(650,513)"/>
<path d="M0 0 C0.66 0.33 1.32 0.66 2 1 C1.65066406 1.62648438 1.30132813 2.25296875 0.94140625 2.8984375 C0.48636719 3.71570313 0.03132812 4.53296875 -0.4375 5.375 C-0.88996094 6.18710937 -1.34242188 6.99921875 -1.80859375 7.8359375 C-2.5650536 9.20996622 -3.29854631 10.59709261 -4 12 C-4.99 11.67 -5.98 11.34 -7 11 C-4.69 7.37 -2.38 3.74 0 0 Z " fill="#F8E68B" transform="translate(672,391)"/>
<path d="M0 0 C0 3 0 3 -1.25 4.75 C-1.8275 5.1625 -2.405 5.575 -3 6 C-4.32 5.67 -5.64 5.34 -7 5 C-4.69 3.35 -2.38 1.7 0 0 Z " fill="#FEB530" transform="translate(739,836)"/>
<path d="M0 0 C3.465 1.98 3.465 1.98 7 4 C7 4.99 7 5.98 7 7 C6.278125 6.360625 5.55625 5.72125 4.8125 5.0625 C2.01808816 3.01326465 0.38336726 2.38667054 -3 2 C-2.01 1.34 -1.02 0.68 0 0 Z " fill="#ADD7E5" transform="translate(526,583)"/>
<path d="M0 0 C0.66 0.99 1.32 1.98 2 3 C0.35 3.66 -1.3 4.32 -3 5 C-3 5.66 -3 6.32 -3 7 C-3.66 6.67 -4.32 6.34 -5 6 C-3.35 4.02 -1.7 2.04 0 0 Z " fill="#FEB32B" transform="translate(829,753)"/>
<path d="M0 0 C2.96404505 2.80804268 5.44499019 5.18315774 7 9 C3.64564078 7.61198929 1.88709697 6.11371 0 3 C0 2.01 0 1.02 0 0 Z " fill="#24333C" transform="translate(357,616)"/>
<path d="M0 0 C0 3 0 3 -2.5 5.6875 C-3.325 6.450625 -4.15 7.21375 -5 8 C-5.66 7.67 -6.32 7.34 -7 7 C-4.69 4.69 -2.38 2.38 0 0 Z " fill="#8BC9EF" transform="translate(230,296)"/>
</svg>
