<?xml version="1.0" encoding="UTF-8"?>
<svg version="1.1" xmlns="http://www.w3.org/2000/svg" width="1024" height="1024">
<path d="M0 0 C337.92 0 675.84 0 1024 0 C1024 337.92 1024 675.84 1024 1024 C686.08 1024 348.16 1024 0 1024 C0 686.08 0 348.16 0 0 Z " fill="#FEFEFE" transform="translate(0,0)"/>
<path d="M0 0 C337.92 0 675.84 0 1024 0 C1024 337.92 1024 675.84 1024 1024 C686.08 1024 348.16 1024 0 1024 C0 686.08 0 348.16 0 0 Z M465 78 C463.16029242 78.20953238 461.32044307 78.41782305 459.48046875 78.625 C385.97065421 87.23062786 315.80721693 114.31911769 256 158 C255.27989746 158.52190918 254.55979492 159.04381836 253.81787109 159.58154297 C244.14519945 166.61033617 234.9315027 174.05254458 226 182 C225.03707031 182.85078125 224.07414063 183.7015625 223.08203125 184.578125 C215.97320284 191.00142571 209.15254055 197.72121597 202.35443115 204.47033691 C201.30212218 205.51459955 200.24833779 206.55737794 199.19293213 207.59851074 C192.31302305 214.39517185 186.0356601 221.42775246 180 229 C179.06518062 230.10179435 178.12383636 231.19813848 177.171875 232.28515625 C117.70730463 300.47759098 81.75257293 397.28342545 79.8125 501.5 C79.81277191 502.32904846 79.81304382 503.15809692 79.81332397 504.01226807 C79.83395254 517.76343461 80.4154492 531.33146497 82 545 C82.1124707 546.00691895 82.22494141 547.01383789 82.34082031 548.05126953 C88.01060554 598.27494559 101.72911807 646.56962239 124 692 C124.51433594 693.04929687 125.02867188 694.09859375 125.55859375 695.1796875 C144.02468799 732.48027686 168.27218158 766.02167327 196.56445312 796.44677734 C198.07986415 798.08641084 199.58005727 799.73904423 201.078125 801.39453125 C205.75797869 806.55081239 210.40965497 811.60743927 215.765625 816.078125 C218.19382984 818.16672078 220.50784168 820.35163335 222.83178711 822.5546875 C229.64072708 828.99189365 236.6904399 834.91193815 244.14746094 840.58007812 C246.06477214 842.04964612 247.95913491 843.5454292 249.8515625 845.046875 C317.45839749 898.30764946 408.21988047 932.89695445 494.6796875 933.203125 C495.96771271 933.20882507 497.25573792 933.21452515 498.58279419 933.22039795 C501.30406069 933.23082708 504.02529845 933.23671873 506.74658203 933.24023438 C509.46677452 933.2445664 512.18664037 933.25826559 514.90673828 933.28125 C562.16225182 933.67210382 608.12640428 925.97846481 653 911 C653.81871582 910.72752441 654.63743164 910.45504883 655.48095703 910.17431641 C701.4329649 894.62327666 744.36624696 870.51513645 782 840 C782.95003906 839.24332031 783.90007813 838.48664062 784.87890625 837.70703125 C790.7989997 832.9490614 796.42599998 827.94725036 801.98046875 822.7734375 C804.21977265 820.69302997 806.51283884 818.686793 808.828125 816.69140625 C813.25888422 812.82952815 817.41901269 808.72848589 821.5625 804.5625 C822.27857422 803.85029297 822.99464844 803.13808594 823.73242188 802.40429688 C828.3615257 797.76676884 832.73835683 792.97544117 837 788 C837.98503507 786.87053351 838.97068498 785.74160287 839.95703125 784.61328125 C862.36273931 758.78877118 881.18957176 730.29385645 897 700 C897.37850098 699.27619141 897.75700195 698.55238281 898.14697266 697.80664062 C900.51660775 693.24419259 902.78479032 688.63917095 905 684 C905.51892822 682.92443848 905.51892822 682.92443848 906.04833984 681.82714844 C917.21215807 658.51785725 925.14401137 633.87780699 932 609 C932.21350098 608.2275293 932.42700195 607.45505859 932.64697266 606.65917969 C937.75346055 587.75582519 940.38483751 568.0286785 942.75 548.625 C942.86545166 547.68333984 942.98090332 546.74167969 943.09985352 545.77148438 C944.65265699 532.29423333 945.21118662 518.81149967 945.1875 505.25 C945.18656342 504.54179108 945.18562683 503.83358215 945.18466187 503.10391235 C945.05370599 456.75649845 937.76836474 410.94559166 923 367 C922.68450195 366.05898438 922.36900391 365.11796875 922.04394531 364.1484375 C904.44287105 312.34838474 876.31542436 263.03277263 839.3359375 222.58203125 C838.06521031 221.17743147 836.80075329 219.76657532 835.57104492 218.32592773 C830.67292839 212.60301975 825.41862217 207.26590111 820.0847168 201.9543457 C818.56508332 200.4400742 817.05087483 198.9205257 815.53710938 197.40039062 C810.19749753 192.05679782 804.76782813 186.88382035 799 182 C797.97850664 181.11143528 796.95763395 180.22215634 795.9375 179.33203125 C787.572824 172.15754186 778.91474662 165.4759365 770 159 C769.23800293 158.4440918 768.47600586 157.88818359 767.69091797 157.31542969 C721.87627972 124.05544841 669.83439481 101.3819353 615 88 C613.89301758 87.72317383 612.78603516 87.44634766 611.64550781 87.16113281 C597.68612454 83.69740078 583.66925801 81.18978437 569.4375 79.1875 C568.69844421 79.08208893 567.95938843 78.97667786 567.19793701 78.86807251 C548.5950535 76.24798095 530.08026261 75.79349749 511.3125 75.8125 C509.79038406 75.81290787 509.79038406 75.81290787 508.23751831 75.81332397 C493.72417812 75.83119984 479.41192555 76.16632088 465 78 Z " fill="#FEFEFE" transform="translate(0,0)"/>
<path d="M0 0 C8.93473496 6.37976794 15.41186267 15.81975091 18.40625 26.37890625 C18.40625 27.36890625 18.40625 28.35890625 18.40625 29.37890625 C19.58699946 29.37429729 20.76774893 29.36968832 21.98427868 29.36493969 C50.00708303 29.25667202 78.02987697 29.17421455 106.05284552 29.1235796 C109.50129517 29.117326 112.94974437 29.1108544 116.39819336 29.10424805 C117.0847232 29.10293649 117.77125305 29.10162494 118.47858683 29.10027365 C129.59770309 29.0785116 140.71669023 29.03908575 151.83572986 28.99314227 C163.24323131 28.94639967 174.6506279 28.91898986 186.05822784 28.90846378 C192.46645995 28.90193643 198.8743991 28.88655963 205.28253746 28.85025597 C211.3112609 28.81637774 217.33957001 28.80583695 223.36837959 28.81336784 C225.58356857 28.81198966 227.79877107 28.80200896 230.01387787 28.78287888 C233.03419373 28.75806923 236.05293713 28.7639575 239.07328796 28.77763367 C239.95364186 28.76306946 240.83399577 28.74850525 241.74102706 28.73349971 C245.85571837 28.78400016 247.92230902 29.06725825 251.45198059 31.34029388 C254.14367399 35.52549619 254.08936764 38.71633439 254.00752258 43.59797668 C254.01179471 44.52921519 254.01606683 45.4604537 254.02046841 46.41991156 C254.02870758 49.54190419 254.00119744 52.66255488 253.97387695 55.78442383 C253.97246669 58.02158578 253.97325804 60.25875004 253.97608948 62.49591064 C253.97752586 68.57206927 253.94809949 74.6477358 253.91321969 80.72377992 C253.88199352 87.07255712 253.87902839 93.42134523 253.87309265 99.77018738 C253.85931066 110.42721082 253.8280657 121.08403959 253.78344727 131.7409668 C253.73754117 142.71686922 253.7022118 153.6927223 253.6809082 164.66870117 C253.67956822 165.35233437 253.67822823 166.03596757 253.67684764 166.74031693 C253.66528316 172.68708831 253.65451927 178.63386109 253.64383411 184.58063412 C253.59679889 210.18022818 253.49719342 235.77934335 253.40625 261.37890625 C289.04625 261.37890625 324.68625 261.37890625 361.40625 261.37890625 C361.40625 252.79890625 361.40625 244.21890625 361.40625 235.37890625 C358.76665283 235.39985352 356.12705566 235.42080078 353.4074707 235.44238281 C344.68637428 235.50866101 335.96526674 235.55284496 327.24398518 235.58615494 C321.95622244 235.60702985 316.66871774 235.63534603 311.38110352 235.68066406 C306.27826081 235.72412481 301.17566631 235.74804408 296.07265282 235.75841522 C294.12577596 235.76580615 292.17891269 235.78023891 290.23214149 235.80182648 C287.50512968 235.83086346 284.77914348 235.83486213 282.05200195 235.83300781 C280.84466904 235.85457947 280.84466904 235.85457947 279.61294556 235.87658691 C276.08553542 235.85063277 273.57867447 235.46438028 270.40533447 233.89129639 C267.57372106 230.33260855 267.71305663 227.08584789 267.77514648 222.7265625 C267.76441353 221.41859207 267.76441353 221.41859207 267.75346375 220.084198 C267.73655921 217.20273397 267.7559893 214.32282193 267.77734375 211.44140625 C267.77651521 209.43888215 267.77405641 207.43635812 267.77003479 205.43383789 C267.76717559 201.23725917 267.78189012 197.04121381 267.80932617 192.84472656 C267.84340898 187.46411886 267.83739181 182.084465 267.8186636 176.70381165 C267.80809756 172.56880741 267.81702786 168.43402532 267.83204842 164.29904175 C267.83723359 162.3151007 267.83674437 160.33113649 267.83050346 158.34719849 C267.82505609 155.57470781 267.84541078 152.80358486 267.87280273 150.03125 C267.86301392 148.79989822 267.86301392 148.79989822 267.85302734 147.54367065 C267.91404 143.91396071 268.06587231 141.82093866 270.31459045 138.90063477 C274.15207321 136.10878131 277.22469848 136.23057317 281.82624817 136.23173523 C282.60030414 136.22805854 283.37436011 136.22438185 284.17187232 136.22059375 C286.7797086 136.20953287 289.38750507 136.20570902 291.99536133 136.2019043 C293.85944242 136.1956415 295.72352225 136.18899487 297.58760071 136.18199158 C302.66203198 136.16456573 307.73645381 136.15402569 312.8109076 136.14578605 C315.9792378 136.14063969 319.14756505 136.13456382 322.31589317 136.12827492 C332.22307622 136.10921919 342.1302518 136.09498836 352.03744966 136.08666295 C363.48453945 136.07688541 374.93143613 136.05055397 386.37845784 136.01016206 C395.21926917 135.98003375 404.06002503 135.96519723 412.90088671 135.96188194 C418.18451316 135.95952786 423.46793339 135.95052099 428.7515049 135.92542076 C433.7214455 135.90219223 438.69104335 135.89788575 443.66102409 135.90818214 C445.48596459 135.90867887 447.31092166 135.90231818 449.13581085 135.8886261 C451.62605442 135.87098609 454.1150574 135.87797367 456.6053009 135.89115906 C457.6903285 135.87470519 457.6903285 135.87470519 458.79727584 135.85791892 C463.59869826 135.91936019 466.03467518 136.97552378 469.40625 140.37890625 C470.60702502 142.78045628 470.53476662 144.27029209 470.54047108 146.95266438 C470.54492892 147.92194695 470.54938676 148.89122952 470.55397969 149.88988429 C470.55370315 151.49855531 470.55370315 151.49855531 470.55342102 153.13972473 C470.55893605 154.8398376 470.55893605 154.8398376 470.5645625 156.57429618 C470.57563602 160.39824947 470.57944936 164.22217562 470.58325195 168.04614258 C470.58897949 170.77720881 470.59614716 173.50827093 470.60316467 176.23933411 C470.62293968 184.45364467 470.63299636 192.66795649 470.64189246 200.88228491 C470.64627345 204.74837944 470.65164073 208.61447259 470.65688133 212.48056602 C470.67389424 225.32844286 470.6883893 238.17631884 470.69563007 251.02420521 C470.69754004 254.35931715 470.69946036 257.69442909 470.70141602 261.02954102 C470.70189976 261.85848937 470.7023835 262.68743772 470.7028819 263.54150572 C470.71118548 276.97548532 470.73652764 290.40937597 470.76899669 303.84331671 C470.80204353 317.62842725 470.82007666 331.41349254 470.82327431 345.19864291 C470.82544156 352.94145801 470.83422154 360.68414338 470.85973549 368.42691994 C470.88141006 375.01986575 470.88950897 381.61265032 470.87976871 388.20562772 C470.87521446 391.5704299 470.87934247 394.93462862 470.89653015 398.29943085 C470.91411702 401.945617 470.90720723 405.59095142 470.89399719 409.23713684 C470.91045106 410.83576961 470.91045106 410.83576961 470.92723733 412.46669799 C470.86436947 419.62545863 470.86436947 419.62545863 468.5007658 423.51276684 C465.11384775 426.53039089 463.13447608 426.50176865 458.67138672 426.49243164 C457.47029266 426.49235611 456.26919861 426.49228058 455.03170776 426.49220276 C453.72960358 426.48704147 452.42749939 426.48188019 451.0859375 426.4765625 C449.74358167 426.47469763 448.40122516 426.47327405 447.05886841 426.47227478 C443.52429325 426.46845503 439.98975913 426.45862937 436.4552002 426.4475708 C432.84904536 426.43734503 429.2428839 426.43277466 425.63671875 426.42773438 C418.55987904 426.41700663 411.4830672 426.3999367 404.40625 426.37890625 C404.40901538 426.94451798 404.41178076 427.51012972 404.41462994 428.0928812 C404.48096366 441.87323149 404.53037478 455.65355369 404.56168652 469.43402958 C404.57733814 476.09825898 404.59856753 482.76235067 404.63256836 489.42651367 C404.66517923 495.85854157 404.68310682 502.2904586 404.69088173 508.72256279 C404.69642208 511.17574242 404.70724099 513.62891602 404.72344017 516.08204842 C404.74523685 519.51975716 404.74821591 522.95700859 404.74682617 526.39477539 C404.76300491 527.91392296 404.76300491 527.91392296 404.7795105 529.46376038 C404.74402394 537.58329198 402.96850643 543.69079911 397.22993273 549.68750471 C389.0084689 557.31262304 377.71651642 555.93710634 367.26902771 555.88011169 C365.2994279 555.88400631 363.3298309 555.88964804 361.36024052 555.89688259 C355.95736857 555.91163189 350.55478823 555.90145898 345.15192568 555.88714588 C339.32159598 555.87603716 333.49130721 555.88797834 327.66098022 555.89698792 C316.24338041 555.91092275 304.82589118 555.90336246 293.40829664 555.88831233 C284.12987204 555.87654729 274.85147724 555.87295775 265.57304573 555.87523079 C264.58378409 555.87547141 264.58378409 555.87547141 263.57453737 555.8757169 C260.89731525 555.87638049 258.22009314 555.87708291 255.54287105 555.87784224 C230.43539575 555.88486423 205.32797944 555.86938158 180.22051916 555.84321878 C157.91758345 555.82010152 135.61471257 555.81471675 113.31176758 555.82495117 C107.59991935 555.82755322 101.88807112 555.83013824 96.1762228 555.8325491 C95.47301014 555.83284654 94.76979748 555.83314399 94.04527534 555.83345045 C75.40406252 555.84106614 56.76285501 555.83465251 38.12164456 555.82385308 C36.11573484 555.82270528 34.10982512 555.8215621 32.1039154 555.82042625 C30.10984328 555.81929446 28.11577118 555.81814508 26.12169908 555.81699566 C16.8529472 555.81225121 7.58420996 555.8141054 -1.6845417 555.81835747 C-12.97783801 555.82328181 -24.27106723 555.81731 -35.56434817 555.79746317 C-41.32731733 555.78758515 -47.09018432 555.78249165 -52.85315895 555.79035568 C-58.12761839 555.7974059 -63.40187152 555.79062311 -68.67630374 555.77275205 C-70.58531258 555.76870333 -72.49434019 555.76971452 -74.40334208 555.77627092 C-76.9974819 555.78441853 -79.59092608 555.77411206 -82.1850214 555.75922298 C-83.29754746 555.76932946 -83.29754746 555.76932946 -84.43254879 555.77964011 C-91.38508342 555.70243413 -97.99330134 553.79876513 -103.22194767 548.99193573 C-109.52657462 541.57865984 -110.31842966 533.76708932 -110.22485352 524.37695312 C-110.23200882 523.11383804 -110.23916412 521.85072296 -110.24653625 520.54933167 C-110.26491624 517.11313893 -110.25219822 513.67773066 -110.23244596 510.24157143 C-110.21594595 506.62812154 -110.22488801 503.01471695 -110.22996521 499.40124512 C-110.23447361 493.33556731 -110.21869475 487.27019913 -110.19067383 481.20458984 C-110.15862736 474.21414115 -110.15864164 467.22425057 -110.1758886 460.23376226 C-110.19180954 453.48048318 -110.18498454 446.72740669 -110.16795158 439.97413635 C-110.16111896 437.11310867 -110.16207416 434.25224524 -110.16949654 431.39122009 C-110.17865383 427.38745686 -110.15450593 423.38453997 -110.12719727 419.38085938 C-110.13372314 418.20757584 -110.14024902 417.0342923 -110.14697266 415.82545471 C-110.02941498 405.64855107 -107.55884057 397.56741882 -100.53125 390.0703125 C-95.60425565 385.7691259 -89.58987353 383.25279461 -83.05476856 383.25585842 C-82.1187288 383.25386737 -81.18268903 383.25187632 -80.21828443 383.24982494 C-78.67306742 383.2541942 -78.67306742 383.2541942 -77.09663391 383.25865173 C-76.00376216 383.25779731 -74.9108904 383.25694288 -73.78490132 383.25606257 C-70.1043872 383.25440883 -66.42391816 383.25992745 -62.7434082 383.26538086 C-60.11245729 383.26566278 -57.48150629 383.2655049 -54.85055542 383.26493835 C-49.17678163 383.26441354 -43.50301933 383.26755595 -37.82924843 383.27317619 C-29.62588877 383.28129688 -21.42253467 383.283907 -13.21917143 383.28516418 C0.08964733 383.28735381 13.39845996 383.29401147 26.70727539 383.3034668 C39.63696258 383.31264323 52.5666481 383.31972293 65.49633789 383.32397461 C66.29307754 383.32423733 67.08981719 383.32450006 67.91070046 383.32477074 C71.90763557 383.32607576 75.9045707 383.32733947 79.90150583 383.32858264 C113.06975853 383.33895247 146.23800301 383.35684321 179.40625 383.37890625 C179.40625 372.15890625 179.40625 360.93890625 179.40625 349.37890625 C176.0326123 349.40919922 172.65897461 349.43949219 169.18310547 349.47070312 C131.72231044 349.80384407 94.26129794 350.08866898 56.79984325 350.33609003 C51.97606947 350.36808914 47.15230955 350.40170057 42.32855225 350.43609619 C29.00375376 350.53047706 15.67909569 350.61274747 2.35401917 350.65532875 C-3.09689015 350.67280537 -8.5475658 350.696577 -13.99835205 350.73779297 C-19.08062156 350.77585564 -24.16259347 350.79430894 -29.24500084 350.79785728 C-31.07255751 350.80229382 -32.90011453 350.81337924 -34.72757912 350.83225441 C-56.29894897 351.04516469 -75.98232886 347.16307106 -92.59375 332.37890625 C-93.21765625 331.83621094 -93.8415625 331.29351563 -94.484375 330.734375 C-104.05685025 321.8486208 -109.31855628 309.89198467 -109.96315002 296.92152214 C-110.16648203 290.05106422 -110.13503484 283.18104151 -110.11132812 276.30834961 C-110.11675428 273.66581818 -110.12373627 271.02333164 -110.13256836 268.3808136 C-110.15027283 261.97294677 -110.14655007 255.56526828 -110.1349178 249.15739434 C-110.12585252 243.94612146 -110.12467278 238.73490104 -110.12901306 233.52362251 C-110.12962599 232.77950102 -110.13023893 232.03537953 -110.13087043 231.2687089 C-110.13214944 229.75664761 -110.1334463 228.24458632 -110.1347608 226.73252506 C-110.14614273 212.58360202 -110.13309008 198.43478297 -110.11155933 184.285877 C-110.09368681 172.16603721 -110.09679833 160.0463507 -110.11523438 147.92651367 C-110.13667703 133.82370073 -110.14504819 119.72097869 -110.13278532 105.61815172 C-110.13151123 104.1122259 -110.13025375 102.60630007 -110.12901306 101.10037422 C-110.12839596 100.35958784 -110.12777886 99.61880145 -110.12714306 98.85556699 C-110.12370059 93.65476155 -110.1294945 88.45401415 -110.13893127 83.2532177 C-110.15019032 76.90920759 -110.14702955 70.56539526 -110.1258083 64.22140758 C-110.11535047 60.98940155 -110.11326598 57.75778954 -110.12440491 54.52577591 C-110.13539609 51.01176846 -110.12155239 47.49867572 -110.10168457 43.98472595 C-110.11060746 42.97799157 -110.11953034 41.97125718 -110.12872362 40.93401569 C-109.97495827 26.83564114 -103.97327929 14.94074659 -94.53125 4.69140625 C-68.93582213 -19.63951156 -28.43045969 -17.7690373 0 0 Z " fill="#3D3E40" transform="translate(341.59375,228.62109375)"/>
<path d="M0 0 C0.78506934 -0.00205263 1.57013869 -0.00410527 2.37899801 -0.0062201 C5.03160737 -0.01191204 7.68416517 -0.01043016 10.33677959 -0.00901413 C12.24900058 -0.01159651 14.16122103 -0.01460931 16.07344073 -0.01801753 C21.34541194 -0.0261057 26.61736956 -0.02787811 31.88934624 -0.028615 C37.56840166 -0.03046239 43.24744996 -0.03800809 48.92650127 -0.04475021 C61.3519491 -0.05834666 73.7773937 -0.06436021 86.20284772 -0.06876087 C93.95676858 -0.07152091 101.71068818 -0.07575781 109.46460819 -0.08026505 C130.92005168 -0.09245911 152.37549353 -0.10279375 173.83094025 -0.10614014 C175.21867447 -0.10636177 176.6064087 -0.10658355 177.99414293 -0.10680549 C179.38525284 -0.10702613 180.77636275 -0.10724661 182.16747266 -0.10746694 C184.95833925 -0.10790949 187.74920585 -0.10835661 190.54007244 -0.10880661 C191.57803314 -0.1089707 191.57803314 -0.1089707 192.63696273 -0.1091381 C215.07982937 -0.11276963 237.52266372 -0.12869314 259.96551799 -0.15199697 C283.68613033 -0.17658262 307.40671882 -0.19030564 331.12734526 -0.19150805 C344.06076936 -0.19242598 356.99415119 -0.19820783 369.92756367 -0.21632767 C380.93888162 -0.23169995 391.95014424 -0.23686611 402.96147088 -0.22858956 C408.58239135 -0.22467295 414.2032003 -0.22566189 419.82410717 -0.23964691 C424.96669218 -0.25232517 430.10908117 -0.25124201 435.25166567 -0.2390562 C437.11506394 -0.23708863 438.9784758 -0.24022616 440.84185491 -0.24890056 C443.36973975 -0.25992613 445.89692457 -0.2525527 448.42478943 -0.24050903 C449.15258609 -0.24810423 449.88038275 -0.25569942 450.63023385 -0.26352477 C455.28863577 -0.21542947 458.44216528 0.68638566 462.40115643 3.13142776 C468.08905098 8.95159894 470.74350024 14.54801775 470.74104595 22.56573868 C470.7255621 23.33893951 470.71007824 24.11214035 470.69412518 24.90877151 C470.68988033 25.72012054 470.68563549 26.53146957 470.68126202 27.36740494 C470.6645951 29.93493033 470.62696691 32.50164341 470.58865643 35.06892776 C470.57359403 36.81956739 470.55990835 38.57021944 470.5476408 40.32088089 C470.51473111 44.59137168 470.46303368 48.86126245 470.40115643 53.13142776 C469.55938022 53.13316401 468.71760402 53.13490026 467.85031945 53.13668913 C418.01475918 53.2396063 368.17921244 53.34769467 318.34367818 53.46254471 C312.36649979 53.4763151 306.3893213 53.49004208 300.41214275 53.50374222 C299.22214038 53.50647052 298.03213802 53.50919883 296.80607497 53.51200981 C277.510641 53.55614454 258.21520114 53.59675755 238.91975684 53.63608038 C219.13661585 53.67647507 199.35348586 53.72062804 179.57036108 53.76830631 C167.35260767 53.79763213 155.13485513 53.8239888 142.91708743 53.84660674 C134.55107578 53.86237435 126.18507761 53.88177605 117.8190809 53.90409618 C112.98464654 53.91688503 108.15022263 53.9280136 103.31577587 53.93484688 C98.89751197 53.94112706 94.47928399 53.95192826 90.06103974 53.96646107 C88.45538371 53.97092009 86.84972188 53.97366121 85.24405993 53.97458976 C83.07597022 53.97608452 80.90798656 53.98360809 78.73991776 53.99276257 C77.53126794 53.99542061 76.32261813 53.99807865 75.07734257 54.00081724 C72.48150133 53.82715052 72.48150133 53.82715052 71.40115643 55.13142776 C71.15110257 58.08959883 71.15110257 58.08959883 71.40115643 61.13142776 C74.20100777 63.93127911 75.92177971 63.38572006 79.84734821 63.39314079 C80.51994025 63.39713686 81.1925323 63.40113292 81.88550591 63.40525007 C84.16151693 63.41630493 86.43728807 63.41301185 88.71332073 63.40990067 C90.35259541 63.41489897 91.99186761 63.42077339 93.6311363 63.4274534 C98.1530549 63.44332377 102.6749115 63.44668793 107.19685459 63.448102 C112.06668541 63.45178383 116.93648172 63.46693312 121.80629253 63.48071671 C130.24932401 63.50303178 138.69234329 63.51801947 147.13539791 63.5280838 C159.34275706 63.54264579 171.55007369 63.56817556 183.75740795 63.59641509 C203.56117225 63.64192829 223.36494265 63.67852433 243.16873455 63.70955276 C262.41060744 63.73971979 281.65246538 63.77406154 300.89432049 63.81404495 C302.07963229 63.8165065 303.26494408 63.81896805 304.48617442 63.82150419 C310.43230958 63.83387843 316.37844457 63.84633504 322.32457948 63.8588326 C371.6834176 63.96246817 421.04227438 64.05164901 470.40115643 64.13142776 C470.49392537 74.06727613 470.56495641 84.0030211 470.60840511 93.93921471 C470.62926068 98.55324627 470.65754105 103.16698105 470.70291424 107.78084183 C470.7464447 112.2353074 470.77030881 116.68948789 470.7806654 121.14414978 C470.78804387 122.84179928 470.80245248 124.53943356 470.82407665 126.23696136 C470.85320723 128.61895319 470.85710853 130.99977413 470.85525799 133.38191605 C470.86963909 134.08035126 470.8840202 134.77878647 470.89883709 135.49838638 C470.85690275 140.50228191 469.66920838 143.36683966 466.40115643 147.13142776 C461.82830227 150.21607593 457.68229907 150.56068346 452.31102371 150.5117445 C451.50928544 150.51640442 450.70754717 150.52106434 449.8815138 150.52586547 C447.19010559 150.53783363 444.49920049 150.52841305 441.8077879 150.51910782 C439.86068951 150.52327993 437.91359356 150.52875677 435.96650213 150.53542763 C430.6119814 150.54991693 425.25761413 150.54562662 419.90308487 150.53826082 C414.12998156 150.53354009 408.35691197 150.54602927 402.58381939 150.55627823 C391.27244761 150.5734929 379.96113131 150.57430073 368.64974982 150.56906532 C359.45801261 150.56502746 350.26629182 150.56646261 341.0745554 150.57181358 C339.76741889 150.57256201 338.46028239 150.57331043 337.11353568 150.57408153 C334.458281 150.57561297 331.80302632 150.57715132 329.14777165 150.5786965 C311.31437271 150.5887571 293.48097964 150.59268564 275.64757919 150.58507061 C274.95014178 150.58477344 274.25270436 150.58447626 273.53413247 150.58417008 C267.87032959 150.58172111 262.20652678 150.57910954 256.54272397 150.57648595 C234.44838679 150.56638281 212.35412559 150.57473974 190.259799 150.5979805 C165.43962491 150.62404627 140.61949701 150.63685338 115.79930872 150.62979275 C102.65629876 150.62629568 89.51335122 150.62856476 76.37035084 150.64604378 C65.1823462 150.66073799 53.99444792 150.6614376 42.80644543 150.64397287 C37.09624353 150.63543771 31.38623187 150.63337466 25.6760397 150.64862442 C20.45081027 150.6624065 15.22593522 150.65779205 10.00072663 150.63838518 C8.10846661 150.63460491 6.21617864 150.63760509 4.32394338 150.64799684 C1.75457645 150.66110605 -0.8135564 150.64963817 -3.38286972 150.63199902 C-4.48859002 150.64647478 -4.48859002 150.64647478 -5.61664811 150.66124299 C-11.11538702 150.58356717 -14.17645018 149.17731741 -18.59884357 146.13142776 C-21.80998655 141.55449873 -22.01700899 137.25901305 -21.93941975 131.8311348 C-21.93985783 131.02071228 -21.94029591 130.21028976 -21.94074726 129.37530899 C-21.93866752 126.71303573 -21.91537537 124.05140267 -21.89181232 121.38924026 C-21.88621346 119.53693867 -21.88194474 117.68463262 -21.87894917 115.83232498 C-21.86752323 110.96935525 -21.83807546 106.10665653 -21.80483723 101.24379349 C-21.77408775 96.27668803 -21.76043341 91.30953857 -21.74532795 86.34236526 C-21.71320358 76.60526737 -21.6620345 66.86837015 -21.59884357 57.13142776 C-20.42160221 57.11929749 -20.42160221 57.11929749 -19.22057819 57.10692215 C-11.8335479 57.02906404 -4.44671764 56.94180051 2.94007206 56.84390068 C6.73793524 56.79389992 10.53577008 56.74757051 14.33377361 56.70955276 C17.99730596 56.67274728 21.66060343 56.62640083 25.32393551 56.57336426 C26.72336626 56.55479497 28.12284741 56.5396964 29.52235317 56.5280838 C31.47863592 56.51126534 33.43479024 56.48109424 35.39090252 56.45027542 C36.50564953 56.43695175 37.62039654 56.42362808 38.76892376 56.40990067 C41.5580021 56.39377578 41.5580021 56.39377578 43.40115643 54.13142776 C43.65121028 51.08959883 43.65121028 51.08959883 43.40115643 48.13142776 C41.59784031 46.32811165 38.84567185 46.95943483 36.41263103 46.9261055 C35.13137844 46.90616028 33.85012585 46.88621506 32.53004742 46.86566544 C31.12119959 46.84867979 29.71235047 46.83180103 28.30350018 46.81502151 C26.87002738 46.79445861 25.43656073 46.77346232 24.0031004 46.75204849 C20.22362523 46.69675917 16.44409473 46.64738031 12.66452312 46.5992012 C8.81040787 46.54903611 4.95637334 46.49332405 1.1023283 46.43806839 C-6.46466071 46.33040298 -14.03171667 46.2289768 -21.59884357 46.13142776 C-21.69869895 42.02391537 -21.7707696 37.91688567 -21.81857014 33.80842972 C-21.83852353 32.41474962 -21.86569677 31.02115147 -21.90060139 29.62776566 C-22.12641577 20.37269676 -21.99022448 12.34442187 -15.78243732 4.97517776 C-15.20622639 4.53174026 -14.63001545 4.08830276 -14.03634357 3.63142776 C-13.45755451 3.16736526 -12.87876545 2.70330276 -12.28243732 2.22517776 C-8.39726767 -0.29883036 -4.4463781 -0.01070703 0 0 Z " fill="#FEDFA6" transform="translate(264.5988435745239,622.8685722351074)"/>
<path d="M0 0 C73.59 0 147.18 0 223 0 C223 72.93 223 145.86 223 221 C194.29 221.495 194.29 221.495 165 222 C160.71291211 224.49535922 160.71291211 224.49535922 160.48101807 228.13212585 C160.47213562 229.42230118 160.46325317 230.7124765 160.45410156 232.04174805 C160.44376389 232.75419678 160.43342621 233.46664551 160.42277527 234.20068359 C160.39328712 236.55459104 160.39184692 238.90764091 160.390625 241.26171875 C160.3756473 242.89412583 160.35892101 244.52651774 160.34051514 246.15888977 C160.29678285 250.45460699 160.27682969 254.7501198 160.26177979 259.04602051 C160.24222973 263.42989215 160.20025745 267.81354233 160.16015625 272.19726562 C160.08479056 280.79811923 160.03453784 289.39888603 160 298 C130.4281228 298.09139175 100.8562523 298.16211149 71.28426336 298.20426132 C67.78732769 298.20926371 64.29039229 298.21444105 60.79345703 298.21972656 C60.09732552 298.2207758 59.40119401 298.22182505 58.68396761 298.22290608 C47.43515926 298.24027728 36.18643328 298.27179669 24.93767367 298.30861118 C13.3820999 298.34611237 1.82658387 298.36795607 -9.72904956 298.37635398 C-16.21409288 298.3815574 -22.69894982 298.3937418 -29.18393326 298.42292023 C-35.29554273 298.45019431 -41.40689013 298.45842073 -47.51855469 298.45243073 C-49.75414329 298.4535256 -51.98974122 298.46140746 -54.22527695 298.4768219 C-74.49078699 298.60962974 -91.42792814 295.93810852 -106.76953125 281.42578125 C-114.96551744 272.512108 -117.61476673 263.26865096 -117.3671875 251.37109375 C-116.11751817 239.89806577 -109.523806 231.30130646 -100.76953125 224.1875 C-87.20299038 214.5828693 -70.19848148 211.80301405 -53.92675781 214.32080078 C-39.6308316 217.31457871 -25.6584798 224.70698392 -17.25 236.9375 C-13.32051086 243.42115707 -10.68293704 249.30341333 -12 257 C-13.9841689 263.65936687 -18.41905106 268.04635034 -24 272 C-27.91388876 273.30462959 -31.66872976 273.26328854 -35.75 273.3125 C-36.53632813 273.34150391 -37.32265625 273.37050781 -38.1328125 273.40039062 C-44.530112 273.46946446 -48.63429723 272.01366934 -53.49853516 267.65820312 C-56.95630121 263.96370459 -57.45624034 260.88805225 -58 256 C-56.95199219 255.96261719 -55.90398437 255.92523437 -54.82421875 255.88671875 C-53.44527695 255.82105485 -52.06637229 255.75460765 -50.6875 255.6875 C-49.99720703 255.66494141 -49.30691406 255.64238281 -48.59570312 255.61914062 C-45.63247633 255.46167447 -43.48112232 255.33236043 -41.00390625 253.62109375 C-39.73848601 251.94272767 -39.73848601 251.94272767 -40.25 249.375 C-40.77745645 247.0687593 -40.77745645 247.0687593 -42 246 C-45.97275815 245.74743123 -49.95766175 245.81477549 -53.9375 245.8125 C-55.06091797 245.80025391 -56.18433594 245.78800781 -57.34179688 245.77539062 C-58.41365234 245.77345703 -59.48550781 245.77152344 -60.58984375 245.76953125 C-61.57847412 245.76542236 -62.56710449 245.76131348 -63.58569336 245.75708008 C-66.18307091 245.76122756 -66.18307091 245.76122756 -68 248 C-69.10781494 257.69982154 -68.07027379 265.23978975 -62.45703125 273.18359375 C-57.72081656 279.09031459 -52.38248832 282.39615794 -45 284 C-33.40204079 284.9234044 -21.32944495 285.70640442 -11.77734375 278.26953125 C-5.63077132 272.68072401 -1.37961216 265.27068044 -0.86938947 256.84249043 C-0.86673143 256.05722879 -0.86407339 255.27196715 -0.8613348 254.4629097 C-0.85586036 253.55274605 -0.85038591 252.6425824 -0.84474558 251.70483804 C-0.84376747 250.70873379 -0.84278936 249.71262955 -0.84178162 248.68634033 C-0.83684364 247.62528257 -0.83190566 246.56422481 -0.82681805 245.47101378 C-0.81142067 241.90418007 -0.80307632 238.33736438 -0.79467773 234.77050781 C-0.78510098 232.21822449 -0.77509102 229.66594277 -0.76467896 227.11366272 C-0.74321602 221.61289248 -0.72477598 216.11212523 -0.70907402 210.61133575 C-0.68636639 202.65810912 -0.65822479 194.70490902 -0.62875474 186.7517049 C-0.5810898 173.84831629 -0.53782264 160.94491682 -0.49731445 148.04150391 C-0.45795394 135.50666458 -0.4165151 122.97183495 -0.37231445 110.43701172 C-0.36956495 109.65655043 -0.36681544 108.87608913 -0.36398262 108.0719775 C-0.3424636 101.96830335 -0.320824 95.86462963 -0.29914629 89.76095605 C-0.19291274 59.84065691 -0.09719765 29.92033249 0 0 Z " fill="#BAE4FD" transform="translate(361,269)"/>
<path d="M0 0 C2.99207656 0.00535081 5.98400224 0.00002576 8.97607422 -0.00634766 C26.57079359 -0.01487636 43.82798494 0.78026994 61.25341797 3.25537109 C62.01955414 3.36296753 62.78569031 3.47056396 63.57504272 3.5814209 C109.33805256 10.07723326 153.25543775 23.57989724 195.12841797 43.13037109 C196.01835449 43.54367676 196.90829102 43.95698242 197.82519531 44.3828125 C232.98720449 60.86950675 265.15073773 83.38319166 294.12841797 109.13037109 C294.63050781 109.57461426 295.13259766 110.01885742 295.64990234 110.4765625 C303.30669142 117.29010389 310.60134643 124.4780891 317.87841797 131.69287109 C318.75377197 132.55517334 319.62912598 133.41747559 320.53100586 134.3059082 C325.75541471 139.52340058 330.56391746 144.92066807 335.15991211 150.70043945 C336.96808964 152.93246115 338.84826599 155.03917933 340.81591797 157.13037109 C397.79684151 220.68165957 429.46325412 310.07746657 436.12841797 394.13037109 C436.29470703 396.10263672 436.29470703 396.10263672 436.46435547 398.11474609 C438.21738005 421.64973422 437.84684252 445.70448439 435.12841797 469.13037109 C434.99419434 470.29632812 434.8599707 471.46228516 434.72167969 472.66357422 C428.63952625 524.14971028 415.15326467 574.04086745 391.15576172 620.14501953 C390.07773983 622.22830708 389.02455279 624.32309051 387.97216797 626.41943359 C378.14045422 645.78803514 366.80960214 664.43846883 353.37451172 681.51953125 C351.54999904 683.87809995 349.84503558 686.31763338 348.12841797 688.75537109 C341.24793367 698.26789096 333.25647163 706.9838052 325.35888672 715.65380859 C324.09545551 717.05663764 322.83917761 718.4662167 321.60717773 719.89672852 C317.17048726 725.04409878 312.50821326 729.9015918 307.69091797 734.69287109 C306.97871094 735.40894531 306.26650391 736.12501953 305.53271484 736.86279297 C300.89518681 741.49189679 296.10385914 745.86872792 291.12841797 750.13037109 C289.99895148 751.11540616 288.87002083 752.10105607 287.74169922 753.08740234 C280.0835414 759.73157607 272.26914222 766.08491108 264.12841797 772.13037109 C263.46358398 772.62649902 262.79875 773.12262695 262.11376953 773.63378906 C193.56801999 824.59606372 107.2217479 857.03011263 21.24560547 857.33349609 C19.95188019 857.33919617 18.65815491 857.34489624 17.32522583 857.35076904 C14.59734721 857.3611836 11.86949716 857.36708583 9.14160156 857.37060547 C6.40773903 857.37495234 3.67419883 857.38871472 0.94042969 857.41162109 C-17.51082289 857.56289686 -35.57144731 856.67861286 -53.87158203 854.13037109 C-54.65813171 854.02323792 -55.4446814 853.91610474 -56.25506592 853.8057251 C-60.51603412 853.21749583 -64.75756012 852.54662157 -68.99658203 851.81787109 C-70.24044678 851.60549805 -71.48431152 851.393125 -72.76586914 851.17431641 C-115.71919067 843.62509415 -156.044252 828.6886719 -194.87158203 809.13037109 C-195.7985791 808.66743652 -196.72557617 808.20450195 -197.68066406 807.72753906 C-224.79147449 794.13349979 -249.64641154 776.55277348 -272.87158203 757.13037109 C-273.43022949 756.6634082 -273.98887695 756.19644531 -274.56445312 755.71533203 C-281.2686897 750.0933691 -287.76931468 744.41211689 -293.87158203 738.13037109 C-295.75699258 736.24496054 -297.70469565 734.53042096 -299.74658203 732.81787109 C-304.76250337 728.50855772 -309.09168895 723.57000642 -313.49560547 718.65478516 C-314.78635704 717.22478998 -316.09782677 715.81357289 -317.41064453 714.40380859 C-323.51060297 707.83909141 -329.07641786 700.96633193 -334.53222656 693.86816406 C-335.80199265 692.22066224 -337.08270157 690.58243076 -338.36767578 688.94677734 C-385.00216552 629.1800153 -416.22750379 555.61474556 -424.87158203 480.13037109 C-424.96777832 479.31826172 -425.06397461 478.50615234 -425.16308594 477.66943359 C-427.15289055 460.70760331 -428.08237938 443.82758222 -428.05908203 426.75537109 C-428.05817566 425.51463837 -428.05817566 425.51463837 -428.05725098 424.24884033 C-427.8737207 331.04007966 -395.14837923 237.02542213 -336.87158203 164.13037109 C-336.14712891 163.22416016 -335.42267578 162.31794922 -334.67626953 161.38427734 C-332.43156401 158.61258899 -330.15496163 155.87029345 -327.87158203 153.13037109 C-327.45562775 152.62866898 -327.03967346 152.12696686 -326.6111145 151.61006165 C-319.16439998 142.65626352 -311.29006765 134.26045191 -303.015625 126.06860352 C-301.10363941 124.17510193 -299.20000554 122.2734911 -297.29736328 120.37060547 C-291.3279974 114.41801482 -285.35808646 108.52515086 -278.87158203 103.13037109 C-278.2728125 102.62481689 -277.67404297 102.1192627 -277.05712891 101.59838867 C-266.70554894 92.9155738 -255.95113482 84.85727998 -244.87158203 77.13037109 C-244.15808594 76.63182617 -243.44458984 76.13328125 -242.70947266 75.61962891 C-171.83147565 26.43302257 -86.19683 -0.18282898 0 0 Z M-269.87158203 120.13037109 C-270.92357788 121.05100342 -270.92357788 121.05100342 -271.99682617 121.99023438 C-278.78841018 128.00928001 -285.25307647 134.32567231 -291.66723633 140.74072266 C-293.42982726 142.50112162 -295.20029242 144.25333491 -296.97119141 146.00537109 C-303.73717366 152.7378171 -309.97346689 159.61455242 -315.87158203 167.13037109 C-316.89601762 168.3853548 -317.92302662 169.63824619 -318.95361328 170.88818359 C-356.88315536 217.47260687 -382.79820829 272.17414038 -397.87158203 330.13037109 C-398.18530762 331.29729492 -398.18530762 331.29729492 -398.50537109 332.48779297 C-401.09943628 342.16929538 -402.80367603 352.00642136 -404.49658203 361.88037109 C-404.70307373 363.06937012 -404.90956543 364.25836914 -405.12231445 365.48339844 C-408.46404437 385.68042842 -409.24396698 405.67966266 -409.18408203 426.13037109 C-409.18259155 427.38839539 -409.18110107 428.64641968 -409.17956543 429.94256592 C-409.14065232 448.20181755 -408.6798456 466.06181816 -405.87158203 484.13037109 C-405.61376419 485.98323493 -405.3559516 487.83609951 -405.09814453 489.68896484 C-399.56364877 526.87932428 -387.90720604 563.46098527 -372.09130859 597.49267578 C-370.99957295 599.85358688 -369.94044631 602.22526329 -368.89501953 604.60693359 C-363.22925424 617.33578973 -356.04849533 629.20821685 -348.87158203 641.13037109 C-348.17863037 642.28980225 -348.17863037 642.28980225 -347.47167969 643.47265625 C-337.74506512 659.69366807 -326.51517179 674.79909701 -314.39208984 689.30126953 C-313.01088403 690.96279714 -311.65341387 692.64050916 -310.30126953 694.32568359 C-303.2862528 702.92589463 -295.45924479 710.72653768 -287.62158203 718.56787109 C-286.77015121 719.42079742 -286.77015121 719.42079742 -285.90151978 720.29095459 C-279.73878797 726.45246286 -273.53128359 732.50124582 -266.87158203 738.13037109 C-265.90736328 738.97599609 -264.94314453 739.82162109 -263.94970703 740.69287109 C-206.05397078 790.5919587 -133.10328356 823.68863753 -57.55908203 834.88037109 C-56.53894516 835.03221863 -56.53894516 835.03221863 -55.49819946 835.18713379 C-35.69890041 838.09476302 -16.13596018 839.48585707 3.87841797 839.38037109 C4.93112885 839.37726929 5.98383972 839.37416748 7.06845093 839.37097168 C22.50851617 839.31768818 37.78881535 839.03239597 53.12841797 837.13037109 C54.12196289 837.01741699 55.11550781 836.90446289 56.13916016 836.78808594 C85.65142492 833.35738849 115.15573223 826.07488097 143.12841797 816.13037109 C144.46066406 815.66147461 144.46066406 815.66147461 145.81982422 815.18310547 C191.03742418 799.10055703 232.41193591 774.90908021 269.12841797 744.13037109 C269.76328125 743.59992187 270.39814453 743.06947266 271.05224609 742.52294922 C277.39945351 737.2043149 283.59954637 731.85296527 289.36279297 725.89599609 C291.08684048 724.17194858 292.87986302 722.62654286 294.75341797 721.06787109 C305.98397714 711.37876122 315.71903505 699.56160488 325.12841797 688.13037109 C325.65338867 687.49389648 326.17835938 686.85742188 326.71923828 686.20166016 C341.92018453 667.60659218 355.59737675 647.20114922 367.12841797 626.13037109 C367.5940918 625.28120117 368.05976562 624.43203125 368.53955078 623.55712891 C409.73532069 547.83079164 428.48554636 456.85361288 415.12841797 371.13037109 C414.92974121 369.8388916 414.73106445 368.54741211 414.52636719 367.21679688 C408.23834588 327.14156471 396.38464721 288.82780936 379.12841797 252.13037109 C378.71769043 251.25380859 378.30696289 250.37724609 377.88378906 249.47412109 C365.07287587 222.39732993 348.6511766 197.60630825 330.12841797 174.13037109 C329.32662109 173.11330078 328.52482422 172.09623047 327.69873047 171.04833984 C322.96436029 165.15986164 317.95536554 159.5692014 312.81591797 154.03662109 C310.38572283 151.40861937 308.00212601 148.74677017 305.62841797 146.06787109 C298.99229691 138.68385088 292.02665489 131.57196577 284.46826172 125.12646484 C282.54880962 123.48900237 280.64999378 121.83363408 278.75732422 120.16552734 C270.78361051 113.15602347 262.68768326 106.41705337 254.12841797 100.13037109 C253.19787598 99.44491211 253.19787598 99.44491211 252.24853516 98.74560547 C193.20543542 55.52336604 124.41610773 30.4921816 52.19091797 20.94287109 C50.30796021 20.69210815 50.30796021 20.69210815 48.38696289 20.4362793 C-28.12300482 10.69882947 -108.47209358 26.31648253 -269.87158203 120.13037109 Z " fill="#FEB444" transform="translate(507.87158203125,75.86962890625)"/>
<path d="M0 0 C8.20956858 6.00205377 13.88990182 13.11800703 16.5586462 23.08674908 C17.18212617 27.20216307 17.133887 31.25229577 17.12025452 35.40888977 C17.12110894 36.36054604 17.12196337 37.31220231 17.12284368 38.29269665 C17.12449154 41.48331754 17.11898843 44.67388591 17.11352539 47.86450195 C17.11324334 50.15092467 17.1134016 52.43734748 17.1139679 54.72377014 C17.11425518 60.93402772 17.10836946 67.14426603 17.10139394 73.35451913 C17.09514906 79.84345671 17.0945557 86.33239472 17.09336853 92.82133484 C17.09061207 103.71365706 17.08436287 114.60597216 17.07543945 125.49829102 C17.06625844 136.71671514 17.05918097 147.93513733 17.05493164 159.15356445 C17.05466892 159.84523381 17.05440619 160.53690317 17.05413551 161.2495322 C17.05283046 164.71948355 17.05156675 168.18943491 17.05032361 171.65938628 C17.0399593 200.43959553 17.02227382 229.2197976 17 258 C16.51721085 257.58604477 16.03442169 257.17208954 15.53700256 256.74559021 C14.90483322 256.20362503 14.27266388 255.66165985 13.62133789 255.10327148 C12.68059166 254.29671364 12.68059166 254.29671364 11.72084045 253.47386169 C-2.4796242 241.31147857 -18.00825356 235.38438118 -36.75 235.5625 C-37.88526123 235.57079834 -39.02052246 235.57909668 -40.19018555 235.58764648 C-58.56804821 235.95512527 -73.74117425 241.30155383 -87.171875 254.27734375 C-89 256 -89 256 -90 256 C-90.0456636 227.50655577 -90.08103917 199.01311616 -90.10213066 170.51964248 C-90.10463196 167.15274336 -90.10722061 163.78584432 -90.10986328 160.41894531 C-90.1103879 159.74868009 -90.11091252 159.07841487 -90.11145304 158.38783859 C-90.12014639 147.54698481 -90.13591045 136.70615232 -90.15430559 125.86531116 C-90.17303446 114.73464295 -90.18397342 103.60398341 -90.18817699 92.47329986 C-90.1907824 86.22430641 -90.19689848 79.97536119 -90.21146011 73.72638321 C-90.22506217 67.84137142 -90.22921731 61.95642762 -90.22621536 56.0714016 C-90.22676435 53.91477145 -90.2307261 51.75813897 -90.23841095 49.60152245 C-90.24841321 46.64907077 -90.24594963 43.69687328 -90.24050903 40.74441528 C-90.24924756 39.47491286 -90.24924756 39.47491286 -90.25816262 38.17976391 C-90.19323602 25.07615337 -86.58031304 13.82812851 -77.484375 4.16796875 C-56.40134044 -14.22996236 -23.03739431 -15.69773667 0 0 Z " fill="#BAE4FE" transform="translate(333,237)"/>
<path d="M0 0 C24.09 0 48.18 0 73 0 C73.375 29.375 73.375 29.375 73.47802734 38.65380859 C73.51321783 41.06869638 73.54913734 43.48357371 73.5859375 45.8984375 C73.59729736 47.16212158 73.60865723 48.42580566 73.62036133 49.7277832 C73.64042236 50.92540283 73.6604834 52.12302246 73.68115234 53.35693359 C73.69447601 54.40062103 73.70779968 55.44430847 73.7215271 56.5196228 C73.75844259 59.17430962 73.75844259 59.17430962 76 61 C79 61.33333333 79 61.33333333 82 61 C84.6539553 58.3460447 84.27151383 57.06474997 84.31884766 53.35693359 C84.33871735 52.17586029 84.35858704 50.99478699 84.37905884 49.77792358 C84.39061005 48.49769318 84.40216125 47.21746277 84.4140625 45.8984375 C84.43342865 44.59170074 84.4527948 43.28496399 84.4727478 41.93862915 C84.5241417 38.46332891 84.56372822 34.98798988 84.60089111 31.51251221 C84.64088553 27.96657699 84.69189096 24.42080159 84.7421875 20.875 C84.84007646 13.91672672 84.91952946 6.95858406 85 0 C102.49 0 119.98 0 138 0 C138 46.2 138 92.4 138 140 C92.46 140 46.92 140 0 140 C0 126.14 0 112.28 0 98 C15.8125 97.6875 15.8125 97.6875 20.79223633 97.61206055 C22.08411865 97.57894775 23.37600098 97.54583496 24.70703125 97.51171875 C25.38262085 97.50547485 26.05821045 97.49923096 26.75427246 97.49279785 C29.63006887 97.40448473 31.57254643 97.29803469 33.9675293 95.62817383 C35.25277657 93.95882354 35.25277657 93.95882354 34.8125 91.4375 C34.15372967 88.85558728 34.15372967 88.85558728 32 87 C21.44 86.67 10.88 86.34 0 86 C0 57.62 0 29.24 0 0 Z " fill="#BBE5FE" transform="translate(399,315)"/>
<path d="M0 0 C59.07 0 118.14 0 179 0 C179 24.75 179 49.5 179 75 C119.93 75 60.86 75 0 75 C0 50.25 0 25.5 0 0 Z " fill="#E2E3E3" transform="translate(621,377)"/>
<path d="M0 0 C57.09 0 114.18 0 173 0 C173 27.39 173 54.78 173 83 C155.18 83 137.36 83 119 83 C118.01 78.38 117.02 73.76 116 69 C111.23979209 60.34507653 105.97083209 54.6039928 96.46907234 51.60408592 C92.42477351 50.61460338 88.49624345 50.56059759 84.34936523 50.56762695 C82.97214043 50.55233948 82.97214043 50.55233948 81.5670929 50.53674316 C78.56419624 50.50680369 75.56161956 50.49737648 72.55859375 50.48828125 C70.46394303 50.47142044 68.36930234 50.45326832 66.27467346 50.43388367 C60.78554418 50.38652997 55.29645559 50.35662605 49.80718994 50.33044434 C43.20818576 50.2953032 36.60933776 50.23833224 30.0104599 50.18505096 C20.00699351 50.10670876 10.00372916 50.05597302 0 50 C0 33.5 0 17 0 0 Z " fill="#E2E2E3" transform="translate(627,561)"/>
<path d="M0 0 C2.98623707 0.72793111 4.04783963 2.15811579 6.03515625 4.49609375 C7.13146687 6.91201784 8.09403228 9.26635707 9.01171875 11.74609375 C14.48375101 26.98745975 14.48375101 26.98745975 25.14990234 38.35449219 C31.67819964 40.45188335 38.14902356 40.63669104 44.95825195 40.47802734 C50.70090365 40.511746 56.75926234 41.11997185 61.72265625 44.12109375 C63.68097773 47.6647231 64.04232989 50.63762571 63.03515625 54.49609375 C59.05669653 61.17322895 51.94898471 66.38533711 46.21875 71.56640625 C43.97934668 73.59197646 41.85653507 75.69262794 39.7578125 77.86328125 C37.03515625 80.49609375 37.03515625 80.49609375 35.03515625 80.49609375 C35.21691406 81.23730469 35.39867187 81.97851562 35.5859375 82.7421875 C43.54756721 116.09937456 43.54756721 116.09937456 39.53515625 123.12109375 C35.98334071 125.0745923 32.9481754 125.1531394 29.03515625 124.49609375 C25.00115393 122.89989526 21.26186334 120.84984978 17.47265625 118.74609375 C16.47041016 118.20726562 15.46816406 117.6684375 14.43554688 117.11328125 C6.74211153 112.96014301 6.74211153 112.96014301 3.97314453 111.14257812 C1.19919249 109.32933839 -0.36776045 108.41455748 -3.7109375 108.87109375 C-8.55469964 111.2900674 -13.30313967 113.85178678 -18.02734375 116.49609375 C-19.97511364 117.58202989 -21.92428658 118.66545413 -23.875 119.74609375 C-24.73230713 120.225625 -25.58961426 120.70515625 -26.47290039 121.19921875 C-31.95668109 124.05312715 -35.81717478 125.17916808 -41.96484375 124.49609375 C-44.46484375 122.43359375 -44.46484375 122.43359375 -45.96484375 119.49609375 C-46.23914376 114.56426876 -45.64498133 110.19919325 -44.58203125 105.390625 C-44.29912702 104.0645282 -44.01658541 102.738354 -43.734375 101.41210938 C-43.28718707 99.35045961 -42.83569114 97.28993331 -42.37744141 95.23071289 C-41.93380044 93.22386754 -41.50695879 91.21400292 -41.08203125 89.203125 C-40.82019043 88.01178955 -40.55834961 86.8204541 -40.28857422 85.59301758 C-39.94525809 82.30873014 -40.09411291 81.1488453 -41.96484375 78.49609375 C-43.76308735 76.68931419 -45.55848193 74.99179787 -47.46484375 73.30859375 C-47.99585693 72.830271 -48.52687012 72.35194824 -49.07397461 71.85913086 C-51.66189223 69.53135589 -54.26957815 67.22612771 -56.875 64.91796875 C-57.75027344 64.139375 -58.62554688 63.36078125 -59.52734375 62.55859375 C-60.31238281 61.86894531 -61.09742188 61.17929687 -61.90625 60.46875 C-65.16619998 57.34488901 -66.83307254 55.55026342 -67.40234375 50.99609375 C-66.96484375 47.49609375 -66.96484375 47.49609375 -65.40234375 45.18359375 C-58.88697249 40.67295211 -49.91192376 40.46813292 -42.27734375 39.37109375 C-41.05466797 39.18933594 -39.83199219 39.00757813 -38.57226562 38.8203125 C-29.50684328 37.49609375 -29.50684328 37.49609375 -24.96484375 37.49609375 C-24.69986084 36.64233154 -24.43487793 35.78856934 -24.16186523 34.90893555 C-22.25252931 29.46520581 -19.58002807 24.39308528 -16.99731445 19.24536133 C-16.02661412 17.30713689 -15.06673619 15.36380208 -14.10742188 13.41992188 C-13.48892969 12.18066574 -12.86981059 10.94172226 -12.25 9.703125 C-11.6919165 8.58397705 -11.13383301 7.4648291 -10.55883789 6.31176758 C-7.62744304 1.13367342 -6.09513057 0.17615984 0 0 Z " fill="#FCC85B" transform="translate(685.96484375,200.50390625)"/>
<path d="M0 0 C56.43 0 112.86 0 171 0 C171 16.17 171 32.34 171 49 C114.57 49 58.14 49 0 49 C0 32.83 0 16.66 0 0 Z " fill="#E2E2E2" transform="translate(532,501)"/>
<path d="M0 0 C1.28570892 -0.00990463 2.57141785 -0.01980927 3.89608765 -0.03001404 C5.3239603 -0.02577575 6.75183203 -0.02121786 8.17970276 -0.01637268 C9.68103037 -0.02207391 11.18235364 -0.02903721 12.68367004 -0.03717041 C16.76427161 -0.05514487 20.84465866 -0.0539254 24.92528796 -0.04822803 C28.32997699 -0.04514222 31.73462444 -0.05122186 35.13930756 -0.05726677 C43.17054854 -0.07132458 51.20168317 -0.06974042 59.23292542 -0.05836487 C67.52239779 -0.04688312 75.81154667 -0.06095729 84.10097641 -0.08776134 C91.21443954 -0.10990293 98.32780101 -0.1165592 105.44129616 -0.11068493 C109.69143642 -0.10731034 113.9413693 -0.10976349 118.19148064 -0.12693596 C122.18805673 -0.14237853 126.18415289 -0.13847992 130.18070984 -0.11963081 C131.64807098 -0.11593736 133.11546746 -0.11907544 134.5827961 -0.1295166 C136.58462089 -0.14267427 138.58656917 -0.12880334 140.58837891 -0.11352539 C141.70906989 -0.11331611 142.82976088 -0.11310682 143.98441219 -0.1128912 C146.85768127 0.38768005 146.85768127 0.38768005 149.21818733 2.02242851 C151.35398021 5.1036765 151.35819794 6.99605072 151.35888672 10.73291016 C151.36872086 12.03826721 151.37855499 13.34362427 151.38868713 14.6885376 C151.37931536 16.13325761 151.36953605 17.57797503 151.35939026 19.02268982 C151.36317361 20.54549153 151.36867378 22.0682898 151.37576294 23.59107971 C151.3897318 27.72535613 151.37853848 31.85921706 151.36205173 35.99347043 C151.34821001 40.31758028 151.3546602 44.64166579 151.35818481 48.96578979 C151.36088735 56.22652389 151.34740669 63.4870927 151.32423401 70.74778748 C151.29761394 79.14689257 151.29588016 87.54572148 151.30762237 95.94485432 C151.31839369 104.02013601 151.31221884 112.09531762 151.29806709 120.17059135 C151.29230266 123.60954588 151.29239352 127.04842727 151.29713249 130.48738289 C151.30189761 134.53481118 151.29182019 138.58193621 151.27017784 142.62930679 C151.26460378 144.11643005 151.26415036 145.60358242 151.26913071 147.09070778 C151.27506661 149.11695651 151.26076876 151.14323474 151.24536133 153.16943359 C151.24171649 154.87202756 151.24171649 154.87202756 151.23799801 156.60901737 C150.85768127 159.38768005 150.85768127 159.38768005 149.7201395 161.25251102 C146.99862177 162.91127716 144.8467492 162.76544902 141.67066956 162.76863098 C140.37510132 162.77709045 139.07953308 162.78554993 137.7447052 162.79426575 C136.30580014 162.78843262 134.86689632 162.7822881 133.42799377 162.77586365 C131.91519288 162.77992798 130.40239495 162.78526907 128.88960266 162.79179382 C124.77806596 162.80548985 120.66675466 162.80015942 116.55521393 162.79065657 C112.25645328 162.78307177 107.95771219 162.79010229 103.65895081 162.79481506 C96.43935168 162.80027607 89.21984456 162.79307199 82.0002594 162.77879333 C73.64833007 162.76246613 65.29662043 162.7677544 56.94469643 162.78427255 C49.77944874 162.79787762 42.61426727 162.79981189 35.44901085 162.79195654 C31.16708652 162.78727462 26.88526551 162.78666937 22.60334778 162.79656601 C18.57810917 162.80521921 14.55315436 162.79924416 10.52794647 162.78188324 C9.04888124 162.77790955 7.56979221 162.7790675 6.09073639 162.78567123 C4.07539715 162.79384115 2.06000584 162.78179006 0.04469299 162.76863098 C-1.08429413 162.7674999 -2.21328125 162.76636883 -3.3764801 162.76520348 C-6.14231873 162.38768005 -6.14231873 162.38768005 -8.00519753 161.25530434 C-9.67545258 158.51205331 -9.52010527 156.32453692 -9.52326965 153.1247406 C-9.53172913 151.81234406 -9.5401886 150.49994751 -9.54890442 149.14778137 C-9.54307128 147.68998595 -9.53692676 146.23219174 -9.53050232 144.7743988 C-9.5345666 143.24189377 -9.53990767 141.70939167 -9.5464325 140.17689514 C-9.56012906 136.0116421 -9.55479787 131.84661154 -9.54529524 127.68135452 C-9.53771073 123.32653952 -9.54474088 118.97174383 -9.54945374 114.6169281 C-9.55491482 107.30317253 -9.54771044 99.98950778 -9.53343201 92.67576599 C-9.51710479 84.21477448 -9.52239305 75.75399983 -9.53891122 67.29301357 C-9.55251606 60.03434865 -9.55445067 52.77574909 -9.54659522 45.51707554 C-9.54191317 41.17926032 -9.54130839 36.8415471 -9.55120468 32.5037384 C-9.55985753 28.42597149 -9.55388345 24.34848472 -9.53652191 20.27074814 C-9.53254803 18.77233216 -9.53370648 17.27389269 -9.54030991 15.77548599 C-9.5484791 13.73387227 -9.53642936 11.69220716 -9.52326965 9.65061951 C-9.52213858 8.5068837 -9.5210075 7.36314789 -9.51984215 6.18475342 C-9.14231873 3.38768005 -9.14231873 3.38768005 -8.00240421 1.52047634 C-5.29387511 -0.12902404 -3.16084939 0.0068557 0 0 Z M1.85768127 11.38768005 C1.85768127 39.76768005 1.85768127 68.14768005 1.85768127 97.38768005 C17.69768127 97.88268005 17.69768127 97.88268005 33.85768127 98.38768005 C34.84768127 99.37768005 35.83768127 100.36768005 36.85768127 101.38768005 C36.67018127 104.51268005 36.67018127 104.51268005 35.85768127 107.38768005 C32.91352358 108.8597589 29.895012 108.62584325 26.66236877 108.7040863 C25.36798889 108.74219421 24.07360901 108.78030212 22.74000549 108.81956482 C20.26138 108.88421936 20.26138 108.88421936 17.73268127 108.95018005 C9.87455627 109.16674255 9.87455627 109.16674255 1.85768127 109.38768005 C1.85768127 123.24768005 1.85768127 137.10768005 1.85768127 151.38768005 C47.39768127 151.38768005 92.93768127 151.38768005 139.85768127 151.38768005 C139.85768127 105.18768005 139.85768127 58.98768005 139.85768127 11.38768005 C122.36768127 11.38768005 104.87768127 11.38768005 86.85768127 11.38768005 C86.78420471 17.74146912 86.78420471 17.74146912 86.70924377 24.22361755 C86.66472265 27.59609298 86.61822608 30.96852826 86.57038879 34.34095764 C86.5203958 37.90369346 86.4739038 41.46639704 86.43580627 45.02928162 C86.39195794 49.11508645 86.33229322 53.20052586 86.27174377 57.28611755 C86.26019257 58.56634796 86.24864136 59.84657837 86.23674011 61.16560364 C86.21687042 62.34667694 86.19700073 63.52775024 86.17652893 64.74461365 C86.16320526 65.78830109 86.14988159 66.83198853 86.13615417 67.90730286 C85.85768127 70.38768005 85.85768127 70.38768005 83.85768127 72.38768005 C80.85768127 72.63768005 80.85768127 72.63768005 77.85768127 72.38768005 C75.20372598 69.73372476 75.58616744 68.45243003 75.53883362 64.74461365 C75.51877258 63.54699402 75.49871155 62.34937439 75.4780426 61.11546326 C75.46668274 59.85177917 75.45532288 58.58809509 75.44361877 57.28611755 C75.42597473 56.12829773 75.40833069 54.97047791 75.39015198 53.77757263 C75.32693506 49.43941815 75.28085216 45.10102769 75.23268127 40.76268005 C75.10893127 31.06893005 74.98518127 21.37518005 74.85768127 11.38768005 C50.76768127 11.38768005 26.67768127 11.38768005 1.85768127 11.38768005 Z " fill="#3D3D3E" transform="translate(397.14231872558594,303.61231994628906)"/>
<path d="M0 0 C28.05 0 56.1 0 85 0 C85 28.38 85 56.76 85 86 C56.95 86 28.9 86 0 86 C0 57.62 0 29.24 0 0 Z " fill="#E3E3E3" transform="translate(715,464)"/>
<path d="M0 0 C2.98623707 0.72793111 4.04783963 2.15811579 6.03515625 4.49609375 C7.13146687 6.91201784 8.09403228 9.26635707 9.01171875 11.74609375 C14.48375101 26.98745975 14.48375101 26.98745975 25.14990234 38.35449219 C31.67819964 40.45188335 38.14902356 40.63669104 44.95825195 40.47802734 C50.70090365 40.511746 56.75926234 41.11997185 61.72265625 44.12109375 C63.68097773 47.6647231 64.04232989 50.63762571 63.03515625 54.49609375 C59.05669653 61.17322895 51.94898471 66.38533711 46.21875 71.56640625 C43.97934668 73.59197646 41.85653507 75.69262794 39.7578125 77.86328125 C37.03515625 80.49609375 37.03515625 80.49609375 35.03515625 80.49609375 C35.21691406 81.23730469 35.39867187 81.97851562 35.5859375 82.7421875 C43.54756721 116.09937456 43.54756721 116.09937456 39.53515625 123.12109375 C35.98334071 125.0745923 32.9481754 125.1531394 29.03515625 124.49609375 C25.00115393 122.89989526 21.26186334 120.84984978 17.47265625 118.74609375 C16.47041016 118.20726562 15.46816406 117.6684375 14.43554688 117.11328125 C6.74211153 112.96014301 6.74211153 112.96014301 3.97314453 111.14257812 C1.19919249 109.32933839 -0.36776045 108.41455748 -3.7109375 108.87109375 C-8.55469964 111.2900674 -13.30313967 113.85178678 -18.02734375 116.49609375 C-19.97511364 117.58202989 -21.92428658 118.66545413 -23.875 119.74609375 C-24.73230713 120.225625 -25.58961426 120.70515625 -26.47290039 121.19921875 C-31.95668109 124.05312715 -35.81717478 125.17916808 -41.96484375 124.49609375 C-44.46484375 122.43359375 -44.46484375 122.43359375 -45.96484375 119.49609375 C-46.23914376 114.56426876 -45.64498133 110.19919325 -44.58203125 105.390625 C-44.29912702 104.0645282 -44.01658541 102.738354 -43.734375 101.41210938 C-43.28718707 99.35045961 -42.83569114 97.28993331 -42.37744141 95.23071289 C-41.93380044 93.22386754 -41.50695879 91.21400292 -41.08203125 89.203125 C-40.82019043 88.01178955 -40.55834961 86.8204541 -40.28857422 85.59301758 C-39.94525809 82.30873014 -40.09411291 81.1488453 -41.96484375 78.49609375 C-43.76308735 76.68931419 -45.55848193 74.99179787 -47.46484375 73.30859375 C-47.99585693 72.830271 -48.52687012 72.35194824 -49.07397461 71.85913086 C-51.66189223 69.53135589 -54.26957815 67.22612771 -56.875 64.91796875 C-57.75027344 64.139375 -58.62554688 63.36078125 -59.52734375 62.55859375 C-60.31238281 61.86894531 -61.09742188 61.17929687 -61.90625 60.46875 C-65.16619998 57.34488901 -66.83307254 55.55026342 -67.40234375 50.99609375 C-66.96484375 47.49609375 -66.96484375 47.49609375 -65.40234375 45.18359375 C-58.88697249 40.67295211 -49.91192376 40.46813292 -42.27734375 39.37109375 C-41.05466797 39.18933594 -39.83199219 39.00757813 -38.57226562 38.8203125 C-29.50684328 37.49609375 -29.50684328 37.49609375 -24.96484375 37.49609375 C-24.69986084 36.64233154 -24.43487793 35.78856934 -24.16186523 34.90893555 C-22.25252931 29.46520581 -19.58002807 24.39308528 -16.99731445 19.24536133 C-16.02661412 17.30713689 -15.06673619 15.36380208 -14.10742188 13.41992188 C-13.48892969 12.18066574 -12.86981059 10.94172226 -12.25 9.703125 C-11.6919165 8.58397705 -11.13383301 7.4648291 -10.55883789 6.31176758 C-7.62744304 1.13367342 -6.09513057 0.17615984 0 0 Z M-2.96484375 14.49609375 C-3.20605957 15.00881836 -3.44727539 15.52154297 -3.69580078 16.04980469 C-4.03466309 16.76942383 -4.37352539 17.48904297 -4.72265625 18.23046875 C-5.09777344 19.02718994 -5.47289062 19.82391113 -5.859375 20.64477539 C-6.68288035 22.3857376 -7.51104684 24.1245023 -8.34375 25.86108398 C-10.16767466 29.66554366 -11.97801534 33.45626962 -13.58203125 37.359375 C-14.03835938 38.41511719 -14.4946875 39.47085938 -14.96484375 40.55859375 C-15.33609375 41.47769531 -15.70734375 42.39679688 -16.08984375 43.34375 C-19.03025555 46.71909771 -22.7414342 46.83296582 -26.96484375 47.49609375 C-29.22722878 47.92225923 -31.48890275 48.35221019 -33.75 48.78515625 C-36.17547616 49.23212747 -38.60126428 49.67740883 -41.02734375 50.12109375 C-42.8980957 50.46527344 -42.8980957 50.46527344 -44.80664062 50.81640625 C-47.85910691 51.37777936 -50.91184273 51.93763741 -53.96484375 52.49609375 C-49.42837874 57.94953186 -49.42837874 57.94953186 -44.27734375 62.80859375 C-43.28347656 63.67677734 -43.28347656 63.67677734 -42.26953125 64.5625 C-40.54155548 66.01224239 -38.76751728 67.40737486 -36.97265625 68.7734375 C-35.95945312 69.58941406 -34.94625 70.40539062 -33.90234375 71.24609375 C-32.94199219 71.9834375 -31.98164062 72.72078125 -30.9921875 73.48046875 C-27.83531258 78.17624417 -28.99592309 82.11244602 -29.96484375 87.49609375 C-30.15312744 88.56230957 -30.34141113 89.62852539 -30.53540039 90.72705078 C-31.15930142 94.05534073 -31.83415147 97.36908613 -32.52734375 100.68359375 C-32.76130859 101.82634766 -32.99527344 102.96910156 -33.23632812 104.14648438 C-33.80717746 106.93083113 -34.3834261 109.71393824 -34.96484375 112.49609375 C-31.16398753 111.05410416 -27.62479801 109.32686682 -24.03515625 107.421875 C-22.90980469 106.83728516 -21.78445313 106.25269531 -20.625 105.65039062 C-18.26953908 104.4232085 -15.9205083 103.18360411 -13.578125 101.93164062 C-12.45019531 101.35091797 -11.32226562 100.77019531 -10.16015625 100.171875 C-8.6289917 99.36617065 -8.6289917 99.36617065 -7.06689453 98.54418945 C-2.09787843 96.86529868 1.49959769 97.82099475 6.21655273 99.89477539 C7.79545288 100.76670532 7.79545288 100.76670532 9.40625 101.65625 C10.55673828 102.28466797 11.70722656 102.91308594 12.89257812 103.56054688 C14.08606889 104.22632703 15.27942668 104.8923456 16.47265625 105.55859375 C17.69281317 106.22950994 18.91351209 106.89944142 20.13476562 107.56835938 C23.10703066 109.20134293 26.07341855 110.84411711 29.03515625 112.49609375 C30.33208902 108.79676618 29.76816501 105.96044151 29.0390625 102.15625 C28.81025391 100.92841797 28.58144531 99.70058594 28.34570312 98.43554688 C28.09884766 97.15615234 27.85199219 95.87675781 27.59765625 94.55859375 C27.11584322 92.02939482 26.63782586 89.49946913 26.1640625 86.96875 C25.8403064 85.28664429 25.8403064 85.28664429 25.51000977 83.57055664 C25.08403358 80.81255247 24.94144945 78.27908845 25.03515625 75.49609375 C25.5765625 75.28339844 26.11796875 75.07070313 26.67578125 74.8515625 C29.8882302 73.00599994 32.24119991 70.45684705 34.78515625 67.80859375 C38.88953833 63.60230977 43.04443494 59.61276761 47.609375 55.8984375 C49.30550822 54.44272178 49.30550822 54.44272178 50.03515625 51.49609375 C32.21515625 49.02109375 32.21515625 49.02109375 14.03515625 46.49609375 C13.04515625 43.52609375 13.04515625 43.52609375 12.03515625 40.49609375 C11.05890217 38.38753261 10.04344423 36.29682092 8.99609375 34.22265625 C8.41601562 33.06894531 7.8359375 31.91523438 7.23828125 30.7265625 C6.62899434 29.52469492 6.01961823 28.32287256 5.41015625 27.12109375 C4.79259747 25.89602043 4.17540643 24.67076165 3.55859375 23.4453125 C2.05438458 20.46039743 0.54646503 17.47741872 -0.96484375 14.49609375 C-1.62484375 14.49609375 -2.28484375 14.49609375 -2.96484375 14.49609375 Z " fill="#3E3F42" transform="translate(685.96484375,200.50390625)"/>
<path d="M0 0 C27.39 0 54.78 0 83 0 C83 16.5 83 33 83 50 C55.61 50 28.22 50 0 50 C0 33.5 0 17 0 0 Z " fill="#E2E2E3" transform="translate(532,561)"/>
<path d="M0 0 C1.14181905 -0.00521549 2.28363811 -0.01043099 3.46005774 -0.01580453 C5.35778299 -0.00911236 5.35778299 -0.00911236 7.29384613 -0.002285 C8.64295829 -0.00458748 9.9920692 -0.00776257 11.34117746 -0.01173949 C15.061146 -0.02012542 18.78101256 -0.01594511 22.50098157 -0.00976706 C26.50784593 -0.00525901 30.51469222 -0.0122181 34.52155304 -0.0177269 C42.37601082 -0.02664023 50.23043047 -0.02469028 58.08488977 -0.01890162 C64.46593119 -0.01439274 70.8469619 -0.01376886 77.22800446 -0.01594925 C78.13469916 -0.01625572 79.04139386 -0.01656218 79.97556415 -0.01687793 C81.81724863 -0.01751736 83.6589331 -0.01816578 85.50061756 -0.01882312 C102.78758972 -0.02453209 120.0745407 -0.01795963 137.36150938 -0.00722238 C152.20839103 0.00171364 167.05524141 0.00016176 181.9021225 -0.00905991 C199.12541961 -0.01975253 216.34869815 -0.02398272 233.57199812 -0.01783538 C235.40707111 -0.01719825 237.2421441 -0.01656951 239.0772171 -0.01594925 C239.98020976 -0.0156407 240.88320242 -0.01533215 241.81355849 -0.01501425 C248.19011499 -0.01328428 254.56665974 -0.01620889 260.94321442 -0.02090836 C268.70954336 -0.02650601 276.47583186 -0.02502433 284.24215615 -0.01434687 C288.2079123 -0.00907506 292.1736009 -0.00705892 296.13935661 -0.01364517 C299.76502423 -0.01957573 303.39056127 -0.01637783 307.01621693 -0.00569007 C308.95919933 -0.00237405 310.90219068 -0.0089528 312.84516382 -0.01580453 C314.5578924 -0.00798129 314.5578924 -0.00798129 316.30522156 0 C317.79247875 0.00048706 317.79247875 0.00048706 319.30978155 0.00098395 C321.65261078 0.25168228 321.65261078 0.25168228 323.65261078 2.25168228 C324.09011078 5.18918228 324.09011078 5.18918228 323.65261078 8.25168228 C320.09203831 10.98304445 317.43392858 11.62699748 313.00134087 11.6292057 C311.86809895 11.63702895 310.73485703 11.64485219 309.56727445 11.6529125 C308.32710872 11.64622033 307.08694299 11.63952817 305.80919647 11.63263321 C304.47470486 11.63609029 303.1402161 11.6408552 301.80573332 11.64681494 C298.14003586 11.65934748 294.47457247 11.65314445 290.80887413 11.64385629 C286.85520459 11.63707546 282.90157563 11.64754213 278.94791412 11.65579605 C271.20380718 11.66914518 263.45978739 11.66625062 255.71567701 11.65755813 C249.42386136 11.65078761 243.13207017 11.64986212 236.84025192 11.65312958 C235.49790483 11.65381913 235.49790483 11.65381913 234.12843961 11.65452261 C232.31059347 11.65548176 230.49274733 11.6564544 228.6749012 11.65744038 C211.62441387 11.66599748 194.57397491 11.65615462 177.52349551 11.64003928 C162.88389254 11.62663122 148.24436091 11.62896759 133.60475922 11.64279556 C116.61288389 11.65883783 99.62105095 11.66517831 82.62916911 11.65595877 C80.81855878 11.6550031 79.00794844 11.65405999 77.1973381 11.65312958 C76.30642756 11.65266675 75.41551702 11.65220392 74.49760919 11.65172707 C68.21014838 11.64913346 61.92271438 11.65351607 55.63525772 11.66056824 C47.9777063 11.66896821 40.32024716 11.66673467 32.66270636 11.65072601 C28.75348388 11.64282366 24.84441547 11.63978496 20.93519402 11.64967346 C16.70401355 11.66021482 12.47322456 11.64765703 8.2420578 11.63263321 C6.99743062 11.63932537 5.75280345 11.64601754 4.4704603 11.6529125 C2.77842066 11.64117763 2.77842066 11.64117763 1.05219841 11.6292057 C0.0748506 11.62871865 -0.90249721 11.62823159 -1.90946162 11.62772977 C-4.34738922 11.25168228 -4.34738922 11.25168228 -6.1653322 9.91949332 C-7.97691135 7.3634646 -7.67055249 5.28941703 -7.34738922 2.25168228 C-4.73356985 -0.36213709 -3.64305151 0.00119305 0 0 Z " fill="#3B3E42" transform="translate(372.3473892211914,729.7483177185059)"/>
<path d="M0 0 C4.26443998 2.45639048 6.94219383 6.57371757 8.82421875 11.05078125 C9.62854959 17.28695669 8.96477774 22.52772923 5.82421875 28.05078125 C2.2007688 32.23168504 -0.6427771 34.76933634 -6.19921875 35.38671875 C-17.46704339 35.51804538 -17.46704339 35.51804538 -22.17578125 31.05078125 C-27.33532492 25.33344908 -27.52793038 20.70759957 -27.453125 13.21875 C-26.9612789 7.60062057 -24.13505812 4.79870716 -20.11328125 1.23828125 C-13.92012215 -3.37364574 -6.8727842 -2.84903235 0 0 Z " fill="#3E3F42" transform="translate(315.17578125,707.94921875)"/>
<path d="M0 0 C2.67552983 2.67552983 2.24032812 4.69306366 2.25816262 8.33032525 C2.25233693 9.22719957 2.24651125 10.12407389 2.24050903 11.04812622 C2.24221788 11.99721922 2.24392673 12.94631222 2.24568737 13.92416561 C2.24899789 17.12416098 2.23795291 20.32394953 2.22705078 23.52392578 C2.226487 25.80990596 2.22680257 28.09588649 2.22793579 30.38186646 C2.22851162 36.60472152 2.21672024 42.82750009 2.20278788 49.05033731 C2.19031868 55.54729739 2.18911303 62.04425905 2.18673706 68.54122925 C2.18121924 79.45149099 2.1687113 90.36172436 2.15087891 101.27197266 C2.13252837 112.51090351 2.11836783 123.74982672 2.10986328 134.98876953 C2.10933783 135.68122706 2.10881239 136.37368459 2.10827102 137.08712567 C2.10566099 140.56088889 2.10313357 144.03465216 2.10064721 147.50841546 C2.07990476 176.33896229 2.04452215 205.16948047 2 234 C-0.475 231.525 -0.475 231.525 -3 229 C-2.34 228.67 -1.68 228.34 -1 228 C-0.67 152.76 -0.34 77.52 0 0 Z " fill="#B8E0EA" transform="translate(348,261)"/>
<path d="M0 0 C0.33 0 0.66 0 1 0 C1.33 18.81 1.66 37.62 2 57 C-15.82 57 -33.64 57 -52 57 C-52 56.34 -52 55.68 -52 55 C-34.84 54.67 -17.68 54.34 0 54 C0 36.18 0 18.36 0 0 Z " fill="#DBDBDC" transform="translate(798,587)"/>
<path d="M0 0 C0.95708359 0.00222061 1.91416718 0.00444122 2.9002533 0.00672913 C3.98129837 0.00680466 5.06234344 0.00688019 6.17614746 0.00695801 C7.94018166 0.01469994 7.94018166 0.01469994 9.73985291 0.02259827 C10.93702438 0.02401321 12.13419586 0.02542816 13.36764526 0.02688599 C17.20918732 0.03250472 21.05067208 0.04506041 24.89219666 0.05775452 C27.48920102 0.0627671 30.0862063 0.06733043 32.68321228 0.07142639 C39.06539344 0.08248024 45.44754096 0.0992366 51.82969666 0.12025452 C51.82969666 1.11025452 51.82969666 2.10025452 51.82969666 3.12025452 C34.33969666 2.79025452 16.84969666 2.46025452 -1.17030334 2.12025452 C-1.17030334 21.59025452 -1.17030334 41.06025452 -1.17030334 61.12025452 C-1.50030334 61.12025452 -1.83030334 61.12025452 -2.17030334 61.12025452 C-2.32391064 53.31460197 -2.47209232 45.50886723 -2.61326694 37.702981 C-2.67898584 34.07874966 -2.74660301 30.45457411 -2.8184967 26.83045959 C-2.88775492 23.33572843 -2.95210743 19.84093879 -3.01299858 16.34605217 C-3.04894038 14.3578031 -3.09001788 12.36964904 -3.13113403 10.38150024 C-3.15123032 9.18033066 -3.1713266 7.97916107 -3.19203186 6.74159241 C-3.21201736 5.67791946 -3.23200287 4.61424652 -3.25259399 3.51834106 C-3.14649957 0.42657281 -3.07791161 0.17054426 0 0 Z " fill="#474A4F" transform="translate(485.17030334472656,312.87974548339844)"/>
<path d="M0 0 C2.4375 1.625 2.4375 1.625 4 4 C4.5625 7 4.5625 7 4 10 C1.9375 12.4375 1.9375 12.4375 -1 14 C-4.6875 13.9375 -4.6875 13.9375 -8 13 C-10.46324069 9.30513897 -10.38991688 7.36706908 -10 3 C-7.7773391 -1.05308751 -4.20075589 -0.5158823 0 0 Z " fill="#FAE2AA" transform="translate(309,718)"/>
<path d="M0 0 C0.33 0 0.66 0 1 0 C1.33 9.9 1.66 19.8 2 30 C31.7 30.495 31.7 30.495 62 31 C62 31.33 62 31.66 62 32 C41.21 32 20.42 32 -1 32 C-1 2 -1 2 0 0 Z " fill="#DECA96" transform="translate(244,637)"/>
<path d="M0 0 C0.66 0.33 1.32 0.66 2 1 C0.36698918 5.64780003 0.36698918 5.64780003 -1.40551758 7.34887695 C-3.39884443 9.41301254 -4.43448657 11.53136678 -5.69921875 14.10546875 C-6.18583984 15.08837891 -6.67246094 16.07128906 -7.17382812 17.08398438 C-7.67333984 18.10814453 -8.17285156 19.13230469 -8.6875 20.1875 C-9.19861328 21.22326172 -9.70972656 22.25902344 -10.23632812 23.32617188 C-11.49632806 25.88149886 -12.75063868 28.43945919 -14 31 C-15 28 -15 28 -13.9519043 25.30444336 C-13.14619995 23.71321655 -13.14619995 23.71321655 -12.32421875 22.08984375 C-11.74349609 20.93548828 -11.16277344 19.78113281 -10.56445312 18.59179688 C-10.25644775 17.99230225 -9.94844238 17.39280762 -9.63110352 16.77514648 C-8.69179926 14.94587272 -7.7675863 13.10958897 -6.84570312 11.27148438 C-2.29447456 2.29447456 -2.29447456 2.29447456 0 0 Z " fill="#272729" transform="translate(679,202)"/>
<path d="M0 0 C0.66 0.33 1.32 0.66 2 1 C-0.65654657 4.73884332 -2.58110387 6.64978174 -7 8 C-6.02133662 6.85373678 -5.04205413 5.70800212 -4.0625 4.5625 C-3.51722656 3.92441406 -2.97195313 3.28632812 -2.41015625 2.62890625 C-1.63204305 1.73008851 -0.84063472 0.84063472 0 0 Z " fill="#FDAB2D" transform="translate(811,788)"/>
<path d="M0 0 C0.33 0 0.66 0 1 0 C1.25 2.75 1.25 2.75 1 6 C-1 8.375 -1 8.375 -3 10 C-2.69201674 8.51988629 -2.378482 7.04092675 -2.0625 5.5625 C-1.88847656 4.73878906 -1.71445313 3.91507812 -1.53515625 3.06640625 C-1 1 -1 1 0 0 Z " fill="#FDAE34" transform="translate(105,361)"/>
<path d="M0 0 C2.64 0 5.28 0 8 0 C8 0.66 8 1.32 8 2 C5.29120665 3.35439668 2.99066732 3.06501451 0 3 C0 2.01 0 1.02 0 0 Z " fill="#FEBA54" transform="translate(472,77)"/>
<path d="M0 0 C1.125 3.75 1.125 3.75 0 6 C-0.66 6 -1.32 6 -2 6 C-2.33 7.32 -2.66 8.64 -3 10 C-3.33 9.34 -3.66 8.68 -4 8 C-3.22265625 6.0546875 -3.22265625 6.0546875 -2.0625 3.875 C-1.49208984 2.78832031 -1.49208984 2.78832031 -0.91015625 1.6796875 C-0.60980469 1.12539063 -0.30945313 0.57109375 0 0 Z " fill="#FDAC31" transform="translate(118,329)"/>
<path d="M0 0 C0 0.99 0 1.98 0 3 C-3 5.1875 -3 5.1875 -6 7 C-6.66 6.67 -7.32 6.34 -8 6 C-5.36 4.02 -2.72 2.04 0 0 Z " fill="#FDAB30" transform="translate(266,151)"/>
<path d="M0 0 C0 3.99904969 -1.72586967 5.80200422 -4 9 C-4.66 8.67 -5.32 8.34 -6 8 C-4.02 5.36 -2.04 2.72 0 0 Z " fill="#FDAB2E" transform="translate(843,750)"/>
<path d="M0 0 C0.99 0.33 1.98 0.66 3 1 C1.6875 3 1.6875 3 0 5 C-0.99 5 -1.98 5 -3 5 C-1.125 1.125 -1.125 1.125 0 0 Z " fill="#3B393A" transform="translate(391,304)"/>
</svg>
