<?xml version="1.0" encoding="UTF-8"?>
<svg version="1.1" xmlns="http://www.w3.org/2000/svg" width="1024" height="1024">
<path d="M0 0 C337.92 0 675.84 0 1024 0 C1024 337.92 1024 675.84 1024 1024 C686.08 1024 348.16 1024 0 1024 C0 686.08 0 348.16 0 0 Z " fill="#FEFEFE" transform="translate(0,0)"/>
<path d="M0 0 C3.43713014 2.63825627 6.46241631 5.41869701 9.4375 8.5625 C19.7164499 19.17066894 32.96652894 26.14057409 46.25 32.25 C46.91531738 32.56453125 47.58063477 32.8790625 48.26611328 33.203125 C63.07658319 40.19466968 77.590654 44.37147234 94.1015625 44.390625 C96.02475135 44.4089606 97.94792875 44.4285316 99.87109375 44.44921875 C102.86591988 44.47805745 105.86000687 44.49999754 108.85498047 44.50048828 C125.72906032 44.52001524 139.94520007 46.26443539 152.67651367 58.63623047 C158.087426 64.44115393 160.83685479 71.4508575 164.01757812 78.625 C170.78312044 93.42523397 180.36620866 101.87199411 195.25 108.25 C201.41554359 110.51656111 207.64455184 112.58928986 213.90625 114.57275391 C229.45000021 119.62156035 239.75559346 128.07902674 247.83984375 142.35546875 C251.10718811 149.06212297 251.54013787 154.71492781 251.6875 162.0625 C252.01968276 185.07603456 252.01968276 185.07603456 261.25 205.25 C264.23400354 205.34865739 267.19906227 205.38714972 270.18359375 205.390625 C272.04884014 205.40897253 273.91407482 205.4285446 275.77929688 205.44921875 C278.72179619 205.47804044 281.66355216 205.49999599 284.60620117 205.50048828 C305.58287059 205.52534847 305.58287059 205.52534847 313.25 211.25 C314.23613281 211.94480469 315.22226562 212.63960937 316.23828125 213.35546875 C323.61827416 219.96645399 327.89175652 226.35506858 329.25 236.25 C329.36360985 238.96261182 329.43425409 241.65225248 329.45532227 244.36523438 C329.47015042 245.5679193 329.47015042 245.5679193 329.48527813 246.79490089 C329.5169965 249.47782071 329.54180594 252.16075613 329.56640625 254.84375 C329.58733922 256.7773367 329.60856689 258.71092024 329.63006592 260.64450073 C329.69865115 267.01293447 329.75609709 273.3814485 329.8125 279.75 C329.83254716 281.95208743 329.85259722 284.15417483 329.87265015 286.35626221 C330.0106026 301.73495643 330.12261461 317.11378198 330.22470093 332.49275208 C330.25021601 336.28208082 330.27696004 340.0713993 330.30395508 343.86071777 C330.4104982 359.01411649 330.48969618 374.16734118 330.53610229 389.32104492 C330.55161463 394.17448769 330.5764065 399.02774719 330.60916138 403.88110352 C330.64734098 409.62723597 330.66560779 415.37310302 330.66901398 421.11935806 C330.67344861 423.2272005 330.68464068 425.33504201 330.70333099 427.44280624 C330.94697405 456.29633609 330.94697405 456.29633609 321.2890625 467.3515625 C309.09206419 478.70738851 294.93879104 478.58494117 279.3125 478.0625 C278.46872803 478.02938721 277.62495605 477.99627441 276.75561523 477.9621582 C274.28623085 477.87168456 271.8181643 477.81836125 269.34765625 477.76953125 C268.59347916 477.72915237 267.83930206 477.6887735 267.06227112 477.64717102 C264.65529076 477.5470402 264.65529076 477.5470402 261.25 478.25 C258.24103171 481.78999827 256.55368921 485.43631616 255.0625 489.8125 C254.73894531 490.72128906 254.41539062 491.63007812 254.08203125 492.56640625 C252.35056731 500.23199543 252.21242727 508.09845006 252.1796875 515.93359375 C252.09770722 533.50939745 250.06816553 544.43129094 238.046875 557.87109375 C229.94068653 564.76588254 221.76362817 568.44229556 211.5625 571.1875 C195.44514886 575.84646643 177.3255926 581.69469517 168.70703125 597.24609375 C166.95151019 600.86538515 165.38081658 604.54671861 163.8125 608.25 C158.57121067 620.61476979 151.68804562 630.40038058 139.21337891 636.13793945 C128.63603024 640.10727733 116.81536987 639.46515504 105.6875 639.25 C70.4660856 638.5707212 36.59553589 651.66823286 10.25 675.25 C8.64995854 676.83750195 7.0650987 678.44053785 5.5 680.0625 C-2.96662978 688.82702972 -12.97057524 693.28208438 -25.0625 693.75 C-38.03260939 693.43902835 -48.84190931 687.17058272 -57.91015625 678.0859375 C-58.59980469 677.35632813 -59.28945313 676.62671875 -60 675.875 C-76.35538649 659.0892086 -101.45149942 648.19055401 -123.75 642.25 C-124.46639648 642.05043701 -125.18279297 641.85087402 -125.92089844 641.64526367 C-135.34269521 639.37288838 -145.22409263 639.86666288 -154.85693359 639.79370117 C-171.96649045 639.63963728 -190.13558286 639.35025064 -202.9375 626.375 C-207.69600105 620.61419709 -210.67562592 613.86321532 -213.84912109 607.15234375 C-221.8442095 590.26949041 -231.7378436 580.95985739 -249.21948242 574.49902344 C-253.82027936 572.85561384 -258.46611416 571.40768984 -263.14379883 570.00048828 C-276.14823147 566.06704088 -286.39121037 561.54434415 -293.44140625 549.31640625 C-299.48000011 537.66119257 -300.08580535 528.46108357 -300.22851562 515.44726562 C-300.48251943 503.60821032 -301.90081907 492.58305392 -307.76171875 482.140625 C-308.75 480.25 -308.75 480.25 -308.75 478.25 C-309.79341553 478.26047363 -310.83683105 478.27094727 -311.91186523 478.28173828 C-315.82003282 478.31821189 -319.72818566 478.34099906 -323.63647461 478.35986328 C-325.32107075 478.36985897 -327.00564981 478.38346004 -328.69018555 478.40087891 C-331.12553141 478.42541276 -333.56064592 478.43654758 -335.99609375 478.4453125 C-336.73709824 478.45563507 -337.47810272 478.46595764 -338.24156189 478.47659302 C-351.15324959 478.47930174 -360.20599509 474.2528331 -369.55078125 465.48046875 C-375.89124725 459.04990732 -379.05633319 451.5864168 -379.15589231 442.63675082 C-379.14988227 441.83032086 -379.14387222 441.02389091 -379.13768005 440.19302368 C-379.14306559 439.31528018 -379.14845113 438.43753669 -379.15399987 437.5331949 C-379.16823718 434.61003814 -379.16118615 431.68733692 -379.15405273 428.76416016 C-379.15975853 426.66100197 -379.1667236 424.55784688 -379.17485046 422.45469666 C-379.19277443 416.75422277 -379.19161479 411.05390288 -379.18590808 405.35340929 C-379.18281492 400.58956496 -379.18891016 395.82575016 -379.19494683 391.06191003 C-379.20898816 379.82054519 -379.20743419 368.57925635 -379.19604492 357.33789062 C-379.18456591 345.75214794 -379.19863675 334.1666368 -379.2254414 322.58092463 C-379.24761462 312.62313574 -379.25423205 302.66541945 -379.24836498 292.70760763 C-379.2449979 286.76498264 -379.2473941 280.82250605 -379.26461601 274.87990189 C-379.28010862 269.29016271 -379.27610361 263.70076588 -379.25731087 258.11104012 C-379.25363134 256.0640615 -379.25671483 254.01705739 -379.26719666 251.97010231 C-379.33205242 238.25338634 -378.8120186 226.65749564 -368.75 216.25 C-362.62856459 210.97582209 -356.58909218 208.03786313 -348.75 206.25 C-347.94006592 205.98981079 -347.94006592 205.98981079 -347.11376953 205.72436523 C-343.65470019 205.0301934 -340.21541392 205.12800891 -336.703125 205.15234375 C-335.54632233 205.15446617 -335.54632233 205.15446617 -334.3661499 205.15663147 C-331.91072662 205.16221466 -329.45539558 205.17476405 -327 205.1875 C-325.33203257 205.19251717 -323.66406371 205.1970797 -321.99609375 205.20117188 C-317.91402713 205.21217859 -313.83202919 205.22943164 -309.75 205.25 C-308.77465265 203.00634382 -307.80246037 200.7614075 -306.83203125 198.515625 C-306.55685669 197.88350098 -306.28168213 197.25137695 -305.99816895 196.60009766 C-301.87644306 187.04193059 -300.80449375 177.68619219 -300.57421875 167.33984375 C-300.55037109 166.32986328 -300.52652344 165.31988281 -300.50195312 164.27929688 C-300.45890737 162.21440491 -300.42769886 160.14923296 -300.40820312 158.08398438 C-300.08655165 146.37736686 -295.12592201 137.17729863 -287.3125 128.5625 C-286.466875 127.799375 -285.62125 127.03625 -284.75 126.25 C-284.10417969 125.56357422 -284.10417969 125.56357422 -283.4453125 124.86328125 C-275.03236268 116.55930747 -262.03575909 113.26545608 -251.0625 109.75 C-235.88941857 104.86805969 -223.4820728 99.04543406 -215.5 84.73828125 C-213.57781047 80.906774 -211.90565213 77.01389738 -210.25 73.0625 C-205.79552507 62.51458108 -199.7749987 53.86298643 -189.04296875 49.03125 C-181.18938872 46.02303877 -173.77852138 45.1215318 -165.38671875 45.07421875 C-163.75975321 45.05098364 -162.1328001 45.02686491 -160.50585938 45.00195312 C-157.99007262 44.96724425 -155.47473441 44.9377017 -152.95874023 44.92407227 C-129.89312196 44.77532088 -109.93504723 38.90027845 -89.55419922 28.19482422 C-87.97219426 27.36635883 -86.37947597 26.55841805 -84.78515625 25.75390625 C-74.28478306 20.31098153 -64.82884164 13.70457243 -56.75 5.0625 C-41.02207197 -11.68717128 -18.70065885 -13.00463063 0 0 Z " fill="#FED241" transform="translate(536.75,169.75)"/>
<path d="M0 0 C1.77721436 0.29680664 1.77721436 0.29680664 3.59033203 0.59960938 C11.42678518 1.91294579 19.21990055 3.38718924 27 5 C27.95374512 5.19706543 28.90749023 5.39413086 29.89013672 5.59716797 C36.29163855 6.94102458 42.65339972 8.41755558 49 10 C49.9389209 10.23380371 50.8778418 10.46760742 51.84521484 10.70849609 C115.34635157 26.83627517 177.92604844 59.28849874 226 104 C227.22513978 105.06714078 228.45428055 106.12970667 229.6875 107.1875 C241.20716638 117.27299105 252.00673953 127.90433346 262.34423828 139.19580078 C263.81202984 140.79517849 265.29118683 142.38255907 266.77734375 143.96484375 C272.21560888 149.81548917 277.19674004 155.92774522 282.06640625 162.25 C283.69080171 164.35837027 285.35023743 166.41716653 287.06201172 168.45605469 C292.61477822 175.07652356 297.41642961 181.93054386 302 189.25 C303.04679932 190.90829834 303.04679932 190.90829834 304.11474609 192.60009766 C306.08432421 195.72857498 308.04269933 198.86383412 310 202 C310.84609688 203.33610046 311.69240379 204.67206799 312.5390625 206.0078125 C349.58953142 265.81587281 373.92566565 339.22820561 374.203125 409.84765625 C374.21357849 411.64516579 374.21357849 411.64516579 374.22424316 413.47898865 C374.24158085 417.34019509 374.24796651 421.20125621 374.25 425.0625 C374.25100708 426.3820166 374.25201416 427.7015332 374.25305176 429.06103516 C374.25151177 449.86729683 373.58622823 470.34881576 371 491 C370.7831958 492.80452637 370.7831958 492.80452637 370.56201172 494.64550781 C364.66903431 542.50718698 349.68162661 591.30343587 326.33740234 633.56933594 C324.86949271 636.23719069 323.42775453 638.91826362 321.98828125 641.6015625 C308.45045436 666.76481742 292.29784629 689.31321187 274.72387695 711.78686523 C273.54500625 713.30031416 272.3719231 714.81828424 271.20385742 716.34008789 C263.47278287 726.39037958 254.68490717 735.39624821 245.75 744.375 C245.1010376 745.02863525 244.4520752 745.68227051 243.78344727 746.35571289 C239.35226852 750.77227285 234.74631575 754.92603875 230 759 C228.88246137 759.97355541 227.76525633 760.94749394 226.6484375 761.921875 C197.74280691 786.96323322 166.38956962 808.18605992 132 825 C131.09577301 825.44406189 131.09577301 825.44406189 130.17327881 825.89709473 C112.18872173 834.72248179 94.01476281 842.61353529 75 849 C73.43161377 849.52883789 73.43161377 849.52883789 71.83154297 850.06835938 C28.94751759 864.24995424 -16.27982119 870.23485344 -61.3125 870.1875 C-62.37447601 870.18689575 -63.43645203 870.1862915 -64.53060913 870.18566895 C-99.14823454 870.13225322 -132.37732047 866.45396372 -166 858 C-167.06573242 857.73848145 -168.13146484 857.47696289 -169.22949219 857.20751953 C-193.84668541 851.13319549 -217.11444238 842.35582371 -239.97900391 831.43847656 C-243.10687752 829.94910923 -246.24581296 828.48509898 -249.38671875 827.0234375 C-282.53194714 811.50051858 -313.85288831 791.47594114 -341.44189453 767.35205078 C-343.05053336 765.95614953 -344.67666419 764.58342086 -346.30859375 763.21484375 C-370.3446387 742.99475277 -392.27985905 720.87957747 -410.35083008 695.12817383 C-413.12659239 691.18209011 -416.02362366 687.3587685 -419 683.5625 C-431.00833625 668.06255902 -440.46835535 651.08186411 -450 634 C-450.50096191 633.11231934 -451.00192383 632.22463867 -451.51806641 631.31005859 C-479.03199899 582.38419444 -491.88484819 525.36399607 -497 470 C-497.14356934 468.62714844 -497.14356934 468.62714844 -497.29003906 467.2265625 C-498.22950515 457.58272426 -498.24270356 447.93087257 -498.25 438.25 C-498.25100708 437.31802795 -498.25201416 436.38605591 -498.25305176 435.42584229 C-498.20204798 364.77510891 -481.94316861 299.06104984 -451.25 235.5625 C-450.72160019 234.46840317 -450.72160019 234.46840317 -450.18252563 233.35220337 C-444.03168547 220.6704644 -437.39366268 208.34093956 -429.625 196.5625 C-429.16077637 195.85424072 -428.69655273 195.14598145 -428.21826172 194.41625977 C-427.26961134 192.97072031 -426.31928592 191.52627856 -425.3671875 190.08300781 C-424.0744774 188.11347164 -422.80048611 186.13315429 -421.53125 184.1484375 C-415.75386462 175.19120545 -409.30490824 166.95597682 -402.47509766 158.77929688 C-400.48791034 156.38230563 -398.56242493 153.93728786 -396.625 151.5 C-387.10427334 139.93180524 -376.44440849 129.3430617 -365.89624023 118.7210083 C-364.81544212 117.63215589 -363.73612743 116.54182861 -362.65844727 115.44989014 C-355.77526581 108.4852525 -348.68431054 102.09109279 -341 96 C-339.69414841 94.91598174 -338.39166313 93.82788562 -337.09375 92.734375 C-327.87984885 85.05086712 -318.28549805 78.13884849 -308.28466797 71.51708984 C-306.19078727 70.12668862 -304.11174741 68.71680567 -302.03515625 67.30078125 C-252.22769326 33.75352962 -193.67353287 11.42946059 -134.55273438 1.59863281 C-132.11573801 1.18800094 -129.68218402 0.7565577 -127.25195312 0.30761719 C-86.18098595 -7.27041263 -41.12670635 -7.26624381 0 0 Z M-96.85253906 99.89624023 C-101.19121987 104.31685386 -105.77347884 107.71115217 -111 111 C-112.5778125 112.02673828 -112.5778125 112.02673828 -114.1875 113.07421875 C-134.30727639 125.8751439 -157.37272351 135.9170317 -181.51171875 136.24609375 C-183.17383306 136.27904901 -184.8359423 136.31226036 -186.49804688 136.34570312 C-189.08679565 136.39287794 -191.67552647 136.43731736 -194.2644043 136.47680664 C-210.66041944 136.73855356 -225.57814025 137.15595184 -238.203125 149.0234375 C-243.16834304 154.48517734 -246.02479521 160.95946782 -248.90942383 167.67138672 C-256.17049414 184.55928096 -264.74811918 192.35092923 -281.91796875 199.46875 C-286.77337122 201.34684071 -291.73462349 202.90212899 -296.6875 204.5 C-313.14539564 209.8276647 -324.58984367 217.02691828 -333.36328125 232.38671875 C-335.73262762 237.04786924 -337.10788968 240.84881732 -337.24609375 246.05078125 C-337.27735352 247.05254395 -337.30861328 248.05430664 -337.34082031 249.08642578 C-337.37272461 250.15103027 -337.40462891 251.21563477 -337.4375 252.3125 C-338.03643909 268.23154638 -339.66297927 282.58577904 -347 297 C-348.00264893 296.98428955 -349.00529785 296.9685791 -350.03833008 296.95239258 C-353.80859128 296.89751205 -357.57881825 296.86344183 -361.34936523 296.83520508 C-362.97182175 296.82024934 -364.59423877 296.79987723 -366.21655273 296.77368164 C-381.54795264 296.53257729 -395.30747999 298.1163575 -407.10546875 308.8671875 C-413.99300784 316.62099439 -416.14944112 324.50272744 -416.14717102 334.57595825 C-416.15084771 335.45028405 -416.1545244 336.32460985 -416.1583125 337.22543037 C-416.1693426 340.16087227 -416.17319206 343.09627876 -416.17700195 346.03173828 C-416.18326714 348.13430392 -416.18991399 350.23686845 -416.19691467 352.33943176 C-416.21795192 359.2497175 -416.22831716 366.16000346 -416.23828125 373.0703125 C-416.24232901 375.44996019 -416.24644594 377.82960777 -416.25063133 380.20925522 C-416.26968273 391.38987932 -416.28391354 402.57049682 -416.2922433 413.75113404 C-416.30201411 426.65272705 -416.32832991 439.55414843 -416.36874419 452.45568097 C-416.39891659 462.43035913 -416.41371328 472.40498812 -416.41702431 482.37971103 C-416.41937362 488.3358305 -416.42831879 494.29176659 -416.45348549 500.24783707 C-416.47679049 505.85390946 -416.4809895 511.45967805 -416.47072411 517.06578636 C-416.47022922 519.11922276 -416.47653563 521.17267423 -416.49028015 523.22606468 C-416.58271524 537.8586704 -415.8501127 547.80310964 -405.296875 558.8046875 C-395.98500365 567.70480943 -386.32088702 570.18486268 -373.5390625 570.09765625 C-372.74849457 570.0962413 -371.95792664 570.09482635 -371.1434021 570.09336853 C-368.63722834 570.08780504 -366.13114642 570.07525944 -363.625 570.0625 C-361.91797005 570.05748028 -360.21093868 570.0529182 -358.50390625 570.04882812 C-354.33590252 570.03784759 -350.16796679 570.02060839 -346 570 C-344.41767944 573.93756803 -342.89797412 577.89030345 -341.4375 581.875 C-340.78587891 583.63457031 -340.78587891 583.63457031 -340.12109375 585.4296875 C-338.33466282 591.11887868 -337.88458063 596.66612041 -337.82421875 602.60546875 C-337.78844727 604.45301758 -337.78844727 604.45301758 -337.75195312 606.33789062 C-337.70931415 608.88460041 -337.67788621 611.43152497 -337.65820312 613.97851562 C-337.34779266 627.84592283 -333.49339853 639.60167834 -324.15625 650.06640625 C-315.88255892 657.91624021 -304.83117895 660.82193706 -294.125 663.875 C-275.67046614 669.37574569 -263.41526932 675.74689353 -254 693.13671875 C-252.24900264 696.46344274 -250.62186086 699.84288068 -249.00146484 703.23461914 C-243.26926436 715.12802683 -236.85626084 723.335451 -224.18310547 728.32519531 C-212.50362432 731.93535925 -199.89766999 731.35189181 -187.80371094 731.38085938 C-152.56761436 731.52208621 -118.11369081 747.21785803 -93.09375 771.87890625 C-83.72196474 780.75430458 -71.91649468 785.6230051 -59.0625 785.33984375 C-46.8909369 784.64539614 -37.499691 777.75743876 -29.375 769.25 C-8.3932986 747.98255559 25.36454679 731.31643922 55.57568359 730.95751953 C60.49711388 730.96398719 65.41830576 731.01945227 70.33911133 731.09594727 C87.52042536 731.34495182 102.82784113 730.64064672 115.9765625 718.20703125 C121.40228998 712.28900803 124.38810471 705.23179607 127.5 697.9375 C134.242531 682.23042615 143.40958171 674.23219017 159.33984375 667.71484375 C164.72927245 665.64253216 170.26905636 664.10062818 175.8125 662.5 C189.13441573 658.60626642 198.59402419 653.3449072 207 642 C207.68578125 641.07445312 208.3715625 640.14890625 209.078125 639.1953125 C215.18459457 629.24127065 214.87657072 619.07133285 214.9296875 607.68359375 C214.98374623 597.82544406 215.10719855 588.50706054 218.9375 579.3125 C219.20240234 578.62478516 219.46730469 577.93707031 219.74023438 577.22851562 C220.87954459 574.34772876 221.78854458 572.21145542 224 570 C226.64712374 569.87328907 229.18951398 569.86560475 231.83203125 569.9453125 C233.45246467 569.9706533 235.07290792 569.9953715 236.69335938 570.01953125 C239.23623698 570.06868074 241.77859382 570.12409584 244.32104492 570.19189453 C258.52110175 570.54672133 271.69764873 569.79232053 283 560 C290.98430348 552.33793299 293.10506739 541.26699266 293.4335165 530.59671116 C293.49891312 525.75880043 293.46865536 520.92391605 293.42578125 516.0859375 C293.42124834 513.91128315 293.4184308 511.73662466 293.41719055 509.56196594 C293.40854473 503.71348129 293.37455344 497.86540245 293.33496857 492.01705551 C293.30487158 487.13846634 293.28893662 482.25987427 293.27321243 477.38122082 C293.22823432 463.45426157 293.14588394 449.5277087 293.05072021 435.60101318 C292.99986829 428.12808267 292.95767684 420.65511798 292.91650391 413.18212891 C292.84510078 400.44449449 292.75417665 387.70708581 292.65078354 374.96967316 C292.62505207 371.69412845 292.60201657 368.4185736 292.57949829 365.14300537 C292.54327084 360.00817991 292.49679156 354.87354472 292.44225121 349.73888206 C292.42374913 347.86682218 292.40841765 345.99472773 292.39657021 344.12261391 C292.37970805 341.56682789 292.35080461 339.01144632 292.31884766 336.45581055 C292.31668904 335.72565924 292.31453043 334.99550793 292.3123064 334.24323082 C292.14286171 323.7022013 289.44074488 315.81435826 282.1796875 308.0546875 C280.20720202 306.20997436 278.16417648 304.61467487 276 303 C275.3920459 302.54375244 274.7840918 302.08750488 274.15771484 301.61743164 C265.17754225 296.1135573 254.53875362 297.21548297 244.375 297.1875 C242.39710818 297.16432791 240.41924083 297.13895699 238.44140625 297.11132812 C233.62751277 297.04882842 228.8142628 297.01621499 224 297 C223.36493233 295.75375079 222.73267734 294.50606811 222.1015625 293.2578125 C221.57296631 292.21584717 221.57296631 292.21584717 221.03369141 291.15283203 C215.91738983 280.49729416 215.02993757 269.06606506 214.76367188 257.41503906 C214.4016123 242.96514857 211.81007429 232.97989487 202 222 C201.40445313 221.30003906 200.80890625 220.60007812 200.1953125 219.87890625 C192.00964834 210.89505492 181.55143568 207.78539403 170.3125 204.1875 C153.25927824 198.68820533 138.48967166 192.93352047 129.96923828 176.32250977 C128.26705009 172.90323018 126.63236248 169.45300983 125 166 C118.037931 151.33897266 109.69237289 144.31241425 95 138 C92.19050433 137.16393233 89.67136913 136.86841404 86.74487305 136.84228516 C85.91267746 136.83202301 85.08048187 136.82176086 84.22306824 136.81118774 C83.32832291 136.80388641 82.43357758 136.79658508 81.51171875 136.7890625 C79.58788268 136.76095523 77.66405469 136.7322906 75.74023438 136.703125 C72.73039315 136.6622046 69.72069636 136.62529404 66.71069336 136.59863281 C54.7849727 136.48402892 43.58331503 136.00611245 32 133 C31.24178955 132.80696289 30.4835791 132.61392578 29.70239258 132.41503906 C20.21214402 129.79585331 11.54593727 125.58142235 2.88720703 120.9921875 C1.12327617 120.06481169 -0.65853645 119.17167306 -2.44140625 118.28125 C-12.6174421 113.08914507 -21.63744549 106.69668178 -29.5 98.375 C-38.56331678 88.97847304 -49.85645239 83.02896262 -62.875 82.5625 C-77.31005515 82.91988027 -87.10902426 89.85181288 -96.85253906 99.89624023 Z " fill="#FEFEFE" transform="translate(574,78)"/>
<path d="M0 0 C1.55522118 -0.01045349 1.55522118 -0.01045349 3.14186096 -0.02111816 C6.47091792 -0.03841172 9.79980623 -0.04483878 13.12890625 -0.046875 C14.2686792 -0.04788208 15.40845215 -0.04888916 16.58276367 -0.04992676 C34.17984056 -0.03941476 51.25910995 0.68825793 68.69140625 3.203125 C70.91910214 3.49737374 73.14697001 3.7903231 75.375 4.08203125 C98.89005871 7.26676927 122.27856097 11.72167084 145.05371094 18.42773438 C147.74351816 19.21844409 150.43968292 19.98435269 153.13671875 20.75 C182.49887792 29.2350291 212.26830069 40.30889367 238.60400391 55.97265625 C241.85062855 57.88645604 245.13281828 59.73693375 248.41088867 61.59619141 C251.99598815 63.6333188 255.57000974 65.68950293 259.14453125 67.74511719 C261.5287639 69.11001724 263.92129883 70.4589935 266.31640625 71.8046875 C274.402587 76.39116271 281.76262333 81.34502114 288.9609375 87.22265625 C292.46954844 90.07190518 296.11060019 92.71257039 299.77685547 95.35424805 C310.1091679 102.80561115 319.41424545 110.77949328 328.31640625 119.890625 C330.92224191 122.55352276 333.70299802 124.83457584 336.62890625 127.140625 C341.70581214 131.22742891 346.3361492 135.65610728 350.94140625 140.265625 C351.93321899 141.25647095 351.93321899 141.25647095 352.94506836 142.26733398 C357.38515039 146.75634866 361.57724031 151.41545485 365.69140625 156.203125 C366.67664731 157.3324118 367.66230441 158.46133582 368.6484375 159.58984375 C375.2941262 167.25054369 381.61887565 175.08211487 387.69140625 183.203125 C388.12807617 183.78143066 388.56474609 184.35973633 389.01464844 184.95556641 C398.53934174 197.58315656 407.02928524 210.80198375 415.31640625 224.265625 C415.72310547 224.92409424 416.12980469 225.58256348 416.54882812 226.26098633 C424.68813949 239.60555981 431.91461977 253.3135479 438.56640625 267.453125 C439.14935455 268.68952225 439.14935455 268.68952225 439.74407959 269.95089722 C461.45019818 316.11568568 473.56555632 364.67632853 479.69140625 415.203125 C479.88839111 416.80800781 479.88839111 416.80800781 480.08935547 418.4453125 C484.04330432 452.60565597 482.87110057 488.11876607 478.69140625 522.203125 C478.54687012 523.38664551 478.40233398 524.57016602 478.25341797 525.78955078 C476.17164367 542.22012159 473.05999813 558.42768127 469.48583984 574.59423828 C468.96789736 576.94710425 468.45991746 579.30219217 467.96337891 581.65966797 C464.62265249 597.47666178 460.07935257 612.6474045 454.75390625 627.890625 C454.46507568 628.72171783 454.17624512 629.55281067 453.87866211 630.40908813 C448.00075932 647.22348152 440.91089491 663.339912 432.69140625 679.140625 C432.37836548 679.7440976 432.06532471 680.34757019 431.74279785 680.96932983 C421.98302177 699.73618199 411.38078199 718.13044727 399.03320312 735.32421875 C397.58311754 737.35476072 396.15922192 739.4020923 394.73828125 741.453125 C386.36235077 753.50891952 377.6629247 765.17808999 367.71875 775.99609375 C365.94099211 777.93141785 364.21564373 779.89715516 362.50390625 781.890625 C350.19087836 795.96265688 337.20646265 809.13756958 322.59375 820.83203125 C319.75741871 823.14919558 316.99797415 825.533896 314.24536133 827.94897461 C286.69934775 852.10621142 255.14999106 870.46823539 222.69140625 887.203125 C222.09076355 887.51288269 221.49012085 887.82264038 220.87127686 888.14178467 C185.64668805 906.24675139 148.51662265 917.63903255 109.69140625 925.203125 C108.49257812 925.44023193 108.49257812 925.44023193 107.26953125 925.68212891 C40.21062698 938.69926566 -30.00507603 937.46129789 -96.30859375 921.203125 C-97.66235107 920.87538086 -97.66235107 920.87538086 -99.04345703 920.54101562 C-140.12186616 910.44040434 -181.66697063 895.11605272 -217.44775391 872.38378906 C-219.52196075 871.06774809 -221.60816262 869.77197275 -223.6953125 868.4765625 C-249.35755514 852.48415042 -273.23191512 835.46891422 -295.39453125 814.87109375 C-297.49885379 812.94448209 -299.61925772 811.08660149 -301.7890625 809.23828125 C-307.57135314 804.19483886 -312.95801542 798.73971966 -318.38061523 793.31640625 C-320.23336843 791.46583533 -322.09398081 789.62342424 -323.95507812 787.78125 C-330.87269847 780.89601595 -337.27928399 773.88896614 -343.30859375 766.203125 C-344.76318575 764.42921719 -346.22113272 762.65805096 -347.68359375 760.890625 C-352.98736733 754.40206431 -358.18733663 747.83644762 -363.30859375 741.203125 C-363.99824219 740.31109375 -364.68789063 739.4190625 -365.3984375 738.5 C-371.18447082 730.78528891 -376.08155461 722.55127699 -381.04052734 714.29394531 C-382.69239735 711.5702998 -384.41119832 708.8906266 -386.12109375 706.203125 C-402.51601077 679.50283157 -416.60684613 651.00310955 -426.30859375 621.203125 C-426.75162842 619.87667969 -426.75162842 619.87667969 -427.20361328 618.5234375 C-437.49777324 587.34249136 -444.12376386 553.84242743 -447.30859375 521.203125 C-447.37951233 520.49687988 -447.45043091 519.79063477 -447.52349854 519.06298828 C-454.56847609 448.85396867 -448.18583144 373.49659345 -422.30859375 307.203125 C-421.82036133 305.94822266 -421.82036133 305.94822266 -421.32226562 304.66796875 C-403.84923285 260.17307314 -382.25938503 217.48249315 -352.58105469 179.82275391 C-351.26509686 178.14776077 -349.96174826 176.46351864 -348.66015625 174.77734375 C-345.91040782 171.22500629 -343.12040105 167.70649027 -340.30859375 164.203125 C-339.88481445 163.67203125 -339.46103516 163.1409375 -339.02441406 162.59375 C-332.0770791 153.96431626 -324.38221794 146.09342947 -316.55859375 138.265625 C-315.81506653 137.52060226 -315.81506653 137.52060226 -315.05651855 136.76052856 C-309.83370872 131.53890701 -304.55273782 126.43235841 -298.94433594 121.62280273 C-296.96682883 119.90650365 -295.12690551 118.08637647 -293.30859375 116.203125 C-279.83622792 102.24960325 -263.41303465 90.88681583 -247.30859375 80.203125 C-246.64569336 79.75904297 -245.98279297 79.31496094 -245.29980469 78.85742188 C-234.40052394 71.57026447 -223.16587886 64.98388831 -211.73046875 58.57714844 C-209.60169188 57.36941092 -207.49810685 56.1310028 -205.40234375 54.8671875 C-146.77439421 19.86402595 -68.00742713 0.31053457 0 0 Z M-59.30859375 36.203125 C-60.64213266 36.44645902 -61.9757865 36.68916431 -63.30957031 36.93115234 C-136.91465477 50.56208083 -207.01585642 82.98279974 -264.30859375 131.203125 C-265.31736572 132.04053223 -266.3261377 132.87793945 -267.36547852 133.74072266 C-275.93468972 140.91492623 -283.93546284 148.54785204 -291.79760742 156.48632812 C-293.76354093 158.47073613 -295.73757855 160.4468064 -297.71289062 162.421875 C-303.78570188 168.51151914 -309.7842435 174.60396381 -315.30859375 181.203125 C-316.18501623 182.21326606 -317.06257044 183.22242662 -317.94140625 184.23046875 C-329.76927535 198.04200869 -340.32824043 212.32951156 -349.83349609 227.83544922 C-351.26396217 230.13148695 -352.73813377 232.39092718 -354.234375 234.64453125 C-363.17779839 248.20511199 -370.32450681 262.5694883 -377.30859375 277.203125 C-377.7483252 278.12270996 -378.18805664 279.04229492 -378.64111328 279.98974609 C-381.33377437 285.67133753 -383.87691587 291.40518593 -386.30859375 297.203125 C-386.68902832 298.10981934 -387.06946289 299.01651367 -387.46142578 299.95068359 C-403.14498174 337.87450894 -414.60520986 378.25652357 -418.30859375 419.203125 C-418.46086426 420.80849121 -418.46086426 420.80849121 -418.61621094 422.44628906 C-427.7419073 522.36834607 -405.64508343 620.48422527 -340.609375 718.56054688 C-338.08795243 721.7445054 -335.67517984 725.01105455 -333.24609375 728.265625 C-332.73699463 728.94431641 -332.22789551 729.62300781 -331.70336914 730.32226562 C-329.4182858 733.36953412 -327.1425766 736.42243115 -324.8984375 739.5 C-320.44846103 745.55887449 -315.74981983 751.19462816 -310.62890625 756.69921875 C-308.71392014 758.76572733 -306.8762566 760.86457173 -305.05859375 763.015625 C-297.78321463 771.37971881 -289.74390722 779.34487019 -281.28515625 786.5078125 C-278.79999181 788.6393567 -276.40419229 790.85996099 -273.99609375 793.078125 C-269.10891119 797.52465995 -264.11633366 801.78474824 -258.94482422 805.89697266 C-257.79376476 806.81582794 -256.64735674 807.74052547 -255.50439453 808.66943359 C-236.78487827 823.86815575 -216.46144574 837.61109758 -195.30859375 849.203125 C-194.50196289 849.6475293 -193.69533203 850.09193359 -192.86425781 850.54980469 C-162.16643544 867.32852466 -130.09396904 881.05870249 -96.30859375 890.203125 C-95.3355127 890.46867188 -94.36243164 890.73421875 -93.35986328 891.0078125 C-71.11234802 897.01482748 -48.32228939 901.55883378 -25.30859375 903.203125 C-23.57283081 903.33231323 -23.57283081 903.33231323 -21.80200195 903.46411133 C-9.49603907 904.31875007 2.79724802 904.40362584 15.12890625 904.390625 C16.71954391 904.38971863 16.71954391 904.38971863 18.34231567 904.38879395 C42.87245017 904.3508785 66.53557112 902.62882381 90.69140625 898.203125 C92.03187539 897.9620969 93.37237131 897.72121768 94.71289062 897.48046875 C133.95390422 890.38183958 170.44470563 878.07035843 206.42578125 860.77294922 C208.50587729 859.77302267 210.58891933 858.77918517 212.67578125 857.79345703 C249.05445544 840.60277484 281.56383459 816.44296755 311.21484375 789.43359375 C312.61342402 788.17398912 314.01854881 786.92131134 315.44458008 785.69287109 C327.51634203 775.28602557 339.04298081 763.91034677 348.69140625 751.203125 C349.48417969 750.18089844 350.27695312 749.15867187 351.09375 748.10546875 C352.79403363 745.9116182 354.48473492 743.7108632 356.16796875 741.50390625 C357.79780848 739.36732542 359.43935703 737.24199606 361.08984375 735.12109375 C371.09980194 722.24420578 380.87232339 709.35885465 388.68603516 695.00878906 C390.16497477 692.35258766 391.73246283 689.75152623 393.29443359 687.14355469 C433.59808823 619.71809331 452.14448072 542.86938394 452.00708008 464.64770508 C452.00391714 460.9035125 452.02751748 457.16011178 452.05273438 453.41601562 C452.11216213 431.02566873 450.16286176 408.89861307 446.00390625 386.890625 C445.81690659 385.88550369 445.81690659 385.88550369 445.62612915 384.8600769 C432.55861118 314.98883765 401.76520278 245.45230692 355.34375 191.328125 C352.89376957 188.46260954 350.5410108 185.52664835 348.19140625 182.578125 C344.1824465 177.64236273 339.79343555 173.20662448 335.2578125 168.765625 C332.47643729 165.98848324 329.91919435 163.08346112 327.36328125 160.1015625 C322.60940332 154.70346747 317.37786783 149.83521394 311.921875 145.16015625 C309.30356383 142.86282894 306.78848942 140.46747967 304.25390625 138.078125 C297.47133504 131.77069589 290.11036327 126.26796578 282.703125 120.72265625 C280.90078415 119.36127646 279.11930826 117.97906637 277.34765625 116.578125 C247.58514859 93.12887654 212.06210898 73.78795784 176.69140625 60.203125 C175.56895508 59.77193359 174.44650391 59.34074219 173.29003906 58.89648438 C138.25327064 45.6172427 102.22140223 37.65301964 65.09375 32.66064453 C62.76555518 32.34756782 60.44002097 32.01422053 58.1171875 31.66357422 C44.0670926 29.72400471 29.9800014 29.71985823 15.81640625 29.703125 C15.14820484 29.70165215 14.48000343 29.70017929 13.7915535 29.6986618 C-10.97790788 29.6543173 -34.9465543 31.61077686 -59.30859375 36.203125 Z " fill="#FED13F" transform="translate(496.30859375,43.796875)"/>
<path d="M0 0 C173.91 0.33 347.82 0.66 527 1 C525.515 5.455 525.515 5.455 524 10 C520.72784965 20.58554622 520.55412904 31.13276303 520.37841797 42.13793945 C520.07779471 57.40350469 520.07779471 57.40350469 513.875 64.125 C513.15054688 64.93195313 512.42609375 65.73890625 511.6796875 66.5703125 C505.19618196 72.44894289 498.80948718 74.9250661 490.375 76.9375 C476.71414567 80.45577473 465.01416223 84.86058879 454 94 C453.36707031 94.51949219 452.73414063 95.03898438 452.08203125 95.57421875 C442.40535828 104.36515506 436.52001263 117.45170023 431.02734375 129.0546875 C428.4660302 134.04425936 424.75636273 138.05447472 420 141 C414.56374001 142.61176275 409.97709593 143.22003691 404.265625 143.08984375 C402.79957101 143.06655197 401.33350587 143.04395384 399.86743164 143.02197266 C399.11301788 143.00741028 398.35860413 142.9928479 397.58132935 142.97784424 C351.72663995 142.18431735 315.65833924 157.7789482 281.1015625 187.4921875 C274.49501611 193.04168646 268.82281161 196.3892708 260 196.0625 C252.24033258 194.92489444 247.07081847 190.05059149 241.5 184.875 C234.55128722 178.48389997 226.83148642 173.23946936 219 168 C218.2668457 167.5064502 217.53369141 167.01290039 216.77832031 166.50439453 C193.00617805 150.68608934 164.45263666 143.090108 135.94140625 142.76171875 C134.7895433 142.74829689 134.7895433 142.74829689 133.6144104 142.73460388 C130.46292602 142.70534847 127.31202669 142.6852908 124.16040039 142.69458008 C106.82295993 142.71403848 106.82295993 142.71403848 101 137 C95.57201513 131.56405621 92.64819072 124.78975445 89.28125 117.96289062 C85.05459273 109.61222347 79.88539162 102.38158247 73 96 C72.42765625 95.45730469 71.8553125 94.91460938 71.265625 94.35546875 C60.29954703 84.28860917 47.79135091 80.11337761 33.88671875 75.6875 C14.92787293 69.62236062 14.92787293 69.62236062 9 61 C5.90935905 54.8187181 5.9021057 48.31969684 5.75976562 41.54614258 C5.51625329 30.64978814 4.50802271 20.45421936 1.9375 9.86328125 C1.14734654 6.60719053 0.55083399 3.30500396 0 0 Z " fill="#BCE3FC" transform="translate(249,647)"/>
<path d="M0 0 C6.08604926 2.30850144 10.13250799 6.82767136 14.859375 11.21875 C24.82800348 20.23252901 36.3193299 27.43896983 48 34 C49.07121094 34.61617187 50.14242188 35.23234375 51.24609375 35.8671875 C76.48613715 49.50226497 105.25880468 52.56122365 133.44726562 51.69726562 C142.72589359 51.56464363 150.65943588 52.53975155 157.625 59.125 C161.502529 63.96963035 163.6790484 69.68786749 166.09033203 75.35180664 C168.52063009 81.04351051 171.13418233 86.13084035 175 91 C175.83724609 92.09634766 175.83724609 92.09634766 176.69140625 93.21484375 C189.24834733 108.55056511 208.03849694 115.44357232 226.43676758 120.98461914 C235.17702813 123.71599559 242.74498808 127.36901483 248.02734375 135.09375 C250.47685051 139.89438976 251.26454285 144.38656126 251.45703125 149.734375 C251.5152002 151.0231958 251.57336914 152.3120166 251.63330078 153.63989258 C251.66200256 154.31210846 251.69070435 154.98432434 251.72027588 155.6769104 C252.28542694 168.38084059 253.93212679 179.90506401 258 192 C258 192.66 258 193.32 258 194 C83.76 194 -90.48 194 -270 194 C-268.35 188.72 -266.7 183.44 -265 178 C-263.84172524 170.41330031 -263.06102241 163.11874413 -262.76953125 155.46875 C-262.73311523 154.52926514 -262.69669922 153.58978027 -262.65917969 152.62182617 C-262.59619893 150.79172631 -262.54793059 148.96104218 -262.51660156 147.13012695 C-262.30521603 139.96703993 -260.55538214 135.14085825 -255.4375 129.9375 C-254.83808594 129.30714844 -254.23867188 128.67679688 -253.62109375 128.02734375 C-246.44965088 122.48043041 -237.99599481 119.87553922 -229.4375 117.25 C-214.37308813 112.40148341 -201.11733422 106.55950093 -190 95 C-189.38125 94.44699219 -188.7625 93.89398438 -188.125 93.32421875 C-182.83168732 88.18450666 -180.61079018 81.72975894 -177.9140625 75.01367188 C-174.47478977 66.49578435 -170.7105078 59.30097411 -163 54 C-158.00630409 51.90217692 -153.58151812 51.70580524 -148.26171875 51.69140625 C-146.53580451 51.66620536 -144.80989313 51.64080806 -143.08398438 51.61523438 C-140.40357521 51.58679953 -137.72321689 51.56275387 -135.04272461 51.54370117 C-119.40704525 51.41125709 -104.72973424 49.88825094 -89.75 45.125 C-88.90920898 44.86307861 -88.06841797 44.60115723 -87.20214844 44.33129883 C-84.79544803 43.57130032 -82.39655262 42.79134419 -80 42 C-78.8140625 41.60941406 -77.628125 41.21882813 -76.40625 40.81640625 C-57.23144512 33.95809114 -39.73088134 21.59473453 -24.72802734 8.00854492 C-16.98659556 1.07475865 -10.54653213 -1.2612901 0 0 Z " fill="#BCE3FB" transform="translate(518,182)"/>
<path d="M0 0 C3.43713014 2.63825627 6.46241631 5.41869701 9.4375 8.5625 C19.7164499 19.17066894 32.96652894 26.14057409 46.25 32.25 C46.91531738 32.56453125 47.58063477 32.8790625 48.26611328 33.203125 C63.07658319 40.19466968 77.590654 44.37147234 94.1015625 44.390625 C96.02475135 44.4089606 97.94792875 44.4285316 99.87109375 44.44921875 C102.86591988 44.47805745 105.86000687 44.49999754 108.85498047 44.50048828 C125.72906032 44.52001524 139.94520007 46.26443539 152.67651367 58.63623047 C158.087426 64.44115393 160.83685479 71.4508575 164.01757812 78.625 C170.78312044 93.42523397 180.36620866 101.87199411 195.25 108.25 C201.41554359 110.51656111 207.64455184 112.58928986 213.90625 114.57275391 C229.45000021 119.62156035 239.75559346 128.07902674 247.83984375 142.35546875 C251.10718811 149.06212297 251.54013787 154.71492781 251.6875 162.0625 C252.01968276 185.07603456 252.01968276 185.07603456 261.25 205.25 C264.23400354 205.34865739 267.19906227 205.38714972 270.18359375 205.390625 C272.04884014 205.40897253 273.91407482 205.4285446 275.77929688 205.44921875 C278.72179619 205.47804044 281.66355216 205.49999599 284.60620117 205.50048828 C305.58287059 205.52534847 305.58287059 205.52534847 313.25 211.25 C314.23613281 211.94480469 315.22226562 212.63960937 316.23828125 213.35546875 C323.61827416 219.96645399 327.89175652 226.35506858 329.25 236.25 C329.36360985 238.96261182 329.43425409 241.65225248 329.45532227 244.36523438 C329.47015042 245.5679193 329.47015042 245.5679193 329.48527813 246.79490089 C329.5169965 249.47782071 329.54180594 252.16075613 329.56640625 254.84375 C329.58733922 256.7773367 329.60856689 258.71092024 329.63006592 260.64450073 C329.69865115 267.01293447 329.75609709 273.3814485 329.8125 279.75 C329.83254716 281.95208743 329.85259722 284.15417483 329.87265015 286.35626221 C330.0106026 301.73495643 330.12261461 317.11378198 330.22470093 332.49275208 C330.25021601 336.28208082 330.27696004 340.0713993 330.30395508 343.86071777 C330.4104982 359.01411649 330.48969618 374.16734118 330.53610229 389.32104492 C330.55161463 394.17448769 330.5764065 399.02774719 330.60916138 403.88110352 C330.64734098 409.62723597 330.66560779 415.37310302 330.66901398 421.11935806 C330.67344861 423.2272005 330.68464068 425.33504201 330.70333099 427.44280624 C330.94697405 456.29633609 330.94697405 456.29633609 321.2890625 467.3515625 C309.09206419 478.70738851 294.93879104 478.58494117 279.3125 478.0625 C278.46872803 478.02938721 277.62495605 477.99627441 276.75561523 477.9621582 C274.28623085 477.87168456 271.8181643 477.81836125 269.34765625 477.76953125 C268.59347916 477.72915237 267.83930206 477.6887735 267.06227112 477.64717102 C264.65529076 477.5470402 264.65529076 477.5470402 261.25 478.25 C258.24103171 481.78999827 256.55368921 485.43631616 255.0625 489.8125 C254.73894531 490.72128906 254.41539062 491.63007812 254.08203125 492.56640625 C252.35056731 500.23199543 252.21242727 508.09845006 252.1796875 515.93359375 C252.09770722 533.50939745 250.06816553 544.43129094 238.046875 557.87109375 C229.94068653 564.76588254 221.76362817 568.44229556 211.5625 571.1875 C195.44514886 575.84646643 177.3255926 581.69469517 168.70703125 597.24609375 C166.95151019 600.86538515 165.38081658 604.54671861 163.8125 608.25 C158.57121067 620.61476979 151.68804562 630.40038058 139.21337891 636.13793945 C128.63603024 640.10727733 116.81536987 639.46515504 105.6875 639.25 C70.4660856 638.5707212 36.59553589 651.66823286 10.25 675.25 C8.64995854 676.83750195 7.0650987 678.44053785 5.5 680.0625 C-2.96662978 688.82702972 -12.97057524 693.28208438 -25.0625 693.75 C-38.03260939 693.43902835 -48.84190931 687.17058272 -57.91015625 678.0859375 C-58.59980469 677.35632813 -59.28945313 676.62671875 -60 675.875 C-76.35538649 659.0892086 -101.45149942 648.19055401 -123.75 642.25 C-124.46639648 642.05043701 -125.18279297 641.85087402 -125.92089844 641.64526367 C-135.34269521 639.37288838 -145.22409263 639.86666288 -154.85693359 639.79370117 C-171.96649045 639.63963728 -190.13558286 639.35025064 -202.9375 626.375 C-207.69600105 620.61419709 -210.67562592 613.86321532 -213.84912109 607.15234375 C-221.8442095 590.26949041 -231.7378436 580.95985739 -249.21948242 574.49902344 C-253.82027936 572.85561384 -258.46611416 571.40768984 -263.14379883 570.00048828 C-276.14823147 566.06704088 -286.39121037 561.54434415 -293.44140625 549.31640625 C-299.48000011 537.66119257 -300.08580535 528.46108357 -300.22851562 515.44726562 C-300.48251943 503.60821032 -301.90081907 492.58305392 -307.76171875 482.140625 C-308.75 480.25 -308.75 480.25 -308.75 478.25 C-309.79341553 478.26047363 -310.83683105 478.27094727 -311.91186523 478.28173828 C-315.82003282 478.31821189 -319.72818566 478.34099906 -323.63647461 478.35986328 C-325.32107075 478.36985897 -327.00564981 478.38346004 -328.69018555 478.40087891 C-331.12553141 478.42541276 -333.56064592 478.43654758 -335.99609375 478.4453125 C-336.73709824 478.45563507 -337.47810272 478.46595764 -338.24156189 478.47659302 C-351.15324959 478.47930174 -360.20599509 474.2528331 -369.55078125 465.48046875 C-375.89124725 459.04990732 -379.05633319 451.5864168 -379.15589231 442.63675082 C-379.14988227 441.83032086 -379.14387222 441.02389091 -379.13768005 440.19302368 C-379.14306559 439.31528018 -379.14845113 438.43753669 -379.15399987 437.5331949 C-379.16823718 434.61003814 -379.16118615 431.68733692 -379.15405273 428.76416016 C-379.15975853 426.66100197 -379.1667236 424.55784688 -379.17485046 422.45469666 C-379.19277443 416.75422277 -379.19161479 411.05390288 -379.18590808 405.35340929 C-379.18281492 400.58956496 -379.18891016 395.82575016 -379.19494683 391.06191003 C-379.20898816 379.82054519 -379.20743419 368.57925635 -379.19604492 357.33789062 C-379.18456591 345.75214794 -379.19863675 334.1666368 -379.2254414 322.58092463 C-379.24761462 312.62313574 -379.25423205 302.66541945 -379.24836498 292.70760763 C-379.2449979 286.76498264 -379.2473941 280.82250605 -379.26461601 274.87990189 C-379.28010862 269.29016271 -379.27610361 263.70076588 -379.25731087 258.11104012 C-379.25363134 256.0640615 -379.25671483 254.01705739 -379.26719666 251.97010231 C-379.33205242 238.25338634 -378.8120186 226.65749564 -368.75 216.25 C-362.62856459 210.97582209 -356.58909218 208.03786313 -348.75 206.25 C-347.94006592 205.98981079 -347.94006592 205.98981079 -347.11376953 205.72436523 C-343.65470019 205.0301934 -340.21541392 205.12800891 -336.703125 205.15234375 C-335.54632233 205.15446617 -335.54632233 205.15446617 -334.3661499 205.15663147 C-331.91072662 205.16221466 -329.45539558 205.17476405 -327 205.1875 C-325.33203257 205.19251717 -323.66406371 205.1970797 -321.99609375 205.20117188 C-317.91402713 205.21217859 -313.83202919 205.22943164 -309.75 205.25 C-308.77465265 203.00634382 -307.80246037 200.7614075 -306.83203125 198.515625 C-306.55685669 197.88350098 -306.28168213 197.25137695 -305.99816895 196.60009766 C-301.87644306 187.04193059 -300.80449375 177.68619219 -300.57421875 167.33984375 C-300.55037109 166.32986328 -300.52652344 165.31988281 -300.50195312 164.27929688 C-300.45890737 162.21440491 -300.42769886 160.14923296 -300.40820312 158.08398438 C-300.08655165 146.37736686 -295.12592201 137.17729863 -287.3125 128.5625 C-286.466875 127.799375 -285.62125 127.03625 -284.75 126.25 C-284.10417969 125.56357422 -284.10417969 125.56357422 -283.4453125 124.86328125 C-275.03236268 116.55930747 -262.03575909 113.26545608 -251.0625 109.75 C-235.88941857 104.86805969 -223.4820728 99.04543406 -215.5 84.73828125 C-213.57781047 80.906774 -211.90565213 77.01389738 -210.25 73.0625 C-205.79552507 62.51458108 -199.7749987 53.86298643 -189.04296875 49.03125 C-181.18938872 46.02303877 -173.77852138 45.1215318 -165.38671875 45.07421875 C-163.75975321 45.05098364 -162.1328001 45.02686491 -160.50585938 45.00195312 C-157.99007262 44.96724425 -155.47473441 44.9377017 -152.95874023 44.92407227 C-129.89312196 44.77532088 -109.93504723 38.90027845 -89.55419922 28.19482422 C-87.97219426 27.36635883 -86.37947597 26.55841805 -84.78515625 25.75390625 C-74.28478306 20.31098153 -64.82884164 13.70457243 -56.75 5.0625 C-41.02207197 -11.68717128 -18.70065885 -13.00463063 0 0 Z M-45.82421875 22.6875 C-55.26579289 30.95675585 -65.85276001 38.06301561 -76.75 44.25 C-77.33265625 44.5809668 -77.9153125 44.91193359 -78.515625 45.25292969 C-98.48064515 56.39793292 -122.11511783 63.2542872 -145 63.4609375 C-146.76042619 63.48899202 -148.52084275 63.51765637 -150.28125 63.546875 C-153.0195299 63.58812599 -155.75762695 63.62507323 -158.49609375 63.65136719 C-161.16442523 63.67912243 -163.83197477 63.72496612 -166.5 63.7734375 C-167.30856445 63.77669037 -168.11712891 63.77994324 -168.95019531 63.78329468 C-175.31414646 63.91943569 -180.91557402 65.04544646 -186.0703125 69.0546875 C-192.02586789 75.88681814 -195.71696639 83.41240972 -198.69140625 91.953125 C-201.22685977 99.18428391 -205.33702788 103.89152089 -210.75 109.25 C-211.33265625 109.86617188 -211.9153125 110.48234375 -212.515625 111.1171875 C-223.84378252 122.19020634 -239.84658885 126.99822688 -254.59643555 131.62426758 C-263.70478475 134.55981377 -270.44571099 138.07953225 -276.6875 145.4375 C-277.25339844 146.09105469 -277.81929687 146.74460937 -278.40234375 147.41796875 C-280.5400076 150.32395236 -280.87688157 152.90279031 -280.9609375 156.3984375 C-280.98712158 157.22867432 -281.01330566 158.05891113 -281.0402832 158.91430664 C-281.06823975 159.80883545 -281.09619629 160.70336426 -281.125 161.625 C-281.43401275 169.24180034 -282.02416716 176.75935442 -283.0625 184.3125 C-283.16804199 185.13089355 -283.27358398 185.94928711 -283.38232422 186.79248047 C-284.4081249 193.79578636 -286.42294012 199.26882037 -288.75 206.25 C-114.51 206.25 59.73 206.25 239.25 206.25 C237.93 200.97 236.61 195.69 235.25 190.25 C234.05189882 182.3677554 233.23649935 174.761221 232.96459961 166.81835938 C232.63096463 156.00393685 232.63096463 156.00393685 228.25 146.25 C227.59 145.198125 226.93 144.14625 226.25 143.0625 C219.47149629 135.76411105 208.58681942 133.30887232 199.4375 130.375 C180.28580203 124.19660573 161.21192461 114.73595821 151.15136719 96.22900391 C149.35118873 92.65349362 147.68595007 89.02705115 146.07421875 85.36328125 C142.68696015 76.86781127 142.68696015 76.86781127 137 69.9375 C136.47921875 69.48761719 135.9584375 69.03773438 135.421875 68.57421875 C127.48445186 63.73467479 120.45270597 63.94966387 111.375 64.1875 C100.13720921 64.33132239 89.34727565 64.01446683 78.25 62.25 C77.0228125 62.05535156 75.795625 61.86070312 74.53125 61.66015625 C44.18988403 56.18185406 18.22259427 42.69378085 -4.75 22.25 C-6.77510038 20.52025311 -8.82173578 18.8217575 -10.875 17.125 C-12.17824219 16.03832031 -12.17824219 16.03832031 -13.5078125 14.9296875 C-25.12892509 6.22397598 -37.17929121 14.71160327 -45.82421875 22.6875 Z M-159.65372467 224.27165985 C-186.48452049 224.30994378 -213.31519804 224.36063616 -240.14588195 224.44878191 C-251.52489576 224.48594244 -262.90384321 224.51726367 -274.2829113 224.53138161 C-283.80345403 224.54327811 -293.32383603 224.56865135 -302.8442886 224.6122701 C-307.67489039 224.63403135 -312.505289 224.64940964 -317.33594441 224.64760947 C-321.74643518 224.64614627 -326.15645818 224.66297727 -330.56683237 224.69459661 C-332.16066729 224.70279483 -333.75455392 224.70424822 -335.34839892 224.69832645 C-337.51014414 224.69128205 -339.67036672 224.70870005 -341.83196354 224.73227978 C-343.03198948 224.73572342 -344.23201542 224.73916706 -345.46840578 224.74271506 C-350.60441994 225.53666533 -353.68491171 228.04098086 -357.0625 231.875 C-360.03356253 236.05649542 -359.90078189 239.32887698 -359.90390015 244.31970215 C-359.9082824 245.16373423 -359.91266465 246.00776631 -359.9171797 246.87737513 C-359.93059687 249.72228874 -359.93675319 252.56717135 -359.94287109 255.41210938 C-359.95076999 257.44541566 -359.9590388 259.47872054 -359.96765137 261.51202393 C-359.99390391 268.20591894 -360.00918579 274.8998203 -360.0234375 281.59375 C-360.02879653 283.89724227 -360.03417403 286.2007345 -360.03956985 288.50422668 C-360.06120649 298.08802498 -360.07994205 307.67182157 -360.09119225 317.25563812 C-360.10742173 330.99158815 -360.14056649 344.72725484 -360.19759309 358.46309805 C-360.23631445 368.11926575 -360.25582777 377.77535775 -360.26111281 387.43160105 C-360.26476425 393.19888872 -360.27676325 398.96587441 -360.30921555 404.733078 C-360.33933315 410.16352802 -360.34559459 415.59349394 -360.33383179 421.0240097 C-360.33361134 423.01295019 -360.34189241 425.00191337 -360.35948563 426.99077606 C-360.7834746 441.45274931 -360.7834746 441.45274931 -354.75 454.25 C-349.02584418 459.1393831 -343.84880924 459.37491489 -336.54117584 459.37584114 C-335.82213196 459.37729458 -335.10308807 459.37874802 -334.36225498 459.38024551 C-331.94448507 459.38390427 -329.52677827 459.38041889 -327.10900879 459.37698364 C-325.35848314 459.37813585 -323.60795774 459.37972405 -321.85743284 459.38171089 C-317.03449151 459.38589801 -312.2115699 459.38381544 -307.38862848 459.38072467 C-302.17987083 459.3784652 -296.9711166 459.38195502 -291.76235962 459.38470459 C-281.50138819 459.38917256 -271.24042404 459.38817635 -260.97945231 459.38529195 C-252.5329674 459.3830194 -244.08648452 459.38273345 -235.63999939 459.38381577 C-233.82452142 459.38404561 -233.82452142 459.38404561 -231.97236714 459.38428011 C-229.51002602 459.38459998 -227.0476849 459.3849242 -224.58534378 459.3852527 C-201.37588724 459.38811609 -178.16643463 459.38481862 -154.95697874 459.37945233 C-135.49052279 459.37508693 -116.02407299 459.3757371 -96.55761719 459.38037109 C-30.5650134 459.39546982 35.42740449 459.36897778 101.41993833 459.26649995 C108.65053619 459.25530805 115.8811346 459.24491373 123.1117346 459.23520521 C149.53800023 459.19956926 175.96413108 459.15014774 202.39025927 459.05564153 C204.52030971 459.04805249 206.65036021 459.04048009 208.78041077 459.03292465 C210.34659555 459.02736454 210.34659555 459.02736454 211.94442043 459.0216921 C219.20886934 458.99690171 226.47329474 458.98223456 233.73777771 458.97217178 C242.41652735 458.96004201 251.09509871 458.93445203 259.77374727 458.89031568 C264.14942156 458.86840371 268.52487373 458.85274446 272.90060806 458.85429335 C276.87898951 458.85551383 280.85685039 458.83845463 284.83510023 458.806545 C286.26876042 458.79825708 287.70247847 458.79668878 289.13615078 458.80251516 C297.32253013 459.097676 297.32253013 459.097676 304.95188141 456.65350533 C310.12523836 451.24290944 310.69128426 445.62607303 310.63095093 438.52760315 C310.6356309 437.67380426 310.64031087 436.82000537 310.64513266 435.94033378 C310.65705543 433.09230522 310.64763603 430.24476027 310.63818359 427.39672852 C310.64225053 425.34958618 310.64759309 423.30244605 310.65411377 421.25531006 C310.66777946 415.70365674 310.6624915 410.15217086 310.65297651 404.60051465 C310.64537507 398.78664531 310.65242697 392.9727902 310.65713501 387.15892029 C310.66259157 377.39490183 310.65540397 367.63095147 310.64111328 357.86694336 C310.62479157 346.58511347 310.63007225 335.30344627 310.6465925 324.02162033 C310.66021561 314.32970049 310.66212283 304.63782957 310.65427649 294.94590324 C310.64960395 289.15985221 310.64896358 283.37387759 310.65888596 277.5878315 C310.66756513 272.14671354 310.66151615 266.70580487 310.64420319 261.26470947 C310.64024326 259.27010889 310.64136392 257.27549064 310.64799118 255.28089714 C310.65621634 252.55348878 310.64587332 249.82674667 310.63095093 247.09938049 C310.63764309 246.31424987 310.64433526 245.52911924 310.65123022 244.72019678 C310.58468627 238.42886074 309.41452566 232.82037423 305.25 227.875 C296.13689127 222.93873277 284.82584653 223.96763666 274.74769592 224.00276184 C273.08517765 224.00117093 271.42266002 223.99870454 269.76014417 223.99544543 C265.2077244 223.9890554 260.65539412 223.99508432 256.10298026 224.00320971 C251.17420597 224.00981528 246.24544123 224.00482906 241.31666565 224.00132751 C231.61295356 223.99627496 221.90927554 224.00195796 212.20556767 224.01117782 C200.70224902 224.02169414 189.19893729 224.02148737 177.69561475 224.02100524 C156.91271085 224.02050299 136.12982218 224.02966949 115.34692383 224.04418945 C95.66951206 224.05792836 75.9921139 224.06530606 56.31469727 224.06469727 C53.91968493 224.06464754 51.52467259 224.06460021 49.12966025 224.06455529 C47.94546072 224.06453274 46.76126118 224.0645102 45.54117682 224.06448697 C44.35787314 224.06446636 43.17456946 224.06444575 41.9554081 224.06442451 C40.77327238 224.06440357 39.59113665 224.06438262 38.37317864 224.06436104 C-15.42575745 224.06388545 -69.22452774 224.11448998 -123.02337563 224.21169508 C-135.23348972 224.23374126 -147.44360272 224.25443765 -159.65372467 224.27165985 Z M-287.75 477.25 C-286.43008261 483.95893939 -286.43008261 483.95893939 -284.93359375 490.62890625 C-282.76746551 499.87180946 -282.30252809 508.85859426 -282.12866211 518.33032227 C-281.89873743 528.50068412 -281.1981886 536.8018114 -273.6875 544.3125 C-266.00071076 549.38250992 -257.54430751 552.00208493 -248.8125 554.6875 C-234.33802177 559.16953705 -222.2288508 564.9438715 -211.75 576.25 C-211.23050781 576.7759375 -210.71101563 577.301875 -210.17578125 577.84375 C-203.59814953 584.82047398 -199.21883436 593.32474036 -194.93359375 601.83203125 C-191.70180577 608.15823815 -188.8792376 613.40672514 -182.75 617.25 C-182.21068848 617.59530762 -181.67137695 617.94061523 -181.11572266 618.29638672 C-177.84277917 619.61569706 -174.69806416 619.54867115 -171.22265625 619.55859375 C-169.70303669 619.58124565 -168.18342421 619.60437617 -166.66381836 619.62792969 C-165.87135712 619.63707397 -165.07889587 619.64621826 -164.26242065 619.65563965 C-115.00316387 620.29623886 -78.83214162 634.71310012 -41.328125 666.2890625 C-35.59401319 670.96486508 -30.92214964 673.61930203 -23.3125 673.125 C-14.86274921 671.84040951 -9.81184446 667.557427 -3.6796875 661.86328125 C16.17212216 644.15546703 39.41461317 631.33982965 65.0625 624.375 C65.76576416 624.18365479 66.46902832 623.99230957 67.19360352 623.79516602 C81.24820879 620.26346306 95.0034082 620.03003479 109.3659668 620.36645508 C124.75252314 620.96079746 124.75252314 620.96079746 138.0625 614.1875 C141.78570129 610.02934529 143.97379212 605.30101369 146.25 600.25 C155.38333811 580.33986175 168.24845062 565.88505996 188.9375 558.0625 C195.54741728 555.64352746 202.29934661 553.74136257 209.13549805 552.07348633 C218.16410954 549.76745961 224.76414798 544.13019283 230.125 536.625 C232.1958182 532.25327268 232.3745045 527.98418821 232.42578125 523.19921875 C232.66624398 509.96279691 233.15995018 497.89056906 237.25 485.25 C237.91 482.94 238.57 480.63 239.25 478.25 C65.34 477.92 -108.57 477.59 -287.75 477.25 Z " fill="#3C3B3A" transform="translate(536.75,169.75)"/>
<path d="M0 0 C3.79455919 2.86208939 7.42125961 5.87336837 11 9 C11.65097656 9.55429687 12.30195312 10.10859375 12.97265625 10.6796875 C28.10156901 24.53349827 35.36108462 48.97770023 36.2734375 68.890625 C36.95863361 94.59027084 29.49099268 120.53465365 11.55859375 139.5859375 C-1.26477473 151.68493249 -17.33293817 158.4582284 -34.98046875 158.2734375 C-51.81961421 157.43376646 -66.71470534 150.79415729 -78.140625 138.37890625 C-97.8427558 115.76957501 -102.33295261 89.81077042 -100.87988281 60.58398438 C-99.55333389 42.41786852 -90.99924263 25.48787047 -79 12 C-78.33484375 11.22914063 -77.6696875 10.45828125 -76.984375 9.6640625 C-57.648467 -11.3189784 -23.84485085 -16.35193765 0 0 Z " fill="#3D3C3C" transform="translate(562,437)"/>
<path d="M0 0 C18.51865694 15.01171782 29.33020196 32.64103077 32.54052734 56.66943359 C35.00753219 82.64486688 31.28239783 109.43393347 15.3125 130.875 C14.14730914 132.22787261 12.95943333 133.56152939 11.75 134.875 C11.11964844 135.61878906 10.48929687 136.36257813 9.83984375 137.12890625 C-0.00173235 148.00062864 -16.415889 155.85683248 -31.01953125 157.11328125 C-52.76526861 157.64366509 -68.88523823 148.39199703 -84.34375 133.9140625 C-93.09385322 124.80600051 -98.34961119 111.97909785 -101.25 99.875 C-101.42587646 99.18962158 -101.60175293 98.50424316 -101.78295898 97.7980957 C-103.41558548 90.77903585 -103.58925811 83.88791529 -103.56567383 76.69995117 C-103.56253251 74.70811491 -103.58678786 72.71629693 -103.61132812 70.72460938 C-103.62283474 47.42371309 -96.07801737 25.88017009 -79.875 8.9375 C-58.03555462 -11.74770487 -25.25379402 -17.95898046 0 0 Z " fill="#3D3C3D" transform="translate(404.25,438.125)"/>
<path d="M0 0 C14.09795184 9.7742733 21.84514899 25.53953078 25 42 C25.40674643 46.11556707 25.47844548 50.17894071 25.4375 54.3125 C25.42920166 55.40409424 25.42090332 56.49568848 25.41235352 57.62036133 C25.0316019 75.90050368 18.75638231 92.53388838 5.703125 105.5625 C2.32603463 108.60773756 -0.68237613 110.61476234 -5 112 C-6.216875 112.4125 -7.43375 112.825 -8.6875 113.25 C-18.13165594 115.29097673 -27.5795424 114.94071014 -36 110 C-43.26447726 105.02433064 -48.72726517 99.69924621 -53 92 C-53.56460937 91.06607422 -53.56460937 91.06607422 -54.140625 90.11328125 C-58.65396436 82.08021082 -60.40548631 72.1385247 -61 63 C-61.07605469 62.14148438 -61.15210938 61.28296875 -61.23046875 60.3984375 C-62.01386307 44.01067516 -57.49725926 23.11888436 -46.625 10.625 C-33.66095055 -2.79128374 -18.02379159 -9.98806661 0 0 Z " fill="#FED241" transform="translate(547,456)"/>
<path d="M0 0 C12.53909522 10.90273378 20.0409266 23.83854536 23.32421875 40.11328125 C23.50726563 40.84933594 23.6903125 41.58539063 23.87890625 42.34375 C26.94976784 61.44235413 23.01919825 80.97015336 12.32421875 97.11328125 C6.51573897 104.72276026 -0.18873943 110.76720773 -9.67578125 113.11328125 C-11.16078125 113.48453125 -11.16078125 113.48453125 -12.67578125 113.86328125 C-13.66578125 113.94578125 -14.65578125 114.02828125 -15.67578125 114.11328125 C-16.413125 114.17644531 -17.15046875 114.23960937 -17.91015625 114.3046875 C-28.72218904 114.82514249 -36.09389606 110.4732309 -44.12890625 103.5390625 C-56.73765853 91.52980611 -60.54744164 76.95207793 -61.13330078 59.91552734 C-61.41794793 40.30104845 -57.75349435 20.89334568 -43.9453125 6.1875 C-32.08886652 -4.64859779 -14.2246804 -10.02995713 0 0 Z " fill="#FDD241" transform="translate(387.67578125,455.88671875)"/>
<path d="M0 0 C3.31266043 2.59251686 5.42766058 5.1215716 7 9 C7.24609566 11.58491898 7.24609566 11.58491898 7.24050903 14.56817627 C7.24325836 15.70117157 7.24600769 16.83416687 7.24884033 18.00149536 C7.24164978 19.24011322 7.23445923 20.47873108 7.22705078 21.75488281 C7.22734283 23.06244537 7.22763489 24.37000793 7.22793579 25.7171936 C7.22850958 29.29954214 7.21675107 32.88175673 7.20278788 36.46407413 C7.19028489 40.20901371 7.18911036 43.95395635 7.18673706 47.69891357 C7.18052102 54.78908663 7.16410853 61.879198 7.14403808 68.9693439 C7.12168293 77.04182578 7.11068662 85.11431061 7.10064721 93.18681574 C7.07974241 109.7912466 7.04456403 126.39561543 7 143 C8.19238281 143.02578125 9.38476562 143.0515625 10.61328125 143.078125 C12.1797242 143.13440439 13.74612903 143.19175177 15.3125 143.25 C16.09818359 143.26417969 16.88386719 143.27835938 17.69335938 143.29296875 C23.4888678 143.53958613 23.4888678 143.53958613 26.02246094 145.82177734 C27.47020288 149.04773977 27.35611316 152.16305812 27.25 155.625 C27.24484375 156.305625 27.2396875 156.98625 27.234375 157.6875 C27.15529337 162.68941327 27.15529337 162.68941327 26 165 C17.8722068 165.0695816 9.74453853 165.12285242 1.61652088 165.15543652 C-2.15785956 165.17107711 -5.93203586 165.19228561 -9.70629883 165.22631836 C-13.35026868 165.25896976 -16.99404247 165.2768651 -20.63814735 165.28463173 C-22.02679848 165.29016492 -23.41543916 165.30097003 -24.80400658 165.31719017 C-26.75228745 165.33903856 -28.70076658 165.34022604 -30.64916992 165.34057617 C-31.7572551 165.34723801 -32.86534027 165.35389984 -34.00700378 165.36076355 C-37.39765229 164.95206862 -39.27144428 164.02063045 -42 162 C-43.95888193 158.08223614 -43.35831645 153.28126375 -43 149 C-41.62747293 145.88062031 -41.020457 144.5102285 -38 143 C-36.47851674 142.91627341 -34.95344222 142.89269973 -33.4296875 142.90234375 C-32.53378906 142.90556641 -31.63789063 142.90878906 -30.71484375 142.91210938 C-29.77769531 142.92048828 -28.84054688 142.92886719 -27.875 142.9375 C-26.93011719 142.94201172 -25.98523438 142.94652344 -25.01171875 142.95117188 C-22.67441613 142.96297643 -20.33723939 142.97944241 -18 143 C-18.495 142.01 -18.495 142.01 -19 141 C-19.09141784 139.6568787 -19.12194152 138.30933202 -19.12025452 136.96310425 C-19.12162918 136.11893951 -19.12300385 135.27477478 -19.12442017 134.4050293 C-19.12082489 133.477146 -19.11722961 132.5492627 -19.11352539 131.59326172 C-19.11367142 130.61761261 -19.11381744 129.6419635 -19.1139679 128.63674927 C-19.11326935 125.40103966 -19.10547966 122.1653871 -19.09765625 118.9296875 C-19.09579186 116.69052156 -19.09436806 114.45135521 -19.09336853 112.21218872 C-19.08954498 106.31027099 -19.07971607 100.40837776 -19.06866455 94.50646973 C-19.05844694 88.48738944 -19.05387016 82.4683052 -19.04882812 76.44921875 C-19.03809367 64.63280172 -19.02101918 52.81640289 -19 41 C-19.75925781 41.62648438 -20.51851562 42.25296875 -21.30078125 42.8984375 C-22.29464844 43.71570313 -23.28851563 44.53296875 -24.3125 45.375 C-25.79169922 46.59316406 -25.79169922 46.59316406 -27.30078125 47.8359375 C-32.48191416 51.98984145 -32.48191416 51.98984145 -36.1875 52.0625 C-41.35064585 50.6235905 -44.54400892 48.057033 -48 44 C-49.25 40.9375 -49.25 40.9375 -49 38 C-46.21456966 33.25346715 -42.82913014 29.51396206 -38.9375 25.6875 C-38.36676758 25.12135986 -37.79603516 24.55521973 -37.20800781 23.97192383 C-32.87402368 19.72878251 -28.33203415 15.83489052 -23.57421875 12.0703125 C-20.24504928 9.39283174 -17.10765202 6.52950981 -13.97265625 3.62890625 C-9.72898754 0.12472833 -5.49253084 -1.0810349 0 0 Z " fill="#3D3C3C" transform="translate(263,427)"/>
<path d="M0 0 C10.3283844 5.42312106 15.13977393 12.51934028 19.1796875 23.41015625 C22.2946491 33.58917303 21.42152824 43.03347245 16.7734375 52.59375 C10.86515355 62.83344482 2.07208314 69.5049048 -9.18359375 73.109375 C-20.3909842 75.13323386 -30.10712449 72.65968185 -39.80078125 66.93359375 C-45.62621345 62.81578405 -49.07475091 57.8272544 -52.1953125 51.47265625 C-53.00548828 49.88904297 -53.00548828 49.88904297 -53.83203125 48.2734375 C-55.70166899 43.81163751 -55.69087347 39.44095923 -55.6328125 34.66015625 C-55.62306396 33.77086426 -55.61331543 32.88157227 -55.60327148 31.96533203 C-55.3100115 21.13161251 -52.20668465 14.61330425 -44.703125 6.73828125 C-40.89459899 3.29755681 -36.79476312 0.72669166 -32.1953125 -1.52734375 C-31.43734375 -1.89988281 -30.679375 -2.27242187 -29.8984375 -2.65625 C-20.28113579 -5.75546717 -9.006211 -4.03145854 0 0 Z " fill="#3C3B3D" transform="translate(789.1953125,520.52734375)"/>
<path d="M0 0 C8.20593139 5.55305494 14.79368449 13.00460264 17.5390625 22.69921875 C19.51217956 34.4498355 17.93083038 44.41660796 12.0390625 54.6796875 C6.19841068 62.11324436 -1.25347022 69.3128176 -11.00097656 70.55712891 C-24.49108255 71.62657679 -35.46521788 69.11292566 -46.0546875 60.25 C-54.22345638 52.17847837 -57.28904224 43.10377308 -57.4609375 31.8671875 C-57.35043858 20.6460826 -54.21765707 13.72130166 -46.3828125 5.56640625 C-32.82798247 -7.42737949 -16.70133363 -9.36483048 0 0 Z " fill="#3C3B3C" transform="translate(685.0234375,433.6953125)"/>
<path d="M0 0 C4.68987967 1.29375991 6.10640859 2.8786686 8.625 7 C9.35071505 10.56260113 9.33119026 12.72372161 7.55078125 15.94140625 C4.36080525 20.40737265 0.52753264 24.20829843 -3.39453125 28.02734375 C-5.18828335 29.81401991 -6.85283557 31.64149966 -8.5 33.5625 C-13.62187874 39.50526675 -19.03466511 45.18203657 -24.40429688 50.89990234 C-26.42347749 53.05166048 -28.43848528 55.20727171 -30.453125 57.36328125 C-36.36620327 63.6805766 -42.2800247 69.9818984 -48.4375 76.0625 C-52.05621065 79.63793758 -55.46394979 83.30419833 -58.765625 87.171875 C-60.9097255 89.60740663 -63.21660774 91.85402657 -65.53173828 94.12548828 C-67.31228804 95.93622484 -68.97724012 97.80153552 -70.6328125 99.7265625 C-74.23865237 103.87394574 -77.97358401 107.88323629 -81.75 111.875 C-86.6272786 117.05337468 -91.45902068 122.2620911 -96.1953125 127.5703125 C-99.23736157 130.96127043 -102.32631765 134.30847053 -105.41308594 137.65869141 C-108.66671254 141.19981021 -111.83623232 144.8015603 -114.9375 148.4765625 C-117.41573289 151.10295062 -119.09822088 151.96866651 -122.6875 152.375 C-126.998812 151.93656149 -129.03764958 150.70166463 -132.375 148 C-133.98245059 144.78509882 -133.77805242 142.5698929 -133.375 139 C-130.06429757 132.56855348 -124.13855089 127.65888473 -119.03125 122.6484375 C-116.31629264 119.94146531 -113.80389754 117.13962459 -111.31640625 114.2265625 C-108.73018451 111.26047318 -106.05249022 108.38360861 -103.375 105.5 C-100.14348113 102.01575598 -96.92463052 98.52957354 -93.8125 94.9375 C-86.69372176 86.73542941 -79.30591008 78.85375857 -71.57983398 71.22412109 C-68.26725669 67.93807041 -65.16955658 64.54384456 -62.1484375 60.9921875 C-59.98386582 58.56062019 -57.69070547 56.28788919 -55.375 54 C-51.90912764 50.57044666 -48.63532306 47.07513586 -45.46484375 43.375 C-42.01322669 39.45241463 -38.42082597 35.66127371 -34.84741211 31.84985352 C-31.43410517 28.20830113 -28.03950858 24.55161833 -24.67041016 20.86914062 C-5.55714717 0 -5.55714717 0 0 0 Z " fill="#3B3A3D" transform="translate(779.375,438)"/>
<path d="M0 0 C4.00109801 3.26405364 8.04737856 7.28225713 10.375 11.9375 C10.90236173 18.14414192 11.13747482 23.71858332 7.375 28.9375 C2.37141181 33.952917 -1.21582262 36.07740645 -8.4375 36.25 C-13.69290476 36.19928439 -16.65114201 35.61331864 -20.625 31.9375 C-25.01115207 26.95862468 -25.81389756 24.32299939 -25.9375 17.6875 C-25.97488281 16.38296875 -26.01226563 15.0784375 -26.05078125 13.734375 C-25.48146544 8.65754048 -23.56817149 5.6968015 -19.80859375 2.29296875 C-19.23238281 1.90753906 -18.65617188 1.52210938 -18.0625 1.125 C-17.48371094 0.72667969 -16.90492188 0.32835937 -16.30859375 -0.08203125 C-11.14638322 -3.08833019 -5.35096838 -2.16586815 0 0 Z " fill="#FCD340" transform="translate(673.625,449.0625)"/>
<path d="M0 0 C4.47500146 2.53553761 6.88277608 5.46163498 8.9375 10.1875 C10.5155639 16.76276626 9.7947775 21.31989339 6.6875 27.3125 C4.32970308 30.73510843 2.5622288 32.82121782 -1.3125 34.3125 C-8.09704074 35.12539428 -15.29604006 35.80998679 -21.0625 31.625 C-22.859375 29.9375 -22.859375 29.9375 -24.3125 28.3125 C-25.3025 27.2296875 -25.3025 27.2296875 -26.3125 26.125 C-28.18068032 20.87074286 -28.46725627 15.23886953 -26.3984375 9.99609375 C-20.60771391 0.15186365 -11.00215517 -5.10961513 0 0 Z " fill="#FCD340" transform="translate(780.3125,538.6875)"/>
<path d="M0 0 C0.33 0 0.66 0 1 0 C1.33 8.25 1.66 16.5 2 25 C2.33 25 2.66 25 3 25 C3.1278411 56.35057097 2.88637068 87.66113883 2 119 C1.67 119 1.34 119 1 119 C0.02997207 105.03877454 -0.13248193 91.13957292 -0.09765625 77.1484375 C-0.09578605 74.90971916 -0.094365 72.6710004 -0.09336853 70.43228149 C-0.08959067 64.60293402 -0.07980207 58.77361234 -0.06866455 52.9442749 C-0.05834744 46.97066598 -0.05384907 40.9970528 -0.04882812 35.0234375 C-0.03817448 23.34894714 -0.02115654 11.67447573 0 0 Z " fill="#4B4A49" transform="translate(864,481)"/>
<path d="M0 0 C4.30699749 1.46469584 7.42530107 3.64476646 11 6.4375 C11.55816406 6.87126953 12.11632812 7.30503906 12.69140625 7.75195312 C17.45616603 11.48807908 22.07168885 15.397902 26.59765625 19.41967773 C31.97201538 24.10076516 35.72907818 25.26809943 42.8125 25.125 C43.97394531 25.10695313 45.13539063 25.08890625 46.33203125 25.0703125 C47.65267578 25.03550781 47.65267578 25.03550781 49 25 C49 24.34 49 23.68 49 23 C50.98 22.67 52.96 22.34 55 22 C51.74076267 25.91108479 48.99487622 27.11381228 44 28 C34.91002503 28.40633994 29.35895599 24.88384487 22.7421875 18.98828125 C21.12624382 17.50299968 19.51443532 16.0132097 17.90625 14.51953125 C13.7466934 10.91346404 9.30901453 7.73141539 4.82568359 4.54223633 C3.20214189 3.38217544 1.59887611 2.1938275 0 1 C0 0.67 0 0.34 0 0 Z " fill="#D5E8EE" transform="translate(470,815)"/>
<path d="M0 0 C0.91866251 2.75598752 1.101683 4.19627651 1.02172852 7.01245117 C1.00163223 7.81305466 0.98153595 8.61365814 0.96083069 9.43852234 C0.93379562 10.29798965 0.90676056 11.15745697 0.87890625 12.04296875 C0.85529526 12.9265657 0.83168427 13.81016266 0.80735779 14.72053528 C0.73077765 17.54302258 0.64672891 20.3652316 0.5625 23.1875 C0.50927366 25.10089784 0.4565333 27.01430926 0.40429688 28.92773438 C0.2751701 33.61866584 0.13934467 38.30936139 0 43 C-0.33 43 -0.66 43 -1 43 C-1 41.35 -1 39.7 -1 38 C-1.66 38 -2.32 38 -3 38 C-3.07425143 33.23115433 -3.12864936 28.4626464 -3.16479492 23.69335938 C-3.17986565 22.07155494 -3.20032593 20.44979116 -3.22631836 18.828125 C-3.26277829 16.49468954 -3.27974314 14.16179369 -3.29296875 11.828125 C-3.30845261 11.10506165 -3.32393646 10.38199829 -3.33988953 9.63702393 C-3.34127964 5.4628548 -2.96853351 3.02674004 0 0 Z " fill="#484543" transform="translate(161,400)"/>
<path d="M0 0 C12.87 0 25.74 0 39 0 C35.30841682 2.46105545 32.53376446 2.25575793 28.26953125 2.1953125 C27.51911057 2.1924826 26.76868988 2.18965271 25.99552917 2.18673706 C23.60102325 2.17555062 21.20689269 2.15044928 18.8125 2.125 C17.18815645 2.11496819 15.56380703 2.10584269 13.93945312 2.09765625 C9.959491 2.07561637 5.97980912 2.0410974 2 2 C2.33 3.98 2.66 5.96 3 8 C1 6 1 6 0 0 Z " fill="#CEEFF7" transform="translate(249,647)"/>
<path d="M0 0 C1.8871875 0.0309375 1.8871875 0.0309375 3.8125 0.0625 C3.8125 0.3925 3.8125 0.7225 3.8125 1.0625 C2.83410156 1.17464844 2.83410156 1.17464844 1.8359375 1.2890625 C-4.91897445 2.30528819 -7.73134187 3.93791815 -12.1875 9.0625 C-12.8475 9.0625 -13.5075 9.0625 -14.1875 9.0625 C-15.95365118 13.77223649 -16.67344831 18.09333364 -17.1875 23.0625 C-17.5175 23.0625 -17.8475 23.0625 -18.1875 23.0625 C-18.82263651 16.96518954 -18.24329129 12.91641033 -14.6875 7.85546875 C-10.5888604 2.9563136 -6.58195384 -0.10790088 0 0 Z " fill="#F7EB3B" transform="translate(771.1875,536.9375)"/>
<path d="M0 0 C0 0.33 0 0.66 0 1 C-0.81984375 1.09796875 -1.6396875 1.1959375 -2.484375 1.296875 C-4.10085938 1.52117187 -4.10085938 1.52117187 -5.75 1.75 C-6.81734375 1.88921875 -7.8846875 2.0284375 -8.984375 2.171875 C-13.65009766 3.45313563 -15.38628256 6.07942383 -18 10 C-18.66 10 -19.32 10 -20 10 C-19.67 11.32 -19.34 12.64 -19 14 C-19.99 14.33 -20.98 14.66 -22 15 C-21.62580945 9.76133232 -19.89577531 6.44255392 -16 3 C-10.48027434 -0.9274971 -6.55719753 -1.40511376 0 0 Z " fill="#ECDB3D" transform="translate(670,448)"/>
<path d="M0 0 C0 3.39701165 -0.52729093 4.01970093 -2.4375 6.6875 C-5.19256407 10.86652978 -5.56780482 14.072975 -6 19 C-6.66 19.33 -7.32 19.66 -8 20 C-8.33 20.99 -8.66 21.98 -9 23 C-9.66 23 -10.32 23 -11 23 C-9.14338903 14.43353185 -6.32768553 6.32768553 0 0 Z " fill="#F3E13D" transform="translate(501,466)"/>
<path d="M0 0 C-4.01334536 3.53174391 -8.20790607 4.9957567 -13.5703125 5.00390625 C-20.40221656 4.5159131 -20.40221656 4.5159131 -22.796875 2.44921875 C-23.39242188 1.73185547 -23.39242188 1.73185547 -24 1 C-22.97326172 1.24556641 -22.97326172 1.24556641 -21.92578125 1.49609375 C-18.6256722 2.06447034 -15.53445931 2.09630767 -12.1875 2.0625 C-10.44533203 2.04896484 -10.44533203 2.04896484 -8.66796875 2.03515625 C-7.78753906 2.02355469 -6.90710938 2.01195312 -6 2 C-6 1.34 -6 0.68 -6 0 C-3.50907189 -1.24546405 -2.58919267 -0.7767578 0 0 Z " fill="#CBDEE1" transform="translate(525,838)"/>
<path d="M0 0 C0.66 1.32 1.32 2.64 2 4 C-4.93 4 -11.86 4 -19 4 C-17 2 -17 2 -13.0859375 1.8046875 C-11.51550649 1.81799624 -9.94513779 1.84186398 -8.375 1.875 C-7.57320312 1.88402344 -6.77140625 1.89304687 -5.9453125 1.90234375 C-3.96341477 1.92593777 -1.98167019 1.96180935 0 2 C0 1.34 0 0.68 0 0 Z " fill="#E6D53C" transform="translate(243,566)"/>
<path d="M0 0 C2.56653603 2.23177046 3.40656733 3.6711253 4 7 C4.09278598 9.18592844 4.12997814 11.37460887 4.125 13.5625 C4.12757813 14.69816406 4.13015625 15.83382812 4.1328125 17.00390625 C4 20 4 20 3 23 C0.9375 23.6875 0.9375 23.6875 -1 24 C-0.67515625 23.14728516 -0.67515625 23.14728516 -0.34375 22.27734375 C2.56709895 14.20512837 2.29611012 8.1798923 0 0 Z " fill="#1C1F3D" transform="translate(787,544)"/>
<path d="M0 0 C0 3 0 3 -2.3125 5.375 C-3.199375 6.24125 -4.08625 7.1075 -5 8 C-6.01187895 9.65948148 -7.0126546 11.32580562 -8 13 C-10.0625 15.3125 -10.0625 15.3125 -12 17 C-12.66 17 -13.32 17 -14 17 C-12.70396588 14.17131143 -11.30810402 12.0298979 -9.1796875 9.765625 C-8.64472656 9.19199219 -8.10976563 8.61835937 -7.55859375 8.02734375 C-7.00300781 7.44082031 -6.44742188 6.85429688 -5.875 6.25 C-5.31167969 5.64800781 -4.74835937 5.04601562 -4.16796875 4.42578125 C-2.78275854 2.94665849 -1.3919271 1.47280359 0 0 Z " fill="#F9E73C" transform="translate(676,573)"/>
<path d="M0 0 C1.26706235 3.80118706 0.57172296 5.3850372 -1 9 C-1.99 9.33 -2.98 9.66 -4 10 C-4.6837045 11.32467746 -5.34964186 12.65863633 -6 14 C-6.99 14.66 -7.98 15.32 -9 16 C-7.30947142 12.49371851 -5.31590972 9.27361517 -3.21875 6 C-2.02744311 4.04503484 -0.99381218 2.06124007 0 0 Z " fill="#D6EFF6" transform="translate(339,261)"/>
<path d="M0 0 C0.671875 1.68359375 0.671875 1.68359375 1 4 C-0.109375 6.47265625 -0.109375 6.47265625 -1.75 9.0625 C-2.28109375 9.91972656 -2.8121875 10.77695312 -3.359375 11.66015625 C-4.77979959 13.68595227 -6.18457571 15.33221563 -8 17 C-6.3341708 10.83643195 -3.12194714 5.51740344 0 0 Z " fill="#FEC922" transform="translate(904,703)"/>
<path d="M0 0 C0.99 0 1.98 0 3 0 C3.185625 0.680625 3.37125 1.36125 3.5625 2.0625 C5.58082253 6.18689821 8.66287393 8.90378945 12 12 C9 12 9 12 7.24609375 10.64453125 C1.24525231 4.56592512 1.24525231 4.56592512 0 0 Z " fill="#26253D" transform="translate(316,565)"/>
<path d="M0 0 C0.33 0.66 0.66 1.32 1 2 C-2.625 7.75 -2.625 7.75 -6 10 C-6.99 10 -7.98 10 -9 10 C-9 9.01 -9 8.02 -9 7 C-7.6078125 6.6596875 -7.6078125 6.6596875 -6.1875 6.3125 C-2.49280817 4.7911563 -1.67517239 3.53647504 0 0 Z " fill="#27263D" transform="translate(698,483)"/>
<path d="M0 0 C0.66 0.33 1.32 0.66 2 1 C-3.0940919 7.86214442 -3.0940919 7.86214442 -6.875 8.4375 C-7.57625 8.293125 -8.2775 8.14875 -9 8 C-6.14723863 5.06799526 -3.34920216 2.35684596 0 0 Z " fill="#222121" transform="translate(471,183)"/>
<path d="M0 0 C7.48291572 6.15034169 7.48291572 6.15034169 10 10 C7.6875 9.8125 7.6875 9.8125 5 9 C3.3125 6.6875 3.3125 6.6875 2 4 C1.33429481 2.66618636 0.66780311 1.33276451 0 0 Z " fill="#F0E13B" transform="translate(483,574)"/>
<path d="M0 0 C3.375 0.25 3.375 0.25 7 1 C8.3125 3 8.3125 3 9 5 C9.66 5.33 10.32 5.66 11 6 C10.67 6.66 10.34 7.32 10 8 C8.33055479 6.85821872 6.6645052 5.71147095 5 4.5625 C4.071875 3.92441406 3.14375 3.28632813 2.1875 2.62890625 C1.465625 2.09136719 0.74375 1.55382812 0 1 C0 0.67 0 0.34 0 0 Z " fill="#F7E53D" transform="translate(681,431)"/>
<path d="M0 0 C-2.93828597 2.50298434 -5.17902761 3.46930939 -9 4 C-9 3.34 -9 2.68 -9 2 C-8.01 2 -7.02 2 -6 2 C-6 1.34 -6 0.68 -6 0 C-3.50907189 -1.24546405 -2.58919267 -0.7767578 0 0 Z " fill="#C9E4EE" transform="translate(525,838)"/>
<path d="M0 0 C2.475 0.495 2.475 0.495 5 1 C5.66 3.64 6.32 6.28 7 9 C4.03595495 6.19195732 1.55500981 3.81684226 0 0 Z " fill="#FDCA26" transform="translate(143,796)"/>
<path d="M0 0 C0 3 0 3 -1.3125 4.38671875 C-2.875 5.59114583 -4.4375 6.79557292 -6 8 C-6.66 7.67 -7.32 7.34 -8 7 C-7.67 6.01 -7.34 5.02 -7 4 C-5.35448038 3.28272222 -3.68577711 2.61674772 -2 2 C-1.34 1.34 -0.68 0.68 0 0 Z " fill="#242220" transform="translate(775,724)"/>
<path d="M0 0 C0.99 0.66 1.98 1.32 3 2 C2.2884375 2.804375 2.2884375 2.804375 1.5625 3.625 C-0.28186076 6.42842836 -0.62456847 8.69620258 -1 12 C-1.33 12 -1.66 12 -2 12 C-2.17835515 7.45194365 -1.99785435 4.1205746 0 0 Z " fill="#F2CA3F" transform="translate(219,572)"/>
<path d="M0 0 C2 3 2 3 1.75 5.5 C1 8 1 8 -1 11 C-1.14285714 3.57142857 -1.14285714 3.57142857 0 0 Z " fill="#FDC722" transform="translate(54,429)"/>
<path d="M0 0 C-0.9590625 0.1546875 -0.9590625 0.1546875 -1.9375 0.3125 C-2.618125 0.539375 -3.29875 0.76625 -4 1 C-4.33 1.99 -4.66 2.98 -5 4 C-5.99 3.67 -6.98 3.34 -8 3 C-8.99 3.495 -8.99 3.495 -10 4 C-9.67 3.01 -9.34 2.02 -9 1 C-6.04335481 -0.4783226 -3.25770263 -0.06032783 0 0 Z " fill="#CEEEF8" transform="translate(364,235)"/>
<path d="M0 0 C0.66 0.33 1.32 0.66 2 1 C-1.32307692 5.8 -1.32307692 5.8 -4.75 6.8125 C-5.4925 6.874375 -6.235 6.93625 -7 7 C-4.66666667 4.66666667 -2.33333333 2.33333333 0 0 Z " fill="#FEC923" transform="translate(225,141)"/>
<path d="M0 0 C0.33 0.66 0.66 1.32 1 2 C-0.75 4.0625 -0.75 4.0625 -3 6 C-4.32 5.67 -5.64 5.34 -7 5 C-4.69 3.35 -2.38 1.7 0 0 Z " fill="#242322" transform="translate(554,815)"/>
<path d="M0 0 C0.99 0 1.98 0 3 0 C2.75 1.875 2.75 1.875 2 4 C-0.0625 5.25 -0.0625 5.25 -2 6 C-1.34 4.02 -0.68 2.04 0 0 Z " fill="#F2D83D" transform="translate(699,483)"/>
<path d="M0 0 C0.28875 0.639375 0.5775 1.27875 0.875 1.9375 C1.82823451 4.15206079 1.82823451 4.15206079 4 5 C2.02 5.99 2.02 5.99 0 7 C-0.93423645 3.98968256 -1.04449911 3.13349732 0 0 Z " fill="#BBDCEE" transform="translate(340,256)"/>
</svg>
